%TF.GenerationSoftware,KiCad,Pcbnew,(6.0.5)*%
%TF.CreationDate,2022-07-17T14:54:14-06:00*%
%TF.ProjectId,kb,6b622e6b-6963-4616-945f-706362585858,rev?*%
%TF.SameCoordinates,Original*%
%TF.FileFunction,Soldermask,Top*%
%TF.FilePolarity,Negative*%
%FSLAX46Y46*%
G04 Gerber Fmt 4.6, Leading zero omitted, Abs format (unit mm)*
G04 Created by KiCad (PCBNEW (6.0.5)) date 2022-07-17 14:54:14*
%MOMM*%
%LPD*%
G01*
G04 APERTURE LIST*
%ADD10C,3.987800*%
%ADD11C,1.750000*%
%ADD12C,3.000000*%
%ADD13R,1.700000X1.700000*%
%ADD14O,1.700000X1.700000*%
%ADD15O,3.200000X2.000000*%
%ADD16R,2.000000X2.000000*%
%ADD17C,2.000000*%
%ADD18C,3.048000*%
%ADD19C,1.950000*%
G04 APERTURE END LIST*
D10*
%TO.C,MX22*%
X132556250Y-109537500D03*
D11*
X127476250Y-109537500D03*
D12*
X135096250Y-104457500D03*
D11*
X137636250Y-109537500D03*
D12*
X128746250Y-106997500D03*
%TD*%
D11*
%TO.C,MX14*%
X141763750Y-90487500D03*
X151923750Y-90487500D03*
D10*
X146843750Y-90487500D03*
D12*
X143033750Y-87947500D03*
X149383750Y-85407500D03*
%TD*%
D11*
%TO.C,MX2*%
X80486250Y-66675000D03*
D12*
X71596250Y-64135000D03*
D11*
X70326250Y-66675000D03*
D10*
X75406250Y-66675000D03*
D12*
X77946250Y-61595000D03*
%TD*%
D13*
%TO.C,J6*%
X87884000Y-95758000D03*
D14*
X87884000Y-98298000D03*
X87884000Y-100838000D03*
X87884000Y-103378000D03*
X87884000Y-105918000D03*
X87884000Y-108458000D03*
%TD*%
D11*
%TO.C,MX24*%
X175736250Y-109537500D03*
D10*
X170656250Y-109537500D03*
D11*
X165576250Y-109537500D03*
D12*
X166846250Y-106997500D03*
X173196250Y-104457500D03*
%TD*%
D15*
%TO.C,SW1*%
X32543750Y-61075000D03*
X32543750Y-72275000D03*
D16*
X40043750Y-69175000D03*
D17*
X40043750Y-64175000D03*
X40043750Y-66675000D03*
X25543750Y-64175000D03*
X25543750Y-69175000D03*
%TD*%
D11*
%TO.C,MX34*%
X204311250Y-128587500D03*
D12*
X201771250Y-123507500D03*
D10*
X199231250Y-128587500D03*
D11*
X194151250Y-128587500D03*
D12*
X195421250Y-126047500D03*
%TD*%
D13*
%TO.C,J5*%
X186436000Y-149733000D03*
D14*
X188976000Y-149733000D03*
X191516000Y-149733000D03*
X194056000Y-149733000D03*
X196596000Y-149733000D03*
X199136000Y-149733000D03*
X201676000Y-149733000D03*
%TD*%
D12*
%TO.C,MX15*%
X168433750Y-85407500D03*
D11*
X170973750Y-90487500D03*
X160813750Y-90487500D03*
D12*
X162083750Y-87947500D03*
D10*
X165893750Y-90487500D03*
%TD*%
D11*
%TO.C,MX43*%
X213836250Y-147637500D03*
D18*
X220694250Y-154622500D03*
X196818250Y-154622500D03*
D12*
X204946250Y-145097500D03*
D10*
X220694250Y-139382500D03*
D12*
X211296250Y-142557500D03*
D10*
X196818250Y-139382500D03*
D11*
X203676250Y-147637500D03*
D10*
X208756250Y-147637500D03*
%TD*%
D11*
%TO.C,MX18*%
X32226250Y-109537500D03*
D12*
X39846250Y-104457500D03*
X33496250Y-106997500D03*
D11*
X42386250Y-109537500D03*
D10*
X37306250Y-109537500D03*
%TD*%
D11*
%TO.C,MX7*%
X180498750Y-71437500D03*
X170338750Y-71437500D03*
D10*
X175418750Y-71437500D03*
D12*
X177958750Y-66357500D03*
X171608750Y-68897500D03*
%TD*%
D13*
%TO.C,J3*%
X37782500Y-53467000D03*
D14*
X40322500Y-53467000D03*
X42862500Y-53467000D03*
X45402500Y-53467000D03*
X47942500Y-53467000D03*
%TD*%
D12*
%TO.C,MX26*%
X211296250Y-104457500D03*
D11*
X213836250Y-109537500D03*
D10*
X208756250Y-109537500D03*
D12*
X204946250Y-106997500D03*
D11*
X203676250Y-109537500D03*
%TD*%
%TO.C,MX10*%
X61436250Y-90487500D03*
D12*
X58896250Y-85407500D03*
X52546250Y-87947500D03*
D10*
X56356250Y-90487500D03*
D11*
X51276250Y-90487500D03*
%TD*%
%TO.C,MX11*%
X80486250Y-90487500D03*
X70326250Y-90487500D03*
D12*
X71596250Y-87947500D03*
X77946250Y-85407500D03*
D10*
X75406250Y-90487500D03*
%TD*%
D11*
%TO.C,MX27*%
X32226250Y-128587500D03*
D12*
X33496250Y-126047500D03*
X39846250Y-123507500D03*
D11*
X42386250Y-128587500D03*
D10*
X37306250Y-128587500D03*
%TD*%
D11*
%TO.C,MX25*%
X194786250Y-109537500D03*
D12*
X192246250Y-104457500D03*
D11*
X184626250Y-109537500D03*
D10*
X189706250Y-109537500D03*
D12*
X185896250Y-106997500D03*
%TD*%
%TO.C,MX21*%
X110172500Y-112077500D03*
X103822500Y-114617500D03*
D11*
X111442500Y-109537500D03*
D10*
X106362500Y-109537500D03*
D11*
X101282500Y-109537500D03*
%TD*%
%TO.C,MX37*%
X61436250Y-147637500D03*
X51276250Y-147637500D03*
D12*
X52546250Y-145097500D03*
X58896250Y-142557500D03*
D10*
X56356250Y-147637500D03*
%TD*%
D11*
%TO.C,MX13*%
X132873750Y-90487500D03*
X122713750Y-90487500D03*
D12*
X130333750Y-85407500D03*
X123983750Y-87947500D03*
D10*
X127793750Y-90487500D03*
%TD*%
D12*
%TO.C,MX35*%
X214471250Y-126047500D03*
X220821250Y-123507500D03*
D11*
X213201250Y-128587500D03*
D10*
X218281250Y-128587500D03*
D11*
X223361250Y-128587500D03*
%TD*%
D12*
%TO.C,MX28*%
X58896250Y-123507500D03*
D11*
X51276250Y-128587500D03*
X61436250Y-128587500D03*
D10*
X56356250Y-128587500D03*
D12*
X52546250Y-126047500D03*
%TD*%
D11*
%TO.C,MX21_1*%
X106680000Y-109537500D03*
D10*
X101600000Y-109537500D03*
D12*
X104140000Y-104457500D03*
X97790000Y-106997500D03*
D11*
X96520000Y-109537500D03*
%TD*%
D12*
%TO.C,MX3*%
X101758750Y-66357500D03*
D11*
X94138750Y-71437500D03*
D10*
X99218750Y-71437500D03*
D12*
X95408750Y-68897500D03*
D11*
X104298750Y-71437500D03*
%TD*%
D13*
%TO.C,J4*%
X84587000Y-131064000D03*
D14*
X87127000Y-131064000D03*
X89667000Y-131064000D03*
X92207000Y-131064000D03*
X94747000Y-131064000D03*
X97287000Y-131064000D03*
X99827000Y-131064000D03*
X102367000Y-131064000D03*
X104907000Y-131064000D03*
X107447000Y-131064000D03*
%TD*%
D12*
%TO.C,MX9*%
X39846250Y-85407500D03*
X33496250Y-87947500D03*
D10*
X37306250Y-90487500D03*
D11*
X42386250Y-90487500D03*
X32226250Y-90487500D03*
%TD*%
D12*
%TO.C,MX1*%
X58896250Y-61595000D03*
D11*
X61436250Y-66675000D03*
D12*
X52546250Y-64135000D03*
D11*
X51276250Y-66675000D03*
D10*
X56356250Y-66675000D03*
%TD*%
D12*
%TO.C,MX32*%
X163671250Y-123507500D03*
X157321250Y-126047500D03*
D10*
X161131250Y-128587500D03*
D11*
X156051250Y-128587500D03*
X166211250Y-128587500D03*
%TD*%
D10*
%TO.C,MX40*%
X130175000Y-147637500D03*
D11*
X125095000Y-147637500D03*
D12*
X132715000Y-142557500D03*
D11*
X135255000Y-147637500D03*
D12*
X126365000Y-145097500D03*
%TD*%
%TO.C,MX5*%
X133508750Y-68897500D03*
D10*
X137318750Y-71437500D03*
D12*
X139858750Y-66357500D03*
D11*
X132238750Y-71437500D03*
X142398750Y-71437500D03*
%TD*%
%TO.C,MX39*%
X98901250Y-147637500D03*
D10*
X103981250Y-147637500D03*
D11*
X109061250Y-147637500D03*
D12*
X100171250Y-145097500D03*
X106521250Y-142557500D03*
%TD*%
D11*
%TO.C,MX16*%
X190023750Y-90487500D03*
D10*
X184943750Y-90487500D03*
D12*
X187483750Y-85407500D03*
D11*
X179863750Y-90487500D03*
D12*
X181133750Y-87947500D03*
%TD*%
D11*
%TO.C,MX38*%
X70326250Y-147637500D03*
D10*
X75406250Y-147637500D03*
D11*
X80486250Y-147637500D03*
D12*
X71596250Y-145097500D03*
X77946250Y-142557500D03*
%TD*%
%TO.C,MX31*%
X138271250Y-126047500D03*
D11*
X147161250Y-128587500D03*
X137001250Y-128587500D03*
D12*
X144621250Y-123507500D03*
D10*
X142081250Y-128587500D03*
%TD*%
D11*
%TO.C,MX8*%
X199548750Y-71437500D03*
D10*
X194468750Y-71437500D03*
D11*
X189388750Y-71437500D03*
D12*
X197008750Y-66357500D03*
X190658750Y-68897500D03*
%TD*%
%TO.C,MX41*%
X156527500Y-142557500D03*
D10*
X153987500Y-147637500D03*
D11*
X159067500Y-147637500D03*
X148907500Y-147637500D03*
D12*
X150177500Y-145097500D03*
%TD*%
%TO.C,MX20*%
X71596250Y-106997500D03*
D11*
X70326250Y-109537500D03*
D12*
X77946250Y-104457500D03*
D10*
X75406250Y-109537500D03*
D11*
X80486250Y-109537500D03*
%TD*%
%TO.C,MX17*%
X209073750Y-90487500D03*
D10*
X203993750Y-90487500D03*
D11*
X198913750Y-90487500D03*
D12*
X200183750Y-87947500D03*
X206533750Y-85407500D03*
%TD*%
%TO.C,MX4*%
X114458750Y-68897500D03*
D11*
X123348750Y-71437500D03*
D10*
X118268750Y-71437500D03*
D12*
X120808750Y-66357500D03*
D11*
X113188750Y-71437500D03*
%TD*%
%TO.C,MX42*%
X172720000Y-147637500D03*
X182880000Y-147637500D03*
D12*
X173990000Y-145097500D03*
D10*
X177800000Y-147637500D03*
D12*
X180340000Y-142557500D03*
%TD*%
D13*
%TO.C,J1*%
X88646000Y-44577000D03*
D14*
X91186000Y-44577000D03*
X88646000Y-47117000D03*
X91186000Y-47117000D03*
X88646000Y-49657000D03*
X91186000Y-49657000D03*
X88646000Y-52197000D03*
X91186000Y-52197000D03*
%TD*%
D11*
%TO.C,MX23*%
X156686250Y-109537500D03*
D10*
X151606250Y-109537500D03*
D11*
X146526250Y-109537500D03*
D12*
X147796250Y-106997500D03*
X154146250Y-104457500D03*
%TD*%
%TO.C,MX33*%
X182721250Y-123507500D03*
D11*
X185261250Y-128587500D03*
X175101250Y-128587500D03*
D10*
X180181250Y-128587500D03*
D12*
X176371250Y-126047500D03*
%TD*%
%TO.C,MX36*%
X39846250Y-142557500D03*
X33496250Y-145097500D03*
D11*
X42386250Y-147637500D03*
X32226250Y-147637500D03*
D10*
X37306250Y-147637500D03*
%TD*%
D11*
%TO.C,MX12*%
X109061250Y-90487500D03*
D10*
X103981250Y-90487500D03*
D12*
X106521250Y-85407500D03*
D11*
X98901250Y-90487500D03*
D12*
X100171250Y-87947500D03*
%TD*%
D11*
%TO.C,MX30*%
X116205000Y-128587500D03*
D10*
X111125000Y-128587500D03*
X123063000Y-136842500D03*
D18*
X123063000Y-121602500D03*
D10*
X99187000Y-136842500D03*
D12*
X113665000Y-123507500D03*
X107315000Y-126047500D03*
D18*
X99187000Y-121602500D03*
D11*
X106045000Y-128587500D03*
%TD*%
D10*
%TO.C,MX29*%
X75406250Y-128587500D03*
D12*
X71596250Y-126047500D03*
D11*
X80486250Y-128587500D03*
X70326250Y-128587500D03*
D12*
X77946250Y-123507500D03*
%TD*%
D10*
%TO.C,MX19*%
X56356250Y-109537500D03*
D11*
X61436250Y-109537500D03*
X51276250Y-109537500D03*
D12*
X52546250Y-106997500D03*
X58896250Y-104457500D03*
%TD*%
D11*
%TO.C,MX6*%
X151288750Y-71437500D03*
D12*
X152558750Y-68897500D03*
D11*
X161448750Y-71437500D03*
D12*
X158908750Y-66357500D03*
D10*
X156368750Y-71437500D03*
%TD*%
D12*
%TO.C,MX44*%
X216058750Y-66357500D03*
D10*
X213518750Y-71437500D03*
D12*
X209708750Y-68897500D03*
D11*
X218598750Y-71437500D03*
X208438750Y-71437500D03*
%TD*%
D14*
%TO.C,U1*%
X37782500Y-57785000D03*
X40322500Y-57785000D03*
D13*
X42862500Y-57785000D03*
D14*
X45402500Y-57785000D03*
X47942500Y-57785000D03*
X50482500Y-57785000D03*
X53022500Y-57785000D03*
D13*
X55562500Y-57785000D03*
D14*
X58102500Y-57785000D03*
X60642500Y-57785000D03*
X63182500Y-57785000D03*
X65722500Y-57785000D03*
D13*
X68262500Y-57785000D03*
D14*
X70802500Y-57785000D03*
X73342500Y-57785000D03*
X75882500Y-57785000D03*
X78422500Y-57785000D03*
D13*
X80962500Y-57785000D03*
D14*
X83502500Y-57785000D03*
X86042500Y-57785000D03*
X86042500Y-75565000D03*
X83502500Y-75565000D03*
D13*
X80962500Y-75565000D03*
D14*
X78422500Y-75565000D03*
X75882500Y-75565000D03*
X73342500Y-75565000D03*
X70802500Y-75565000D03*
D13*
X68262500Y-75565000D03*
D14*
X65722500Y-75565000D03*
X63182500Y-75565000D03*
X60642500Y-75565000D03*
X58102500Y-75565000D03*
D13*
X55562500Y-75565000D03*
D14*
X53022500Y-75565000D03*
X50482500Y-75565000D03*
X47942500Y-75565000D03*
X45402500Y-75565000D03*
D13*
X42862500Y-75565000D03*
D14*
X40322500Y-75565000D03*
X37782500Y-75565000D03*
%TD*%
D19*
%TO.C,J2*%
X101240750Y-59637500D03*
X101240750Y-45137500D03*
X106140750Y-44537500D03*
X106140750Y-60237500D03*
%TD*%
M02*
