0
SECTION
2
HEADER
9
$INSUNITS
70
4
0
ENDSEC
0
SECTION
2
TABLES
0
TABLE
2
LTYPE
0
LTYPE
72
65
70
64
2
CONTINUOUS
3
______
73
0
40
0
0
ENDTAB
0
TABLE
2
LAYER
0
ENDTAB
0
ENDSEC
0
SECTION
2
ENTITIES
0
LINE
8
0
10
3.025
20
-2.525
11
16.025
21
-2.525
0
LINE
8
0
10
3.025
20
-16.525
11
16.025
21
-16.525
0
LINE
8
0
10
2.525
20
-3.025
11
2.525
21
-16.025
0
LINE
8
0
10
16.525
20
-3.025
11
16.525
21
-16.025
0
ARC
8
0
10
3.025
20
-3.025
40
0.5
50
90
51
180
0
ARC
8
0
10
16.025
20
-3.025
40
0.5
50
0
51
90
0
ARC
8
0
10
3.025
20
-16.025
40
0.5
50
180
51
270
0
ARC
8
0
10
16.025
20
-16.025
40
0.5
50
270
51
0
0
LINE
8
0
10
26.8375
20
-2.525
11
39.8375
21
-2.525
0
LINE
8
0
10
26.8375
20
-16.525
11
39.8375
21
-16.525
0
LINE
8
0
10
26.3375
20
-3.025
11
26.3375
21
-16.025
0
LINE
8
0
10
40.3375
20
-3.025
11
40.3375
21
-16.025
0
ARC
8
0
10
26.8375
20
-3.025
40
0.5
50
90
51
180
0
ARC
8
0
10
39.8375
20
-3.025
40
0.5
50
0
51
90
0
ARC
8
0
10
26.8375
20
-16.025
40
0.5
50
180
51
270
0
ARC
8
0
10
39.8375
20
-16.025
40
0.5
50
270
51
0
0
LINE
8
0
10
45.8875
20
-2.525
11
58.8875
21
-2.525
0
LINE
8
0
10
45.8875
20
-16.525
11
58.8875
21
-16.525
0
LINE
8
0
10
45.3875
20
-3.025
11
45.3875
21
-16.025
0
LINE
8
0
10
59.3875
20
-3.025
11
59.3875
21
-16.025
0
ARC
8
0
10
45.8875
20
-3.025
40
0.5
50
90
51
180
0
ARC
8
0
10
58.8875
20
-3.025
40
0.5
50
0
51
90
0
ARC
8
0
10
45.8875
20
-16.025
40
0.5
50
180
51
270
0
ARC
8
0
10
58.8875
20
-16.025
40
0.5
50
270
51
0
0
LINE
8
0
10
360.2125
20
-2.525
11
373.2125
21
-2.525
0
LINE
8
0
10
360.2125
20
-16.525
11
373.2125
21
-16.525
0
LINE
8
0
10
359.7125
20
-3.025
11
359.7125
21
-16.025
0
LINE
8
0
10
373.7125
20
-3.025
11
373.7125
21
-16.025
0
ARC
8
0
10
360.2125
20
-3.025
40
0.5
50
90
51
180
0
ARC
8
0
10
373.2125
20
-3.025
40
0.5
50
0
51
90
0
ARC
8
0
10
360.2125
20
-16.025
40
0.5
50
180
51
270
0
ARC
8
0
10
373.2125
20
-16.025
40
0.5
50
270
51
0
0
LINE
8
0
10
384.025
20
-2.525
11
397.025
21
-2.525
0
LINE
8
0
10
384.025
20
-16.525
11
397.025
21
-16.525
0
LINE
8
0
10
383.525
20
-3.025
11
383.525
21
-16.025
0
LINE
8
0
10
397.525
20
-3.025
11
397.525
21
-16.025
0
ARC
8
0
10
384.025
20
-3.025
40
0.5
50
90
51
180
0
ARC
8
0
10
397.025
20
-3.025
40
0.5
50
0
51
90
0
ARC
8
0
10
384.025
20
-16.025
40
0.5
50
180
51
270
0
ARC
8
0
10
397.025
20
-16.025
40
0.5
50
270
51
0
0
LINE
8
0
10
69.7
20
-7.2875
11
82.7
21
-7.2875
0
LINE
8
0
10
69.7
20
-21.2875
11
82.7
21
-21.2875
0
LINE
8
0
10
69.2
20
-7.7875
11
69.2
21
-20.7875
0
LINE
8
0
10
83.2
20
-7.7875
11
83.2
21
-20.7875
0
ARC
8
0
10
69.7
20
-7.7875
40
0.5
50
90
51
180
0
ARC
8
0
10
82.7
20
-7.7875
40
0.5
50
0
51
90
0
ARC
8
0
10
69.7
20
-20.7875
40
0.5
50
180
51
270
0
ARC
8
0
10
82.7
20
-20.7875
40
0.5
50
270
51
0
0
LINE
8
0
10
88.75
20
-7.2875
11
101.75
21
-7.2875
0
LINE
8
0
10
88.75
20
-21.2875
11
101.75
21
-21.2875
0
LINE
8
0
10
88.25
20
-7.7875
11
88.25
21
-20.7875
0
LINE
8
0
10
102.25
20
-7.7875
11
102.25
21
-20.7875
0
ARC
8
0
10
88.75
20
-7.7875
40
0.5
50
90
51
180
0
ARC
8
0
10
101.75
20
-7.7875
40
0.5
50
0
51
90
0
ARC
8
0
10
88.75
20
-20.7875
40
0.5
50
180
51
270
0
ARC
8
0
10
101.75
20
-20.7875
40
0.5
50
270
51
0
0
LINE
8
0
10
107.8
20
-7.2875
11
120.8
21
-7.2875
0
LINE
8
0
10
107.8
20
-21.2875
11
120.8
21
-21.2875
0
LINE
8
0
10
107.3
20
-7.7875
11
107.3
21
-20.7875
0
LINE
8
0
10
121.3
20
-7.7875
11
121.3
21
-20.7875
0
ARC
8
0
10
107.8
20
-7.7875
40
0.5
50
90
51
180
0
ARC
8
0
10
120.8
20
-7.7875
40
0.5
50
0
51
90
0
ARC
8
0
10
107.8
20
-20.7875
40
0.5
50
180
51
270
0
ARC
8
0
10
120.8
20
-20.7875
40
0.5
50
270
51
0
0
LINE
8
0
10
126.85
20
-7.2875
11
139.85
21
-7.2875
0
LINE
8
0
10
126.85
20
-21.2875
11
139.85
21
-21.2875
0
LINE
8
0
10
126.35
20
-7.7875
11
126.35
21
-20.7875
0
LINE
8
0
10
140.35
20
-7.7875
11
140.35
21
-20.7875
0
ARC
8
0
10
126.85
20
-7.7875
40
0.5
50
90
51
180
0
ARC
8
0
10
139.85
20
-7.7875
40
0.5
50
0
51
90
0
ARC
8
0
10
126.85
20
-20.7875
40
0.5
50
180
51
270
0
ARC
8
0
10
139.85
20
-20.7875
40
0.5
50
270
51
0
0
LINE
8
0
10
145.9
20
-7.2875
11
158.9
21
-7.2875
0
LINE
8
0
10
145.9
20
-21.2875
11
158.9
21
-21.2875
0
LINE
8
0
10
145.4
20
-7.7875
11
145.4
21
-20.7875
0
LINE
8
0
10
159.4
20
-7.7875
11
159.4
21
-20.7875
0
ARC
8
0
10
145.9
20
-7.7875
40
0.5
50
90
51
180
0
ARC
8
0
10
158.9
20
-7.7875
40
0.5
50
0
51
90
0
ARC
8
0
10
145.9
20
-20.7875
40
0.5
50
180
51
270
0
ARC
8
0
10
158.9
20
-20.7875
40
0.5
50
270
51
0
0
LINE
8
0
10
164.95
20
-7.2875
11
177.95
21
-7.2875
0
LINE
8
0
10
164.95
20
-21.2875
11
177.95
21
-21.2875
0
LINE
8
0
10
164.45
20
-7.7875
11
164.45
21
-20.7875
0
LINE
8
0
10
178.45
20
-7.7875
11
178.45
21
-20.7875
0
ARC
8
0
10
164.95
20
-7.7875
40
0.5
50
90
51
180
0
ARC
8
0
10
177.95
20
-7.7875
40
0.5
50
0
51
90
0
ARC
8
0
10
164.95
20
-20.7875
40
0.5
50
180
51
270
0
ARC
8
0
10
177.95
20
-20.7875
40
0.5
50
270
51
0
0
LINE
8
0
10
184
20
-7.2875
11
197
21
-7.2875
0
LINE
8
0
10
184
20
-21.2875
11
197
21
-21.2875
0
LINE
8
0
10
183.5
20
-7.7875
11
183.5
21
-20.7875
0
LINE
8
0
10
197.5
20
-7.7875
11
197.5
21
-20.7875
0
ARC
8
0
10
184
20
-7.7875
40
0.5
50
90
51
180
0
ARC
8
0
10
197
20
-7.7875
40
0.5
50
0
51
90
0
ARC
8
0
10
184
20
-20.7875
40
0.5
50
180
51
270
0
ARC
8
0
10
197
20
-20.7875
40
0.5
50
270
51
0
0
LINE
8
0
10
203.05
20
-7.2875
11
216.05
21
-7.2875
0
LINE
8
0
10
203.05
20
-21.2875
11
216.05
21
-21.2875
0
LINE
8
0
10
202.55
20
-7.7875
11
202.55
21
-20.7875
0
LINE
8
0
10
216.55
20
-7.7875
11
216.55
21
-20.7875
0
ARC
8
0
10
203.05
20
-7.7875
40
0.5
50
90
51
180
0
ARC
8
0
10
216.05
20
-7.7875
40
0.5
50
0
51
90
0
ARC
8
0
10
203.05
20
-20.7875
40
0.5
50
180
51
270
0
ARC
8
0
10
216.05
20
-20.7875
40
0.5
50
270
51
0
0
LINE
8
0
10
222.1
20
-7.2875
11
235.1
21
-7.2875
0
LINE
8
0
10
222.1
20
-21.2875
11
235.1
21
-21.2875
0
LINE
8
0
10
221.6
20
-7.7875
11
221.6
21
-20.7875
0
LINE
8
0
10
235.6
20
-7.7875
11
235.6
21
-20.7875
0
ARC
8
0
10
222.1
20
-7.7875
40
0.5
50
90
51
180
0
ARC
8
0
10
235.1
20
-7.7875
40
0.5
50
0
51
90
0
ARC
8
0
10
222.1
20
-20.7875
40
0.5
50
180
51
270
0
ARC
8
0
10
235.1
20
-20.7875
40
0.5
50
270
51
0
0
LINE
8
0
10
241.15
20
-7.2875
11
254.15
21
-7.2875
0
LINE
8
0
10
241.15
20
-21.2875
11
254.15
21
-21.2875
0
LINE
8
0
10
240.65
20
-7.7875
11
240.65
21
-20.7875
0
LINE
8
0
10
254.65
20
-7.7875
11
254.65
21
-20.7875
0
ARC
8
0
10
241.15
20
-7.7875
40
0.5
50
90
51
180
0
ARC
8
0
10
254.15
20
-7.7875
40
0.5
50
0
51
90
0
ARC
8
0
10
241.15
20
-20.7875
40
0.5
50
180
51
270
0
ARC
8
0
10
254.15
20
-20.7875
40
0.5
50
270
51
0
0
LINE
8
0
10
260.2
20
-7.2875
11
273.2
21
-7.2875
0
LINE
8
0
10
260.2
20
-21.2875
11
273.2
21
-21.2875
0
LINE
8
0
10
259.7
20
-7.7875
11
259.7
21
-20.7875
0
LINE
8
0
10
273.7
20
-7.7875
11
273.7
21
-20.7875
0
ARC
8
0
10
260.2
20
-7.7875
40
0.5
50
90
51
180
0
ARC
8
0
10
273.2
20
-7.7875
40
0.5
50
0
51
90
0
ARC
8
0
10
260.2
20
-20.7875
40
0.5
50
180
51
270
0
ARC
8
0
10
273.2
20
-20.7875
40
0.5
50
270
51
0
0
LINE
8
0
10
279.25
20
-7.2875
11
292.25
21
-7.2875
0
LINE
8
0
10
279.25
20
-21.2875
11
292.25
21
-21.2875
0
LINE
8
0
10
278.75
20
-7.7875
11
278.75
21
-20.7875
0
LINE
8
0
10
292.75
20
-7.7875
11
292.75
21
-20.7875
0
ARC
8
0
10
279.25
20
-7.7875
40
0.5
50
90
51
180
0
ARC
8
0
10
292.25
20
-7.7875
40
0.5
50
0
51
90
0
ARC
8
0
10
279.25
20
-20.7875
40
0.5
50
180
51
270
0
ARC
8
0
10
292.25
20
-20.7875
40
0.5
50
270
51
0
0
LINE
8
0
10
298.3
20
-7.2875
11
311.3
21
-7.2875
0
LINE
8
0
10
298.3
20
-21.2875
11
311.3
21
-21.2875
0
LINE
8
0
10
297.8
20
-7.7875
11
297.8
21
-20.7875
0
LINE
8
0
10
311.8
20
-7.7875
11
311.8
21
-20.7875
0
ARC
8
0
10
298.3
20
-7.7875
40
0.5
50
90
51
180
0
ARC
8
0
10
311.3
20
-7.7875
40
0.5
50
0
51
90
0
ARC
8
0
10
298.3
20
-20.7875
40
0.5
50
180
51
270
0
ARC
8
0
10
311.3
20
-20.7875
40
0.5
50
270
51
0
0
LINE
8
0
10
326.875
20
-7.2875
11
339.875
21
-7.2875
0
LINE
8
0
10
326.875
20
-21.2875
11
339.875
21
-21.2875
0
LINE
8
0
10
326.375
20
-7.7875
11
326.375
21
-20.7875
0
LINE
8
0
10
340.375
20
-7.7875
11
340.375
21
-20.7875
0
ARC
8
0
10
326.875
20
-7.7875
40
0.5
50
90
51
180
0
ARC
8
0
10
339.875
20
-7.7875
40
0.5
50
0
51
90
0
ARC
8
0
10
326.875
20
-20.7875
40
0.5
50
180
51
270
0
ARC
8
0
10
339.875
20
-20.7875
40
0.5
50
270
51
0
0
LINE
8
0
10
318.437
20
-8.2875
11
324.437
21
-8.2875
0
LINE
8
0
10
318.437
20
-23.2875
11
324.437
21
-23.2875
0
LINE
8
0
10
317.937
20
-8.7875
11
317.937
21
-22.7875
0
LINE
8
0
10
324.937
20
-8.7875
11
324.937
21
-22.7875
0
ARC
8
0
10
318.437
20
-8.7875
40
0.5
50
90
51
180
0
ARC
8
0
10
324.437
20
-8.7875
40
0.5
50
0
51
90
0
ARC
8
0
10
318.437
20
-22.7875
40
0.5
50
180
51
270
0
ARC
8
0
10
324.437
20
-22.7875
40
0.5
50
270
51
0
0
LINE
8
0
10
342.313
20
-8.2875
11
348.313
21
-8.2875
0
LINE
8
0
10
342.313
20
-23.2875
11
348.313
21
-23.2875
0
LINE
8
0
10
341.813
20
-8.7875
11
341.813
21
-22.7875
0
LINE
8
0
10
348.813
20
-8.7875
11
348.813
21
-22.7875
0
ARC
8
0
10
342.313
20
-8.7875
40
0.5
50
90
51
180
0
ARC
8
0
10
348.313
20
-8.7875
40
0.5
50
0
51
90
0
ARC
8
0
10
342.313
20
-22.7875
40
0.5
50
180
51
270
0
ARC
8
0
10
348.313
20
-22.7875
40
0.5
50
270
51
0
0
LINE
8
0
10
7.7875
20
-26.3375
11
20.7875
21
-26.3375
0
LINE
8
0
10
7.7875
20
-40.3375
11
20.7875
21
-40.3375
0
LINE
8
0
10
7.2875
20
-26.8375
11
7.2875
21
-39.8375
0
LINE
8
0
10
21.2875
20
-26.8375
11
21.2875
21
-39.8375
0
ARC
8
0
10
7.7875
20
-26.8375
40
0.5
50
90
51
180
0
ARC
8
0
10
20.7875
20
-26.8375
40
0.5
50
0
51
90
0
ARC
8
0
10
7.7875
20
-39.8375
40
0.5
50
180
51
270
0
ARC
8
0
10
20.7875
20
-39.8375
40
0.5
50
270
51
0
0
LINE
8
0
10
26.8375
20
-26.3375
11
39.8375
21
-26.3375
0
LINE
8
0
10
26.8375
20
-40.3375
11
39.8375
21
-40.3375
0
LINE
8
0
10
26.3375
20
-26.8375
11
26.3375
21
-39.8375
0
LINE
8
0
10
40.3375
20
-26.8375
11
40.3375
21
-39.8375
0
ARC
8
0
10
26.8375
20
-26.8375
40
0.5
50
90
51
180
0
ARC
8
0
10
39.8375
20
-26.8375
40
0.5
50
0
51
90
0
ARC
8
0
10
26.8375
20
-39.8375
40
0.5
50
180
51
270
0
ARC
8
0
10
39.8375
20
-39.8375
40
0.5
50
270
51
0
0
LINE
8
0
10
45.8875
20
-26.3375
11
58.8875
21
-26.3375
0
LINE
8
0
10
45.8875
20
-40.3375
11
58.8875
21
-40.3375
0
LINE
8
0
10
45.3875
20
-26.8375
11
45.3875
21
-39.8375
0
LINE
8
0
10
59.3875
20
-26.8375
11
59.3875
21
-39.8375
0
ARC
8
0
10
45.8875
20
-26.8375
40
0.5
50
90
51
180
0
ARC
8
0
10
58.8875
20
-26.8375
40
0.5
50
0
51
90
0
ARC
8
0
10
45.8875
20
-39.8375
40
0.5
50
180
51
270
0
ARC
8
0
10
58.8875
20
-39.8375
40
0.5
50
270
51
0
0
LINE
8
0
10
74.4625
20
-26.3375
11
87.4625
21
-26.3375
0
LINE
8
0
10
74.4625
20
-40.3375
11
87.4625
21
-40.3375
0
LINE
8
0
10
73.9625
20
-26.8375
11
73.9625
21
-39.8375
0
LINE
8
0
10
87.9625
20
-26.8375
11
87.9625
21
-39.8375
0
ARC
8
0
10
74.4625
20
-26.8375
40
0.5
50
90
51
180
0
ARC
8
0
10
87.4625
20
-26.8375
40
0.5
50
0
51
90
0
ARC
8
0
10
74.4625
20
-39.8375
40
0.5
50
180
51
270
0
ARC
8
0
10
87.4625
20
-39.8375
40
0.5
50
270
51
0
0
LINE
8
0
10
98.275
20
-26.3375
11
111.275
21
-26.3375
0
LINE
8
0
10
98.275
20
-40.3375
11
111.275
21
-40.3375
0
LINE
8
0
10
97.775
20
-26.8375
11
97.775
21
-39.8375
0
LINE
8
0
10
111.775
20
-26.8375
11
111.775
21
-39.8375
0
ARC
8
0
10
98.275
20
-26.8375
40
0.5
50
90
51
180
0
ARC
8
0
10
111.275
20
-26.8375
40
0.5
50
0
51
90
0
ARC
8
0
10
98.275
20
-39.8375
40
0.5
50
180
51
270
0
ARC
8
0
10
111.275
20
-39.8375
40
0.5
50
270
51
0
0
LINE
8
0
10
117.325
20
-26.3375
11
130.325
21
-26.3375
0
LINE
8
0
10
117.325
20
-40.3375
11
130.325
21
-40.3375
0
LINE
8
0
10
116.825
20
-26.8375
11
116.825
21
-39.8375
0
LINE
8
0
10
130.825
20
-26.8375
11
130.825
21
-39.8375
0
ARC
8
0
10
117.325
20
-26.8375
40
0.5
50
90
51
180
0
ARC
8
0
10
130.325
20
-26.8375
40
0.5
50
0
51
90
0
ARC
8
0
10
117.325
20
-39.8375
40
0.5
50
180
51
270
0
ARC
8
0
10
130.325
20
-39.8375
40
0.5
50
270
51
0
0
LINE
8
0
10
136.375
20
-26.3375
11
149.375
21
-26.3375
0
LINE
8
0
10
136.375
20
-40.3375
11
149.375
21
-40.3375
0
LINE
8
0
10
135.875
20
-26.8375
11
135.875
21
-39.8375
0
LINE
8
0
10
149.875
20
-26.8375
11
149.875
21
-39.8375
0
ARC
8
0
10
136.375
20
-26.8375
40
0.5
50
90
51
180
0
ARC
8
0
10
149.375
20
-26.8375
40
0.5
50
0
51
90
0
ARC
8
0
10
136.375
20
-39.8375
40
0.5
50
180
51
270
0
ARC
8
0
10
149.375
20
-39.8375
40
0.5
50
270
51
0
0
LINE
8
0
10
155.425
20
-26.3375
11
168.425
21
-26.3375
0
LINE
8
0
10
155.425
20
-40.3375
11
168.425
21
-40.3375
0
LINE
8
0
10
154.925
20
-26.8375
11
154.925
21
-39.8375
0
LINE
8
0
10
168.925
20
-26.8375
11
168.925
21
-39.8375
0
ARC
8
0
10
155.425
20
-26.8375
40
0.5
50
90
51
180
0
ARC
8
0
10
168.425
20
-26.8375
40
0.5
50
0
51
90
0
ARC
8
0
10
155.425
20
-39.8375
40
0.5
50
180
51
270
0
ARC
8
0
10
168.425
20
-39.8375
40
0.5
50
270
51
0
0
LINE
8
0
10
174.475
20
-26.3375
11
187.475
21
-26.3375
0
LINE
8
0
10
174.475
20
-40.3375
11
187.475
21
-40.3375
0
LINE
8
0
10
173.975
20
-26.8375
11
173.975
21
-39.8375
0
LINE
8
0
10
187.975
20
-26.8375
11
187.975
21
-39.8375
0
ARC
8
0
10
174.475
20
-26.8375
40
0.5
50
90
51
180
0
ARC
8
0
10
187.475
20
-26.8375
40
0.5
50
0
51
90
0
ARC
8
0
10
174.475
20
-39.8375
40
0.5
50
180
51
270
0
ARC
8
0
10
187.475
20
-39.8375
40
0.5
50
270
51
0
0
LINE
8
0
10
193.525
20
-26.3375
11
206.525
21
-26.3375
0
LINE
8
0
10
193.525
20
-40.3375
11
206.525
21
-40.3375
0
LINE
8
0
10
193.025
20
-26.8375
11
193.025
21
-39.8375
0
LINE
8
0
10
207.025
20
-26.8375
11
207.025
21
-39.8375
0
ARC
8
0
10
193.525
20
-26.8375
40
0.5
50
90
51
180
0
ARC
8
0
10
206.525
20
-26.8375
40
0.5
50
0
51
90
0
ARC
8
0
10
193.525
20
-39.8375
40
0.5
50
180
51
270
0
ARC
8
0
10
206.525
20
-39.8375
40
0.5
50
270
51
0
0
LINE
8
0
10
212.575
20
-26.3375
11
225.575
21
-26.3375
0
LINE
8
0
10
212.575
20
-40.3375
11
225.575
21
-40.3375
0
LINE
8
0
10
212.075
20
-26.8375
11
212.075
21
-39.8375
0
LINE
8
0
10
226.075
20
-26.8375
11
226.075
21
-39.8375
0
ARC
8
0
10
212.575
20
-26.8375
40
0.5
50
90
51
180
0
ARC
8
0
10
225.575
20
-26.8375
40
0.5
50
0
51
90
0
ARC
8
0
10
212.575
20
-39.8375
40
0.5
50
180
51
270
0
ARC
8
0
10
225.575
20
-39.8375
40
0.5
50
270
51
0
0
LINE
8
0
10
231.625
20
-26.3375
11
244.625
21
-26.3375
0
LINE
8
0
10
231.625
20
-40.3375
11
244.625
21
-40.3375
0
LINE
8
0
10
231.125
20
-26.8375
11
231.125
21
-39.8375
0
LINE
8
0
10
245.125
20
-26.8375
11
245.125
21
-39.8375
0
ARC
8
0
10
231.625
20
-26.8375
40
0.5
50
90
51
180
0
ARC
8
0
10
244.625
20
-26.8375
40
0.5
50
0
51
90
0
ARC
8
0
10
231.625
20
-39.8375
40
0.5
50
180
51
270
0
ARC
8
0
10
244.625
20
-39.8375
40
0.5
50
270
51
0
0
LINE
8
0
10
250.675
20
-26.3375
11
263.675
21
-26.3375
0
LINE
8
0
10
250.675
20
-40.3375
11
263.675
21
-40.3375
0
LINE
8
0
10
250.175
20
-26.8375
11
250.175
21
-39.8375
0
LINE
8
0
10
264.175
20
-26.8375
11
264.175
21
-39.8375
0
ARC
8
0
10
250.675
20
-26.8375
40
0.5
50
90
51
180
0
ARC
8
0
10
263.675
20
-26.8375
40
0.5
50
0
51
90
0
ARC
8
0
10
250.675
20
-39.8375
40
0.5
50
180
51
270
0
ARC
8
0
10
263.675
20
-39.8375
40
0.5
50
270
51
0
0
LINE
8
0
10
269.725
20
-26.3375
11
282.725
21
-26.3375
0
LINE
8
0
10
269.725
20
-40.3375
11
282.725
21
-40.3375
0
LINE
8
0
10
269.225
20
-26.8375
11
269.225
21
-39.8375
0
LINE
8
0
10
283.225
20
-26.8375
11
283.225
21
-39.8375
0
ARC
8
0
10
269.725
20
-26.8375
40
0.5
50
90
51
180
0
ARC
8
0
10
282.725
20
-26.8375
40
0.5
50
0
51
90
0
ARC
8
0
10
269.725
20
-39.8375
40
0.5
50
180
51
270
0
ARC
8
0
10
282.725
20
-39.8375
40
0.5
50
270
51
0
0
LINE
8
0
10
288.775
20
-26.3375
11
301.775
21
-26.3375
0
LINE
8
0
10
288.775
20
-40.3375
11
301.775
21
-40.3375
0
LINE
8
0
10
288.275
20
-26.8375
11
288.275
21
-39.8375
0
LINE
8
0
10
302.275
20
-26.8375
11
302.275
21
-39.8375
0
ARC
8
0
10
288.775
20
-26.8375
40
0.5
50
90
51
180
0
ARC
8
0
10
301.775
20
-26.8375
40
0.5
50
0
51
90
0
ARC
8
0
10
288.775
20
-39.8375
40
0.5
50
180
51
270
0
ARC
8
0
10
301.775
20
-39.8375
40
0.5
50
270
51
0
0
LINE
8
0
10
307.825
20
-26.3375
11
320.825
21
-26.3375
0
LINE
8
0
10
307.825
20
-40.3375
11
320.825
21
-40.3375
0
LINE
8
0
10
307.325
20
-26.8375
11
307.325
21
-39.8375
0
LINE
8
0
10
321.325
20
-26.8375
11
321.325
21
-39.8375
0
ARC
8
0
10
307.825
20
-26.8375
40
0.5
50
90
51
180
0
ARC
8
0
10
320.825
20
-26.8375
40
0.5
50
0
51
90
0
ARC
8
0
10
307.825
20
-39.8375
40
0.5
50
180
51
270
0
ARC
8
0
10
320.825
20
-39.8375
40
0.5
50
270
51
0
0
LINE
8
0
10
331.6375
20
-26.3375
11
344.6375
21
-26.3375
0
LINE
8
0
10
331.6375
20
-40.3375
11
344.6375
21
-40.3375
0
LINE
8
0
10
331.1375
20
-26.8375
11
331.1375
21
-39.8375
0
LINE
8
0
10
345.1375
20
-26.8375
11
345.1375
21
-39.8375
0
ARC
8
0
10
331.6375
20
-26.8375
40
0.5
50
90
51
180
0
ARC
8
0
10
344.6375
20
-26.8375
40
0.5
50
0
51
90
0
ARC
8
0
10
331.6375
20
-39.8375
40
0.5
50
180
51
270
0
ARC
8
0
10
344.6375
20
-39.8375
40
0.5
50
270
51
0
0
LINE
8
0
10
360.2125
20
-26.3375
11
373.2125
21
-26.3375
0
LINE
8
0
10
360.2125
20
-40.3375
11
373.2125
21
-40.3375
0
LINE
8
0
10
359.7125
20
-26.8375
11
359.7125
21
-39.8375
0
LINE
8
0
10
373.7125
20
-26.8375
11
373.7125
21
-39.8375
0
ARC
8
0
10
360.2125
20
-26.8375
40
0.5
50
90
51
180
0
ARC
8
0
10
373.2125
20
-26.8375
40
0.5
50
0
51
90
0
ARC
8
0
10
360.2125
20
-39.8375
40
0.5
50
180
51
270
0
ARC
8
0
10
373.2125
20
-39.8375
40
0.5
50
270
51
0
0
LINE
8
0
10
379.2625
20
-26.3375
11
392.2625
21
-26.3375
0
LINE
8
0
10
379.2625
20
-40.3375
11
392.2625
21
-40.3375
0
LINE
8
0
10
378.7625
20
-26.8375
11
378.7625
21
-39.8375
0
LINE
8
0
10
392.7625
20
-26.8375
11
392.7625
21
-39.8375
0
ARC
8
0
10
379.2625
20
-26.8375
40
0.5
50
90
51
180
0
ARC
8
0
10
392.2625
20
-26.8375
40
0.5
50
0
51
90
0
ARC
8
0
10
379.2625
20
-39.8375
40
0.5
50
180
51
270
0
ARC
8
0
10
392.2625
20
-39.8375
40
0.5
50
270
51
0
0
LINE
8
0
10
7.7875
20
-45.3875
11
20.7875
21
-45.3875
0
LINE
8
0
10
7.7875
20
-59.3875
11
20.7875
21
-59.3875
0
LINE
8
0
10
7.2875
20
-45.8875
11
7.2875
21
-58.8875
0
LINE
8
0
10
21.2875
20
-45.8875
11
21.2875
21
-58.8875
0
ARC
8
0
10
7.7875
20
-45.8875
40
0.5
50
90
51
180
0
ARC
8
0
10
20.7875
20
-45.8875
40
0.5
50
0
51
90
0
ARC
8
0
10
7.7875
20
-58.8875
40
0.5
50
180
51
270
0
ARC
8
0
10
20.7875
20
-58.8875
40
0.5
50
270
51
0
0
LINE
8
0
10
26.8375
20
-45.3875
11
39.8375
21
-45.3875
0
LINE
8
0
10
26.8375
20
-59.3875
11
39.8375
21
-59.3875
0
LINE
8
0
10
26.3375
20
-45.8875
11
26.3375
21
-58.8875
0
LINE
8
0
10
40.3375
20
-45.8875
11
40.3375
21
-58.8875
0
ARC
8
0
10
26.8375
20
-45.8875
40
0.5
50
90
51
180
0
ARC
8
0
10
39.8375
20
-45.8875
40
0.5
50
0
51
90
0
ARC
8
0
10
26.8375
20
-58.8875
40
0.5
50
180
51
270
0
ARC
8
0
10
39.8375
20
-58.8875
40
0.5
50
270
51
0
0
LINE
8
0
10
45.8875
20
-45.3875
11
58.8875
21
-45.3875
0
LINE
8
0
10
45.8875
20
-59.3875
11
58.8875
21
-59.3875
0
LINE
8
0
10
45.3875
20
-45.8875
11
45.3875
21
-58.8875
0
LINE
8
0
10
59.3875
20
-45.8875
11
59.3875
21
-58.8875
0
ARC
8
0
10
45.8875
20
-45.8875
40
0.5
50
90
51
180
0
ARC
8
0
10
58.8875
20
-45.8875
40
0.5
50
0
51
90
0
ARC
8
0
10
45.8875
20
-58.8875
40
0.5
50
180
51
270
0
ARC
8
0
10
58.8875
20
-58.8875
40
0.5
50
270
51
0
0
LINE
8
0
10
72.08125
20
-45.3875
11
85.08125
21
-45.3875
0
LINE
8
0
10
72.08125
20
-59.3875
11
85.08125
21
-59.3875
0
LINE
8
0
10
71.58125
20
-45.8875
11
71.58125
21
-58.8875
0
LINE
8
0
10
85.58125
20
-45.8875
11
85.58125
21
-58.8875
0
ARC
8
0
10
72.08125
20
-45.8875
40
0.5
50
90
51
180
0
ARC
8
0
10
85.08125
20
-45.8875
40
0.5
50
0
51
90
0
ARC
8
0
10
72.08125
20
-58.8875
40
0.5
50
180
51
270
0
ARC
8
0
10
85.08125
20
-58.8875
40
0.5
50
270
51
0
0
LINE
8
0
10
103.0375
20
-45.3875
11
116.0375
21
-45.3875
0
LINE
8
0
10
103.0375
20
-59.3875
11
116.0375
21
-59.3875
0
LINE
8
0
10
102.5375
20
-45.8875
11
102.5375
21
-58.8875
0
LINE
8
0
10
116.5375
20
-45.8875
11
116.5375
21
-58.8875
0
ARC
8
0
10
103.0375
20
-45.8875
40
0.5
50
90
51
180
0
ARC
8
0
10
116.0375
20
-45.8875
40
0.5
50
0
51
90
0
ARC
8
0
10
103.0375
20
-58.8875
40
0.5
50
180
51
270
0
ARC
8
0
10
116.0375
20
-58.8875
40
0.5
50
270
51
0
0
LINE
8
0
10
122.0875
20
-45.3875
11
135.0875
21
-45.3875
0
LINE
8
0
10
122.0875
20
-59.3875
11
135.0875
21
-59.3875
0
LINE
8
0
10
121.5875
20
-45.8875
11
121.5875
21
-58.8875
0
LINE
8
0
10
135.5875
20
-45.8875
11
135.5875
21
-58.8875
0
ARC
8
0
10
122.0875
20
-45.8875
40
0.5
50
90
51
180
0
ARC
8
0
10
135.0875
20
-45.8875
40
0.5
50
0
51
90
0
ARC
8
0
10
122.0875
20
-58.8875
40
0.5
50
180
51
270
0
ARC
8
0
10
135.0875
20
-58.8875
40
0.5
50
270
51
0
0
LINE
8
0
10
141.1375
20
-45.3875
11
154.1375
21
-45.3875
0
LINE
8
0
10
141.1375
20
-59.3875
11
154.1375
21
-59.3875
0
LINE
8
0
10
140.6375
20
-45.8875
11
140.6375
21
-58.8875
0
LINE
8
0
10
154.6375
20
-45.8875
11
154.6375
21
-58.8875
0
ARC
8
0
10
141.1375
20
-45.8875
40
0.5
50
90
51
180
0
ARC
8
0
10
154.1375
20
-45.8875
40
0.5
50
0
51
90
0
ARC
8
0
10
141.1375
20
-58.8875
40
0.5
50
180
51
270
0
ARC
8
0
10
154.1375
20
-58.8875
40
0.5
50
270
51
0
0
LINE
8
0
10
160.1875
20
-45.3875
11
173.1875
21
-45.3875
0
LINE
8
0
10
160.1875
20
-59.3875
11
173.1875
21
-59.3875
0
LINE
8
0
10
159.6875
20
-45.8875
11
159.6875
21
-58.8875
0
LINE
8
0
10
173.6875
20
-45.8875
11
173.6875
21
-58.8875
0
ARC
8
0
10
160.1875
20
-45.8875
40
0.5
50
90
51
180
0
ARC
8
0
10
173.1875
20
-45.8875
40
0.5
50
0
51
90
0
ARC
8
0
10
160.1875
20
-58.8875
40
0.5
50
180
51
270
0
ARC
8
0
10
173.1875
20
-58.8875
40
0.5
50
270
51
0
0
LINE
8
0
10
179.2375
20
-45.3875
11
192.2375
21
-45.3875
0
LINE
8
0
10
179.2375
20
-59.3875
11
192.2375
21
-59.3875
0
LINE
8
0
10
178.7375
20
-45.8875
11
178.7375
21
-58.8875
0
LINE
8
0
10
192.7375
20
-45.8875
11
192.7375
21
-58.8875
0
ARC
8
0
10
179.2375
20
-45.8875
40
0.5
50
90
51
180
0
ARC
8
0
10
192.2375
20
-45.8875
40
0.5
50
0
51
90
0
ARC
8
0
10
179.2375
20
-58.8875
40
0.5
50
180
51
270
0
ARC
8
0
10
192.2375
20
-58.8875
40
0.5
50
270
51
0
0
LINE
8
0
10
198.2875
20
-45.3875
11
211.2875
21
-45.3875
0
LINE
8
0
10
198.2875
20
-59.3875
11
211.2875
21
-59.3875
0
LINE
8
0
10
197.7875
20
-45.8875
11
197.7875
21
-58.8875
0
LINE
8
0
10
211.7875
20
-45.8875
11
211.7875
21
-58.8875
0
ARC
8
0
10
198.2875
20
-45.8875
40
0.5
50
90
51
180
0
ARC
8
0
10
211.2875
20
-45.8875
40
0.5
50
0
51
90
0
ARC
8
0
10
198.2875
20
-58.8875
40
0.5
50
180
51
270
0
ARC
8
0
10
211.2875
20
-58.8875
40
0.5
50
270
51
0
0
LINE
8
0
10
217.3375
20
-45.3875
11
230.3375
21
-45.3875
0
LINE
8
0
10
217.3375
20
-59.3875
11
230.3375
21
-59.3875
0
LINE
8
0
10
216.8375
20
-45.8875
11
216.8375
21
-58.8875
0
LINE
8
0
10
230.8375
20
-45.8875
11
230.8375
21
-58.8875
0
ARC
8
0
10
217.3375
20
-45.8875
40
0.5
50
90
51
180
0
ARC
8
0
10
230.3375
20
-45.8875
40
0.5
50
0
51
90
0
ARC
8
0
10
217.3375
20
-58.8875
40
0.5
50
180
51
270
0
ARC
8
0
10
230.3375
20
-58.8875
40
0.5
50
270
51
0
0
LINE
8
0
10
236.3875
20
-45.3875
11
249.3875
21
-45.3875
0
LINE
8
0
10
236.3875
20
-59.3875
11
249.3875
21
-59.3875
0
LINE
8
0
10
235.8875
20
-45.8875
11
235.8875
21
-58.8875
0
LINE
8
0
10
249.8875
20
-45.8875
11
249.8875
21
-58.8875
0
ARC
8
0
10
236.3875
20
-45.8875
40
0.5
50
90
51
180
0
ARC
8
0
10
249.3875
20
-45.8875
40
0.5
50
0
51
90
0
ARC
8
0
10
236.3875
20
-58.8875
40
0.5
50
180
51
270
0
ARC
8
0
10
249.3875
20
-58.8875
40
0.5
50
270
51
0
0
LINE
8
0
10
255.4375
20
-45.3875
11
268.4375
21
-45.3875
0
LINE
8
0
10
255.4375
20
-59.3875
11
268.4375
21
-59.3875
0
LINE
8
0
10
254.9375
20
-45.8875
11
254.9375
21
-58.8875
0
LINE
8
0
10
268.9375
20
-45.8875
11
268.9375
21
-58.8875
0
ARC
8
0
10
255.4375
20
-45.8875
40
0.5
50
90
51
180
0
ARC
8
0
10
268.4375
20
-45.8875
40
0.5
50
0
51
90
0
ARC
8
0
10
255.4375
20
-58.8875
40
0.5
50
180
51
270
0
ARC
8
0
10
268.4375
20
-58.8875
40
0.5
50
270
51
0
0
LINE
8
0
10
274.4875
20
-45.3875
11
287.4875
21
-45.3875
0
LINE
8
0
10
274.4875
20
-59.3875
11
287.4875
21
-59.3875
0
LINE
8
0
10
273.9875
20
-45.8875
11
273.9875
21
-58.8875
0
LINE
8
0
10
287.9875
20
-45.8875
11
287.9875
21
-58.8875
0
ARC
8
0
10
274.4875
20
-45.8875
40
0.5
50
90
51
180
0
ARC
8
0
10
287.4875
20
-45.8875
40
0.5
50
0
51
90
0
ARC
8
0
10
274.4875
20
-58.8875
40
0.5
50
180
51
270
0
ARC
8
0
10
287.4875
20
-58.8875
40
0.5
50
270
51
0
0
LINE
8
0
10
293.5375
20
-45.3875
11
306.5375
21
-45.3875
0
LINE
8
0
10
293.5375
20
-59.3875
11
306.5375
21
-59.3875
0
LINE
8
0
10
293.0375
20
-45.8875
11
293.0375
21
-58.8875
0
LINE
8
0
10
307.0375
20
-45.8875
11
307.0375
21
-58.8875
0
ARC
8
0
10
293.5375
20
-45.8875
40
0.5
50
90
51
180
0
ARC
8
0
10
306.5375
20
-45.8875
40
0.5
50
0
51
90
0
ARC
8
0
10
293.5375
20
-58.8875
40
0.5
50
180
51
270
0
ARC
8
0
10
306.5375
20
-58.8875
40
0.5
50
270
51
0
0
LINE
8
0
10
324.49375
20
-45.3875
11
337.49375
21
-45.3875
0
LINE
8
0
10
324.49375
20
-59.3875
11
337.49375
21
-59.3875
0
LINE
8
0
10
323.99375
20
-45.8875
11
323.99375
21
-58.8875
0
LINE
8
0
10
337.99375
20
-45.8875
11
337.99375
21
-58.8875
0
ARC
8
0
10
324.49375
20
-45.8875
40
0.5
50
90
51
180
0
ARC
8
0
10
337.49375
20
-45.8875
40
0.5
50
0
51
90
0
ARC
8
0
10
324.49375
20
-58.8875
40
0.5
50
180
51
270
0
ARC
8
0
10
337.49375
20
-58.8875
40
0.5
50
270
51
0
0
LINE
8
0
10
316.05575
20
-46.3875
11
322.05575
21
-46.3875
0
LINE
8
0
10
316.05575
20
-61.3875
11
322.05575
21
-61.3875
0
LINE
8
0
10
315.55575
20
-46.8875
11
315.55575
21
-60.8875
0
LINE
8
0
10
322.55575
20
-46.8875
11
322.55575
21
-60.8875
0
ARC
8
0
10
316.05575
20
-46.8875
40
0.5
50
90
51
180
0
ARC
8
0
10
322.05575
20
-46.8875
40
0.5
50
0
51
90
0
ARC
8
0
10
316.05575
20
-60.8875
40
0.5
50
180
51
270
0
ARC
8
0
10
322.05575
20
-60.8875
40
0.5
50
270
51
0
0
LINE
8
0
10
339.93175
20
-46.3875
11
345.93175
21
-46.3875
0
LINE
8
0
10
339.93175
20
-61.3875
11
345.93175
21
-61.3875
0
LINE
8
0
10
339.43175
20
-46.8875
11
339.43175
21
-60.8875
0
LINE
8
0
10
346.43175
20
-46.8875
11
346.43175
21
-60.8875
0
ARC
8
0
10
339.93175
20
-46.8875
40
0.5
50
90
51
180
0
ARC
8
0
10
345.93175
20
-46.8875
40
0.5
50
0
51
90
0
ARC
8
0
10
339.93175
20
-60.8875
40
0.5
50
180
51
270
0
ARC
8
0
10
345.93175
20
-60.8875
40
0.5
50
270
51
0
0
LINE
8
0
10
360.2125
20
-45.3875
11
373.2125
21
-45.3875
0
LINE
8
0
10
360.2125
20
-59.3875
11
373.2125
21
-59.3875
0
LINE
8
0
10
359.7125
20
-45.8875
11
359.7125
21
-58.8875
0
LINE
8
0
10
373.7125
20
-45.8875
11
373.7125
21
-58.8875
0
ARC
8
0
10
360.2125
20
-45.8875
40
0.5
50
90
51
180
0
ARC
8
0
10
373.2125
20
-45.8875
40
0.5
50
0
51
90
0
ARC
8
0
10
360.2125
20
-58.8875
40
0.5
50
180
51
270
0
ARC
8
0
10
373.2125
20
-58.8875
40
0.5
50
270
51
0
0
LINE
8
0
10
379.2625
20
-45.3875
11
392.2625
21
-45.3875
0
LINE
8
0
10
379.2625
20
-59.3875
11
392.2625
21
-59.3875
0
LINE
8
0
10
378.7625
20
-45.8875
11
378.7625
21
-58.8875
0
LINE
8
0
10
392.7625
20
-45.8875
11
392.7625
21
-58.8875
0
ARC
8
0
10
379.2625
20
-45.8875
40
0.5
50
90
51
180
0
ARC
8
0
10
392.2625
20
-45.8875
40
0.5
50
0
51
90
0
ARC
8
0
10
379.2625
20
-58.8875
40
0.5
50
180
51
270
0
ARC
8
0
10
392.2625
20
-58.8875
40
0.5
50
270
51
0
0
LINE
8
0
10
7.7875
20
-64.4375
11
20.7875
21
-64.4375
0
LINE
8
0
10
7.7875
20
-78.4375
11
20.7875
21
-78.4375
0
LINE
8
0
10
7.2875
20
-64.9375
11
7.2875
21
-77.9375
0
LINE
8
0
10
21.2875
20
-64.9375
11
21.2875
21
-77.9375
0
ARC
8
0
10
7.7875
20
-64.9375
40
0.5
50
90
51
180
0
ARC
8
0
10
20.7875
20
-64.9375
40
0.5
50
0
51
90
0
ARC
8
0
10
7.7875
20
-77.9375
40
0.5
50
180
51
270
0
ARC
8
0
10
20.7875
20
-77.9375
40
0.5
50
270
51
0
0
LINE
8
0
10
26.8375
20
-64.4375
11
39.8375
21
-64.4375
0
LINE
8
0
10
26.8375
20
-78.4375
11
39.8375
21
-78.4375
0
LINE
8
0
10
26.3375
20
-64.9375
11
26.3375
21
-77.9375
0
LINE
8
0
10
40.3375
20
-64.9375
11
40.3375
21
-77.9375
0
ARC
8
0
10
26.8375
20
-64.9375
40
0.5
50
90
51
180
0
ARC
8
0
10
39.8375
20
-64.9375
40
0.5
50
0
51
90
0
ARC
8
0
10
26.8375
20
-77.9375
40
0.5
50
180
51
270
0
ARC
8
0
10
39.8375
20
-77.9375
40
0.5
50
270
51
0
0
LINE
8
0
10
45.8875
20
-64.4375
11
58.8875
21
-64.4375
0
LINE
8
0
10
45.8875
20
-78.4375
11
58.8875
21
-78.4375
0
LINE
8
0
10
45.3875
20
-64.9375
11
45.3875
21
-77.9375
0
LINE
8
0
10
59.3875
20
-64.9375
11
59.3875
21
-77.9375
0
ARC
8
0
10
45.8875
20
-64.9375
40
0.5
50
90
51
180
0
ARC
8
0
10
58.8875
20
-64.9375
40
0.5
50
0
51
90
0
ARC
8
0
10
45.8875
20
-77.9375
40
0.5
50
180
51
270
0
ARC
8
0
10
58.8875
20
-77.9375
40
0.5
50
270
51
0
0
LINE
8
0
10
81.60625
20
-64.4375
11
94.60625
21
-64.4375
0
LINE
8
0
10
81.60625
20
-78.4375
11
94.60625
21
-78.4375
0
LINE
8
0
10
81.10625
20
-64.9375
11
81.10625
21
-77.9375
0
LINE
8
0
10
95.10625
20
-64.9375
11
95.10625
21
-77.9375
0
ARC
8
0
10
81.60625
20
-64.9375
40
0.5
50
90
51
180
0
ARC
8
0
10
94.60625
20
-64.9375
40
0.5
50
0
51
90
0
ARC
8
0
10
81.60625
20
-77.9375
40
0.5
50
180
51
270
0
ARC
8
0
10
94.60625
20
-77.9375
40
0.5
50
270
51
0
0
LINE
8
0
10
73.16825
20
-65.4375
11
79.16825
21
-65.4375
0
LINE
8
0
10
73.16825
20
-80.4375
11
79.16825
21
-80.4375
0
LINE
8
0
10
72.66825
20
-65.9375
11
72.66825
21
-79.9375
0
LINE
8
0
10
79.66825
20
-65.9375
11
79.66825
21
-79.9375
0
ARC
8
0
10
73.16825
20
-65.9375
40
0.5
50
90
51
180
0
ARC
8
0
10
79.16825
20
-65.9375
40
0.5
50
0
51
90
0
ARC
8
0
10
73.16825
20
-79.9375
40
0.5
50
180
51
270
0
ARC
8
0
10
79.16825
20
-79.9375
40
0.5
50
270
51
0
0
LINE
8
0
10
97.04425
20
-65.4375
11
103.04425
21
-65.4375
0
LINE
8
0
10
97.04425
20
-80.4375
11
103.04425
21
-80.4375
0
LINE
8
0
10
96.54425
20
-65.9375
11
96.54425
21
-79.9375
0
LINE
8
0
10
103.54425
20
-65.9375
11
103.54425
21
-79.9375
0
ARC
8
0
10
97.04425
20
-65.9375
40
0.5
50
90
51
180
0
ARC
8
0
10
103.04425
20
-65.9375
40
0.5
50
0
51
90
0
ARC
8
0
10
97.04425
20
-79.9375
40
0.5
50
180
51
270
0
ARC
8
0
10
103.04425
20
-79.9375
40
0.5
50
270
51
0
0
LINE
8
0
10
112.5625
20
-64.4375
11
125.5625
21
-64.4375
0
LINE
8
0
10
112.5625
20
-78.4375
11
125.5625
21
-78.4375
0
LINE
8
0
10
112.0625
20
-64.9375
11
112.0625
21
-77.9375
0
LINE
8
0
10
126.0625
20
-64.9375
11
126.0625
21
-77.9375
0
ARC
8
0
10
112.5625
20
-64.9375
40
0.5
50
90
51
180
0
ARC
8
0
10
125.5625
20
-64.9375
40
0.5
50
0
51
90
0
ARC
8
0
10
112.5625
20
-77.9375
40
0.5
50
180
51
270
0
ARC
8
0
10
125.5625
20
-77.9375
40
0.5
50
270
51
0
0
LINE
8
0
10
131.6125
20
-64.4375
11
144.6125
21
-64.4375
0
LINE
8
0
10
131.6125
20
-78.4375
11
144.6125
21
-78.4375
0
LINE
8
0
10
131.1125
20
-64.9375
11
131.1125
21
-77.9375
0
LINE
8
0
10
145.1125
20
-64.9375
11
145.1125
21
-77.9375
0
ARC
8
0
10
131.6125
20
-64.9375
40
0.5
50
90
51
180
0
ARC
8
0
10
144.6125
20
-64.9375
40
0.5
50
0
51
90
0
ARC
8
0
10
131.6125
20
-77.9375
40
0.5
50
180
51
270
0
ARC
8
0
10
144.6125
20
-77.9375
40
0.5
50
270
51
0
0
LINE
8
0
10
150.6625
20
-64.4375
11
163.6625
21
-64.4375
0
LINE
8
0
10
150.6625
20
-78.4375
11
163.6625
21
-78.4375
0
LINE
8
0
10
150.1625
20
-64.9375
11
150.1625
21
-77.9375
0
LINE
8
0
10
164.1625
20
-64.9375
11
164.1625
21
-77.9375
0
ARC
8
0
10
150.6625
20
-64.9375
40
0.5
50
90
51
180
0
ARC
8
0
10
163.6625
20
-64.9375
40
0.5
50
0
51
90
0
ARC
8
0
10
150.6625
20
-77.9375
40
0.5
50
180
51
270
0
ARC
8
0
10
163.6625
20
-77.9375
40
0.5
50
270
51
0
0
LINE
8
0
10
169.7125
20
-64.4375
11
182.7125
21
-64.4375
0
LINE
8
0
10
169.7125
20
-78.4375
11
182.7125
21
-78.4375
0
LINE
8
0
10
169.2125
20
-64.9375
11
169.2125
21
-77.9375
0
LINE
8
0
10
183.2125
20
-64.9375
11
183.2125
21
-77.9375
0
ARC
8
0
10
169.7125
20
-64.9375
40
0.5
50
90
51
180
0
ARC
8
0
10
182.7125
20
-64.9375
40
0.5
50
0
51
90
0
ARC
8
0
10
169.7125
20
-77.9375
40
0.5
50
180
51
270
0
ARC
8
0
10
182.7125
20
-77.9375
40
0.5
50
270
51
0
0
LINE
8
0
10
188.7625
20
-64.4375
11
201.7625
21
-64.4375
0
LINE
8
0
10
188.7625
20
-78.4375
11
201.7625
21
-78.4375
0
LINE
8
0
10
188.2625
20
-64.9375
11
188.2625
21
-77.9375
0
LINE
8
0
10
202.2625
20
-64.9375
11
202.2625
21
-77.9375
0
ARC
8
0
10
188.7625
20
-64.9375
40
0.5
50
90
51
180
0
ARC
8
0
10
201.7625
20
-64.9375
40
0.5
50
0
51
90
0
ARC
8
0
10
188.7625
20
-77.9375
40
0.5
50
180
51
270
0
ARC
8
0
10
201.7625
20
-77.9375
40
0.5
50
270
51
0
0
LINE
8
0
10
207.8125
20
-64.4375
11
220.8125
21
-64.4375
0
LINE
8
0
10
207.8125
20
-78.4375
11
220.8125
21
-78.4375
0
LINE
8
0
10
207.3125
20
-64.9375
11
207.3125
21
-77.9375
0
LINE
8
0
10
221.3125
20
-64.9375
11
221.3125
21
-77.9375
0
ARC
8
0
10
207.8125
20
-64.9375
40
0.5
50
90
51
180
0
ARC
8
0
10
220.8125
20
-64.9375
40
0.5
50
0
51
90
0
ARC
8
0
10
207.8125
20
-77.9375
40
0.5
50
180
51
270
0
ARC
8
0
10
220.8125
20
-77.9375
40
0.5
50
270
51
0
0
LINE
8
0
10
226.8625
20
-64.4375
11
239.8625
21
-64.4375
0
LINE
8
0
10
226.8625
20
-78.4375
11
239.8625
21
-78.4375
0
LINE
8
0
10
226.3625
20
-64.9375
11
226.3625
21
-77.9375
0
LINE
8
0
10
240.3625
20
-64.9375
11
240.3625
21
-77.9375
0
ARC
8
0
10
226.8625
20
-64.9375
40
0.5
50
90
51
180
0
ARC
8
0
10
239.8625
20
-64.9375
40
0.5
50
0
51
90
0
ARC
8
0
10
226.8625
20
-77.9375
40
0.5
50
180
51
270
0
ARC
8
0
10
239.8625
20
-77.9375
40
0.5
50
270
51
0
0
LINE
8
0
10
245.9125
20
-64.4375
11
258.9125
21
-64.4375
0
LINE
8
0
10
245.9125
20
-78.4375
11
258.9125
21
-78.4375
0
LINE
8
0
10
245.4125
20
-64.9375
11
245.4125
21
-77.9375
0
LINE
8
0
10
259.4125
20
-64.9375
11
259.4125
21
-77.9375
0
ARC
8
0
10
245.9125
20
-64.9375
40
0.5
50
90
51
180
0
ARC
8
0
10
258.9125
20
-64.9375
40
0.5
50
0
51
90
0
ARC
8
0
10
245.9125
20
-77.9375
40
0.5
50
180
51
270
0
ARC
8
0
10
258.9125
20
-77.9375
40
0.5
50
270
51
0
0
LINE
8
0
10
264.9625
20
-64.4375
11
277.9625
21
-64.4375
0
LINE
8
0
10
264.9625
20
-78.4375
11
277.9625
21
-78.4375
0
LINE
8
0
10
264.4625
20
-64.9375
11
264.4625
21
-77.9375
0
LINE
8
0
10
278.4625
20
-64.9375
11
278.4625
21
-77.9375
0
ARC
8
0
10
264.9625
20
-64.9375
40
0.5
50
90
51
180
0
ARC
8
0
10
277.9625
20
-64.9375
40
0.5
50
0
51
90
0
ARC
8
0
10
264.9625
20
-77.9375
40
0.5
50
180
51
270
0
ARC
8
0
10
277.9625
20
-77.9375
40
0.5
50
270
51
0
0
LINE
8
0
10
284.0125
20
-64.4375
11
297.0125
21
-64.4375
0
LINE
8
0
10
284.0125
20
-78.4375
11
297.0125
21
-78.4375
0
LINE
8
0
10
283.5125
20
-64.9375
11
283.5125
21
-77.9375
0
LINE
8
0
10
297.5125
20
-64.9375
11
297.5125
21
-77.9375
0
ARC
8
0
10
284.0125
20
-64.9375
40
0.5
50
90
51
180
0
ARC
8
0
10
297.0125
20
-64.9375
40
0.5
50
0
51
90
0
ARC
8
0
10
284.0125
20
-77.9375
40
0.5
50
180
51
270
0
ARC
8
0
10
297.0125
20
-77.9375
40
0.5
50
270
51
0
0
LINE
8
0
10
319.73125
20
-64.4375
11
332.73125
21
-64.4375
0
LINE
8
0
10
319.73125
20
-78.4375
11
332.73125
21
-78.4375
0
LINE
8
0
10
319.23125
20
-64.9375
11
319.23125
21
-77.9375
0
LINE
8
0
10
333.23125
20
-64.9375
11
333.23125
21
-77.9375
0
ARC
8
0
10
319.73125
20
-64.9375
40
0.5
50
90
51
180
0
ARC
8
0
10
332.73125
20
-64.9375
40
0.5
50
0
51
90
0
ARC
8
0
10
319.73125
20
-77.9375
40
0.5
50
180
51
270
0
ARC
8
0
10
332.73125
20
-77.9375
40
0.5
50
270
51
0
0
LINE
8
0
10
311.29325
20
-65.4375
11
317.29325
21
-65.4375
0
LINE
8
0
10
311.29325
20
-80.4375
11
317.29325
21
-80.4375
0
LINE
8
0
10
310.79325
20
-65.9375
11
310.79325
21
-79.9375
0
LINE
8
0
10
317.79325
20
-65.9375
11
317.79325
21
-79.9375
0
ARC
8
0
10
311.29325
20
-65.9375
40
0.5
50
90
51
180
0
ARC
8
0
10
317.29325
20
-65.9375
40
0.5
50
0
51
90
0
ARC
8
0
10
311.29325
20
-79.9375
40
0.5
50
180
51
270
0
ARC
8
0
10
317.29325
20
-79.9375
40
0.5
50
270
51
0
0
LINE
8
0
10
335.16925
20
-65.4375
11
341.16925
21
-65.4375
0
LINE
8
0
10
335.16925
20
-80.4375
11
341.16925
21
-80.4375
0
LINE
8
0
10
334.66925
20
-65.9375
11
334.66925
21
-79.9375
0
LINE
8
0
10
341.66925
20
-65.9375
11
341.66925
21
-79.9375
0
ARC
8
0
10
335.16925
20
-65.9375
40
0.5
50
90
51
180
0
ARC
8
0
10
341.16925
20
-65.9375
40
0.5
50
0
51
90
0
ARC
8
0
10
335.16925
20
-79.9375
40
0.5
50
180
51
270
0
ARC
8
0
10
341.16925
20
-79.9375
40
0.5
50
270
51
0
0
LINE
8
0
10
360.2125
20
-69.2
11
373.2125
21
-69.2
0
LINE
8
0
10
360.2125
20
-83.2
11
373.2125
21
-83.2
0
LINE
8
0
10
359.7125
20
-69.7
11
359.7125
21
-82.7
0
LINE
8
0
10
373.7125
20
-69.7
11
373.7125
21
-82.7
0
ARC
8
0
10
360.2125
20
-69.7
40
0.5
50
90
51
180
0
ARC
8
0
10
373.2125
20
-69.7
40
0.5
50
0
51
90
0
ARC
8
0
10
360.2125
20
-82.7
40
0.5
50
180
51
270
0
ARC
8
0
10
373.2125
20
-82.7
40
0.5
50
270
51
0
0
LINE
8
0
10
7.7875
20
-83.4875
11
20.7875
21
-83.4875
0
LINE
8
0
10
7.7875
20
-97.4875
11
20.7875
21
-97.4875
0
LINE
8
0
10
7.2875
20
-83.9875
11
7.2875
21
-96.9875
0
LINE
8
0
10
21.2875
20
-83.9875
11
21.2875
21
-96.9875
0
ARC
8
0
10
7.7875
20
-83.9875
40
0.5
50
90
51
180
0
ARC
8
0
10
20.7875
20
-83.9875
40
0.5
50
0
51
90
0
ARC
8
0
10
7.7875
20
-96.9875
40
0.5
50
180
51
270
0
ARC
8
0
10
20.7875
20
-96.9875
40
0.5
50
270
51
0
0
LINE
8
0
10
26.8375
20
-83.4875
11
39.8375
21
-83.4875
0
LINE
8
0
10
26.8375
20
-97.4875
11
39.8375
21
-97.4875
0
LINE
8
0
10
26.3375
20
-83.9875
11
26.3375
21
-96.9875
0
LINE
8
0
10
40.3375
20
-83.9875
11
40.3375
21
-96.9875
0
ARC
8
0
10
26.8375
20
-83.9875
40
0.5
50
90
51
180
0
ARC
8
0
10
39.8375
20
-83.9875
40
0.5
50
0
51
90
0
ARC
8
0
10
26.8375
20
-96.9875
40
0.5
50
180
51
270
0
ARC
8
0
10
39.8375
20
-96.9875
40
0.5
50
270
51
0
0
LINE
8
0
10
45.8875
20
-83.4875
11
58.8875
21
-83.4875
0
LINE
8
0
10
45.8875
20
-97.4875
11
58.8875
21
-97.4875
0
LINE
8
0
10
45.3875
20
-83.9875
11
45.3875
21
-96.9875
0
LINE
8
0
10
59.3875
20
-83.9875
11
59.3875
21
-96.9875
0
ARC
8
0
10
45.8875
20
-83.9875
40
0.5
50
90
51
180
0
ARC
8
0
10
58.8875
20
-83.9875
40
0.5
50
0
51
90
0
ARC
8
0
10
45.8875
20
-96.9875
40
0.5
50
180
51
270
0
ARC
8
0
10
58.8875
20
-96.9875
40
0.5
50
270
51
0
0
LINE
8
0
10
74.4625
20
-83.4875
11
87.4625
21
-83.4875
0
LINE
8
0
10
74.4625
20
-97.4875
11
87.4625
21
-97.4875
0
LINE
8
0
10
73.9625
20
-83.9875
11
73.9625
21
-96.9875
0
LINE
8
0
10
87.9625
20
-83.9875
11
87.9625
21
-96.9875
0
ARC
8
0
10
74.4625
20
-83.9875
40
0.5
50
90
51
180
0
ARC
8
0
10
87.4625
20
-83.9875
40
0.5
50
0
51
90
0
ARC
8
0
10
74.4625
20
-96.9875
40
0.5
50
180
51
270
0
ARC
8
0
10
87.4625
20
-96.9875
40
0.5
50
270
51
0
0
LINE
8
0
10
100.65625
20
-83.4875
11
113.65625
21
-83.4875
0
LINE
8
0
10
100.65625
20
-97.4875
11
113.65625
21
-97.4875
0
LINE
8
0
10
100.15625
20
-83.9875
11
100.15625
21
-96.9875
0
LINE
8
0
10
114.15625
20
-83.9875
11
114.15625
21
-96.9875
0
ARC
8
0
10
100.65625
20
-83.9875
40
0.5
50
90
51
180
0
ARC
8
0
10
113.65625
20
-83.9875
40
0.5
50
0
51
90
0
ARC
8
0
10
100.65625
20
-96.9875
40
0.5
50
180
51
270
0
ARC
8
0
10
113.65625
20
-96.9875
40
0.5
50
270
51
0
0
LINE
8
0
10
124.46875
20
-83.4875
11
137.46875
21
-83.4875
0
LINE
8
0
10
124.46875
20
-97.4875
11
137.46875
21
-97.4875
0
LINE
8
0
10
123.96875
20
-83.9875
11
123.96875
21
-96.9875
0
LINE
8
0
10
137.96875
20
-83.9875
11
137.96875
21
-96.9875
0
ARC
8
0
10
124.46875
20
-83.9875
40
0.5
50
90
51
180
0
ARC
8
0
10
137.46875
20
-83.9875
40
0.5
50
0
51
90
0
ARC
8
0
10
124.46875
20
-96.9875
40
0.5
50
180
51
270
0
ARC
8
0
10
137.46875
20
-96.9875
40
0.5
50
270
51
0
0
LINE
8
0
10
148.28125
20
-83.4875
11
161.28125
21
-83.4875
0
LINE
8
0
10
148.28125
20
-97.4875
11
161.28125
21
-97.4875
0
LINE
8
0
10
147.78125
20
-83.9875
11
147.78125
21
-96.9875
0
LINE
8
0
10
161.78125
20
-83.9875
11
161.78125
21
-96.9875
0
ARC
8
0
10
148.28125
20
-83.9875
40
0.5
50
90
51
180
0
ARC
8
0
10
161.28125
20
-83.9875
40
0.5
50
0
51
90
0
ARC
8
0
10
148.28125
20
-96.9875
40
0.5
50
180
51
270
0
ARC
8
0
10
161.28125
20
-96.9875
40
0.5
50
270
51
0
0
LINE
8
0
10
179.2375
20
-83.4875
11
192.2375
21
-83.4875
0
LINE
8
0
10
179.2375
20
-97.4875
11
192.2375
21
-97.4875
0
LINE
8
0
10
178.7375
20
-83.9875
11
178.7375
21
-96.9875
0
LINE
8
0
10
192.7375
20
-83.9875
11
192.7375
21
-96.9875
0
ARC
8
0
10
179.2375
20
-83.9875
40
0.5
50
90
51
180
0
ARC
8
0
10
192.2375
20
-83.9875
40
0.5
50
0
51
90
0
ARC
8
0
10
179.2375
20
-96.9875
40
0.5
50
180
51
270
0
ARC
8
0
10
192.2375
20
-96.9875
40
0.5
50
270
51
0
0
LINE
8
0
10
170.7995
20
-84.4875
11
176.7995
21
-84.4875
0
LINE
8
0
10
170.7995
20
-99.4875
11
176.7995
21
-99.4875
0
LINE
8
0
10
170.2995
20
-84.9875
11
170.2995
21
-98.9875
0
LINE
8
0
10
177.2995
20
-84.9875
11
177.2995
21
-98.9875
0
ARC
8
0
10
170.7995
20
-84.9875
40
0.5
50
90
51
180
0
ARC
8
0
10
176.7995
20
-84.9875
40
0.5
50
0
51
90
0
ARC
8
0
10
170.7995
20
-98.9875
40
0.5
50
180
51
270
0
ARC
8
0
10
176.7995
20
-98.9875
40
0.5
50
270
51
0
0
LINE
8
0
10
194.6755
20
-84.4875
11
200.6755
21
-84.4875
0
LINE
8
0
10
194.6755
20
-99.4875
11
200.6755
21
-99.4875
0
LINE
8
0
10
194.1755
20
-84.9875
11
194.1755
21
-98.9875
0
LINE
8
0
10
201.1755
20
-84.9875
11
201.1755
21
-98.9875
0
ARC
8
0
10
194.6755
20
-84.9875
40
0.5
50
90
51
180
0
ARC
8
0
10
200.6755
20
-84.9875
40
0.5
50
0
51
90
0
ARC
8
0
10
194.6755
20
-98.9875
40
0.5
50
180
51
270
0
ARC
8
0
10
200.6755
20
-98.9875
40
0.5
50
270
51
0
0
LINE
8
0
10
212.575
20
-83.4875
11
225.575
21
-83.4875
0
LINE
8
0
10
212.575
20
-97.4875
11
225.575
21
-97.4875
0
LINE
8
0
10
212.075
20
-83.9875
11
212.075
21
-96.9875
0
LINE
8
0
10
226.075
20
-83.9875
11
226.075
21
-96.9875
0
ARC
8
0
10
212.575
20
-83.9875
40
0.5
50
90
51
180
0
ARC
8
0
10
225.575
20
-83.9875
40
0.5
50
0
51
90
0
ARC
8
0
10
212.575
20
-96.9875
40
0.5
50
180
51
270
0
ARC
8
0
10
225.575
20
-96.9875
40
0.5
50
270
51
0
0
LINE
8
0
10
238.76875
20
-83.4875
11
251.76875
21
-83.4875
0
LINE
8
0
10
238.76875
20
-97.4875
11
251.76875
21
-97.4875
0
LINE
8
0
10
238.26875
20
-83.9875
11
238.26875
21
-96.9875
0
LINE
8
0
10
252.26875
20
-83.9875
11
252.26875
21
-96.9875
0
ARC
8
0
10
238.76875
20
-83.9875
40
0.5
50
90
51
180
0
ARC
8
0
10
251.76875
20
-83.9875
40
0.5
50
0
51
90
0
ARC
8
0
10
238.76875
20
-96.9875
40
0.5
50
180
51
270
0
ARC
8
0
10
251.76875
20
-96.9875
40
0.5
50
270
51
0
0
LINE
8
0
10
262.58125
20
-83.4875
11
275.58125
21
-83.4875
0
LINE
8
0
10
262.58125
20
-97.4875
11
275.58125
21
-97.4875
0
LINE
8
0
10
262.08125
20
-83.9875
11
262.08125
21
-96.9875
0
LINE
8
0
10
276.08125
20
-83.9875
11
276.08125
21
-96.9875
0
ARC
8
0
10
262.58125
20
-83.9875
40
0.5
50
90
51
180
0
ARC
8
0
10
275.58125
20
-83.9875
40
0.5
50
0
51
90
0
ARC
8
0
10
262.58125
20
-96.9875
40
0.5
50
180
51
270
0
ARC
8
0
10
275.58125
20
-96.9875
40
0.5
50
270
51
0
0
LINE
8
0
10
286.39375
20
-83.4875
11
299.39375
21
-83.4875
0
LINE
8
0
10
286.39375
20
-97.4875
11
299.39375
21
-97.4875
0
LINE
8
0
10
285.89375
20
-83.9875
11
285.89375
21
-96.9875
0
LINE
8
0
10
299.89375
20
-83.9875
11
299.89375
21
-96.9875
0
ARC
8
0
10
286.39375
20
-83.9875
40
0.5
50
90
51
180
0
ARC
8
0
10
299.39375
20
-83.9875
40
0.5
50
0
51
90
0
ARC
8
0
10
286.39375
20
-96.9875
40
0.5
50
180
51
270
0
ARC
8
0
10
299.39375
20
-96.9875
40
0.5
50
270
51
0
0
LINE
8
0
10
310.20625
20
-83.4875
11
323.20625
21
-83.4875
0
LINE
8
0
10
310.20625
20
-97.4875
11
323.20625
21
-97.4875
0
LINE
8
0
10
309.70625
20
-83.9875
11
309.70625
21
-96.9875
0
LINE
8
0
10
323.70625
20
-83.9875
11
323.70625
21
-96.9875
0
ARC
8
0
10
310.20625
20
-83.9875
40
0.5
50
90
51
180
0
ARC
8
0
10
323.20625
20
-83.9875
40
0.5
50
0
51
90
0
ARC
8
0
10
310.20625
20
-96.9875
40
0.5
50
180
51
270
0
ARC
8
0
10
323.20625
20
-96.9875
40
0.5
50
270
51
0
0
LINE
8
0
10
341.1625
20
-88.25
11
354.1625
21
-88.25
0
LINE
8
0
10
341.1625
20
-102.25
11
354.1625
21
-102.25
0
LINE
8
0
10
340.6625
20
-88.75
11
340.6625
21
-101.75
0
LINE
8
0
10
354.6625
20
-88.75
11
354.6625
21
-101.75
0
ARC
8
0
10
341.1625
20
-88.75
40
0.5
50
90
51
180
0
ARC
8
0
10
354.1625
20
-88.75
40
0.5
50
0
51
90
0
ARC
8
0
10
341.1625
20
-101.75
40
0.5
50
180
51
270
0
ARC
8
0
10
354.1625
20
-101.75
40
0.5
50
270
51
0
0
LINE
8
0
10
360.2125
20
-88.25
11
373.2125
21
-88.25
0
LINE
8
0
10
360.2125
20
-102.25
11
373.2125
21
-102.25
0
LINE
8
0
10
359.7125
20
-88.75
11
359.7125
21
-101.75
0
LINE
8
0
10
373.7125
20
-88.75
11
373.7125
21
-101.75
0
ARC
8
0
10
360.2125
20
-88.75
40
0.5
50
90
51
180
0
ARC
8
0
10
373.2125
20
-88.75
40
0.5
50
0
51
90
0
ARC
8
0
10
360.2125
20
-101.75
40
0.5
50
180
51
270
0
ARC
8
0
10
373.2125
20
-101.75
40
0.5
50
270
51
0
0
LINE
8
0
10
379.2625
20
-88.25
11
392.2625
21
-88.25
0
LINE
8
0
10
379.2625
20
-102.25
11
392.2625
21
-102.25
0
LINE
8
0
10
378.7625
20
-88.75
11
378.7625
21
-101.75
0
LINE
8
0
10
392.7625
20
-88.75
11
392.7625
21
-101.75
0
ARC
8
0
10
379.2625
20
-88.75
40
0.5
50
90
51
180
0
ARC
8
0
10
392.2625
20
-88.75
40
0.5
50
0
51
90
0
ARC
8
0
10
379.2625
20
-101.75
40
0.5
50
180
51
270
0
ARC
8
0
10
392.2625
20
-101.75
40
0.5
50
270
51
0
0
LINE
8
0
10
0
20
-104.775
11
400.05
21
-104.775
0
LINE
8
0
10
0
20
0
11
400.05
21
0
0
LINE
8
0
10
0
20
-104.775
11
0
21
0
0
LINE
8
0
10
400.05
20
-104.775
11
400.05
21
0
0
ENDSEC
0
EOF