%TF.GenerationSoftware,KiCad,Pcbnew,(6.0.5)*%
%TF.CreationDate,2022-07-20T21:42:13-06:00*%
%TF.ProjectId,kb,6b622e6b-6963-4616-945f-706362585858,rev?*%
%TF.SameCoordinates,Original*%
%TF.FileFunction,Soldermask,Bot*%
%TF.FilePolarity,Negative*%
%FSLAX46Y46*%
G04 Gerber Fmt 4.6, Leading zero omitted, Abs format (unit mm)*
G04 Created by KiCad (PCBNEW (6.0.5)) date 2022-07-20 21:42:13*
%MOMM*%
%LPD*%
G01*
G04 APERTURE LIST*
G04 Aperture macros list*
%AMRoundRect*
0 Rectangle with rounded corners*
0 $1 Rounding radius*
0 $2 $3 $4 $5 $6 $7 $8 $9 X,Y pos of 4 corners*
0 Add a 4 corners polygon primitive as box body*
4,1,4,$2,$3,$4,$5,$6,$7,$8,$9,$2,$3,0*
0 Add four circle primitives for the rounded corners*
1,1,$1+$1,$2,$3*
1,1,$1+$1,$4,$5*
1,1,$1+$1,$6,$7*
1,1,$1+$1,$8,$9*
0 Add four rect primitives between the rounded corners*
20,1,$1+$1,$2,$3,$4,$5,0*
20,1,$1+$1,$4,$5,$6,$7,0*
20,1,$1+$1,$6,$7,$8,$9,0*
20,1,$1+$1,$8,$9,$2,$3,0*%
%AMRotRect*
0 Rectangle, with rotation*
0 The origin of the aperture is its center*
0 $1 length*
0 $2 width*
0 $3 Rotation angle, in degrees counterclockwise*
0 Add horizontal line*
21,1,$1,$2,0,0,$3*%
G04 Aperture macros list end*
%ADD10C,1.600000*%
%ADD11O,1.600000X1.600000*%
%ADD12C,3.987800*%
%ADD13C,3.000000*%
%ADD14C,1.750000*%
%ADD15R,2.550000X2.500000*%
%ADD16R,1.200000X1.600000*%
%ADD17R,1.600000X1.600000*%
%ADD18O,3.200000X2.000000*%
%ADD19R,2.000000X2.000000*%
%ADD20C,2.000000*%
%ADD21C,3.048000*%
%ADD22O,1.700000X1.700000*%
%ADD23R,1.700000X1.700000*%
%ADD24RoundRect,0.250000X-0.337500X-0.475000X0.337500X-0.475000X0.337500X0.475000X-0.337500X0.475000X0*%
%ADD25R,1.200000X0.900000*%
%ADD26RoundRect,0.250000X0.337500X0.475000X-0.337500X0.475000X-0.337500X-0.475000X0.337500X-0.475000X0*%
%ADD27R,1.400000X0.820000*%
%ADD28RoundRect,0.205000X-0.495000X-0.205000X0.495000X-0.205000X0.495000X0.205000X-0.495000X0.205000X0*%
%ADD29RoundRect,0.205000X0.495000X0.205000X-0.495000X0.205000X-0.495000X-0.205000X0.495000X-0.205000X0*%
%ADD30RoundRect,0.250000X-0.475000X0.337500X-0.475000X-0.337500X0.475000X-0.337500X0.475000X0.337500X0*%
%ADD31R,0.820000X1.400000*%
%ADD32RoundRect,0.205000X0.205000X-0.495000X0.205000X0.495000X-0.205000X0.495000X-0.205000X-0.495000X0*%
%ADD33RotRect,1.900000X0.300000X225.000000*%
%ADD34C,1.950000*%
%ADD35RoundRect,0.250000X0.475000X-0.337500X0.475000X0.337500X-0.475000X0.337500X-0.475000X-0.337500X0*%
%ADD36RoundRect,0.020000X-0.575000X-0.180000X0.575000X-0.180000X0.575000X0.180000X-0.575000X0.180000X0*%
G04 APERTURE END LIST*
D10*
%TO.C,R1*%
X142875000Y-57785000D03*
D11*
X142875000Y-47625000D03*
%TD*%
D12*
%TO.C,MX22*%
X132556250Y-109537500D03*
D13*
X128746250Y-106997500D03*
D14*
X137636250Y-109537500D03*
X127476250Y-109537500D03*
D13*
X135096250Y-104457500D03*
D15*
X125471250Y-106997500D03*
X138398250Y-104457500D03*
%TD*%
D16*
%TO.C,D26*%
X212725000Y-51781250D03*
D17*
X212725000Y-49281250D03*
D16*
X212725000Y-54581250D03*
D10*
X212725000Y-57081250D03*
%TD*%
D14*
%TO.C,MX14*%
X141763750Y-90487500D03*
X151923750Y-90487500D03*
D13*
X143033750Y-87947500D03*
D12*
X146843750Y-90487500D03*
D13*
X149383750Y-85407500D03*
D15*
X139758750Y-87947500D03*
X152685750Y-85407500D03*
%TD*%
D12*
%TO.C,MX2*%
X75406250Y-66675000D03*
D14*
X80486250Y-66675000D03*
D13*
X77946250Y-61595000D03*
D14*
X70326250Y-66675000D03*
D13*
X71596250Y-64135000D03*
D15*
X68321250Y-64135000D03*
X81248250Y-61595000D03*
%TD*%
D14*
%TO.C,MX24*%
X175736250Y-109537500D03*
X165576250Y-109537500D03*
D13*
X173196250Y-104457500D03*
D12*
X170656250Y-109537500D03*
D13*
X166846250Y-106997500D03*
D15*
X163571250Y-106997500D03*
X176498250Y-104457500D03*
%TD*%
D18*
%TO.C,SW1*%
X32543750Y-61075000D03*
X32543750Y-72275000D03*
D19*
X40043750Y-69175000D03*
D20*
X40043750Y-64175000D03*
X40043750Y-66675000D03*
X25543750Y-64175000D03*
X25543750Y-69175000D03*
%TD*%
D12*
%TO.C,MX34*%
X199231250Y-128587500D03*
D14*
X204311250Y-128587500D03*
X194151250Y-128587500D03*
D13*
X201771250Y-123507500D03*
X195421250Y-126047500D03*
D15*
X192146250Y-126047500D03*
X205073250Y-123507500D03*
%TD*%
D12*
%TO.C,MX15*%
X165893750Y-90487500D03*
D14*
X160813750Y-90487500D03*
X170973750Y-90487500D03*
D13*
X168433750Y-85407500D03*
X162083750Y-87947500D03*
D15*
X158808750Y-87947500D03*
X171735750Y-85407500D03*
%TD*%
D16*
%TO.C,D25*%
X193675000Y-51781250D03*
D17*
X193675000Y-49281250D03*
D16*
X193675000Y-54581250D03*
D10*
X193675000Y-57081250D03*
%TD*%
D14*
%TO.C,MX43*%
X203676250Y-147637500D03*
D13*
X204946250Y-145097500D03*
D21*
X220694250Y-154622500D03*
D14*
X213836250Y-147637500D03*
D12*
X196818250Y-139382500D03*
D13*
X211296250Y-142557500D03*
D21*
X196818250Y-154622500D03*
D12*
X220694250Y-139382500D03*
X208756250Y-147637500D03*
D15*
X201671250Y-145097500D03*
X214598250Y-142557500D03*
%TD*%
D13*
%TO.C,MX18*%
X33496250Y-106997500D03*
D14*
X32226250Y-109537500D03*
X42386250Y-109537500D03*
D13*
X39846250Y-104457500D03*
D12*
X37306250Y-109537500D03*
D15*
X30221250Y-106997500D03*
X43148250Y-104457500D03*
%TD*%
D16*
%TO.C,D8*%
X206375000Y-50193750D03*
D17*
X206375000Y-47693750D03*
D16*
X206375000Y-52993750D03*
D10*
X206375000Y-55493750D03*
%TD*%
D14*
%TO.C,MX7*%
X180498750Y-71437500D03*
D13*
X177958750Y-66357500D03*
D12*
X175418750Y-71437500D03*
D13*
X171608750Y-68897500D03*
D14*
X170338750Y-71437500D03*
D15*
X168333750Y-68897500D03*
X181260750Y-66357500D03*
%TD*%
D10*
%TO.C,R2*%
X138906250Y-57785000D03*
D11*
X138906250Y-47625000D03*
%TD*%
D17*
%TO.C,D5*%
X149225000Y-47693750D03*
D16*
X149225000Y-50193750D03*
D10*
X149225000Y-55493750D03*
D16*
X149225000Y-52993750D03*
%TD*%
D14*
%TO.C,MX26*%
X213836250Y-109537500D03*
D12*
X208756250Y-109537500D03*
D13*
X211296250Y-104457500D03*
D14*
X203676250Y-109537500D03*
D13*
X204946250Y-106997500D03*
D15*
X201671250Y-106997500D03*
X214598250Y-104457500D03*
%TD*%
D17*
%TO.C,D32*%
X158750000Y-50075000D03*
D16*
X158750000Y-52575000D03*
D10*
X158750000Y-57875000D03*
D16*
X158750000Y-55375000D03*
%TD*%
D13*
%TO.C,MX10*%
X52546250Y-87947500D03*
D12*
X56356250Y-90487500D03*
D13*
X58896250Y-85407500D03*
D14*
X51276250Y-90487500D03*
X61436250Y-90487500D03*
D15*
X49271250Y-87947500D03*
X62198250Y-85407500D03*
%TD*%
D12*
%TO.C,MX11*%
X75406250Y-90487500D03*
D14*
X80486250Y-90487500D03*
D13*
X77946250Y-85407500D03*
D14*
X70326250Y-90487500D03*
D13*
X71596250Y-87947500D03*
D15*
X68321250Y-87947500D03*
X81248250Y-85407500D03*
%TD*%
D13*
%TO.C,MX27*%
X39846250Y-123507500D03*
D12*
X37306250Y-128587500D03*
D13*
X33496250Y-126047500D03*
D14*
X42386250Y-128587500D03*
X32226250Y-128587500D03*
D15*
X30221250Y-126047500D03*
X43148250Y-123507500D03*
%TD*%
D17*
%TO.C,D35*%
X215900000Y-50075000D03*
D16*
X215900000Y-52575000D03*
D10*
X215900000Y-57875000D03*
D16*
X215900000Y-55375000D03*
%TD*%
D17*
%TO.C,D44*%
X219075000Y-50868750D03*
D16*
X219075000Y-53368750D03*
D10*
X219075000Y-58668750D03*
D16*
X219075000Y-56168750D03*
%TD*%
D13*
%TO.C,MX25*%
X192246250Y-104457500D03*
D14*
X194786250Y-109537500D03*
D13*
X185896250Y-106997500D03*
D14*
X184626250Y-109537500D03*
D12*
X189706250Y-109537500D03*
D15*
X182621250Y-106997500D03*
X195548250Y-104457500D03*
%TD*%
D13*
%TO.C,MX21*%
X110172500Y-112077500D03*
D14*
X101282500Y-109537500D03*
D12*
X106362500Y-109537500D03*
D14*
X111442500Y-109537500D03*
D13*
X103822500Y-114617500D03*
D15*
X113447500Y-112077500D03*
X100520500Y-114617500D03*
%TD*%
D14*
%TO.C,MX37*%
X61436250Y-147637500D03*
D13*
X52546250Y-145097500D03*
X58896250Y-142557500D03*
D12*
X56356250Y-147637500D03*
D14*
X51276250Y-147637500D03*
D15*
X49271250Y-145097500D03*
X62198250Y-142557500D03*
%TD*%
D17*
%TO.C,D41*%
X161925000Y-50868750D03*
D16*
X161925000Y-53368750D03*
D10*
X161925000Y-58668750D03*
D16*
X161925000Y-56168750D03*
%TD*%
D13*
%TO.C,MX13*%
X123983750Y-87947500D03*
D14*
X122713750Y-90487500D03*
X132873750Y-90487500D03*
D13*
X130333750Y-85407500D03*
D12*
X127793750Y-90487500D03*
D15*
X120708750Y-87947500D03*
X133635750Y-85407500D03*
%TD*%
D13*
%TO.C,MX35*%
X214471250Y-126047500D03*
D12*
X218281250Y-128587500D03*
D13*
X220821250Y-123507500D03*
D14*
X213201250Y-128587500D03*
X223361250Y-128587500D03*
D15*
X211196250Y-126047500D03*
X224123250Y-123507500D03*
%TD*%
D22*
%TO.C,U1*%
X29845000Y-75565000D03*
X29845000Y-78105000D03*
X32385000Y-75565000D03*
X32385000Y-78105000D03*
D23*
X34925000Y-78105000D03*
X34925000Y-75565000D03*
D22*
X37465000Y-75565000D03*
X37465000Y-78105000D03*
X40005000Y-75565000D03*
X40005000Y-78105000D03*
X42545000Y-75565000D03*
X42545000Y-78105000D03*
X45085000Y-78105000D03*
X45085000Y-75565000D03*
D23*
X47625000Y-75565000D03*
X47625000Y-78105000D03*
D22*
X50165000Y-75565000D03*
X50165000Y-78105000D03*
X52705000Y-78105000D03*
X52705000Y-75565000D03*
X55245000Y-75565000D03*
X55245000Y-78105000D03*
X57785000Y-75565000D03*
X57785000Y-78105000D03*
D23*
X60325000Y-78105000D03*
X60325000Y-75565000D03*
D22*
X62865000Y-75565000D03*
X62865000Y-78105000D03*
X65405000Y-78105000D03*
X65405000Y-75565000D03*
X67945000Y-78105000D03*
X67945000Y-75565000D03*
X70485000Y-75565000D03*
X70485000Y-78105000D03*
D23*
X73025000Y-75565000D03*
X73025000Y-78105000D03*
D22*
X75565000Y-75565000D03*
X75565000Y-78105000D03*
X78105000Y-78105000D03*
X78105000Y-75565000D03*
X78105000Y-57785000D03*
X78105000Y-55245000D03*
X75565000Y-55245000D03*
X75565000Y-57785000D03*
D23*
X73025000Y-57785000D03*
X73025000Y-55245000D03*
D22*
X70485000Y-55245000D03*
X70485000Y-57785000D03*
X67945000Y-57785000D03*
X67945000Y-55245000D03*
X65405000Y-55245000D03*
X65405000Y-57785000D03*
X62865000Y-57785000D03*
X62865000Y-55245000D03*
D23*
X60325000Y-55245000D03*
X60325000Y-57785000D03*
D22*
X57785000Y-55245000D03*
X57785000Y-57785000D03*
X55245000Y-57785000D03*
X55245000Y-55245000D03*
X52705000Y-55245000D03*
X52705000Y-57785000D03*
X50165000Y-55245000D03*
X50165000Y-57785000D03*
D23*
X47625000Y-57785000D03*
X47625000Y-55245000D03*
D22*
X45085000Y-57785000D03*
X45085000Y-55245000D03*
X42545000Y-55245000D03*
X42545000Y-57785000D03*
X40005000Y-57785000D03*
X40005000Y-55245000D03*
X37465000Y-55245000D03*
X37465000Y-57785000D03*
D23*
X34925000Y-57785000D03*
X34925000Y-55245000D03*
D22*
X32385000Y-55245000D03*
X32385000Y-57785000D03*
X29845000Y-55245000D03*
X29845000Y-57785000D03*
%TD*%
D14*
%TO.C,MX28*%
X51276250Y-128587500D03*
D12*
X56356250Y-128587500D03*
D13*
X52546250Y-126047500D03*
D14*
X61436250Y-128587500D03*
D13*
X58896250Y-123507500D03*
D15*
X49271250Y-126047500D03*
X62198250Y-123507500D03*
%TD*%
D17*
%TO.C,D42*%
X180975000Y-50868750D03*
D16*
X180975000Y-53368750D03*
X180975000Y-56168750D03*
D10*
X180975000Y-58668750D03*
%TD*%
D17*
%TO.C,D33*%
X177800000Y-50075000D03*
D16*
X177800000Y-52575000D03*
D10*
X177800000Y-57875000D03*
D16*
X177800000Y-55375000D03*
%TD*%
D13*
%TO.C,MX21_1*%
X97790000Y-106997500D03*
D14*
X96520000Y-109537500D03*
X106680000Y-109537500D03*
D12*
X101600000Y-109537500D03*
D13*
X104140000Y-104457500D03*
D15*
X94515000Y-106997500D03*
X107442000Y-104457500D03*
%TD*%
D16*
%TO.C,D14*%
X152400000Y-50987500D03*
D17*
X152400000Y-48487500D03*
D16*
X152400000Y-53787500D03*
D10*
X152400000Y-56287500D03*
%TD*%
D14*
%TO.C,MX3*%
X94138750Y-71437500D03*
D13*
X95408750Y-68897500D03*
D12*
X99218750Y-71437500D03*
D14*
X104298750Y-71437500D03*
D13*
X101758750Y-66357500D03*
D15*
X92133750Y-68897500D03*
X105060750Y-66357500D03*
%TD*%
D17*
%TO.C,D7*%
X187325000Y-47693750D03*
D16*
X187325000Y-50193750D03*
D10*
X187325000Y-55493750D03*
D16*
X187325000Y-52993750D03*
%TD*%
D13*
%TO.C,MX9*%
X33496250Y-87947500D03*
D14*
X42386250Y-90487500D03*
X32226250Y-90487500D03*
D12*
X37306250Y-90487500D03*
D13*
X39846250Y-85407500D03*
D15*
X30221250Y-87947500D03*
X43148250Y-85407500D03*
%TD*%
D12*
%TO.C,MX1*%
X56356250Y-66675000D03*
D14*
X61436250Y-66675000D03*
D13*
X52546250Y-64135000D03*
X58896250Y-61595000D03*
D14*
X51276250Y-66675000D03*
D15*
X49271250Y-64135000D03*
X62198250Y-61595000D03*
%TD*%
D14*
%TO.C,MX32*%
X156051250Y-128587500D03*
X166211250Y-128587500D03*
D12*
X161131250Y-128587500D03*
D13*
X163671250Y-123507500D03*
X157321250Y-126047500D03*
D15*
X154046250Y-126047500D03*
X166973250Y-123507500D03*
%TD*%
D16*
%TO.C,D17*%
X209550000Y-50987500D03*
D17*
X209550000Y-48487500D03*
D16*
X209550000Y-53787500D03*
D10*
X209550000Y-56287500D03*
%TD*%
D17*
%TO.C,D6*%
X168275000Y-47693750D03*
D16*
X168275000Y-50193750D03*
X168275000Y-52993750D03*
D10*
X168275000Y-55493750D03*
%TD*%
D17*
%TO.C,D23*%
X155575000Y-49281250D03*
D16*
X155575000Y-51781250D03*
X155575000Y-54581250D03*
D10*
X155575000Y-57081250D03*
%TD*%
D14*
%TO.C,MX40*%
X135255000Y-147637500D03*
D13*
X132715000Y-142557500D03*
D12*
X130175000Y-147637500D03*
D14*
X125095000Y-147637500D03*
D13*
X126365000Y-145097500D03*
D15*
X123090000Y-145097500D03*
X136017000Y-142557500D03*
%TD*%
D14*
%TO.C,MX5*%
X132238750Y-71437500D03*
D12*
X137318750Y-71437500D03*
D14*
X142398750Y-71437500D03*
D13*
X133508750Y-68897500D03*
X139858750Y-66357500D03*
D15*
X130233750Y-68897500D03*
X143160750Y-66357500D03*
%TD*%
D14*
%TO.C,MX39*%
X98901250Y-147637500D03*
D13*
X100171250Y-145097500D03*
X106521250Y-142557500D03*
D12*
X103981250Y-147637500D03*
D14*
X109061250Y-147637500D03*
D15*
X96896250Y-145097500D03*
X109823250Y-142557500D03*
%TD*%
D13*
%TO.C,MX16*%
X187483750Y-85407500D03*
D14*
X190023750Y-90487500D03*
D13*
X181133750Y-87947500D03*
D14*
X179863750Y-90487500D03*
D12*
X184943750Y-90487500D03*
D15*
X177858750Y-87947500D03*
X190785750Y-85407500D03*
%TD*%
D12*
%TO.C,MX38*%
X75406250Y-147637500D03*
D13*
X71596250Y-145097500D03*
D14*
X70326250Y-147637500D03*
X80486250Y-147637500D03*
D13*
X77946250Y-142557500D03*
D15*
X68321250Y-145097500D03*
X81248250Y-142557500D03*
%TD*%
D17*
%TO.C,D16*%
X190500000Y-48487500D03*
D16*
X190500000Y-50987500D03*
X190500000Y-53787500D03*
D10*
X190500000Y-56287500D03*
%TD*%
D14*
%TO.C,MX31*%
X137001250Y-128587500D03*
D13*
X144621250Y-123507500D03*
X138271250Y-126047500D03*
D14*
X147161250Y-128587500D03*
D12*
X142081250Y-128587500D03*
D15*
X134996250Y-126047500D03*
X147923250Y-123507500D03*
%TD*%
D14*
%TO.C,MX8*%
X189388750Y-71437500D03*
X199548750Y-71437500D03*
D12*
X194468750Y-71437500D03*
D13*
X197008750Y-66357500D03*
X190658750Y-68897500D03*
D15*
X187383750Y-68897500D03*
X200310750Y-66357500D03*
%TD*%
D14*
%TO.C,MX41*%
X159067500Y-147637500D03*
X148907500Y-147637500D03*
D13*
X150177500Y-145097500D03*
X156527500Y-142557500D03*
D12*
X153987500Y-147637500D03*
D15*
X146902500Y-145097500D03*
X159829500Y-142557500D03*
%TD*%
D12*
%TO.C,MX20*%
X75406250Y-109537500D03*
D13*
X77946250Y-104457500D03*
D14*
X70326250Y-109537500D03*
X80486250Y-109537500D03*
D13*
X71596250Y-106997500D03*
D15*
X68321250Y-106997500D03*
X81248250Y-104457500D03*
%TD*%
D14*
%TO.C,MX17*%
X209073750Y-90487500D03*
X198913750Y-90487500D03*
D13*
X206533750Y-85407500D03*
D12*
X203993750Y-90487500D03*
D13*
X200183750Y-87947500D03*
D15*
X196908750Y-87947500D03*
X209835750Y-85407500D03*
%TD*%
D13*
%TO.C,MX4*%
X120808750Y-66357500D03*
X114458750Y-68897500D03*
D14*
X123348750Y-71437500D03*
X113188750Y-71437500D03*
D12*
X118268750Y-71437500D03*
D15*
X111183750Y-68897500D03*
X124110750Y-66357500D03*
%TD*%
D16*
%TO.C,D24*%
X174625000Y-51781250D03*
D17*
X174625000Y-49281250D03*
D10*
X174625000Y-57081250D03*
D16*
X174625000Y-54581250D03*
%TD*%
D13*
%TO.C,MX42*%
X173990000Y-145097500D03*
D14*
X172720000Y-147637500D03*
X182880000Y-147637500D03*
D12*
X177800000Y-147637500D03*
D13*
X180340000Y-142557500D03*
D15*
X170715000Y-145097500D03*
X183642000Y-142557500D03*
%TD*%
D12*
%TO.C,MX23*%
X151606250Y-109537500D03*
D14*
X156686250Y-109537500D03*
X146526250Y-109537500D03*
D13*
X147796250Y-106997500D03*
X154146250Y-104457500D03*
D15*
X144521250Y-106997500D03*
X157448250Y-104457500D03*
%TD*%
D14*
%TO.C,MX33*%
X185261250Y-128587500D03*
D13*
X182721250Y-123507500D03*
D14*
X175101250Y-128587500D03*
D12*
X180181250Y-128587500D03*
D13*
X176371250Y-126047500D03*
D15*
X173096250Y-126047500D03*
X186023250Y-123507500D03*
%TD*%
D14*
%TO.C,MX36*%
X32226250Y-147637500D03*
D12*
X37306250Y-147637500D03*
D13*
X33496250Y-145097500D03*
X39846250Y-142557500D03*
D14*
X42386250Y-147637500D03*
D15*
X30221250Y-145097500D03*
X43148250Y-142557500D03*
%TD*%
D17*
%TO.C,D34*%
X196850000Y-50075000D03*
D16*
X196850000Y-52575000D03*
D10*
X196850000Y-57875000D03*
D16*
X196850000Y-55375000D03*
%TD*%
D12*
%TO.C,MX12*%
X103981250Y-90487500D03*
D13*
X106521250Y-85407500D03*
D14*
X98901250Y-90487500D03*
X109061250Y-90487500D03*
D13*
X100171250Y-87947500D03*
D15*
X96896250Y-87947500D03*
X109823250Y-85407500D03*
%TD*%
D16*
%TO.C,D43*%
X200025000Y-53368750D03*
D17*
X200025000Y-50868750D03*
D16*
X200025000Y-56168750D03*
D10*
X200025000Y-58668750D03*
%TD*%
D13*
%TO.C,MX30*%
X113665000Y-123507500D03*
D21*
X99187000Y-121602500D03*
D12*
X123063000Y-136842500D03*
D14*
X116205000Y-128587500D03*
X106045000Y-128587500D03*
D21*
X123063000Y-121602500D03*
D12*
X111125000Y-128587500D03*
X99187000Y-136842500D03*
D13*
X107315000Y-126047500D03*
D15*
X104040000Y-126047500D03*
X116967000Y-123507500D03*
%TD*%
D14*
%TO.C,MX29*%
X70326250Y-128587500D03*
X80486250Y-128587500D03*
D13*
X77946250Y-123507500D03*
X71596250Y-126047500D03*
D12*
X75406250Y-128587500D03*
D15*
X68321250Y-126047500D03*
X81248250Y-123507500D03*
%TD*%
D16*
%TO.C,D15*%
X171450000Y-50987500D03*
D17*
X171450000Y-48487500D03*
D16*
X171450000Y-53787500D03*
D10*
X171450000Y-56287500D03*
%TD*%
D14*
%TO.C,MX19*%
X61436250Y-109537500D03*
D13*
X58896250Y-104457500D03*
D14*
X51276250Y-109537500D03*
D13*
X52546250Y-106997500D03*
D12*
X56356250Y-109537500D03*
D15*
X49271250Y-106997500D03*
X62198250Y-104457500D03*
%TD*%
D13*
%TO.C,MX6*%
X152558750Y-68897500D03*
D12*
X156368750Y-71437500D03*
D13*
X158908750Y-66357500D03*
D14*
X161448750Y-71437500D03*
X151288750Y-71437500D03*
D15*
X149283750Y-68897500D03*
X162210750Y-66357500D03*
%TD*%
D12*
%TO.C,MX44*%
X213518750Y-71437500D03*
D13*
X209708750Y-68897500D03*
X216058750Y-66357500D03*
D14*
X208438750Y-71437500D03*
X218598750Y-71437500D03*
D15*
X206433750Y-68897500D03*
X219360750Y-66357500D03*
%TD*%
D24*
%TO.C,C3*%
X104531250Y-77787500D03*
X106606250Y-77787500D03*
%TD*%
D25*
%TO.C,D12*%
X113506250Y-82487500D03*
X113506250Y-85787500D03*
%TD*%
D23*
%TO.C,J6*%
X26193750Y-84137500D03*
D22*
X26193750Y-86677500D03*
X26193750Y-89217500D03*
X26193750Y-91757500D03*
X26193750Y-94297500D03*
X26193750Y-96837500D03*
%TD*%
D25*
%TO.C,D38*%
X84137500Y-139637500D03*
X84137500Y-142937500D03*
%TD*%
%TO.C,D39*%
X114300000Y-139637500D03*
X114300000Y-142937500D03*
%TD*%
%TO.C,D36*%
X46037500Y-139637500D03*
X46037500Y-142937500D03*
%TD*%
D26*
%TO.C,C26*%
X211381250Y-118268750D03*
X209306250Y-118268750D03*
%TD*%
D27*
%TO.C,D110*%
X53656250Y-95293750D03*
X53656250Y-96793750D03*
D28*
X59056250Y-96793750D03*
D27*
X59056250Y-95293750D03*
%TD*%
D24*
%TO.C,C46*%
X49762500Y-72898000D03*
X51837500Y-72898000D03*
%TD*%
%TO.C,C8*%
X199781250Y-77787500D03*
X201856250Y-77787500D03*
%TD*%
D27*
%TO.C,D138*%
X78106250Y-153943750D03*
X78106250Y-152443750D03*
D29*
X72706250Y-152443750D03*
D27*
X72706250Y-153943750D03*
%TD*%
%TO.C,D101*%
X59056250Y-72981250D03*
X59056250Y-71481250D03*
D29*
X53656250Y-71481250D03*
D27*
X53656250Y-72981250D03*
%TD*%
D25*
%TO.C,D40*%
X139700000Y-139637500D03*
X139700000Y-142937500D03*
%TD*%
%TO.C,D22*%
X141287500Y-101537500D03*
X141287500Y-104837500D03*
%TD*%
%TO.C,D29*%
X84137500Y-120587500D03*
X84137500Y-123887500D03*
%TD*%
D26*
%TO.C,C34*%
X193918750Y-133350000D03*
X191843750Y-133350000D03*
%TD*%
D27*
%TO.C,D130*%
X108425000Y-133393750D03*
X108425000Y-134893750D03*
D28*
X113825000Y-134893750D03*
D27*
X113825000Y-133393750D03*
%TD*%
D26*
%TO.C,C27*%
X31993750Y-133350000D03*
X29918750Y-133350000D03*
%TD*%
D27*
%TO.C,D117*%
X201293750Y-95293750D03*
X201293750Y-96793750D03*
D28*
X206693750Y-96793750D03*
D27*
X206693750Y-95293750D03*
%TD*%
%TO.C,D144*%
X210818750Y-76243750D03*
X210818750Y-77743750D03*
D28*
X216218750Y-77743750D03*
D27*
X216218750Y-76243750D03*
%TD*%
D26*
%TO.C,C32*%
X155818750Y-133350000D03*
X153743750Y-133350000D03*
%TD*%
D27*
%TO.C,D106*%
X159068750Y-77743750D03*
X159068750Y-76243750D03*
D29*
X153668750Y-76243750D03*
D27*
X153668750Y-77743750D03*
%TD*%
D24*
%TO.C,C40*%
X134947750Y-153987500D03*
X137022750Y-153987500D03*
%TD*%
D27*
%TO.C,D137*%
X59056250Y-153943750D03*
X59056250Y-152443750D03*
D29*
X53656250Y-152443750D03*
D27*
X53656250Y-153943750D03*
%TD*%
D24*
%TO.C,C39*%
X109293750Y-153987500D03*
X111368750Y-153987500D03*
%TD*%
D25*
%TO.C,D28*%
X65087500Y-120587500D03*
X65087500Y-123887500D03*
%TD*%
D27*
%TO.C,D128*%
X53656250Y-133393750D03*
X53656250Y-134893750D03*
D28*
X59056250Y-134893750D03*
D27*
X59056250Y-133393750D03*
%TD*%
%TO.C,D136*%
X40006250Y-153943750D03*
X40006250Y-152443750D03*
D29*
X34606250Y-152443750D03*
D27*
X34606250Y-153943750D03*
%TD*%
%TO.C,D109*%
X34606250Y-95293750D03*
X34606250Y-96793750D03*
D28*
X40006250Y-96793750D03*
D27*
X40006250Y-95293750D03*
%TD*%
%TO.C,D127*%
X34606250Y-133393750D03*
X34606250Y-134893750D03*
D28*
X40006250Y-134893750D03*
D27*
X40006250Y-133393750D03*
%TD*%
%TO.C,D119*%
X59056250Y-115843750D03*
X59056250Y-114343750D03*
D29*
X53656250Y-114343750D03*
D27*
X53656250Y-115843750D03*
%TD*%
D30*
%TO.C,C30*%
X105568750Y-132312500D03*
X105568750Y-134387500D03*
%TD*%
D26*
%TO.C,C17*%
X198681250Y-95250000D03*
X196606250Y-95250000D03*
%TD*%
D27*
%TO.C,D104*%
X120968750Y-77743750D03*
X120968750Y-76243750D03*
D29*
X115568750Y-76243750D03*
D27*
X115568750Y-77743750D03*
%TD*%
D24*
%TO.C,C19*%
X61668750Y-115887500D03*
X63743750Y-115887500D03*
%TD*%
D25*
%TO.C,D4*%
X126206250Y-73881250D03*
X126206250Y-70581250D03*
%TD*%
D24*
%TO.C,C2*%
X80718750Y-73025000D03*
X82793750Y-73025000D03*
%TD*%
D25*
%TO.C,D18*%
X46037500Y-101537500D03*
X46037500Y-104837500D03*
%TD*%
%TO.C,D11*%
X84137500Y-82487500D03*
X84137500Y-85787500D03*
%TD*%
D27*
%TO.C,D114*%
X144143750Y-95293750D03*
X144143750Y-96793750D03*
D28*
X149543750Y-96793750D03*
D27*
X149543750Y-95293750D03*
%TD*%
D24*
%TO.C,C43*%
X214195750Y-153987500D03*
X216270750Y-153987500D03*
%TD*%
%TO.C,C42*%
X183112500Y-153987500D03*
X185187500Y-153987500D03*
%TD*%
D25*
%TO.C,D31*%
X150812500Y-120587500D03*
X150812500Y-123887500D03*
%TD*%
D27*
%TO.C,D132*%
X158431250Y-133393750D03*
X158431250Y-134893750D03*
D28*
X163831250Y-134893750D03*
D27*
X163831250Y-133393750D03*
%TD*%
%TO.C,D108*%
X197168750Y-77743750D03*
X197168750Y-76243750D03*
D29*
X191768750Y-76243750D03*
D27*
X191768750Y-77743750D03*
%TD*%
D25*
%TO.C,D37*%
X65087500Y-139637500D03*
X65087500Y-142937500D03*
%TD*%
D31*
%TO.C,D121*%
X96087500Y-117793750D03*
X97587500Y-117793750D03*
D32*
X97587500Y-112393750D03*
D31*
X96087500Y-112393750D03*
%TD*%
D27*
%TO.C,D112*%
X101281250Y-95293750D03*
X101281250Y-96793750D03*
D28*
X106681250Y-96793750D03*
D27*
X106681250Y-95293750D03*
%TD*%
D24*
%TO.C,C1*%
X61668750Y-73025000D03*
X63743750Y-73025000D03*
%TD*%
%TO.C,C36*%
X42618750Y-153987500D03*
X44693750Y-153987500D03*
%TD*%
D27*
%TO.C,D105*%
X140018750Y-77743750D03*
X140018750Y-76243750D03*
D29*
X134618750Y-76243750D03*
D27*
X134618750Y-77743750D03*
%TD*%
%TO.C,D125*%
X192406250Y-115843750D03*
X192406250Y-114343750D03*
D29*
X187006250Y-114343750D03*
D27*
X187006250Y-115843750D03*
%TD*%
D30*
%TO.C,C31*%
X136525000Y-132312500D03*
X136525000Y-134387500D03*
%TD*%
D33*
%TO.C,J2*%
X89235875Y-61150389D03*
X88882322Y-60796836D03*
X88528769Y-60443282D03*
X88175215Y-60089729D03*
X87821662Y-59736175D03*
X87468108Y-59382622D03*
X87114555Y-59029069D03*
X86761002Y-58675515D03*
X86407448Y-58321962D03*
X86053895Y-57968408D03*
X85700342Y-57614855D03*
X85346788Y-57261302D03*
X84993235Y-56907748D03*
X84639681Y-56554195D03*
X84286128Y-56200642D03*
X83932575Y-55847088D03*
X83579021Y-55493535D03*
X83225468Y-55139981D03*
X82871914Y-54786428D03*
D34*
X91710749Y-62211049D03*
X81457701Y-51958001D03*
X84498260Y-48068914D03*
X95599836Y-59170490D03*
%TD*%
D27*
%TO.C,D139*%
X106681250Y-153943750D03*
X106681250Y-152443750D03*
D29*
X101281250Y-152443750D03*
D27*
X101281250Y-153943750D03*
%TD*%
D26*
%TO.C,C12*%
X98668750Y-95250000D03*
X96593750Y-95250000D03*
%TD*%
D24*
%TO.C,C20*%
X80718750Y-115887500D03*
X82793750Y-115887500D03*
%TD*%
D27*
%TO.C,D113*%
X125093750Y-95293750D03*
X125093750Y-96793750D03*
D28*
X130493750Y-96793750D03*
D27*
X130493750Y-95293750D03*
%TD*%
D35*
%TO.C,C21*%
X93662500Y-117718750D03*
X93662500Y-115643750D03*
%TD*%
D24*
%TO.C,C6*%
X161681250Y-77787500D03*
X163756250Y-77787500D03*
%TD*%
D25*
%TO.C,D0*%
X28575000Y-69912500D03*
X28575000Y-66612500D03*
%TD*%
%TO.C,D30*%
X119856250Y-120587500D03*
X119856250Y-123887500D03*
%TD*%
D26*
%TO.C,C11*%
X70093750Y-95250000D03*
X68018750Y-95250000D03*
%TD*%
D27*
%TO.C,D131*%
X139381250Y-133393750D03*
X139381250Y-134893750D03*
D28*
X144781250Y-134893750D03*
D27*
X144781250Y-133393750D03*
%TD*%
%TO.C,D135*%
X215581250Y-133393750D03*
X215581250Y-134893750D03*
D28*
X220981250Y-134893750D03*
D27*
X220981250Y-133393750D03*
%TD*%
D24*
%TO.C,C22*%
X137868750Y-115887500D03*
X139943750Y-115887500D03*
%TD*%
D27*
%TO.C,D120*%
X78106250Y-115843750D03*
X78106250Y-114343750D03*
D29*
X72706250Y-114343750D03*
D27*
X72706250Y-115843750D03*
%TD*%
%TO.C,D143*%
X211456250Y-153943750D03*
X211456250Y-152443750D03*
D29*
X206056250Y-152443750D03*
D27*
X206056250Y-153943750D03*
%TD*%
D26*
%TO.C,C16*%
X179631250Y-95250000D03*
X177556250Y-95250000D03*
%TD*%
D25*
%TO.C,D1*%
X65087500Y-69912500D03*
X65087500Y-66612500D03*
%TD*%
D24*
%TO.C,C37*%
X61668750Y-153987500D03*
X63743750Y-153987500D03*
%TD*%
D26*
%TO.C,C9*%
X31993750Y-95250000D03*
X29918750Y-95250000D03*
%TD*%
D25*
%TO.C,D21*%
X111918750Y-101537500D03*
X111918750Y-104837500D03*
%TD*%
D24*
%TO.C,C24*%
X175968750Y-115887500D03*
X178043750Y-115887500D03*
%TD*%
D27*
%TO.C,D141*%
X156687500Y-153943750D03*
X156687500Y-152443750D03*
D29*
X151287500Y-152443750D03*
D27*
X151287500Y-153943750D03*
%TD*%
D26*
%TO.C,C35*%
X212968750Y-133350000D03*
X210893750Y-133350000D03*
%TD*%
D27*
%TO.C,D126*%
X211456250Y-115843750D03*
X211456250Y-114343750D03*
D29*
X206056250Y-114343750D03*
D27*
X206056250Y-115843750D03*
%TD*%
D25*
%TO.C,D20*%
X84137500Y-101537500D03*
X84137500Y-104837500D03*
%TD*%
D24*
%TO.C,C4*%
X123581250Y-77787500D03*
X125656250Y-77787500D03*
%TD*%
D25*
%TO.C,D9*%
X46831250Y-82487500D03*
X46831250Y-85787500D03*
%TD*%
D24*
%TO.C,C18*%
X42618750Y-115887500D03*
X44693750Y-115887500D03*
%TD*%
D27*
%TO.C,D134*%
X196531250Y-133393750D03*
X196531250Y-134893750D03*
D28*
X201931250Y-134893750D03*
D27*
X201931250Y-133393750D03*
%TD*%
D25*
%TO.C,D2*%
X83343750Y-69912500D03*
X83343750Y-66612500D03*
%TD*%
%TO.C,D13*%
X136525000Y-82487500D03*
X136525000Y-85787500D03*
%TD*%
D24*
%TO.C,C41*%
X159331750Y-153987500D03*
X161406750Y-153987500D03*
%TD*%
D27*
%TO.C,D116*%
X182243750Y-95293750D03*
X182243750Y-96793750D03*
D28*
X187643750Y-96793750D03*
D27*
X187643750Y-95293750D03*
%TD*%
%TO.C,D140*%
X132875000Y-153943750D03*
X132875000Y-152443750D03*
D29*
X127475000Y-152443750D03*
D27*
X127475000Y-153943750D03*
%TD*%
D26*
%TO.C,C14*%
X141531250Y-95250000D03*
X139456250Y-95250000D03*
%TD*%
D24*
%TO.C,C5*%
X142631250Y-77787500D03*
X144706250Y-77787500D03*
%TD*%
D27*
%TO.C,D124*%
X173356250Y-115843750D03*
X173356250Y-114343750D03*
D29*
X167956250Y-114343750D03*
D27*
X167956250Y-115843750D03*
%TD*%
D26*
%TO.C,C33*%
X174868750Y-133350000D03*
X172793750Y-133350000D03*
%TD*%
D27*
%TO.C,D102*%
X78106250Y-72981250D03*
X78106250Y-71481250D03*
D29*
X72706250Y-71481250D03*
D27*
X72706250Y-72981250D03*
%TD*%
D26*
%TO.C,C15*%
X160581250Y-95250000D03*
X158506250Y-95250000D03*
%TD*%
D27*
%TO.C,D123*%
X154306250Y-115843750D03*
X154306250Y-114343750D03*
D29*
X148906250Y-114343750D03*
D27*
X148906250Y-115843750D03*
%TD*%
D23*
%TO.C,J1*%
X126503750Y-47793750D03*
D22*
X129043750Y-47793750D03*
X126503750Y-50333750D03*
X129043750Y-50333750D03*
X126503750Y-52873750D03*
X129043750Y-52873750D03*
X126503750Y-55413750D03*
X129043750Y-55413750D03*
%TD*%
D25*
%TO.C,D3*%
X107156250Y-73881250D03*
X107156250Y-70581250D03*
%TD*%
D26*
%TO.C,C13*%
X122481250Y-95250000D03*
X120406250Y-95250000D03*
%TD*%
D24*
%TO.C,C23*%
X156918750Y-115887500D03*
X158993750Y-115887500D03*
%TD*%
D27*
%TO.C,D103*%
X101918750Y-77743750D03*
X101918750Y-76243750D03*
D29*
X96518750Y-76243750D03*
D27*
X96518750Y-77743750D03*
%TD*%
D25*
%TO.C,D19*%
X65087500Y-101537500D03*
X65087500Y-104837500D03*
%TD*%
D27*
%TO.C,D142*%
X180500000Y-153943750D03*
X180500000Y-152443750D03*
D29*
X175100000Y-152443750D03*
D27*
X175100000Y-153943750D03*
%TD*%
%TO.C,D111*%
X72706250Y-95293750D03*
X72706250Y-96793750D03*
D28*
X78106250Y-96793750D03*
D27*
X78106250Y-95293750D03*
%TD*%
D24*
%TO.C,C25*%
X195018750Y-115887500D03*
X197093750Y-115887500D03*
%TD*%
D27*
%TO.C,D118*%
X40006250Y-115843750D03*
X40006250Y-114343750D03*
D29*
X34606250Y-114343750D03*
D27*
X34606250Y-115843750D03*
%TD*%
D36*
%TO.C,U2*%
X45871250Y-72881250D03*
X45871250Y-72231250D03*
X45871250Y-71581250D03*
X47791250Y-71581250D03*
X47791250Y-72231250D03*
X47791250Y-72881250D03*
%TD*%
D26*
%TO.C,C29*%
X70093750Y-133350000D03*
X68018750Y-133350000D03*
%TD*%
D27*
%TO.C,D133*%
X177481250Y-133393750D03*
X177481250Y-134893750D03*
D28*
X182881250Y-134893750D03*
D27*
X182881250Y-133393750D03*
%TD*%
D25*
%TO.C,D27*%
X46037500Y-120587500D03*
X46037500Y-123887500D03*
%TD*%
D27*
%TO.C,D107*%
X178118750Y-77743750D03*
X178118750Y-76243750D03*
D29*
X172718750Y-76243750D03*
D27*
X172718750Y-77743750D03*
%TD*%
%TO.C,D115*%
X163193750Y-95293750D03*
X163193750Y-96793750D03*
D28*
X168593750Y-96793750D03*
D27*
X168593750Y-95293750D03*
%TD*%
D24*
%TO.C,C7*%
X180731250Y-77787500D03*
X182806250Y-77787500D03*
%TD*%
D27*
%TO.C,D122*%
X135256250Y-115843750D03*
X135256250Y-114343750D03*
D29*
X129856250Y-114343750D03*
D27*
X129856250Y-115843750D03*
%TD*%
%TO.C,D129*%
X72706250Y-133393750D03*
X72706250Y-134893750D03*
D28*
X78106250Y-134893750D03*
D27*
X78106250Y-133393750D03*
%TD*%
D24*
%TO.C,C38*%
X80617150Y-153987500D03*
X82692150Y-153987500D03*
%TD*%
D25*
%TO.C,D10*%
X65087500Y-82487500D03*
X65087500Y-85787500D03*
%TD*%
D26*
%TO.C,C45*%
X43900000Y-73025000D03*
X41825000Y-73025000D03*
%TD*%
%TO.C,C28*%
X51043750Y-133350000D03*
X48968750Y-133350000D03*
%TD*%
%TO.C,C10*%
X51043750Y-95250000D03*
X48968750Y-95250000D03*
%TD*%
%TO.C,C44*%
X208206250Y-76200000D03*
X206131250Y-76200000D03*
%TD*%
M02*
