%TF.GenerationSoftware,KiCad,Pcbnew,(6.0.5)*%
%TF.CreationDate,2022-07-14T17:39:41-06:00*%
%TF.ProjectId,kb,6b622e6b-6963-4616-945f-706362585858,rev?*%
%TF.SameCoordinates,Original*%
%TF.FileFunction,Soldermask,Bot*%
%TF.FilePolarity,Negative*%
%FSLAX46Y46*%
G04 Gerber Fmt 4.6, Leading zero omitted, Abs format (unit mm)*
G04 Created by KiCad (PCBNEW (6.0.5)) date 2022-07-14 17:39:41*
%MOMM*%
%LPD*%
G01*
G04 APERTURE LIST*
G04 Aperture macros list*
%AMRoundRect*
0 Rectangle with rounded corners*
0 $1 Rounding radius*
0 $2 $3 $4 $5 $6 $7 $8 $9 X,Y pos of 4 corners*
0 Add a 4 corners polygon primitive as box body*
4,1,4,$2,$3,$4,$5,$6,$7,$8,$9,$2,$3,0*
0 Add four circle primitives for the rounded corners*
1,1,$1+$1,$2,$3*
1,1,$1+$1,$4,$5*
1,1,$1+$1,$6,$7*
1,1,$1+$1,$8,$9*
0 Add four rect primitives between the rounded corners*
20,1,$1+$1,$2,$3,$4,$5,0*
20,1,$1+$1,$4,$5,$6,$7,0*
20,1,$1+$1,$6,$7,$8,$9,0*
20,1,$1+$1,$8,$9,$2,$3,0*%
G04 Aperture macros list end*
%ADD10C,3.987800*%
%ADD11C,1.750000*%
%ADD12C,3.000000*%
%ADD13R,2.550000X2.500000*%
%ADD14R,1.700000X1.700000*%
%ADD15O,1.700000X1.700000*%
%ADD16O,3.200000X2.000000*%
%ADD17R,2.000000X2.000000*%
%ADD18C,2.000000*%
%ADD19C,3.048000*%
%ADD20RoundRect,0.250000X0.350000X0.450000X-0.350000X0.450000X-0.350000X-0.450000X0.350000X-0.450000X0*%
%ADD21RoundRect,0.250000X0.475000X-0.337500X0.475000X0.337500X-0.475000X0.337500X-0.475000X-0.337500X0*%
%ADD22R,1.200000X0.900000*%
%ADD23RoundRect,0.250000X-0.475000X0.337500X-0.475000X-0.337500X0.475000X-0.337500X0.475000X0.337500X0*%
%ADD24R,1.400000X0.820000*%
%ADD25RoundRect,0.205000X0.495000X0.205000X-0.495000X0.205000X-0.495000X-0.205000X0.495000X-0.205000X0*%
%ADD26RoundRect,0.250000X0.337500X0.475000X-0.337500X0.475000X-0.337500X-0.475000X0.337500X-0.475000X0*%
%ADD27R,1.700000X3.500000*%
%ADD28R,1.900000X0.300000*%
%ADD29C,1.950000*%
%ADD30RoundRect,0.020000X-0.180000X0.575000X-0.180000X-0.575000X0.180000X-0.575000X0.180000X0.575000X0*%
G04 APERTURE END LIST*
D10*
%TO.C,MX22*%
X132556250Y-109537500D03*
D11*
X127476250Y-109537500D03*
D12*
X135096250Y-104457500D03*
D11*
X137636250Y-109537500D03*
D12*
X128746250Y-106997500D03*
D13*
X125471250Y-106997500D03*
X138398250Y-104457500D03*
%TD*%
D11*
%TO.C,MX14*%
X141763750Y-90487500D03*
X151923750Y-90487500D03*
D10*
X146843750Y-90487500D03*
D12*
X143033750Y-87947500D03*
X149383750Y-85407500D03*
D13*
X139758750Y-87947500D03*
X152685750Y-85407500D03*
%TD*%
D11*
%TO.C,MX2*%
X80486250Y-66675000D03*
D12*
X71596250Y-64135000D03*
D11*
X70326250Y-66675000D03*
D10*
X75406250Y-66675000D03*
D12*
X77946250Y-61595000D03*
D13*
X68321250Y-64135000D03*
X81248250Y-61595000D03*
%TD*%
D14*
%TO.C,J6*%
X87884000Y-95758000D03*
D15*
X87884000Y-98298000D03*
X87884000Y-100838000D03*
X87884000Y-103378000D03*
X87884000Y-105918000D03*
X87884000Y-108458000D03*
%TD*%
D11*
%TO.C,MX24*%
X175736250Y-109537500D03*
D10*
X170656250Y-109537500D03*
D11*
X165576250Y-109537500D03*
D12*
X166846250Y-106997500D03*
X173196250Y-104457500D03*
D13*
X163571250Y-106997500D03*
X176498250Y-104457500D03*
%TD*%
D16*
%TO.C,SW1*%
X32543750Y-61075000D03*
X32543750Y-72275000D03*
D17*
X40043750Y-69175000D03*
D18*
X40043750Y-64175000D03*
X40043750Y-66675000D03*
X25543750Y-64175000D03*
X25543750Y-69175000D03*
%TD*%
D11*
%TO.C,MX34*%
X204311250Y-128587500D03*
D12*
X201771250Y-123507500D03*
D10*
X199231250Y-128587500D03*
D11*
X194151250Y-128587500D03*
D12*
X195421250Y-126047500D03*
D13*
X192146250Y-126047500D03*
X205073250Y-123507500D03*
%TD*%
D14*
%TO.C,J5*%
X186436000Y-149733000D03*
D15*
X188976000Y-149733000D03*
X191516000Y-149733000D03*
X194056000Y-149733000D03*
X196596000Y-149733000D03*
X199136000Y-149733000D03*
X201676000Y-149733000D03*
%TD*%
D12*
%TO.C,MX15*%
X168433750Y-85407500D03*
D11*
X170973750Y-90487500D03*
X160813750Y-90487500D03*
D12*
X162083750Y-87947500D03*
D10*
X165893750Y-90487500D03*
D13*
X158808750Y-87947500D03*
X171735750Y-85407500D03*
%TD*%
D11*
%TO.C,MX43*%
X213836250Y-147637500D03*
D19*
X220694250Y-154622500D03*
X196818250Y-154622500D03*
D12*
X204946250Y-145097500D03*
D10*
X220694250Y-139382500D03*
D12*
X211296250Y-142557500D03*
D10*
X196818250Y-139382500D03*
D11*
X203676250Y-147637500D03*
D10*
X208756250Y-147637500D03*
D13*
X201671250Y-145097500D03*
X214598250Y-142557500D03*
%TD*%
D11*
%TO.C,MX18*%
X32226250Y-109537500D03*
D12*
X39846250Y-104457500D03*
X33496250Y-106997500D03*
D11*
X42386250Y-109537500D03*
D10*
X37306250Y-109537500D03*
D13*
X30221250Y-106997500D03*
X43148250Y-104457500D03*
%TD*%
D11*
%TO.C,MX7*%
X180498750Y-71437500D03*
X170338750Y-71437500D03*
D10*
X175418750Y-71437500D03*
D12*
X177958750Y-66357500D03*
X171608750Y-68897500D03*
D13*
X168333750Y-68897500D03*
X181260750Y-66357500D03*
%TD*%
D14*
%TO.C,J3*%
X37782500Y-53467000D03*
D15*
X40322500Y-53467000D03*
X42862500Y-53467000D03*
X45402500Y-53467000D03*
X47942500Y-53467000D03*
%TD*%
D12*
%TO.C,MX26*%
X211296250Y-104457500D03*
D11*
X213836250Y-109537500D03*
D10*
X208756250Y-109537500D03*
D12*
X204946250Y-106997500D03*
D11*
X203676250Y-109537500D03*
D13*
X201671250Y-106997500D03*
X214598250Y-104457500D03*
%TD*%
D11*
%TO.C,MX10*%
X61436250Y-90487500D03*
D12*
X58896250Y-85407500D03*
X52546250Y-87947500D03*
D10*
X56356250Y-90487500D03*
D11*
X51276250Y-90487500D03*
D13*
X49271250Y-87947500D03*
X62198250Y-85407500D03*
%TD*%
D11*
%TO.C,MX11*%
X80486250Y-90487500D03*
X70326250Y-90487500D03*
D12*
X71596250Y-87947500D03*
X77946250Y-85407500D03*
D10*
X75406250Y-90487500D03*
D13*
X68321250Y-87947500D03*
X81248250Y-85407500D03*
%TD*%
D11*
%TO.C,MX27*%
X32226250Y-128587500D03*
D12*
X33496250Y-126047500D03*
X39846250Y-123507500D03*
D11*
X42386250Y-128587500D03*
D10*
X37306250Y-128587500D03*
D13*
X30221250Y-126047500D03*
X43148250Y-123507500D03*
%TD*%
D11*
%TO.C,MX25*%
X194786250Y-109537500D03*
D12*
X192246250Y-104457500D03*
D11*
X184626250Y-109537500D03*
D10*
X189706250Y-109537500D03*
D12*
X185896250Y-106997500D03*
D13*
X182621250Y-106997500D03*
X195548250Y-104457500D03*
%TD*%
D12*
%TO.C,MX21*%
X102552500Y-106997500D03*
X108902500Y-104457500D03*
D11*
X101282500Y-109537500D03*
D10*
X106362500Y-109537500D03*
D11*
X111442500Y-109537500D03*
D13*
X99277500Y-106997500D03*
X112204500Y-104457500D03*
%TD*%
D11*
%TO.C,MX37*%
X61436250Y-147637500D03*
X51276250Y-147637500D03*
D12*
X52546250Y-145097500D03*
X58896250Y-142557500D03*
D10*
X56356250Y-147637500D03*
D13*
X49271250Y-145097500D03*
X62198250Y-142557500D03*
%TD*%
D11*
%TO.C,MX13*%
X132873750Y-90487500D03*
X122713750Y-90487500D03*
D12*
X130333750Y-85407500D03*
X123983750Y-87947500D03*
D10*
X127793750Y-90487500D03*
D13*
X120708750Y-87947500D03*
X133635750Y-85407500D03*
%TD*%
D12*
%TO.C,MX35*%
X214471250Y-126047500D03*
X220821250Y-123507500D03*
D11*
X213201250Y-128587500D03*
D10*
X218281250Y-128587500D03*
D11*
X223361250Y-128587500D03*
D13*
X211196250Y-126047500D03*
X224123250Y-123507500D03*
%TD*%
D12*
%TO.C,MX28*%
X58896250Y-123507500D03*
D11*
X51276250Y-128587500D03*
X61436250Y-128587500D03*
D10*
X56356250Y-128587500D03*
D12*
X52546250Y-126047500D03*
D13*
X49271250Y-126047500D03*
X62198250Y-123507500D03*
%TD*%
D12*
%TO.C,MX3*%
X101758750Y-66357500D03*
D11*
X94138750Y-71437500D03*
D10*
X99218750Y-71437500D03*
D12*
X95408750Y-68897500D03*
D11*
X104298750Y-71437500D03*
D13*
X92133750Y-68897500D03*
X105060750Y-66357500D03*
%TD*%
D14*
%TO.C,J4*%
X84587000Y-131064000D03*
D15*
X87127000Y-131064000D03*
X89667000Y-131064000D03*
X92207000Y-131064000D03*
X94747000Y-131064000D03*
X97287000Y-131064000D03*
X99827000Y-131064000D03*
X102367000Y-131064000D03*
X104907000Y-131064000D03*
X107447000Y-131064000D03*
%TD*%
D12*
%TO.C,MX9*%
X39846250Y-85407500D03*
X33496250Y-87947500D03*
D10*
X37306250Y-90487500D03*
D11*
X42386250Y-90487500D03*
X32226250Y-90487500D03*
D13*
X30221250Y-87947500D03*
X43148250Y-85407500D03*
%TD*%
D12*
%TO.C,MX1*%
X58896250Y-61595000D03*
D11*
X61436250Y-66675000D03*
D12*
X52546250Y-64135000D03*
D11*
X51276250Y-66675000D03*
D10*
X56356250Y-66675000D03*
D13*
X49271250Y-64135000D03*
X62198250Y-61595000D03*
%TD*%
D12*
%TO.C,MX32*%
X163671250Y-123507500D03*
X157321250Y-126047500D03*
D10*
X161131250Y-128587500D03*
D11*
X156051250Y-128587500D03*
X166211250Y-128587500D03*
D13*
X154046250Y-126047500D03*
X166973250Y-123507500D03*
%TD*%
D10*
%TO.C,MX40*%
X130175000Y-147637500D03*
D11*
X125095000Y-147637500D03*
D12*
X132715000Y-142557500D03*
D11*
X135255000Y-147637500D03*
D12*
X126365000Y-145097500D03*
D13*
X123090000Y-145097500D03*
X136017000Y-142557500D03*
%TD*%
D12*
%TO.C,MX5*%
X133508750Y-68897500D03*
D10*
X137318750Y-71437500D03*
D12*
X139858750Y-66357500D03*
D11*
X132238750Y-71437500D03*
X142398750Y-71437500D03*
D13*
X130233750Y-68897500D03*
X143160750Y-66357500D03*
%TD*%
D11*
%TO.C,MX39*%
X98901250Y-147637500D03*
D10*
X103981250Y-147637500D03*
D11*
X109061250Y-147637500D03*
D12*
X100171250Y-145097500D03*
X106521250Y-142557500D03*
D13*
X96896250Y-145097500D03*
X109823250Y-142557500D03*
%TD*%
D11*
%TO.C,MX16*%
X190023750Y-90487500D03*
D10*
X184943750Y-90487500D03*
D12*
X187483750Y-85407500D03*
D11*
X179863750Y-90487500D03*
D12*
X181133750Y-87947500D03*
D13*
X177858750Y-87947500D03*
X190785750Y-85407500D03*
%TD*%
D11*
%TO.C,MX38*%
X70326250Y-147637500D03*
D10*
X75406250Y-147637500D03*
D11*
X80486250Y-147637500D03*
D12*
X71596250Y-145097500D03*
X77946250Y-142557500D03*
D13*
X68321250Y-145097500D03*
X81248250Y-142557500D03*
%TD*%
D12*
%TO.C,MX31*%
X138271250Y-126047500D03*
D11*
X147161250Y-128587500D03*
X137001250Y-128587500D03*
D12*
X144621250Y-123507500D03*
D10*
X142081250Y-128587500D03*
D13*
X134996250Y-126047500D03*
X147923250Y-123507500D03*
%TD*%
D11*
%TO.C,MX8*%
X199548750Y-71437500D03*
D10*
X194468750Y-71437500D03*
D11*
X189388750Y-71437500D03*
D12*
X197008750Y-66357500D03*
X190658750Y-68897500D03*
D13*
X187383750Y-68897500D03*
X200310750Y-66357500D03*
%TD*%
D12*
%TO.C,MX41*%
X156527500Y-142557500D03*
D10*
X153987500Y-147637500D03*
D11*
X159067500Y-147637500D03*
X148907500Y-147637500D03*
D12*
X150177500Y-145097500D03*
D13*
X146902500Y-145097500D03*
X159829500Y-142557500D03*
%TD*%
D12*
%TO.C,MX20*%
X71596250Y-106997500D03*
D11*
X70326250Y-109537500D03*
D12*
X77946250Y-104457500D03*
D10*
X75406250Y-109537500D03*
D11*
X80486250Y-109537500D03*
D13*
X68321250Y-106997500D03*
X81248250Y-104457500D03*
%TD*%
D11*
%TO.C,MX17*%
X209073750Y-90487500D03*
D10*
X203993750Y-90487500D03*
D11*
X198913750Y-90487500D03*
D12*
X200183750Y-87947500D03*
X206533750Y-85407500D03*
D13*
X196908750Y-87947500D03*
X209835750Y-85407500D03*
%TD*%
D12*
%TO.C,MX4*%
X114458750Y-68897500D03*
D11*
X123348750Y-71437500D03*
D10*
X118268750Y-71437500D03*
D12*
X120808750Y-66357500D03*
D11*
X113188750Y-71437500D03*
D13*
X111183750Y-68897500D03*
X124110750Y-66357500D03*
%TD*%
D11*
%TO.C,MX42*%
X172720000Y-147637500D03*
X182880000Y-147637500D03*
D12*
X173990000Y-145097500D03*
D10*
X177800000Y-147637500D03*
D12*
X180340000Y-142557500D03*
D13*
X170715000Y-145097500D03*
X183642000Y-142557500D03*
%TD*%
D14*
%TO.C,J1*%
X88646000Y-44577000D03*
D15*
X91186000Y-44577000D03*
X88646000Y-47117000D03*
X91186000Y-47117000D03*
X88646000Y-49657000D03*
X91186000Y-49657000D03*
X88646000Y-52197000D03*
X91186000Y-52197000D03*
%TD*%
D11*
%TO.C,MX23*%
X156686250Y-109537500D03*
D10*
X151606250Y-109537500D03*
D11*
X146526250Y-109537500D03*
D12*
X147796250Y-106997500D03*
X154146250Y-104457500D03*
D13*
X144521250Y-106997500D03*
X157448250Y-104457500D03*
%TD*%
D12*
%TO.C,MX33*%
X182721250Y-123507500D03*
D11*
X185261250Y-128587500D03*
X175101250Y-128587500D03*
D10*
X180181250Y-128587500D03*
D12*
X176371250Y-126047500D03*
D13*
X173096250Y-126047500D03*
X186023250Y-123507500D03*
%TD*%
D12*
%TO.C,MX36*%
X39846250Y-142557500D03*
X33496250Y-145097500D03*
D11*
X42386250Y-147637500D03*
X32226250Y-147637500D03*
D10*
X37306250Y-147637500D03*
D13*
X30221250Y-145097500D03*
X43148250Y-142557500D03*
%TD*%
D11*
%TO.C,MX12*%
X109061250Y-90487500D03*
D10*
X103981250Y-90487500D03*
D12*
X106521250Y-85407500D03*
D11*
X98901250Y-90487500D03*
D12*
X100171250Y-87947500D03*
D13*
X96896250Y-87947500D03*
X109823250Y-85407500D03*
%TD*%
D11*
%TO.C,MX30*%
X116205000Y-128587500D03*
D10*
X111125000Y-128587500D03*
X123063000Y-136842500D03*
D19*
X123063000Y-121602500D03*
D10*
X99187000Y-136842500D03*
D12*
X113665000Y-123507500D03*
X107315000Y-126047500D03*
D19*
X99187000Y-121602500D03*
D11*
X106045000Y-128587500D03*
D13*
X104040000Y-126047500D03*
X116967000Y-123507500D03*
%TD*%
D10*
%TO.C,MX29*%
X75406250Y-128587500D03*
D12*
X71596250Y-126047500D03*
D11*
X80486250Y-128587500D03*
X70326250Y-128587500D03*
D12*
X77946250Y-123507500D03*
D13*
X68321250Y-126047500D03*
X81248250Y-123507500D03*
%TD*%
D10*
%TO.C,MX19*%
X56356250Y-109537500D03*
D11*
X61436250Y-109537500D03*
X51276250Y-109537500D03*
D12*
X52546250Y-106997500D03*
X58896250Y-104457500D03*
D13*
X49271250Y-106997500D03*
X62198250Y-104457500D03*
%TD*%
D11*
%TO.C,MX6*%
X151288750Y-71437500D03*
D12*
X152558750Y-68897500D03*
D11*
X161448750Y-71437500D03*
D12*
X158908750Y-66357500D03*
D10*
X156368750Y-71437500D03*
D13*
X149283750Y-68897500D03*
X162210750Y-66357500D03*
%TD*%
D12*
%TO.C,MX44*%
X216058750Y-66357500D03*
D10*
X213518750Y-71437500D03*
D12*
X209708750Y-68897500D03*
D11*
X218598750Y-71437500D03*
X208438750Y-71437500D03*
D13*
X206433750Y-68897500D03*
X219360750Y-66357500D03*
%TD*%
D20*
%TO.C,R1*%
X95996000Y-44577000D03*
X93996000Y-44577000D03*
%TD*%
D21*
%TO.C,C3*%
X93662500Y-78031250D03*
X93662500Y-75956250D03*
%TD*%
D22*
%TO.C,D26*%
X215265000Y-116743750D03*
X215265000Y-113443750D03*
%TD*%
%TO.C,D12*%
X111125000Y-97693750D03*
X111125000Y-94393750D03*
%TD*%
%TO.C,D38*%
X82550000Y-154843750D03*
X82550000Y-151543750D03*
%TD*%
%TO.C,D39*%
X111125000Y-154843750D03*
X111125000Y-151543750D03*
%TD*%
%TO.C,D36*%
X44450000Y-154843750D03*
X44450000Y-151543750D03*
%TD*%
D23*
%TO.C,C26*%
X203200000Y-116437500D03*
X203200000Y-118512500D03*
%TD*%
D24*
%TO.C,D110*%
X59056250Y-96793750D03*
X59056250Y-95293750D03*
D25*
X53656250Y-95293750D03*
D24*
X53656250Y-96793750D03*
%TD*%
D23*
%TO.C,C46*%
X45466000Y-69193500D03*
X45466000Y-71268500D03*
%TD*%
%TO.C,C8*%
X188912500Y-78337500D03*
X188912500Y-80412500D03*
%TD*%
D24*
%TO.C,D138*%
X78106250Y-153943750D03*
X78106250Y-152443750D03*
D25*
X72706250Y-152443750D03*
D24*
X72706250Y-153943750D03*
%TD*%
%TO.C,D101*%
X59056250Y-72981250D03*
X59056250Y-71481250D03*
D25*
X53656250Y-71481250D03*
D24*
X53656250Y-72981250D03*
%TD*%
D22*
%TO.C,D40*%
X137318750Y-154843750D03*
X137318750Y-151543750D03*
%TD*%
%TO.C,D22*%
X139700000Y-116743750D03*
X139700000Y-113443750D03*
%TD*%
%TO.C,D29*%
X82550000Y-135793750D03*
X82550000Y-132493750D03*
%TD*%
D23*
%TO.C,C34*%
X193675000Y-135487500D03*
X193675000Y-137562500D03*
%TD*%
D24*
%TO.C,D130*%
X113825000Y-134893750D03*
X113825000Y-133393750D03*
D25*
X108425000Y-133393750D03*
D24*
X108425000Y-134893750D03*
%TD*%
D23*
%TO.C,C27*%
X31750000Y-135487500D03*
X31750000Y-137562500D03*
%TD*%
D24*
%TO.C,D117*%
X206693750Y-96793750D03*
X206693750Y-95293750D03*
D25*
X201293750Y-95293750D03*
D24*
X201293750Y-96793750D03*
%TD*%
%TO.C,D144*%
X216218750Y-77743750D03*
X216218750Y-76243750D03*
D25*
X210818750Y-76243750D03*
D24*
X210818750Y-77743750D03*
%TD*%
D23*
%TO.C,C32*%
X155575000Y-135487500D03*
X155575000Y-137562500D03*
%TD*%
D24*
%TO.C,D106*%
X159068750Y-77743750D03*
X159068750Y-76243750D03*
D25*
X153668750Y-76243750D03*
D24*
X153668750Y-77743750D03*
%TD*%
D26*
%TO.C,C40*%
X124354500Y-154559000D03*
X122279500Y-154559000D03*
%TD*%
D22*
%TO.C,D25*%
X196850000Y-116743750D03*
X196850000Y-113443750D03*
%TD*%
D24*
%TO.C,D137*%
X59056250Y-153943750D03*
X59056250Y-152443750D03*
D25*
X53656250Y-152443750D03*
D24*
X53656250Y-153943750D03*
%TD*%
D26*
%TO.C,C39*%
X98700500Y-154432000D03*
X96625500Y-154432000D03*
%TD*%
D22*
%TO.C,D8*%
X201612500Y-78643750D03*
X201612500Y-75343750D03*
%TD*%
%TO.C,D28*%
X63500000Y-135793750D03*
X63500000Y-132493750D03*
%TD*%
D24*
%TO.C,D128*%
X59056250Y-134893750D03*
X59056250Y-133393750D03*
D25*
X53656250Y-133393750D03*
D24*
X53656250Y-134893750D03*
%TD*%
%TO.C,D136*%
X40006250Y-153943750D03*
X40006250Y-152443750D03*
D25*
X34606250Y-152443750D03*
D24*
X34606250Y-153943750D03*
%TD*%
D20*
%TO.C,R2*%
X95996000Y-47117000D03*
X93996000Y-47117000D03*
%TD*%
D24*
%TO.C,D109*%
X40006250Y-96793750D03*
X40006250Y-95293750D03*
D25*
X34606250Y-95293750D03*
D24*
X34606250Y-96793750D03*
%TD*%
%TO.C,D127*%
X40006250Y-134893750D03*
X40006250Y-133393750D03*
D25*
X34606250Y-133393750D03*
D24*
X34606250Y-134893750D03*
%TD*%
%TO.C,D119*%
X59056250Y-115843750D03*
X59056250Y-114343750D03*
D25*
X53656250Y-114343750D03*
D24*
X53656250Y-115843750D03*
%TD*%
D22*
%TO.C,D5*%
X144462500Y-78643750D03*
X144462500Y-75343750D03*
%TD*%
D23*
%TO.C,C30*%
X105568750Y-135487500D03*
X105568750Y-137562500D03*
%TD*%
D22*
%TO.C,D32*%
X168275000Y-135793750D03*
X168275000Y-132493750D03*
%TD*%
D23*
%TO.C,C17*%
X198437500Y-97387500D03*
X198437500Y-99462500D03*
%TD*%
D24*
%TO.C,D104*%
X120968750Y-77743750D03*
X120968750Y-76243750D03*
D25*
X115568750Y-76243750D03*
D24*
X115568750Y-77743750D03*
%TD*%
D23*
%TO.C,C19*%
X50800000Y-116437500D03*
X50800000Y-118512500D03*
%TD*%
D22*
%TO.C,D4*%
X125412500Y-78643750D03*
X125412500Y-75343750D03*
%TD*%
%TO.C,D35*%
X224790000Y-135793750D03*
X224790000Y-132493750D03*
%TD*%
%TO.C,D44*%
X220218000Y-78739000D03*
X220218000Y-75439000D03*
%TD*%
D26*
%TO.C,C2*%
X69744500Y-72644000D03*
X67669500Y-72644000D03*
%TD*%
D22*
%TO.C,D18*%
X44450000Y-116743750D03*
X44450000Y-113443750D03*
%TD*%
%TO.C,D11*%
X82550000Y-97693750D03*
X82550000Y-94393750D03*
%TD*%
D24*
%TO.C,D114*%
X149543750Y-96793750D03*
X149543750Y-95293750D03*
D25*
X144143750Y-95293750D03*
D24*
X144143750Y-96793750D03*
%TD*%
D26*
%TO.C,C43*%
X203602500Y-154432000D03*
X201527500Y-154432000D03*
%TD*%
D22*
%TO.C,D41*%
X161131250Y-154843750D03*
X161131250Y-151543750D03*
%TD*%
D26*
%TO.C,C42*%
X172614500Y-154686000D03*
X170539500Y-154686000D03*
%TD*%
D22*
%TO.C,D31*%
X149225000Y-135793750D03*
X149225000Y-132493750D03*
%TD*%
D24*
%TO.C,D132*%
X163831250Y-134893750D03*
X163831250Y-133393750D03*
D25*
X158431250Y-133393750D03*
D24*
X158431250Y-134893750D03*
%TD*%
D15*
%TO.C,U1*%
X37782500Y-57785000D03*
D27*
X37782500Y-56885000D03*
X40322500Y-56885000D03*
D15*
X40322500Y-57785000D03*
D27*
X42862500Y-56885000D03*
D14*
X42862500Y-57785000D03*
D27*
X45402500Y-56885000D03*
D15*
X45402500Y-57785000D03*
X47942500Y-57785000D03*
D27*
X47942500Y-56885000D03*
D15*
X50482500Y-57785000D03*
D27*
X50482500Y-56885000D03*
D15*
X53022500Y-57785000D03*
D27*
X53022500Y-56885000D03*
X55562500Y-56885000D03*
D14*
X55562500Y-57785000D03*
D15*
X58102500Y-57785000D03*
D27*
X58102500Y-56885000D03*
D15*
X60642500Y-57785000D03*
D27*
X60642500Y-56885000D03*
D15*
X63182500Y-57785000D03*
D27*
X63182500Y-56885000D03*
X65722500Y-56885000D03*
D15*
X65722500Y-57785000D03*
D27*
X68262500Y-56885000D03*
D14*
X68262500Y-57785000D03*
D15*
X70802500Y-57785000D03*
D27*
X70802500Y-56885000D03*
D15*
X73342500Y-57785000D03*
D27*
X73342500Y-56885000D03*
D15*
X75882500Y-57785000D03*
D27*
X75882500Y-56885000D03*
X78422500Y-56885000D03*
D15*
X78422500Y-57785000D03*
D27*
X80962500Y-56885000D03*
D14*
X80962500Y-57785000D03*
D15*
X83502500Y-57785000D03*
D27*
X83502500Y-56885000D03*
D15*
X86042500Y-57785000D03*
D27*
X86042500Y-56885000D03*
X86042500Y-76465000D03*
D15*
X86042500Y-75565000D03*
D27*
X83502500Y-76465000D03*
D15*
X83502500Y-75565000D03*
D14*
X80962500Y-75565000D03*
D27*
X80962500Y-76465000D03*
D15*
X78422500Y-75565000D03*
D27*
X78422500Y-76465000D03*
X75882500Y-76465000D03*
D15*
X75882500Y-75565000D03*
X73342500Y-75565000D03*
D27*
X73342500Y-76465000D03*
D15*
X70802500Y-75565000D03*
D27*
X70802500Y-76465000D03*
X68262500Y-76465000D03*
D14*
X68262500Y-75565000D03*
D27*
X65722500Y-76465000D03*
D15*
X65722500Y-75565000D03*
D27*
X63182500Y-76465000D03*
D15*
X63182500Y-75565000D03*
X60642500Y-75565000D03*
D27*
X60642500Y-76465000D03*
D15*
X58102500Y-75565000D03*
D27*
X58102500Y-76465000D03*
X55562500Y-76465000D03*
D14*
X55562500Y-75565000D03*
D15*
X53022500Y-75565000D03*
D27*
X53022500Y-76465000D03*
X50482500Y-76465000D03*
D15*
X50482500Y-75565000D03*
X47942500Y-75565000D03*
D27*
X47942500Y-76465000D03*
X45402500Y-76465000D03*
D15*
X45402500Y-75565000D03*
D14*
X42862500Y-75565000D03*
D27*
X42862500Y-76465000D03*
D15*
X40322500Y-75565000D03*
D27*
X40322500Y-76465000D03*
D15*
X37782500Y-75565000D03*
D27*
X37782500Y-76465000D03*
%TD*%
D24*
%TO.C,D108*%
X197168750Y-77743750D03*
X197168750Y-76243750D03*
D25*
X191768750Y-76243750D03*
D24*
X191768750Y-77743750D03*
%TD*%
D22*
%TO.C,D37*%
X63500000Y-154843750D03*
X63500000Y-151543750D03*
%TD*%
D24*
%TO.C,D121*%
X109062500Y-115843750D03*
X109062500Y-114343750D03*
D25*
X103662500Y-114343750D03*
D24*
X103662500Y-115843750D03*
%TD*%
%TO.C,D112*%
X106681250Y-96793750D03*
X106681250Y-95293750D03*
D25*
X101281250Y-95293750D03*
D24*
X101281250Y-96793750D03*
%TD*%
D22*
%TO.C,D42*%
X184943750Y-154843750D03*
X184943750Y-151543750D03*
%TD*%
D26*
%TO.C,C1*%
X50440500Y-72390000D03*
X48365500Y-72390000D03*
%TD*%
D21*
%TO.C,C36*%
X31877000Y-154231250D03*
X31877000Y-152156250D03*
%TD*%
D22*
%TO.C,D33*%
X187325000Y-135793750D03*
X187325000Y-132493750D03*
%TD*%
D24*
%TO.C,D105*%
X140018750Y-77743750D03*
X140018750Y-76243750D03*
D25*
X134618750Y-76243750D03*
D24*
X134618750Y-77743750D03*
%TD*%
%TO.C,D125*%
X192406250Y-115843750D03*
X192406250Y-114343750D03*
D25*
X187006250Y-114343750D03*
D24*
X187006250Y-115843750D03*
%TD*%
D23*
%TO.C,C31*%
X136525000Y-135487500D03*
X136525000Y-137562500D03*
%TD*%
D22*
%TO.C,D14*%
X153987500Y-97693750D03*
X153987500Y-94393750D03*
%TD*%
%TO.C,D7*%
X182562500Y-78643750D03*
X182562500Y-75343750D03*
%TD*%
D28*
%TO.C,J2*%
X100240750Y-57137500D03*
X100240750Y-56637500D03*
X100240750Y-56137500D03*
X100240750Y-55637500D03*
X100240750Y-55137500D03*
X100240750Y-54637500D03*
X100240750Y-54137500D03*
X100240750Y-53637500D03*
X100240750Y-53137500D03*
X100240750Y-52637500D03*
X100240750Y-52137500D03*
X100240750Y-51637500D03*
X100240750Y-51137500D03*
X100240750Y-50637500D03*
X100240750Y-50137500D03*
X100240750Y-49637500D03*
X100240750Y-49137500D03*
X100240750Y-48637500D03*
X100240750Y-48137500D03*
D29*
X101240750Y-59637500D03*
X101240750Y-45137500D03*
X106140750Y-44537500D03*
X106140750Y-60237500D03*
%TD*%
D24*
%TO.C,D139*%
X106681250Y-153943750D03*
X106681250Y-152443750D03*
D25*
X101281250Y-152443750D03*
D24*
X101281250Y-153943750D03*
%TD*%
D23*
%TO.C,C12*%
X98425000Y-97387500D03*
X98425000Y-99462500D03*
%TD*%
%TO.C,C20*%
X69850000Y-116437500D03*
X69850000Y-118512500D03*
%TD*%
D24*
%TO.C,D113*%
X130493750Y-96793750D03*
X130493750Y-95293750D03*
D25*
X125093750Y-95293750D03*
D24*
X125093750Y-96793750D03*
%TD*%
D23*
%TO.C,C21*%
X100806250Y-116437500D03*
X100806250Y-118512500D03*
%TD*%
%TO.C,C6*%
X150812500Y-78337500D03*
X150812500Y-80412500D03*
%TD*%
D22*
%TO.C,D0*%
X42862500Y-72293750D03*
X42862500Y-68993750D03*
%TD*%
%TO.C,D30*%
X118268750Y-135793750D03*
X118268750Y-132493750D03*
%TD*%
D23*
%TO.C,C11*%
X69850000Y-97387500D03*
X69850000Y-99462500D03*
%TD*%
D24*
%TO.C,D131*%
X144781250Y-134893750D03*
X144781250Y-133393750D03*
D25*
X139381250Y-133393750D03*
D24*
X139381250Y-134893750D03*
%TD*%
%TO.C,D135*%
X220981250Y-134893750D03*
X220981250Y-133393750D03*
D25*
X215581250Y-133393750D03*
D24*
X215581250Y-134893750D03*
%TD*%
D23*
%TO.C,C22*%
X127000000Y-116437500D03*
X127000000Y-118512500D03*
%TD*%
D24*
%TO.C,D120*%
X78106250Y-115843750D03*
X78106250Y-114343750D03*
D25*
X72706250Y-114343750D03*
D24*
X72706250Y-115843750D03*
%TD*%
%TO.C,D143*%
X211456250Y-153943750D03*
X211456250Y-152443750D03*
D25*
X206056250Y-152443750D03*
D24*
X206056250Y-153943750D03*
%TD*%
D23*
%TO.C,C16*%
X179387500Y-97387500D03*
X179387500Y-99462500D03*
%TD*%
D22*
%TO.C,D1*%
X63500000Y-72293750D03*
X63500000Y-68993750D03*
%TD*%
D26*
%TO.C,C37*%
X51456500Y-154432000D03*
X49381500Y-154432000D03*
%TD*%
D23*
%TO.C,C9*%
X31750000Y-97387500D03*
X31750000Y-99462500D03*
%TD*%
D22*
%TO.C,D17*%
X210566000Y-97662000D03*
X210566000Y-94362000D03*
%TD*%
%TO.C,D6*%
X163512500Y-78643750D03*
X163512500Y-75343750D03*
%TD*%
%TO.C,D21*%
X113506250Y-116743750D03*
X113506250Y-113443750D03*
%TD*%
D23*
%TO.C,C24*%
X165100000Y-116437500D03*
X165100000Y-118512500D03*
%TD*%
D24*
%TO.C,D141*%
X156687500Y-153943750D03*
X156687500Y-152443750D03*
D25*
X151287500Y-152443750D03*
D24*
X151287500Y-153943750D03*
%TD*%
D23*
%TO.C,C35*%
X212725000Y-135487500D03*
X212725000Y-137562500D03*
%TD*%
D22*
%TO.C,D23*%
X158750000Y-116743750D03*
X158750000Y-113443750D03*
%TD*%
D24*
%TO.C,D126*%
X211456250Y-115843750D03*
X211456250Y-114343750D03*
D25*
X206056250Y-114343750D03*
D24*
X206056250Y-115843750D03*
%TD*%
D22*
%TO.C,D20*%
X82550000Y-116743750D03*
X82550000Y-113443750D03*
%TD*%
%TO.C,D16*%
X192087500Y-97693750D03*
X192087500Y-94393750D03*
%TD*%
D23*
%TO.C,C4*%
X112712500Y-78337500D03*
X112712500Y-80412500D03*
%TD*%
D22*
%TO.C,D9*%
X44450000Y-97693750D03*
X44450000Y-94393750D03*
%TD*%
D23*
%TO.C,C18*%
X31750000Y-116437500D03*
X31750000Y-118512500D03*
%TD*%
D24*
%TO.C,D134*%
X201931250Y-134893750D03*
X201931250Y-133393750D03*
D25*
X196531250Y-133393750D03*
D24*
X196531250Y-134893750D03*
%TD*%
D22*
%TO.C,D2*%
X82550000Y-72293750D03*
X82550000Y-68993750D03*
%TD*%
%TO.C,D13*%
X134937500Y-97693750D03*
X134937500Y-94393750D03*
%TD*%
D26*
%TO.C,C41*%
X148738500Y-154432000D03*
X146663500Y-154432000D03*
%TD*%
D24*
%TO.C,D116*%
X187643750Y-96793750D03*
X187643750Y-95293750D03*
D25*
X182243750Y-95293750D03*
D24*
X182243750Y-96793750D03*
%TD*%
%TO.C,D140*%
X132875000Y-153943750D03*
X132875000Y-152443750D03*
D25*
X127475000Y-152443750D03*
D24*
X127475000Y-153943750D03*
%TD*%
D23*
%TO.C,C14*%
X141287500Y-97387500D03*
X141287500Y-99462500D03*
%TD*%
%TO.C,C5*%
X131762500Y-78337500D03*
X131762500Y-80412500D03*
%TD*%
D22*
%TO.C,D24*%
X177800000Y-116743750D03*
X177800000Y-113443750D03*
%TD*%
D24*
%TO.C,D124*%
X173356250Y-115843750D03*
X173356250Y-114343750D03*
D25*
X167956250Y-114343750D03*
D24*
X167956250Y-115843750D03*
%TD*%
D23*
%TO.C,C33*%
X174625000Y-135487500D03*
X174625000Y-137562500D03*
%TD*%
D24*
%TO.C,D102*%
X78106250Y-72981250D03*
X78106250Y-71481250D03*
D25*
X72706250Y-71481250D03*
D24*
X72706250Y-72981250D03*
%TD*%
D23*
%TO.C,C15*%
X160337500Y-97387500D03*
X160337500Y-99462500D03*
%TD*%
D24*
%TO.C,D123*%
X154306250Y-115843750D03*
X154306250Y-114343750D03*
D25*
X148906250Y-114343750D03*
D24*
X148906250Y-115843750D03*
%TD*%
D22*
%TO.C,D3*%
X106362500Y-78643750D03*
X106362500Y-75343750D03*
%TD*%
D23*
%TO.C,C13*%
X122237500Y-97387500D03*
X122237500Y-99462500D03*
%TD*%
%TO.C,C23*%
X146050000Y-116437500D03*
X146050000Y-118512500D03*
%TD*%
D24*
%TO.C,D103*%
X101918750Y-77743750D03*
X101918750Y-76243750D03*
D25*
X96518750Y-76243750D03*
D24*
X96518750Y-77743750D03*
%TD*%
D22*
%TO.C,D19*%
X63500000Y-116743750D03*
X63500000Y-113443750D03*
%TD*%
D24*
%TO.C,D142*%
X180500000Y-153943750D03*
X180500000Y-152443750D03*
D25*
X175100000Y-152443750D03*
D24*
X175100000Y-153943750D03*
%TD*%
%TO.C,D111*%
X78106250Y-96793750D03*
X78106250Y-95293750D03*
D25*
X72706250Y-95293750D03*
D24*
X72706250Y-96793750D03*
%TD*%
D22*
%TO.C,D34*%
X206375000Y-135793750D03*
X206375000Y-132493750D03*
%TD*%
D23*
%TO.C,C25*%
X184150000Y-116437500D03*
X184150000Y-118512500D03*
%TD*%
D24*
%TO.C,D118*%
X40006250Y-115843750D03*
X40006250Y-114343750D03*
D25*
X34606250Y-114343750D03*
D24*
X34606250Y-115843750D03*
%TD*%
D30*
%TO.C,U2*%
X43800000Y-64921250D03*
X44450000Y-64921250D03*
X45100000Y-64921250D03*
X45100000Y-66841250D03*
X44450000Y-66841250D03*
X43800000Y-66841250D03*
%TD*%
D23*
%TO.C,C29*%
X69850000Y-135487500D03*
X69850000Y-137562500D03*
%TD*%
D24*
%TO.C,D133*%
X182881250Y-134893750D03*
X182881250Y-133393750D03*
D25*
X177481250Y-133393750D03*
D24*
X177481250Y-134893750D03*
%TD*%
D22*
%TO.C,D43*%
X215900000Y-154843750D03*
X215900000Y-151543750D03*
%TD*%
%TO.C,D27*%
X44450000Y-135793750D03*
X44450000Y-132493750D03*
%TD*%
D24*
%TO.C,D107*%
X178118750Y-77743750D03*
X178118750Y-76243750D03*
D25*
X172718750Y-76243750D03*
D24*
X172718750Y-77743750D03*
%TD*%
%TO.C,D115*%
X168593750Y-96793750D03*
X168593750Y-95293750D03*
D25*
X163193750Y-95293750D03*
D24*
X163193750Y-96793750D03*
%TD*%
D23*
%TO.C,C7*%
X169862500Y-78337500D03*
X169862500Y-80412500D03*
%TD*%
D24*
%TO.C,D122*%
X135256250Y-115843750D03*
X135256250Y-114343750D03*
D25*
X129856250Y-114343750D03*
D24*
X129856250Y-115843750D03*
%TD*%
%TO.C,D129*%
X78106250Y-134893750D03*
X78106250Y-133393750D03*
D25*
X72706250Y-133393750D03*
D24*
X72706250Y-134893750D03*
%TD*%
D26*
%TO.C,C38*%
X70023900Y-154533600D03*
X67948900Y-154533600D03*
%TD*%
D22*
%TO.C,D10*%
X63500000Y-97693750D03*
X63500000Y-94393750D03*
%TD*%
D21*
%TO.C,C45*%
X42926000Y-63013500D03*
X42926000Y-60938500D03*
%TD*%
D22*
%TO.C,D15*%
X173037500Y-97693750D03*
X173037500Y-94393750D03*
%TD*%
D23*
%TO.C,C28*%
X50800000Y-135487500D03*
X50800000Y-137562500D03*
%TD*%
%TO.C,C10*%
X50800000Y-97387500D03*
X50800000Y-99462500D03*
%TD*%
%TO.C,C44*%
X207962500Y-78337500D03*
X207962500Y-80412500D03*
%TD*%
M02*
