M48
; DRILL file {KiCad (6.0.5)} date Thu Jul 14 01:39:35 2022
; FORMAT={-:-/ absolute / metric / decimal}
; #@! TF.CreationDate,2022-07-14T01:39:35-06:00
; #@! TF.GenerationSoftware,Kicad,Pcbnew,(6.0.5)
; #@! TF.FileFunction,NonPlated,1,2,NPTH
FMAT,2
METRIC
; #@! TA.AperFunction,NonPlated,NPTH,ComponentDrill
T1C1.500
; #@! TA.AperFunction,NonPlated,NPTH,ComponentDrill
T2C1.750
; #@! TA.AperFunction,NonPlated,NPTH,ComponentDrill
T3C3.000
; #@! TA.AperFunction,NonPlated,NPTH,ComponentDrill
T4C3.048
; #@! TA.AperFunction,NonPlated,NPTH,ComponentDrill
T5C3.988
%
G90
G05
T2
X32.226Y-90.487
X32.226Y-109.537
X32.226Y-128.588
X32.226Y-147.637
X42.386Y-90.487
X42.386Y-109.537
X42.386Y-128.588
X42.386Y-147.637
X51.276Y-66.675
X51.276Y-90.487
X51.276Y-109.537
X51.276Y-128.588
X51.276Y-147.637
X61.436Y-66.675
X61.436Y-90.487
X61.436Y-109.537
X61.436Y-128.588
X61.436Y-147.637
X70.326Y-66.675
X70.326Y-90.487
X70.326Y-109.537
X70.326Y-128.588
X70.326Y-147.637
X80.486Y-66.675
X80.486Y-90.487
X80.486Y-109.537
X80.486Y-128.588
X80.486Y-147.637
X94.139Y-71.438
X98.901Y-90.487
X98.901Y-147.637
X101.282Y-109.537
X104.299Y-71.438
X106.045Y-128.588
X109.061Y-90.487
X109.061Y-147.637
X111.442Y-109.537
X113.189Y-71.438
X116.205Y-128.588
X122.714Y-90.487
X123.349Y-71.438
X125.095Y-147.637
X127.476Y-109.537
X132.239Y-71.438
X132.874Y-90.487
X135.255Y-147.637
X137.001Y-128.588
X137.636Y-109.537
X141.764Y-90.487
X142.399Y-71.438
X146.526Y-109.537
X147.161Y-128.588
X148.907Y-147.637
X151.289Y-71.438
X151.924Y-90.487
X156.051Y-128.588
X156.686Y-109.537
X159.067Y-147.637
X160.814Y-90.487
X161.449Y-71.438
X165.576Y-109.537
X166.211Y-128.588
X170.339Y-71.438
X170.974Y-90.487
X172.72Y-147.637
X175.101Y-128.588
X175.736Y-109.537
X179.864Y-90.487
X180.499Y-71.438
X182.88Y-147.637
X184.626Y-109.537
X185.261Y-128.588
X189.389Y-71.438
X190.024Y-90.487
X194.151Y-128.588
X194.786Y-109.537
X198.914Y-90.487
X199.549Y-71.438
X203.676Y-109.537
X203.676Y-147.637
X204.311Y-128.588
X208.439Y-71.438
X209.074Y-90.487
X213.201Y-128.588
X213.836Y-109.537
X213.836Y-147.637
X218.599Y-71.438
X223.361Y-128.588
T3
X33.496Y-87.947
X33.496Y-106.997
X33.496Y-126.047
X33.496Y-145.097
X39.846Y-85.407
X39.846Y-104.457
X39.846Y-123.507
X39.846Y-142.558
X52.546Y-64.135
X52.546Y-87.947
X52.546Y-106.997
X52.546Y-126.047
X52.546Y-145.097
X58.896Y-61.595
X58.896Y-85.407
X58.896Y-104.457
X58.896Y-123.507
X58.896Y-142.558
X71.596Y-64.135
X71.596Y-87.947
X71.596Y-106.997
X71.596Y-126.047
X71.596Y-145.097
X77.946Y-61.595
X77.946Y-85.407
X77.946Y-104.457
X77.946Y-123.507
X77.946Y-142.558
X95.409Y-68.897
X100.171Y-87.947
X100.171Y-145.097
X101.759Y-66.358
X102.552Y-106.997
X106.521Y-85.407
X106.521Y-142.558
X107.315Y-126.047
X108.902Y-104.457
X113.665Y-123.507
X114.459Y-68.897
X120.809Y-66.358
X123.984Y-87.947
X126.365Y-145.097
X128.746Y-106.997
X130.334Y-85.407
X132.715Y-142.558
X133.509Y-68.897
X135.096Y-104.457
X138.271Y-126.047
X139.859Y-66.358
X143.034Y-87.947
X144.621Y-123.507
X147.796Y-106.997
X149.384Y-85.407
X150.177Y-145.097
X152.559Y-68.897
X154.146Y-104.457
X156.528Y-142.558
X157.321Y-126.047
X158.909Y-66.358
X162.084Y-87.947
X163.671Y-123.507
X166.846Y-106.997
X168.434Y-85.407
X171.609Y-68.897
X173.196Y-104.457
X173.99Y-145.097
X176.371Y-126.047
X177.959Y-66.358
X180.34Y-142.558
X181.134Y-87.947
X182.721Y-123.507
X185.896Y-106.997
X187.484Y-85.407
X190.659Y-68.897
X192.246Y-104.457
X195.421Y-126.047
X197.009Y-66.358
X200.184Y-87.947
X201.771Y-123.507
X204.946Y-106.997
X204.946Y-145.097
X206.534Y-85.407
X209.709Y-68.897
X211.296Y-104.457
X211.296Y-142.558
X214.471Y-126.047
X216.059Y-66.358
X220.821Y-123.507
T4
X99.187Y-121.602
X123.063Y-121.602
X196.818Y-154.623
X220.694Y-154.623
T5
X37.306Y-90.487
X37.306Y-109.537
X37.306Y-128.588
X37.306Y-147.637
X56.356Y-66.675
X56.356Y-90.487
X56.356Y-109.537
X56.356Y-128.588
X56.356Y-147.637
X75.406Y-66.675
X75.406Y-90.487
X75.406Y-109.537
X75.406Y-128.588
X75.406Y-147.637
X99.187Y-136.843
X99.219Y-71.438
X103.981Y-90.487
X103.981Y-147.637
X106.362Y-109.537
X111.125Y-128.588
X118.269Y-71.438
X123.063Y-136.843
X127.794Y-90.487
X130.175Y-147.637
X132.556Y-109.537
X137.319Y-71.438
X142.081Y-128.588
X146.844Y-90.487
X151.606Y-109.537
X153.987Y-147.637
X156.369Y-71.438
X161.131Y-128.588
X165.894Y-90.487
X170.656Y-109.537
X175.419Y-71.438
X177.8Y-147.637
X180.181Y-128.588
X184.944Y-90.487
X189.706Y-109.537
X194.469Y-71.438
X196.818Y-139.382
X199.231Y-128.588
X203.994Y-90.487
X208.756Y-109.537
X208.756Y-147.637
X213.519Y-71.438
X218.281Y-128.588
X220.694Y-139.382
T1
X33.194Y-61.075G85X31.894Y-61.075
G05
X33.194Y-72.275G85X31.894Y-72.275
G05
T0
M30
