%FSLAX45Y45*%
G04 Gerber Fmt 4.5, Leading zero omitted, Abs format (unit mm)*
G04 Created by KiCad (PCBNEW (6.0.5)) date 2022-07-14 17:39:59*
%MOMM*%
%LPD*%
G01*
G04 APERTURE LIST*
%TA.AperFunction,Profile*%
%ADD10C,0.100000*%
%TD*%
%ADD11C,0.200000*%
%ADD12C,0.150000*%
%ADD13C,0.175000*%
%ADD14C,0.300000*%
%ADD15C,0.304800*%
%ADD16C,0.398780*%
G04 APERTURE END LIST*
D10*
X2540000Y-5873750D02*
X3413125Y-5873750D01*
X3730625Y-5159375D02*
X6905625Y-5159375D01*
X2778125Y-7620000D02*
X2778125Y-7937500D01*
X10795000Y-4445000D02*
G75*
G03*
X10636250Y-4286250I-160310J-1560D01*
G01*
X2381250Y-6905625D02*
X2381250Y-6032500D01*
X22225000Y-6429375D02*
X22225000Y-7858125D01*
X8812249Y-4284699D02*
X10636250Y-4286250D01*
X8491500Y-5159381D02*
G75*
G03*
X8648700Y-4999075I-2530J159711D01*
G01*
X2381250Y-6905625D02*
X2381250Y-7302500D01*
X3571875Y-5715000D02*
X3571875Y-5318125D01*
X22542500Y-15716250D02*
G75*
G03*
X22701250Y-15557500I-10J158760D01*
G01*
X21748755Y-10239375D02*
G75*
G03*
X21590000Y-10080625I-158755J-5D01*
G01*
X22701245Y-12144375D02*
G75*
G03*
X22542500Y-11985625I-157035J1715D01*
G01*
X3730625Y-5159375D02*
G75*
G03*
X3571875Y-5318125I0J-158750D01*
G01*
X22066250Y-8016875D02*
X21431250Y-8016875D01*
X3413125Y-5873755D02*
G75*
G03*
X3571875Y-5715000I-5J158755D01*
G01*
X2778127Y-15557500D02*
G75*
G03*
X2941989Y-15716250I158433J-410D01*
G01*
X10953750Y-6270625D02*
X22066250Y-6270625D01*
X21272495Y-9921875D02*
G75*
G03*
X21431250Y-10080625I158755J5D01*
G01*
X21748750Y-10239375D02*
X21748750Y-11826875D01*
X10795005Y-6111875D02*
G75*
G03*
X10953750Y-6270625I157925J-825D01*
G01*
X21748745Y-11826875D02*
G75*
G03*
X21907500Y-11985625I158755J5D01*
G01*
X6905625Y-5159375D02*
X8491500Y-5159375D01*
X21431250Y-8016880D02*
G75*
G03*
X21272500Y-8175625I0J-158750D01*
G01*
X2381250Y-7302500D02*
G75*
G03*
X2540000Y-7461250I158750J0D01*
G01*
X10795000Y-4445000D02*
X10795000Y-6111875D01*
X21272500Y-8175625D02*
X21272500Y-9921875D01*
X8648700Y-4999075D02*
X8648700Y-4443450D01*
X22542500Y-15716250D02*
X2941989Y-15716250D01*
X2778125Y-15557500D02*
X2778125Y-7937500D01*
X2540000Y-7461250D02*
X2619375Y-7461250D01*
X8812249Y-4284699D02*
G75*
G03*
X8648700Y-4443450I-1719J-161851D01*
G01*
X21431250Y-10080625D02*
X21590000Y-10080625D01*
X22225005Y-6429375D02*
G75*
G03*
X22066250Y-6270625I-158755J-5D01*
G01*
X22066250Y-8016870D02*
G75*
G03*
X22225000Y-7858125I0J158750D01*
G01*
X21907500Y-11985625D02*
X22542500Y-11985625D01*
X2778120Y-7620000D02*
G75*
G03*
X2619375Y-7461250I-158750J0D01*
G01*
X2540000Y-5873750D02*
G75*
G03*
X2381250Y-6032500I-2090J-156660D01*
G01*
X22701250Y-12144375D02*
X22701250Y-15557500D01*
D11*
D12*
X3179375Y-6032500D02*
X3329375Y-6182500D01*
X3329375Y-6032500D02*
X3179375Y-6182500D01*
D11*
X3319375Y-6042500D02*
X3189375Y-6042500D01*
X3319375Y-6172500D02*
X3189375Y-6172500D01*
X3189375Y-6042500D02*
G75*
G03*
X3189375Y-6172500I0J-65000D01*
G01*
X3319375Y-6172500D02*
G75*
G03*
X3319375Y-6042500I0J65000D01*
G01*
D12*
X3179375Y-7152500D02*
X3329375Y-7302500D01*
X3329375Y-7152500D02*
X3179375Y-7302500D01*
D11*
X3319375Y-7162500D02*
X3189375Y-7162500D01*
X3319375Y-7292500D02*
X3189375Y-7292500D01*
X3189375Y-7162500D02*
G75*
G03*
X3189375Y-7292500I0J-65000D01*
G01*
X3319375Y-7292500D02*
G75*
G03*
X3319375Y-7162500I0J65000D01*
G01*
D13*
X3310125Y-9048750D02*
G75*
G03*
X3310125Y-9048750I-87500J0D01*
G01*
X3310125Y-10953750D02*
G75*
G03*
X3310125Y-10953750I-87500J0D01*
G01*
X3310125Y-12858750D02*
G75*
G03*
X3310125Y-12858750I-87500J0D01*
G01*
X3310125Y-14763750D02*
G75*
G03*
X3310125Y-14763750I-87500J0D01*
G01*
X4326125Y-9048750D02*
G75*
G03*
X4326125Y-9048750I-87500J0D01*
G01*
X4326125Y-10953750D02*
G75*
G03*
X4326125Y-10953750I-87500J0D01*
G01*
X4326125Y-12858750D02*
G75*
G03*
X4326125Y-12858750I-87500J0D01*
G01*
X4326125Y-14763750D02*
G75*
G03*
X4326125Y-14763750I-87500J0D01*
G01*
X5215125Y-6667500D02*
G75*
G03*
X5215125Y-6667500I-87500J0D01*
G01*
X5215125Y-9048750D02*
G75*
G03*
X5215125Y-9048750I-87500J0D01*
G01*
X5215125Y-10953750D02*
G75*
G03*
X5215125Y-10953750I-87500J0D01*
G01*
X5215125Y-12858750D02*
G75*
G03*
X5215125Y-12858750I-87500J0D01*
G01*
X5215125Y-14763750D02*
G75*
G03*
X5215125Y-14763750I-87500J0D01*
G01*
X6231125Y-6667500D02*
G75*
G03*
X6231125Y-6667500I-87500J0D01*
G01*
X6231125Y-9048750D02*
G75*
G03*
X6231125Y-9048750I-87500J0D01*
G01*
X6231125Y-10953750D02*
G75*
G03*
X6231125Y-10953750I-87500J0D01*
G01*
X6231125Y-12858750D02*
G75*
G03*
X6231125Y-12858750I-87500J0D01*
G01*
X6231125Y-14763750D02*
G75*
G03*
X6231125Y-14763750I-87500J0D01*
G01*
X7120125Y-6667500D02*
G75*
G03*
X7120125Y-6667500I-87500J0D01*
G01*
X7120125Y-9048750D02*
G75*
G03*
X7120125Y-9048750I-87500J0D01*
G01*
X7120125Y-10953750D02*
G75*
G03*
X7120125Y-10953750I-87500J0D01*
G01*
X7120125Y-12858750D02*
G75*
G03*
X7120125Y-12858750I-87500J0D01*
G01*
X7120125Y-14763750D02*
G75*
G03*
X7120125Y-14763750I-87500J0D01*
G01*
X8136125Y-6667500D02*
G75*
G03*
X8136125Y-6667500I-87500J0D01*
G01*
X8136125Y-9048750D02*
G75*
G03*
X8136125Y-9048750I-87500J0D01*
G01*
X8136125Y-10953750D02*
G75*
G03*
X8136125Y-10953750I-87500J0D01*
G01*
X8136125Y-12858750D02*
G75*
G03*
X8136125Y-12858750I-87500J0D01*
G01*
X8136125Y-14763750D02*
G75*
G03*
X8136125Y-14763750I-87500J0D01*
G01*
X9501375Y-7143750D02*
G75*
G03*
X9501375Y-7143750I-87500J0D01*
G01*
X9977625Y-9048750D02*
G75*
G03*
X9977625Y-9048750I-87500J0D01*
G01*
X9977625Y-14763750D02*
G75*
G03*
X9977625Y-14763750I-87500J0D01*
G01*
X10215750Y-10953750D02*
G75*
G03*
X10215750Y-10953750I-87500J0D01*
G01*
X10517375Y-7143750D02*
G75*
G03*
X10517375Y-7143750I-87500J0D01*
G01*
X10692000Y-12858750D02*
G75*
G03*
X10692000Y-12858750I-87500J0D01*
G01*
X10993625Y-9048750D02*
G75*
G03*
X10993625Y-9048750I-87500J0D01*
G01*
X10993625Y-14763750D02*
G75*
G03*
X10993625Y-14763750I-87500J0D01*
G01*
X11231750Y-10953750D02*
G75*
G03*
X11231750Y-10953750I-87500J0D01*
G01*
X11406375Y-7143750D02*
G75*
G03*
X11406375Y-7143750I-87500J0D01*
G01*
X11708000Y-12858750D02*
G75*
G03*
X11708000Y-12858750I-87500J0D01*
G01*
X12358875Y-9048750D02*
G75*
G03*
X12358875Y-9048750I-87500J0D01*
G01*
X12422375Y-7143750D02*
G75*
G03*
X12422375Y-7143750I-87500J0D01*
G01*
X12597000Y-14763750D02*
G75*
G03*
X12597000Y-14763750I-87500J0D01*
G01*
X12835125Y-10953750D02*
G75*
G03*
X12835125Y-10953750I-87500J0D01*
G01*
X13311375Y-7143750D02*
G75*
G03*
X13311375Y-7143750I-87500J0D01*
G01*
X13374875Y-9048750D02*
G75*
G03*
X13374875Y-9048750I-87500J0D01*
G01*
X13613000Y-14763750D02*
G75*
G03*
X13613000Y-14763750I-87500J0D01*
G01*
X13787625Y-12858750D02*
G75*
G03*
X13787625Y-12858750I-87500J0D01*
G01*
X13851125Y-10953750D02*
G75*
G03*
X13851125Y-10953750I-87500J0D01*
G01*
X14263875Y-9048750D02*
G75*
G03*
X14263875Y-9048750I-87500J0D01*
G01*
X14327375Y-7143750D02*
G75*
G03*
X14327375Y-7143750I-87500J0D01*
G01*
X14740125Y-10953750D02*
G75*
G03*
X14740125Y-10953750I-87500J0D01*
G01*
X14803625Y-12858750D02*
G75*
G03*
X14803625Y-12858750I-87500J0D01*
G01*
X14978250Y-14763750D02*
G75*
G03*
X14978250Y-14763750I-87500J0D01*
G01*
X15216375Y-7143750D02*
G75*
G03*
X15216375Y-7143750I-87500J0D01*
G01*
X15279875Y-9048750D02*
G75*
G03*
X15279875Y-9048750I-87500J0D01*
G01*
X15692625Y-12858750D02*
G75*
G03*
X15692625Y-12858750I-87500J0D01*
G01*
X15756125Y-10953750D02*
G75*
G03*
X15756125Y-10953750I-87500J0D01*
G01*
X15994250Y-14763750D02*
G75*
G03*
X15994250Y-14763750I-87500J0D01*
G01*
X16168875Y-9048750D02*
G75*
G03*
X16168875Y-9048750I-87500J0D01*
G01*
X16232375Y-7143750D02*
G75*
G03*
X16232375Y-7143750I-87500J0D01*
G01*
X16645125Y-10953750D02*
G75*
G03*
X16645125Y-10953750I-87500J0D01*
G01*
X16708625Y-12858750D02*
G75*
G03*
X16708625Y-12858750I-87500J0D01*
G01*
X17121375Y-7143750D02*
G75*
G03*
X17121375Y-7143750I-87500J0D01*
G01*
X17184875Y-9048750D02*
G75*
G03*
X17184875Y-9048750I-87500J0D01*
G01*
X17359500Y-14763750D02*
G75*
G03*
X17359500Y-14763750I-87500J0D01*
G01*
X17597625Y-12858750D02*
G75*
G03*
X17597625Y-12858750I-87500J0D01*
G01*
X17661125Y-10953750D02*
G75*
G03*
X17661125Y-10953750I-87500J0D01*
G01*
X18073875Y-9048750D02*
G75*
G03*
X18073875Y-9048750I-87500J0D01*
G01*
X18137375Y-7143750D02*
G75*
G03*
X18137375Y-7143750I-87500J0D01*
G01*
X18375500Y-14763750D02*
G75*
G03*
X18375500Y-14763750I-87500J0D01*
G01*
X18550125Y-10953750D02*
G75*
G03*
X18550125Y-10953750I-87500J0D01*
G01*
X18613625Y-12858750D02*
G75*
G03*
X18613625Y-12858750I-87500J0D01*
G01*
X19026375Y-7143750D02*
G75*
G03*
X19026375Y-7143750I-87500J0D01*
G01*
X19089875Y-9048750D02*
G75*
G03*
X19089875Y-9048750I-87500J0D01*
G01*
X19502625Y-12858750D02*
G75*
G03*
X19502625Y-12858750I-87500J0D01*
G01*
X19566125Y-10953750D02*
G75*
G03*
X19566125Y-10953750I-87500J0D01*
G01*
X19978875Y-9048750D02*
G75*
G03*
X19978875Y-9048750I-87500J0D01*
G01*
X20042375Y-7143750D02*
G75*
G03*
X20042375Y-7143750I-87500J0D01*
G01*
X20455125Y-10953750D02*
G75*
G03*
X20455125Y-10953750I-87500J0D01*
G01*
X20455125Y-14763750D02*
G75*
G03*
X20455125Y-14763750I-87500J0D01*
G01*
X20518625Y-12858750D02*
G75*
G03*
X20518625Y-12858750I-87500J0D01*
G01*
X20931375Y-7143750D02*
G75*
G03*
X20931375Y-7143750I-87500J0D01*
G01*
X20994875Y-9048750D02*
G75*
G03*
X20994875Y-9048750I-87500J0D01*
G01*
X21407625Y-12858750D02*
G75*
G03*
X21407625Y-12858750I-87500J0D01*
G01*
X21471125Y-10953750D02*
G75*
G03*
X21471125Y-10953750I-87500J0D01*
G01*
X21471125Y-14763750D02*
G75*
G03*
X21471125Y-14763750I-87500J0D01*
G01*
X21947375Y-7143750D02*
G75*
G03*
X21947375Y-7143750I-87500J0D01*
G01*
X22423625Y-12858750D02*
G75*
G03*
X22423625Y-12858750I-87500J0D01*
G01*
D14*
X3349625Y-8644750D02*
X3349625Y-8944750D01*
X3199625Y-8794750D02*
X3499625Y-8794750D01*
X3349625Y-10549750D02*
X3349625Y-10849750D01*
X3199625Y-10699750D02*
X3499625Y-10699750D01*
X3349625Y-12454750D02*
X3349625Y-12754750D01*
X3199625Y-12604750D02*
X3499625Y-12604750D01*
X3349625Y-14359750D02*
X3349625Y-14659750D01*
X3199625Y-14509750D02*
X3499625Y-14509750D01*
X3984625Y-8390750D02*
X3984625Y-8690750D01*
X3834625Y-8540750D02*
X4134625Y-8540750D01*
X3984625Y-10295750D02*
X3984625Y-10595750D01*
X3834625Y-10445750D02*
X4134625Y-10445750D01*
X3984625Y-12200750D02*
X3984625Y-12500750D01*
X3834625Y-12350750D02*
X4134625Y-12350750D01*
X3984625Y-14105750D02*
X3984625Y-14405750D01*
X3834625Y-14255750D02*
X4134625Y-14255750D01*
X5254625Y-6263500D02*
X5254625Y-6563500D01*
X5104625Y-6413500D02*
X5404625Y-6413500D01*
X5254625Y-8644750D02*
X5254625Y-8944750D01*
X5104625Y-8794750D02*
X5404625Y-8794750D01*
X5254625Y-10549750D02*
X5254625Y-10849750D01*
X5104625Y-10699750D02*
X5404625Y-10699750D01*
X5254625Y-12454750D02*
X5254625Y-12754750D01*
X5104625Y-12604750D02*
X5404625Y-12604750D01*
X5254625Y-14359750D02*
X5254625Y-14659750D01*
X5104625Y-14509750D02*
X5404625Y-14509750D01*
X5889625Y-6009500D02*
X5889625Y-6309500D01*
X5739625Y-6159500D02*
X6039625Y-6159500D01*
X5889625Y-8390750D02*
X5889625Y-8690750D01*
X5739625Y-8540750D02*
X6039625Y-8540750D01*
X5889625Y-10295750D02*
X5889625Y-10595750D01*
X5739625Y-10445750D02*
X6039625Y-10445750D01*
X5889625Y-12200750D02*
X5889625Y-12500750D01*
X5739625Y-12350750D02*
X6039625Y-12350750D01*
X5889625Y-14105750D02*
X5889625Y-14405750D01*
X5739625Y-14255750D02*
X6039625Y-14255750D01*
X7159625Y-6263500D02*
X7159625Y-6563500D01*
X7009625Y-6413500D02*
X7309625Y-6413500D01*
X7159625Y-8644750D02*
X7159625Y-8944750D01*
X7009625Y-8794750D02*
X7309625Y-8794750D01*
X7159625Y-10549750D02*
X7159625Y-10849750D01*
X7009625Y-10699750D02*
X7309625Y-10699750D01*
X7159625Y-12454750D02*
X7159625Y-12754750D01*
X7009625Y-12604750D02*
X7309625Y-12604750D01*
X7159625Y-14359750D02*
X7159625Y-14659750D01*
X7009625Y-14509750D02*
X7309625Y-14509750D01*
X7794625Y-6009500D02*
X7794625Y-6309500D01*
X7644625Y-6159500D02*
X7944625Y-6159500D01*
X7794625Y-8390750D02*
X7794625Y-8690750D01*
X7644625Y-8540750D02*
X7944625Y-8540750D01*
X7794625Y-10295750D02*
X7794625Y-10595750D01*
X7644625Y-10445750D02*
X7944625Y-10445750D01*
X7794625Y-12200750D02*
X7794625Y-12500750D01*
X7644625Y-12350750D02*
X7944625Y-12350750D01*
X7794625Y-14105750D02*
X7794625Y-14405750D01*
X7644625Y-14255750D02*
X7944625Y-14255750D01*
X9540875Y-6739750D02*
X9540875Y-7039750D01*
X9390875Y-6889750D02*
X9690875Y-6889750D01*
X10017125Y-8644750D02*
X10017125Y-8944750D01*
X9867125Y-8794750D02*
X10167125Y-8794750D01*
X10017125Y-14359750D02*
X10017125Y-14659750D01*
X9867125Y-14509750D02*
X10167125Y-14509750D01*
X10175875Y-6485750D02*
X10175875Y-6785750D01*
X10025875Y-6635750D02*
X10325875Y-6635750D01*
X10255250Y-10549750D02*
X10255250Y-10849750D01*
X10105250Y-10699750D02*
X10405250Y-10699750D01*
X10652125Y-8390750D02*
X10652125Y-8690750D01*
X10502125Y-8540750D02*
X10802125Y-8540750D01*
X10652125Y-14105750D02*
X10652125Y-14405750D01*
X10502125Y-14255750D02*
X10802125Y-14255750D01*
X10731500Y-12454750D02*
X10731500Y-12754750D01*
X10581500Y-12604750D02*
X10881500Y-12604750D01*
X10890250Y-10295750D02*
X10890250Y-10595750D01*
X10740250Y-10445750D02*
X11040250Y-10445750D01*
X11366500Y-12200750D02*
X11366500Y-12500750D01*
X11216500Y-12350750D02*
X11516500Y-12350750D01*
X11445875Y-6739750D02*
X11445875Y-7039750D01*
X11295875Y-6889750D02*
X11595875Y-6889750D01*
X12080875Y-6485750D02*
X12080875Y-6785750D01*
X11930875Y-6635750D02*
X12230875Y-6635750D01*
X12398375Y-8644750D02*
X12398375Y-8944750D01*
X12248375Y-8794750D02*
X12548375Y-8794750D01*
X12636500Y-14359750D02*
X12636500Y-14659750D01*
X12486500Y-14509750D02*
X12786500Y-14509750D01*
X12874625Y-10549750D02*
X12874625Y-10849750D01*
X12724625Y-10699750D02*
X13024625Y-10699750D01*
X13033375Y-8390750D02*
X13033375Y-8690750D01*
X12883375Y-8540750D02*
X13183375Y-8540750D01*
X13271500Y-14105750D02*
X13271500Y-14405750D01*
X13121500Y-14255750D02*
X13421500Y-14255750D01*
X13350875Y-6739750D02*
X13350875Y-7039750D01*
X13200875Y-6889750D02*
X13500875Y-6889750D01*
X13509625Y-10295750D02*
X13509625Y-10595750D01*
X13359625Y-10445750D02*
X13659625Y-10445750D01*
X13827125Y-12454750D02*
X13827125Y-12754750D01*
X13677125Y-12604750D02*
X13977125Y-12604750D01*
X13985875Y-6485750D02*
X13985875Y-6785750D01*
X13835875Y-6635750D02*
X14135875Y-6635750D01*
X14303375Y-8644750D02*
X14303375Y-8944750D01*
X14153375Y-8794750D02*
X14453375Y-8794750D01*
X14462125Y-12200750D02*
X14462125Y-12500750D01*
X14312125Y-12350750D02*
X14612125Y-12350750D01*
X14779625Y-10549750D02*
X14779625Y-10849750D01*
X14629625Y-10699750D02*
X14929625Y-10699750D01*
X14938375Y-8390750D02*
X14938375Y-8690750D01*
X14788375Y-8540750D02*
X15088375Y-8540750D01*
X15017750Y-14359750D02*
X15017750Y-14659750D01*
X14867750Y-14509750D02*
X15167750Y-14509750D01*
X15255875Y-6739750D02*
X15255875Y-7039750D01*
X15105875Y-6889750D02*
X15405875Y-6889750D01*
X15414625Y-10295750D02*
X15414625Y-10595750D01*
X15264625Y-10445750D02*
X15564625Y-10445750D01*
X15652750Y-14105750D02*
X15652750Y-14405750D01*
X15502750Y-14255750D02*
X15802750Y-14255750D01*
X15732125Y-12454750D02*
X15732125Y-12754750D01*
X15582125Y-12604750D02*
X15882125Y-12604750D01*
X15890875Y-6485750D02*
X15890875Y-6785750D01*
X15740875Y-6635750D02*
X16040875Y-6635750D01*
X16208375Y-8644750D02*
X16208375Y-8944750D01*
X16058375Y-8794750D02*
X16358375Y-8794750D01*
X16367125Y-12200750D02*
X16367125Y-12500750D01*
X16217125Y-12350750D02*
X16517125Y-12350750D01*
X16684625Y-10549750D02*
X16684625Y-10849750D01*
X16534625Y-10699750D02*
X16834625Y-10699750D01*
X16843375Y-8390750D02*
X16843375Y-8690750D01*
X16693375Y-8540750D02*
X16993375Y-8540750D01*
X17160875Y-6739750D02*
X17160875Y-7039750D01*
X17010875Y-6889750D02*
X17310875Y-6889750D01*
X17319625Y-10295750D02*
X17319625Y-10595750D01*
X17169625Y-10445750D02*
X17469625Y-10445750D01*
X17399000Y-14359750D02*
X17399000Y-14659750D01*
X17249000Y-14509750D02*
X17549000Y-14509750D01*
X17637125Y-12454750D02*
X17637125Y-12754750D01*
X17487125Y-12604750D02*
X17787125Y-12604750D01*
X17795875Y-6485750D02*
X17795875Y-6785750D01*
X17645875Y-6635750D02*
X17945875Y-6635750D01*
X18034000Y-14105750D02*
X18034000Y-14405750D01*
X17884000Y-14255750D02*
X18184000Y-14255750D01*
X18113375Y-8644750D02*
X18113375Y-8944750D01*
X17963375Y-8794750D02*
X18263375Y-8794750D01*
X18272125Y-12200750D02*
X18272125Y-12500750D01*
X18122125Y-12350750D02*
X18422125Y-12350750D01*
X18589625Y-10549750D02*
X18589625Y-10849750D01*
X18439625Y-10699750D02*
X18739625Y-10699750D01*
X18748375Y-8390750D02*
X18748375Y-8690750D01*
X18598375Y-8540750D02*
X18898375Y-8540750D01*
X19065875Y-6739750D02*
X19065875Y-7039750D01*
X18915875Y-6889750D02*
X19215875Y-6889750D01*
X19224625Y-10295750D02*
X19224625Y-10595750D01*
X19074625Y-10445750D02*
X19374625Y-10445750D01*
X19542125Y-12454750D02*
X19542125Y-12754750D01*
X19392125Y-12604750D02*
X19692125Y-12604750D01*
X19700875Y-6485750D02*
X19700875Y-6785750D01*
X19550875Y-6635750D02*
X19850875Y-6635750D01*
X20018375Y-8644750D02*
X20018375Y-8944750D01*
X19868375Y-8794750D02*
X20168375Y-8794750D01*
X20177125Y-12200750D02*
X20177125Y-12500750D01*
X20027125Y-12350750D02*
X20327125Y-12350750D01*
X20494625Y-10549750D02*
X20494625Y-10849750D01*
X20344625Y-10699750D02*
X20644625Y-10699750D01*
X20494625Y-14359750D02*
X20494625Y-14659750D01*
X20344625Y-14509750D02*
X20644625Y-14509750D01*
X20653375Y-8390750D02*
X20653375Y-8690750D01*
X20503375Y-8540750D02*
X20803375Y-8540750D01*
X20970875Y-6739750D02*
X20970875Y-7039750D01*
X20820875Y-6889750D02*
X21120875Y-6889750D01*
X21129625Y-10295750D02*
X21129625Y-10595750D01*
X20979625Y-10445750D02*
X21279625Y-10445750D01*
X21129625Y-14105750D02*
X21129625Y-14405750D01*
X20979625Y-14255750D02*
X21279625Y-14255750D01*
X21447125Y-12454750D02*
X21447125Y-12754750D01*
X21297125Y-12604750D02*
X21597125Y-12604750D01*
X21605875Y-6485750D02*
X21605875Y-6785750D01*
X21455875Y-6635750D02*
X21755875Y-6635750D01*
X22082125Y-12200750D02*
X22082125Y-12500750D01*
X21932125Y-12350750D02*
X22232125Y-12350750D01*
D15*
X10026464Y-12268014D02*
X10026464Y-12052486D01*
X9810936Y-12052486D01*
X9810936Y-12268014D01*
X10026464Y-12268014D01*
X12414064Y-12268014D02*
X12414064Y-12052486D01*
X12198536Y-12052486D01*
X12198536Y-12268014D01*
X12414064Y-12268014D01*
X19789589Y-15570014D02*
X19789589Y-15354486D01*
X19574061Y-15354486D01*
X19574061Y-15570014D01*
X19789589Y-15570014D01*
X22177189Y-15570014D02*
X22177189Y-15354486D01*
X21961661Y-15354486D01*
X21961661Y-15570014D01*
X22177189Y-15570014D01*
D16*
X3730625Y-9248140D02*
X3930015Y-9048750D01*
X3730625Y-8849360D01*
X3531235Y-9048750D01*
X3730625Y-9248140D01*
X3730625Y-11153140D02*
X3930015Y-10953750D01*
X3730625Y-10754360D01*
X3531235Y-10953750D01*
X3730625Y-11153140D01*
X3730625Y-13058140D02*
X3930015Y-12858750D01*
X3730625Y-12659360D01*
X3531235Y-12858750D01*
X3730625Y-13058140D01*
X3730625Y-14963140D02*
X3930015Y-14763750D01*
X3730625Y-14564360D01*
X3531235Y-14763750D01*
X3730625Y-14963140D01*
X5635625Y-6866890D02*
X5835015Y-6667500D01*
X5635625Y-6468110D01*
X5436235Y-6667500D01*
X5635625Y-6866890D01*
X5635625Y-9248140D02*
X5835015Y-9048750D01*
X5635625Y-8849360D01*
X5436235Y-9048750D01*
X5635625Y-9248140D01*
X5635625Y-11153140D02*
X5835015Y-10953750D01*
X5635625Y-10754360D01*
X5436235Y-10953750D01*
X5635625Y-11153140D01*
X5635625Y-13058140D02*
X5835015Y-12858750D01*
X5635625Y-12659360D01*
X5436235Y-12858750D01*
X5635625Y-13058140D01*
X5635625Y-14963140D02*
X5835015Y-14763750D01*
X5635625Y-14564360D01*
X5436235Y-14763750D01*
X5635625Y-14963140D01*
X7540625Y-6866890D02*
X7740015Y-6667500D01*
X7540625Y-6468110D01*
X7341235Y-6667500D01*
X7540625Y-6866890D01*
X7540625Y-9248140D02*
X7740015Y-9048750D01*
X7540625Y-8849360D01*
X7341235Y-9048750D01*
X7540625Y-9248140D01*
X7540625Y-11153140D02*
X7740015Y-10953750D01*
X7540625Y-10754360D01*
X7341235Y-10953750D01*
X7540625Y-11153140D01*
X7540625Y-13058140D02*
X7740015Y-12858750D01*
X7540625Y-12659360D01*
X7341235Y-12858750D01*
X7540625Y-13058140D01*
X7540625Y-14963140D02*
X7740015Y-14763750D01*
X7540625Y-14564360D01*
X7341235Y-14763750D01*
X7540625Y-14963140D01*
X9918700Y-13883640D02*
X10118090Y-13684250D01*
X9918700Y-13484860D01*
X9719310Y-13684250D01*
X9918700Y-13883640D01*
X9921875Y-7343140D02*
X10121265Y-7143750D01*
X9921875Y-6944360D01*
X9722485Y-7143750D01*
X9921875Y-7343140D01*
X10398125Y-9248140D02*
X10597515Y-9048750D01*
X10398125Y-8849360D01*
X10198735Y-9048750D01*
X10398125Y-9248140D01*
X10398125Y-14963140D02*
X10597515Y-14763750D01*
X10398125Y-14564360D01*
X10198735Y-14763750D01*
X10398125Y-14963140D01*
X10636250Y-11153140D02*
X10835640Y-10953750D01*
X10636250Y-10754360D01*
X10436860Y-10953750D01*
X10636250Y-11153140D01*
X11112500Y-13058140D02*
X11311890Y-12858750D01*
X11112500Y-12659360D01*
X10913110Y-12858750D01*
X11112500Y-13058140D01*
X11826875Y-7343140D02*
X12026265Y-7143750D01*
X11826875Y-6944360D01*
X11627485Y-7143750D01*
X11826875Y-7343140D01*
X12306300Y-13883640D02*
X12505690Y-13684250D01*
X12306300Y-13484860D01*
X12106910Y-13684250D01*
X12306300Y-13883640D01*
X12779375Y-9248140D02*
X12978765Y-9048750D01*
X12779375Y-8849360D01*
X12579985Y-9048750D01*
X12779375Y-9248140D01*
X13017500Y-14963140D02*
X13216890Y-14763750D01*
X13017500Y-14564360D01*
X12818110Y-14763750D01*
X13017500Y-14963140D01*
X13255625Y-11153140D02*
X13455015Y-10953750D01*
X13255625Y-10754360D01*
X13056235Y-10953750D01*
X13255625Y-11153140D01*
X13731875Y-7343140D02*
X13931265Y-7143750D01*
X13731875Y-6944360D01*
X13532485Y-7143750D01*
X13731875Y-7343140D01*
X14208125Y-13058140D02*
X14407515Y-12858750D01*
X14208125Y-12659360D01*
X14008735Y-12858750D01*
X14208125Y-13058140D01*
X14684375Y-9248140D02*
X14883765Y-9048750D01*
X14684375Y-8849360D01*
X14484985Y-9048750D01*
X14684375Y-9248140D01*
X15160625Y-11153140D02*
X15360015Y-10953750D01*
X15160625Y-10754360D01*
X14961235Y-10953750D01*
X15160625Y-11153140D01*
X15398750Y-14963140D02*
X15598140Y-14763750D01*
X15398750Y-14564360D01*
X15199360Y-14763750D01*
X15398750Y-14963140D01*
X15636875Y-7343140D02*
X15836265Y-7143750D01*
X15636875Y-6944360D01*
X15437485Y-7143750D01*
X15636875Y-7343140D01*
X16113125Y-13058140D02*
X16312515Y-12858750D01*
X16113125Y-12659360D01*
X15913735Y-12858750D01*
X16113125Y-13058140D01*
X16589375Y-9248140D02*
X16788765Y-9048750D01*
X16589375Y-8849360D01*
X16389985Y-9048750D01*
X16589375Y-9248140D01*
X17065625Y-11153140D02*
X17265015Y-10953750D01*
X17065625Y-10754360D01*
X16866235Y-10953750D01*
X17065625Y-11153140D01*
X17541875Y-7343140D02*
X17741265Y-7143750D01*
X17541875Y-6944360D01*
X17342485Y-7143750D01*
X17541875Y-7343140D01*
X17780000Y-14963140D02*
X17979390Y-14763750D01*
X17780000Y-14564360D01*
X17580610Y-14763750D01*
X17780000Y-14963140D01*
X18018125Y-13058140D02*
X18217515Y-12858750D01*
X18018125Y-12659360D01*
X17818735Y-12858750D01*
X18018125Y-13058140D01*
X18494375Y-9248140D02*
X18693765Y-9048750D01*
X18494375Y-8849360D01*
X18294985Y-9048750D01*
X18494375Y-9248140D01*
X18970625Y-11153140D02*
X19170015Y-10953750D01*
X18970625Y-10754360D01*
X18771235Y-10953750D01*
X18970625Y-11153140D01*
X19446875Y-7343140D02*
X19646265Y-7143750D01*
X19446875Y-6944360D01*
X19247485Y-7143750D01*
X19446875Y-7343140D01*
X19681825Y-14137640D02*
X19881215Y-13938250D01*
X19681825Y-13738860D01*
X19482435Y-13938250D01*
X19681825Y-14137640D01*
X19923125Y-13058140D02*
X20122515Y-12858750D01*
X19923125Y-12659360D01*
X19723735Y-12858750D01*
X19923125Y-13058140D01*
X20399375Y-9248140D02*
X20598765Y-9048750D01*
X20399375Y-8849360D01*
X20199985Y-9048750D01*
X20399375Y-9248140D01*
X20875625Y-11153140D02*
X21075015Y-10953750D01*
X20875625Y-10754360D01*
X20676235Y-10953750D01*
X20875625Y-11153140D01*
X20875625Y-14963140D02*
X21075015Y-14763750D01*
X20875625Y-14564360D01*
X20676235Y-14763750D01*
X20875625Y-14963140D01*
X21351875Y-7343140D02*
X21551265Y-7143750D01*
X21351875Y-6944360D01*
X21152485Y-7143750D01*
X21351875Y-7343140D01*
X21828125Y-13058140D02*
X22027515Y-12858750D01*
X21828125Y-12659360D01*
X21628735Y-12858750D01*
X21828125Y-13058140D01*
X22069425Y-14137640D02*
X22268815Y-13938250D01*
X22069425Y-13738860D01*
X21870035Y-13938250D01*
X22069425Y-14137640D01*
D11*
X2633855Y-16031819D02*
X2633855Y-15831819D01*
X2681474Y-15831819D01*
X2710046Y-15841343D01*
X2729093Y-15860391D01*
X2738617Y-15879438D01*
X2748141Y-15917533D01*
X2748141Y-15946105D01*
X2738617Y-15984200D01*
X2729093Y-16003248D01*
X2710046Y-16022295D01*
X2681474Y-16031819D01*
X2633855Y-16031819D01*
X2833855Y-16031819D02*
X2833855Y-15898486D01*
X2833855Y-15936581D02*
X2843379Y-15917533D01*
X2852903Y-15908010D01*
X2871950Y-15898486D01*
X2890998Y-15898486D01*
X2957665Y-16031819D02*
X2957665Y-15898486D01*
X2957665Y-15831819D02*
X2948141Y-15841343D01*
X2957665Y-15850867D01*
X2967188Y-15841343D01*
X2957665Y-15831819D01*
X2957665Y-15850867D01*
X3081474Y-16031819D02*
X3062426Y-16022295D01*
X3052903Y-16003248D01*
X3052903Y-15831819D01*
X3186236Y-16031819D02*
X3167188Y-16022295D01*
X3157665Y-16003248D01*
X3157665Y-15831819D01*
X3414807Y-16031819D02*
X3414807Y-15831819D01*
X3481474Y-15974676D01*
X3548141Y-15831819D01*
X3548141Y-16031819D01*
X3729093Y-16031819D02*
X3729093Y-15927057D01*
X3719569Y-15908010D01*
X3700522Y-15898486D01*
X3662426Y-15898486D01*
X3643379Y-15908010D01*
X3729093Y-16022295D02*
X3710046Y-16031819D01*
X3662426Y-16031819D01*
X3643379Y-16022295D01*
X3633855Y-16003248D01*
X3633855Y-15984200D01*
X3643379Y-15965153D01*
X3662426Y-15955629D01*
X3710046Y-15955629D01*
X3729093Y-15946105D01*
X3824331Y-15898486D02*
X3824331Y-16098486D01*
X3824331Y-15908010D02*
X3843379Y-15898486D01*
X3881474Y-15898486D01*
X3900522Y-15908010D01*
X3910046Y-15917533D01*
X3919569Y-15936581D01*
X3919569Y-15993724D01*
X3910046Y-16012772D01*
X3900522Y-16022295D01*
X3881474Y-16031819D01*
X3843379Y-16031819D01*
X3824331Y-16022295D01*
X4005284Y-16012772D02*
X4014807Y-16022295D01*
X4005284Y-16031819D01*
X3995760Y-16022295D01*
X4005284Y-16012772D01*
X4005284Y-16031819D01*
X4005284Y-15908010D02*
X4014807Y-15917533D01*
X4005284Y-15927057D01*
X3995760Y-15917533D01*
X4005284Y-15908010D01*
X4005284Y-15927057D01*
D12*
X2226236Y-16286343D02*
X2376236Y-16436343D01*
X2376236Y-16286343D02*
X2226236Y-16436343D01*
D11*
X2738617Y-16451819D02*
X2624331Y-16451819D01*
X2681474Y-16451819D02*
X2681474Y-16251819D01*
X2662427Y-16280391D01*
X2643379Y-16299438D01*
X2624331Y-16308962D01*
X2824331Y-16432772D02*
X2833855Y-16442295D01*
X2824331Y-16451819D01*
X2814807Y-16442295D01*
X2824331Y-16432772D01*
X2824331Y-16451819D01*
X3014807Y-16251819D02*
X2919569Y-16251819D01*
X2910046Y-16347057D01*
X2919569Y-16337533D01*
X2938617Y-16328010D01*
X2986236Y-16328010D01*
X3005284Y-16337533D01*
X3014807Y-16347057D01*
X3024331Y-16366105D01*
X3024331Y-16413724D01*
X3014807Y-16432772D01*
X3005284Y-16442295D01*
X2986236Y-16451819D01*
X2938617Y-16451819D01*
X2919569Y-16442295D01*
X2910046Y-16432772D01*
X3148141Y-16251819D02*
X3167188Y-16251819D01*
X3186236Y-16261343D01*
X3195760Y-16270867D01*
X3205284Y-16289914D01*
X3214807Y-16328010D01*
X3214807Y-16375629D01*
X3205284Y-16413724D01*
X3195760Y-16432772D01*
X3186236Y-16442295D01*
X3167188Y-16451819D01*
X3148141Y-16451819D01*
X3129093Y-16442295D01*
X3119569Y-16432772D01*
X3110046Y-16413724D01*
X3100522Y-16375629D01*
X3100522Y-16328010D01*
X3110046Y-16289914D01*
X3119569Y-16270867D01*
X3129093Y-16261343D01*
X3148141Y-16251819D01*
X3338617Y-16251819D02*
X3357665Y-16251819D01*
X3376712Y-16261343D01*
X3386236Y-16270867D01*
X3395760Y-16289914D01*
X3405284Y-16328010D01*
X3405284Y-16375629D01*
X3395760Y-16413724D01*
X3386236Y-16432772D01*
X3376712Y-16442295D01*
X3357665Y-16451819D01*
X3338617Y-16451819D01*
X3319569Y-16442295D01*
X3310046Y-16432772D01*
X3300522Y-16413724D01*
X3290998Y-16375629D01*
X3290998Y-16328010D01*
X3300522Y-16289914D01*
X3310046Y-16270867D01*
X3319569Y-16261343D01*
X3338617Y-16251819D01*
X3490998Y-16451819D02*
X3490998Y-16318486D01*
X3490998Y-16337533D02*
X3500522Y-16328010D01*
X3519569Y-16318486D01*
X3548141Y-16318486D01*
X3567188Y-16328010D01*
X3576712Y-16347057D01*
X3576712Y-16451819D01*
X3576712Y-16347057D02*
X3586236Y-16328010D01*
X3605284Y-16318486D01*
X3633855Y-16318486D01*
X3652903Y-16328010D01*
X3662426Y-16347057D01*
X3662426Y-16451819D01*
X3757665Y-16451819D02*
X3757665Y-16318486D01*
X3757665Y-16337533D02*
X3767188Y-16328010D01*
X3786236Y-16318486D01*
X3814807Y-16318486D01*
X3833855Y-16328010D01*
X3843379Y-16347057D01*
X3843379Y-16451819D01*
X3843379Y-16347057D02*
X3852903Y-16328010D01*
X3871950Y-16318486D01*
X3900522Y-16318486D01*
X3919569Y-16328010D01*
X3929093Y-16347057D01*
X3929093Y-16451819D01*
X4319569Y-16242295D02*
X4148141Y-16499438D01*
X4576712Y-16251819D02*
X4595760Y-16251819D01*
X4614808Y-16261343D01*
X4624331Y-16270867D01*
X4633855Y-16289914D01*
X4643379Y-16328010D01*
X4643379Y-16375629D01*
X4633855Y-16413724D01*
X4624331Y-16432772D01*
X4614808Y-16442295D01*
X4595760Y-16451819D01*
X4576712Y-16451819D01*
X4557665Y-16442295D01*
X4548141Y-16432772D01*
X4538617Y-16413724D01*
X4529093Y-16375629D01*
X4529093Y-16328010D01*
X4538617Y-16289914D01*
X4548141Y-16270867D01*
X4557665Y-16261343D01*
X4576712Y-16251819D01*
X4729093Y-16432772D02*
X4738617Y-16442295D01*
X4729093Y-16451819D01*
X4719569Y-16442295D01*
X4729093Y-16432772D01*
X4729093Y-16451819D01*
X4862427Y-16251819D02*
X4881474Y-16251819D01*
X4900522Y-16261343D01*
X4910046Y-16270867D01*
X4919569Y-16289914D01*
X4929093Y-16328010D01*
X4929093Y-16375629D01*
X4919569Y-16413724D01*
X4910046Y-16432772D01*
X4900522Y-16442295D01*
X4881474Y-16451819D01*
X4862427Y-16451819D01*
X4843379Y-16442295D01*
X4833855Y-16432772D01*
X4824331Y-16413724D01*
X4814808Y-16375629D01*
X4814808Y-16328010D01*
X4824331Y-16289914D01*
X4833855Y-16270867D01*
X4843379Y-16261343D01*
X4862427Y-16251819D01*
X5110046Y-16251819D02*
X5014808Y-16251819D01*
X5005284Y-16347057D01*
X5014808Y-16337533D01*
X5033855Y-16328010D01*
X5081474Y-16328010D01*
X5100522Y-16337533D01*
X5110046Y-16347057D01*
X5119569Y-16366105D01*
X5119569Y-16413724D01*
X5110046Y-16432772D01*
X5100522Y-16442295D01*
X5081474Y-16451819D01*
X5033855Y-16451819D01*
X5014808Y-16442295D01*
X5005284Y-16432772D01*
X5214808Y-16451819D02*
X5252903Y-16451819D01*
X5271950Y-16442295D01*
X5281474Y-16432772D01*
X5300522Y-16404200D01*
X5310046Y-16366105D01*
X5310046Y-16289914D01*
X5300522Y-16270867D01*
X5290998Y-16261343D01*
X5271950Y-16251819D01*
X5233855Y-16251819D01*
X5214808Y-16261343D01*
X5205284Y-16270867D01*
X5195760Y-16289914D01*
X5195760Y-16337533D01*
X5205284Y-16356581D01*
X5214808Y-16366105D01*
X5233855Y-16375629D01*
X5271950Y-16375629D01*
X5290998Y-16366105D01*
X5300522Y-16356581D01*
X5310046Y-16337533D01*
X5500522Y-16451819D02*
X5386236Y-16451819D01*
X5443379Y-16451819D02*
X5443379Y-16251819D01*
X5424331Y-16280391D01*
X5405284Y-16299438D01*
X5386236Y-16308962D01*
X5576712Y-16251819D02*
X5576712Y-16289914D01*
X5652903Y-16251819D02*
X5652903Y-16289914D01*
X5948141Y-16528010D02*
X5938617Y-16518486D01*
X5919569Y-16489914D01*
X5910046Y-16470867D01*
X5900522Y-16442295D01*
X5890998Y-16394676D01*
X5890998Y-16356581D01*
X5900522Y-16308962D01*
X5910046Y-16280391D01*
X5919569Y-16261343D01*
X5938617Y-16232772D01*
X5948141Y-16223248D01*
X6062426Y-16251819D02*
X6081474Y-16251819D01*
X6100522Y-16261343D01*
X6110046Y-16270867D01*
X6119569Y-16289914D01*
X6129093Y-16328010D01*
X6129093Y-16375629D01*
X6119569Y-16413724D01*
X6110046Y-16432772D01*
X6100522Y-16442295D01*
X6081474Y-16451819D01*
X6062426Y-16451819D01*
X6043379Y-16442295D01*
X6033855Y-16432772D01*
X6024331Y-16413724D01*
X6014807Y-16375629D01*
X6014807Y-16328010D01*
X6024331Y-16289914D01*
X6033855Y-16270867D01*
X6043379Y-16261343D01*
X6062426Y-16251819D01*
X6367188Y-16451819D02*
X6367188Y-16251819D01*
X6452903Y-16451819D02*
X6452903Y-16347057D01*
X6443379Y-16328010D01*
X6424331Y-16318486D01*
X6395760Y-16318486D01*
X6376712Y-16328010D01*
X6367188Y-16337533D01*
X6576712Y-16451819D02*
X6557665Y-16442295D01*
X6548141Y-16432772D01*
X6538617Y-16413724D01*
X6538617Y-16356581D01*
X6548141Y-16337533D01*
X6557665Y-16328010D01*
X6576712Y-16318486D01*
X6605284Y-16318486D01*
X6624331Y-16328010D01*
X6633855Y-16337533D01*
X6643379Y-16356581D01*
X6643379Y-16413724D01*
X6633855Y-16432772D01*
X6624331Y-16442295D01*
X6605284Y-16451819D01*
X6576712Y-16451819D01*
X6757665Y-16451819D02*
X6738617Y-16442295D01*
X6729093Y-16423248D01*
X6729093Y-16251819D01*
X6910046Y-16442295D02*
X6890998Y-16451819D01*
X6852903Y-16451819D01*
X6833855Y-16442295D01*
X6824331Y-16423248D01*
X6824331Y-16347057D01*
X6833855Y-16328010D01*
X6852903Y-16318486D01*
X6890998Y-16318486D01*
X6910046Y-16328010D01*
X6919569Y-16347057D01*
X6919569Y-16366105D01*
X6824331Y-16385153D01*
X6995760Y-16442295D02*
X7014807Y-16451819D01*
X7052903Y-16451819D01*
X7071950Y-16442295D01*
X7081474Y-16423248D01*
X7081474Y-16413724D01*
X7071950Y-16394676D01*
X7052903Y-16385153D01*
X7024331Y-16385153D01*
X7005284Y-16375629D01*
X6995760Y-16356581D01*
X6995760Y-16347057D01*
X7005284Y-16328010D01*
X7024331Y-16318486D01*
X7052903Y-16318486D01*
X7071950Y-16328010D01*
X7319569Y-16375629D02*
X7471950Y-16375629D01*
X7395760Y-16451819D02*
X7395760Y-16299438D01*
X7710046Y-16270867D02*
X7719569Y-16261343D01*
X7738617Y-16251819D01*
X7786236Y-16251819D01*
X7805284Y-16261343D01*
X7814807Y-16270867D01*
X7824331Y-16289914D01*
X7824331Y-16308962D01*
X7814807Y-16337533D01*
X7700522Y-16451819D01*
X7824331Y-16451819D01*
X8052903Y-16442295D02*
X8071950Y-16451819D01*
X8110046Y-16451819D01*
X8129093Y-16442295D01*
X8138617Y-16423248D01*
X8138617Y-16413724D01*
X8129093Y-16394676D01*
X8110046Y-16385153D01*
X8081474Y-16385153D01*
X8062426Y-16375629D01*
X8052903Y-16356581D01*
X8052903Y-16347057D01*
X8062426Y-16328010D01*
X8081474Y-16318486D01*
X8110046Y-16318486D01*
X8129093Y-16328010D01*
X8252903Y-16451819D02*
X8233855Y-16442295D01*
X8224331Y-16423248D01*
X8224331Y-16251819D01*
X8357665Y-16451819D02*
X8338617Y-16442295D01*
X8329093Y-16432772D01*
X8319569Y-16413724D01*
X8319569Y-16356581D01*
X8329093Y-16337533D01*
X8338617Y-16328010D01*
X8357665Y-16318486D01*
X8386236Y-16318486D01*
X8405284Y-16328010D01*
X8414808Y-16337533D01*
X8424331Y-16356581D01*
X8424331Y-16413724D01*
X8414808Y-16432772D01*
X8405284Y-16442295D01*
X8386236Y-16451819D01*
X8357665Y-16451819D01*
X8481474Y-16318486D02*
X8557665Y-16318486D01*
X8510046Y-16251819D02*
X8510046Y-16423248D01*
X8519569Y-16442295D01*
X8538617Y-16451819D01*
X8557665Y-16451819D01*
X8614808Y-16442295D02*
X8633855Y-16451819D01*
X8671950Y-16451819D01*
X8690998Y-16442295D01*
X8700522Y-16423248D01*
X8700522Y-16413724D01*
X8690998Y-16394676D01*
X8671950Y-16385153D01*
X8643379Y-16385153D01*
X8624331Y-16375629D01*
X8614808Y-16356581D01*
X8614808Y-16347057D01*
X8624331Y-16328010D01*
X8643379Y-16318486D01*
X8671950Y-16318486D01*
X8690998Y-16328010D01*
X8767188Y-16528010D02*
X8776712Y-16518486D01*
X8795760Y-16489914D01*
X8805284Y-16470867D01*
X8814808Y-16442295D01*
X8824331Y-16394676D01*
X8824331Y-16356581D01*
X8814808Y-16308962D01*
X8805284Y-16280391D01*
X8795760Y-16261343D01*
X8776712Y-16232772D01*
X8767188Y-16223248D01*
X9129093Y-16528010D02*
X9119569Y-16518486D01*
X9100522Y-16489914D01*
X9090998Y-16470867D01*
X9081474Y-16442295D01*
X9071950Y-16394676D01*
X9071950Y-16356581D01*
X9081474Y-16308962D01*
X9090998Y-16280391D01*
X9100522Y-16261343D01*
X9119569Y-16232772D01*
X9129093Y-16223248D01*
X9205284Y-16318486D02*
X9205284Y-16451819D01*
X9205284Y-16337533D02*
X9214808Y-16328010D01*
X9233855Y-16318486D01*
X9262427Y-16318486D01*
X9281474Y-16328010D01*
X9290998Y-16347057D01*
X9290998Y-16451819D01*
X9414808Y-16451819D02*
X9395760Y-16442295D01*
X9386236Y-16432772D01*
X9376712Y-16413724D01*
X9376712Y-16356581D01*
X9386236Y-16337533D01*
X9395760Y-16328010D01*
X9414808Y-16318486D01*
X9443379Y-16318486D01*
X9462427Y-16328010D01*
X9471950Y-16337533D01*
X9481474Y-16356581D01*
X9481474Y-16413724D01*
X9471950Y-16432772D01*
X9462427Y-16442295D01*
X9443379Y-16451819D01*
X9414808Y-16451819D01*
X9538617Y-16318486D02*
X9614808Y-16318486D01*
X9567188Y-16251819D02*
X9567188Y-16423248D01*
X9576712Y-16442295D01*
X9595760Y-16451819D01*
X9614808Y-16451819D01*
X9833855Y-16318486D02*
X9833855Y-16518486D01*
X9833855Y-16328010D02*
X9852903Y-16318486D01*
X9890998Y-16318486D01*
X9910046Y-16328010D01*
X9919569Y-16337533D01*
X9929093Y-16356581D01*
X9929093Y-16413724D01*
X9919569Y-16432772D01*
X9910046Y-16442295D01*
X9890998Y-16451819D01*
X9852903Y-16451819D01*
X9833855Y-16442295D01*
X10043379Y-16451819D02*
X10024331Y-16442295D01*
X10014808Y-16423248D01*
X10014808Y-16251819D01*
X10205284Y-16451819D02*
X10205284Y-16347057D01*
X10195760Y-16328010D01*
X10176712Y-16318486D01*
X10138617Y-16318486D01*
X10119569Y-16328010D01*
X10205284Y-16442295D02*
X10186236Y-16451819D01*
X10138617Y-16451819D01*
X10119569Y-16442295D01*
X10110046Y-16423248D01*
X10110046Y-16404200D01*
X10119569Y-16385153D01*
X10138617Y-16375629D01*
X10186236Y-16375629D01*
X10205284Y-16366105D01*
X10271950Y-16318486D02*
X10348141Y-16318486D01*
X10300522Y-16251819D02*
X10300522Y-16423248D01*
X10310046Y-16442295D01*
X10329093Y-16451819D01*
X10348141Y-16451819D01*
X10490998Y-16442295D02*
X10471950Y-16451819D01*
X10433855Y-16451819D01*
X10414808Y-16442295D01*
X10405284Y-16423248D01*
X10405284Y-16347057D01*
X10414808Y-16328010D01*
X10433855Y-16318486D01*
X10471950Y-16318486D01*
X10490998Y-16328010D01*
X10500522Y-16347057D01*
X10500522Y-16366105D01*
X10405284Y-16385153D01*
X10671950Y-16451819D02*
X10671950Y-16251819D01*
X10671950Y-16442295D02*
X10652903Y-16451819D01*
X10614808Y-16451819D01*
X10595760Y-16442295D01*
X10586236Y-16432772D01*
X10576712Y-16413724D01*
X10576712Y-16356581D01*
X10586236Y-16337533D01*
X10595760Y-16328010D01*
X10614808Y-16318486D01*
X10652903Y-16318486D01*
X10671950Y-16328010D01*
X10748141Y-16528010D02*
X10757665Y-16518486D01*
X10776712Y-16489914D01*
X10786236Y-16470867D01*
X10795760Y-16442295D01*
X10805284Y-16394676D01*
X10805284Y-16356581D01*
X10795760Y-16308962D01*
X10786236Y-16280391D01*
X10776712Y-16261343D01*
X10757665Y-16232772D01*
X10748141Y-16223248D01*
D13*
X2376236Y-16631343D02*
G75*
G03*
X2376236Y-16631343I-87500J0D01*
G01*
D11*
X2738617Y-16721819D02*
X2624331Y-16721819D01*
X2681474Y-16721819D02*
X2681474Y-16521819D01*
X2662427Y-16550391D01*
X2643379Y-16569438D01*
X2624331Y-16578962D01*
X2824331Y-16702772D02*
X2833855Y-16712295D01*
X2824331Y-16721819D01*
X2814807Y-16712295D01*
X2824331Y-16702772D01*
X2824331Y-16721819D01*
X2900522Y-16521819D02*
X3033855Y-16521819D01*
X2948141Y-16721819D01*
X3205284Y-16521819D02*
X3110046Y-16521819D01*
X3100522Y-16617057D01*
X3110046Y-16607533D01*
X3129093Y-16598010D01*
X3176712Y-16598010D01*
X3195760Y-16607533D01*
X3205284Y-16617057D01*
X3214807Y-16636105D01*
X3214807Y-16683724D01*
X3205284Y-16702772D01*
X3195760Y-16712295D01*
X3176712Y-16721819D01*
X3129093Y-16721819D01*
X3110046Y-16712295D01*
X3100522Y-16702772D01*
X3338617Y-16521819D02*
X3357665Y-16521819D01*
X3376712Y-16531343D01*
X3386236Y-16540867D01*
X3395760Y-16559914D01*
X3405284Y-16598010D01*
X3405284Y-16645629D01*
X3395760Y-16683724D01*
X3386236Y-16702772D01*
X3376712Y-16712295D01*
X3357665Y-16721819D01*
X3338617Y-16721819D01*
X3319569Y-16712295D01*
X3310046Y-16702772D01*
X3300522Y-16683724D01*
X3290998Y-16645629D01*
X3290998Y-16598010D01*
X3300522Y-16559914D01*
X3310046Y-16540867D01*
X3319569Y-16531343D01*
X3338617Y-16521819D01*
X3490998Y-16721819D02*
X3490998Y-16588486D01*
X3490998Y-16607533D02*
X3500522Y-16598010D01*
X3519569Y-16588486D01*
X3548141Y-16588486D01*
X3567188Y-16598010D01*
X3576712Y-16617057D01*
X3576712Y-16721819D01*
X3576712Y-16617057D02*
X3586236Y-16598010D01*
X3605284Y-16588486D01*
X3633855Y-16588486D01*
X3652903Y-16598010D01*
X3662426Y-16617057D01*
X3662426Y-16721819D01*
X3757665Y-16721819D02*
X3757665Y-16588486D01*
X3757665Y-16607533D02*
X3767188Y-16598010D01*
X3786236Y-16588486D01*
X3814807Y-16588486D01*
X3833855Y-16598010D01*
X3843379Y-16617057D01*
X3843379Y-16721819D01*
X3843379Y-16617057D02*
X3852903Y-16598010D01*
X3871950Y-16588486D01*
X3900522Y-16588486D01*
X3919569Y-16598010D01*
X3929093Y-16617057D01*
X3929093Y-16721819D01*
X4319569Y-16512295D02*
X4148141Y-16769438D01*
X4576712Y-16521819D02*
X4595760Y-16521819D01*
X4614808Y-16531343D01*
X4624331Y-16540867D01*
X4633855Y-16559914D01*
X4643379Y-16598010D01*
X4643379Y-16645629D01*
X4633855Y-16683724D01*
X4624331Y-16702772D01*
X4614808Y-16712295D01*
X4595760Y-16721819D01*
X4576712Y-16721819D01*
X4557665Y-16712295D01*
X4548141Y-16702772D01*
X4538617Y-16683724D01*
X4529093Y-16645629D01*
X4529093Y-16598010D01*
X4538617Y-16559914D01*
X4548141Y-16540867D01*
X4557665Y-16531343D01*
X4576712Y-16521819D01*
X4729093Y-16702772D02*
X4738617Y-16712295D01*
X4729093Y-16721819D01*
X4719569Y-16712295D01*
X4729093Y-16702772D01*
X4729093Y-16721819D01*
X4862427Y-16521819D02*
X4881474Y-16521819D01*
X4900522Y-16531343D01*
X4910046Y-16540867D01*
X4919569Y-16559914D01*
X4929093Y-16598010D01*
X4929093Y-16645629D01*
X4919569Y-16683724D01*
X4910046Y-16702772D01*
X4900522Y-16712295D01*
X4881474Y-16721819D01*
X4862427Y-16721819D01*
X4843379Y-16712295D01*
X4833855Y-16702772D01*
X4824331Y-16683724D01*
X4814808Y-16645629D01*
X4814808Y-16598010D01*
X4824331Y-16559914D01*
X4833855Y-16540867D01*
X4843379Y-16531343D01*
X4862427Y-16521819D01*
X5100522Y-16521819D02*
X5062427Y-16521819D01*
X5043379Y-16531343D01*
X5033855Y-16540867D01*
X5014808Y-16569438D01*
X5005284Y-16607533D01*
X5005284Y-16683724D01*
X5014808Y-16702772D01*
X5024331Y-16712295D01*
X5043379Y-16721819D01*
X5081474Y-16721819D01*
X5100522Y-16712295D01*
X5110046Y-16702772D01*
X5119569Y-16683724D01*
X5119569Y-16636105D01*
X5110046Y-16617057D01*
X5100522Y-16607533D01*
X5081474Y-16598010D01*
X5043379Y-16598010D01*
X5024331Y-16607533D01*
X5014808Y-16617057D01*
X5005284Y-16636105D01*
X5233855Y-16607533D02*
X5214808Y-16598010D01*
X5205284Y-16588486D01*
X5195760Y-16569438D01*
X5195760Y-16559914D01*
X5205284Y-16540867D01*
X5214808Y-16531343D01*
X5233855Y-16521819D01*
X5271950Y-16521819D01*
X5290998Y-16531343D01*
X5300522Y-16540867D01*
X5310046Y-16559914D01*
X5310046Y-16569438D01*
X5300522Y-16588486D01*
X5290998Y-16598010D01*
X5271950Y-16607533D01*
X5233855Y-16607533D01*
X5214808Y-16617057D01*
X5205284Y-16626581D01*
X5195760Y-16645629D01*
X5195760Y-16683724D01*
X5205284Y-16702772D01*
X5214808Y-16712295D01*
X5233855Y-16721819D01*
X5271950Y-16721819D01*
X5290998Y-16712295D01*
X5300522Y-16702772D01*
X5310046Y-16683724D01*
X5310046Y-16645629D01*
X5300522Y-16626581D01*
X5290998Y-16617057D01*
X5271950Y-16607533D01*
X5405284Y-16721819D02*
X5443379Y-16721819D01*
X5462427Y-16712295D01*
X5471950Y-16702772D01*
X5490998Y-16674200D01*
X5500522Y-16636105D01*
X5500522Y-16559914D01*
X5490998Y-16540867D01*
X5481474Y-16531343D01*
X5462427Y-16521819D01*
X5424331Y-16521819D01*
X5405284Y-16531343D01*
X5395760Y-16540867D01*
X5386236Y-16559914D01*
X5386236Y-16607533D01*
X5395760Y-16626581D01*
X5405284Y-16636105D01*
X5424331Y-16645629D01*
X5462427Y-16645629D01*
X5481474Y-16636105D01*
X5490998Y-16626581D01*
X5500522Y-16607533D01*
X5576712Y-16521819D02*
X5576712Y-16559914D01*
X5652903Y-16521819D02*
X5652903Y-16559914D01*
X5948141Y-16798010D02*
X5938617Y-16788486D01*
X5919569Y-16759914D01*
X5910046Y-16740867D01*
X5900522Y-16712295D01*
X5890998Y-16664676D01*
X5890998Y-16626581D01*
X5900522Y-16578962D01*
X5910046Y-16550391D01*
X5919569Y-16531343D01*
X5938617Y-16502772D01*
X5948141Y-16493248D01*
X6052903Y-16607533D02*
X6033855Y-16598010D01*
X6024331Y-16588486D01*
X6014807Y-16569438D01*
X6014807Y-16559914D01*
X6024331Y-16540867D01*
X6033855Y-16531343D01*
X6052903Y-16521819D01*
X6090998Y-16521819D01*
X6110046Y-16531343D01*
X6119569Y-16540867D01*
X6129093Y-16559914D01*
X6129093Y-16569438D01*
X6119569Y-16588486D01*
X6110046Y-16598010D01*
X6090998Y-16607533D01*
X6052903Y-16607533D01*
X6033855Y-16617057D01*
X6024331Y-16626581D01*
X6014807Y-16645629D01*
X6014807Y-16683724D01*
X6024331Y-16702772D01*
X6033855Y-16712295D01*
X6052903Y-16721819D01*
X6090998Y-16721819D01*
X6110046Y-16712295D01*
X6119569Y-16702772D01*
X6129093Y-16683724D01*
X6129093Y-16645629D01*
X6119569Y-16626581D01*
X6110046Y-16617057D01*
X6090998Y-16607533D01*
X6243379Y-16607533D02*
X6224331Y-16598010D01*
X6214807Y-16588486D01*
X6205284Y-16569438D01*
X6205284Y-16559914D01*
X6214807Y-16540867D01*
X6224331Y-16531343D01*
X6243379Y-16521819D01*
X6281474Y-16521819D01*
X6300522Y-16531343D01*
X6310046Y-16540867D01*
X6319569Y-16559914D01*
X6319569Y-16569438D01*
X6310046Y-16588486D01*
X6300522Y-16598010D01*
X6281474Y-16607533D01*
X6243379Y-16607533D01*
X6224331Y-16617057D01*
X6214807Y-16626581D01*
X6205284Y-16645629D01*
X6205284Y-16683724D01*
X6214807Y-16702772D01*
X6224331Y-16712295D01*
X6243379Y-16721819D01*
X6281474Y-16721819D01*
X6300522Y-16712295D01*
X6310046Y-16702772D01*
X6319569Y-16683724D01*
X6319569Y-16645629D01*
X6310046Y-16626581D01*
X6300522Y-16617057D01*
X6281474Y-16607533D01*
X6557665Y-16721819D02*
X6557665Y-16521819D01*
X6643379Y-16721819D02*
X6643379Y-16617057D01*
X6633855Y-16598010D01*
X6614807Y-16588486D01*
X6586236Y-16588486D01*
X6567188Y-16598010D01*
X6557665Y-16607533D01*
X6767188Y-16721819D02*
X6748141Y-16712295D01*
X6738617Y-16702772D01*
X6729093Y-16683724D01*
X6729093Y-16626581D01*
X6738617Y-16607533D01*
X6748141Y-16598010D01*
X6767188Y-16588486D01*
X6795760Y-16588486D01*
X6814807Y-16598010D01*
X6824331Y-16607533D01*
X6833855Y-16626581D01*
X6833855Y-16683724D01*
X6824331Y-16702772D01*
X6814807Y-16712295D01*
X6795760Y-16721819D01*
X6767188Y-16721819D01*
X6948141Y-16721819D02*
X6929093Y-16712295D01*
X6919569Y-16693248D01*
X6919569Y-16521819D01*
X7100522Y-16712295D02*
X7081474Y-16721819D01*
X7043379Y-16721819D01*
X7024331Y-16712295D01*
X7014807Y-16693248D01*
X7014807Y-16617057D01*
X7024331Y-16598010D01*
X7043379Y-16588486D01*
X7081474Y-16588486D01*
X7100522Y-16598010D01*
X7110046Y-16617057D01*
X7110046Y-16636105D01*
X7014807Y-16655153D01*
X7186236Y-16712295D02*
X7205284Y-16721819D01*
X7243379Y-16721819D01*
X7262426Y-16712295D01*
X7271950Y-16693248D01*
X7271950Y-16683724D01*
X7262426Y-16664676D01*
X7243379Y-16655153D01*
X7214807Y-16655153D01*
X7195760Y-16645629D01*
X7186236Y-16626581D01*
X7186236Y-16617057D01*
X7195760Y-16598010D01*
X7214807Y-16588486D01*
X7243379Y-16588486D01*
X7262426Y-16598010D01*
X7338617Y-16798010D02*
X7348141Y-16788486D01*
X7367188Y-16759914D01*
X7376712Y-16740867D01*
X7386236Y-16712295D01*
X7395760Y-16664676D01*
X7395760Y-16626581D01*
X7386236Y-16578962D01*
X7376712Y-16550391D01*
X7367188Y-16531343D01*
X7348141Y-16502772D01*
X7338617Y-16493248D01*
X7700522Y-16798010D02*
X7690998Y-16788486D01*
X7671950Y-16759914D01*
X7662426Y-16740867D01*
X7652903Y-16712295D01*
X7643379Y-16664676D01*
X7643379Y-16626581D01*
X7652903Y-16578962D01*
X7662426Y-16550391D01*
X7671950Y-16531343D01*
X7690998Y-16502772D01*
X7700522Y-16493248D01*
X7776712Y-16588486D02*
X7776712Y-16721819D01*
X7776712Y-16607533D02*
X7786236Y-16598010D01*
X7805284Y-16588486D01*
X7833855Y-16588486D01*
X7852903Y-16598010D01*
X7862426Y-16617057D01*
X7862426Y-16721819D01*
X7986236Y-16721819D02*
X7967188Y-16712295D01*
X7957665Y-16702772D01*
X7948141Y-16683724D01*
X7948141Y-16626581D01*
X7957665Y-16607533D01*
X7967188Y-16598010D01*
X7986236Y-16588486D01*
X8014807Y-16588486D01*
X8033855Y-16598010D01*
X8043379Y-16607533D01*
X8052903Y-16626581D01*
X8052903Y-16683724D01*
X8043379Y-16702772D01*
X8033855Y-16712295D01*
X8014807Y-16721819D01*
X7986236Y-16721819D01*
X8110046Y-16588486D02*
X8186236Y-16588486D01*
X8138617Y-16521819D02*
X8138617Y-16693248D01*
X8148141Y-16712295D01*
X8167188Y-16721819D01*
X8186236Y-16721819D01*
X8405284Y-16588486D02*
X8405284Y-16788486D01*
X8405284Y-16598010D02*
X8424331Y-16588486D01*
X8462427Y-16588486D01*
X8481474Y-16598010D01*
X8490998Y-16607533D01*
X8500522Y-16626581D01*
X8500522Y-16683724D01*
X8490998Y-16702772D01*
X8481474Y-16712295D01*
X8462427Y-16721819D01*
X8424331Y-16721819D01*
X8405284Y-16712295D01*
X8614808Y-16721819D02*
X8595760Y-16712295D01*
X8586236Y-16693248D01*
X8586236Y-16521819D01*
X8776712Y-16721819D02*
X8776712Y-16617057D01*
X8767188Y-16598010D01*
X8748141Y-16588486D01*
X8710046Y-16588486D01*
X8690998Y-16598010D01*
X8776712Y-16712295D02*
X8757665Y-16721819D01*
X8710046Y-16721819D01*
X8690998Y-16712295D01*
X8681474Y-16693248D01*
X8681474Y-16674200D01*
X8690998Y-16655153D01*
X8710046Y-16645629D01*
X8757665Y-16645629D01*
X8776712Y-16636105D01*
X8843379Y-16588486D02*
X8919569Y-16588486D01*
X8871950Y-16521819D02*
X8871950Y-16693248D01*
X8881474Y-16712295D01*
X8900522Y-16721819D01*
X8919569Y-16721819D01*
X9062427Y-16712295D02*
X9043379Y-16721819D01*
X9005284Y-16721819D01*
X8986236Y-16712295D01*
X8976712Y-16693248D01*
X8976712Y-16617057D01*
X8986236Y-16598010D01*
X9005284Y-16588486D01*
X9043379Y-16588486D01*
X9062427Y-16598010D01*
X9071950Y-16617057D01*
X9071950Y-16636105D01*
X8976712Y-16655153D01*
X9243379Y-16721819D02*
X9243379Y-16521819D01*
X9243379Y-16712295D02*
X9224331Y-16721819D01*
X9186236Y-16721819D01*
X9167188Y-16712295D01*
X9157665Y-16702772D01*
X9148141Y-16683724D01*
X9148141Y-16626581D01*
X9157665Y-16607533D01*
X9167188Y-16598010D01*
X9186236Y-16588486D01*
X9224331Y-16588486D01*
X9243379Y-16598010D01*
X9319569Y-16798010D02*
X9329093Y-16788486D01*
X9348141Y-16759914D01*
X9357665Y-16740867D01*
X9367188Y-16712295D01*
X9376712Y-16664676D01*
X9376712Y-16626581D01*
X9367188Y-16578962D01*
X9357665Y-16550391D01*
X9348141Y-16531343D01*
X9329093Y-16502772D01*
X9319569Y-16493248D01*
X2276236Y-16826343D02*
X2276236Y-17026343D01*
X2176236Y-16926343D02*
X2376236Y-16926343D01*
X2614808Y-16816819D02*
X2738617Y-16816819D01*
X2671950Y-16893010D01*
X2700522Y-16893010D01*
X2719569Y-16902534D01*
X2729093Y-16912057D01*
X2738617Y-16931105D01*
X2738617Y-16978724D01*
X2729093Y-16997772D01*
X2719569Y-17007295D01*
X2700522Y-17016819D01*
X2643379Y-17016819D01*
X2624331Y-17007295D01*
X2614808Y-16997772D01*
X2824331Y-16997772D02*
X2833855Y-17007295D01*
X2824331Y-17016819D01*
X2814807Y-17007295D01*
X2824331Y-16997772D01*
X2824331Y-17016819D01*
X2957665Y-16816819D02*
X2976712Y-16816819D01*
X2995760Y-16826343D01*
X3005284Y-16835867D01*
X3014807Y-16854915D01*
X3024331Y-16893010D01*
X3024331Y-16940629D01*
X3014807Y-16978724D01*
X3005284Y-16997772D01*
X2995760Y-17007295D01*
X2976712Y-17016819D01*
X2957665Y-17016819D01*
X2938617Y-17007295D01*
X2929093Y-16997772D01*
X2919569Y-16978724D01*
X2910046Y-16940629D01*
X2910046Y-16893010D01*
X2919569Y-16854915D01*
X2929093Y-16835867D01*
X2938617Y-16826343D01*
X2957665Y-16816819D01*
X3148141Y-16816819D02*
X3167188Y-16816819D01*
X3186236Y-16826343D01*
X3195760Y-16835867D01*
X3205284Y-16854915D01*
X3214807Y-16893010D01*
X3214807Y-16940629D01*
X3205284Y-16978724D01*
X3195760Y-16997772D01*
X3186236Y-17007295D01*
X3167188Y-17016819D01*
X3148141Y-17016819D01*
X3129093Y-17007295D01*
X3119569Y-16997772D01*
X3110046Y-16978724D01*
X3100522Y-16940629D01*
X3100522Y-16893010D01*
X3110046Y-16854915D01*
X3119569Y-16835867D01*
X3129093Y-16826343D01*
X3148141Y-16816819D01*
X3338617Y-16816819D02*
X3357665Y-16816819D01*
X3376712Y-16826343D01*
X3386236Y-16835867D01*
X3395760Y-16854915D01*
X3405284Y-16893010D01*
X3405284Y-16940629D01*
X3395760Y-16978724D01*
X3386236Y-16997772D01*
X3376712Y-17007295D01*
X3357665Y-17016819D01*
X3338617Y-17016819D01*
X3319569Y-17007295D01*
X3310046Y-16997772D01*
X3300522Y-16978724D01*
X3290998Y-16940629D01*
X3290998Y-16893010D01*
X3300522Y-16854915D01*
X3310046Y-16835867D01*
X3319569Y-16826343D01*
X3338617Y-16816819D01*
X3490998Y-17016819D02*
X3490998Y-16883486D01*
X3490998Y-16902534D02*
X3500522Y-16893010D01*
X3519569Y-16883486D01*
X3548141Y-16883486D01*
X3567188Y-16893010D01*
X3576712Y-16912057D01*
X3576712Y-17016819D01*
X3576712Y-16912057D02*
X3586236Y-16893010D01*
X3605284Y-16883486D01*
X3633855Y-16883486D01*
X3652903Y-16893010D01*
X3662426Y-16912057D01*
X3662426Y-17016819D01*
X3757665Y-17016819D02*
X3757665Y-16883486D01*
X3757665Y-16902534D02*
X3767188Y-16893010D01*
X3786236Y-16883486D01*
X3814807Y-16883486D01*
X3833855Y-16893010D01*
X3843379Y-16912057D01*
X3843379Y-17016819D01*
X3843379Y-16912057D02*
X3852903Y-16893010D01*
X3871950Y-16883486D01*
X3900522Y-16883486D01*
X3919569Y-16893010D01*
X3929093Y-16912057D01*
X3929093Y-17016819D01*
X4319569Y-16807295D02*
X4148141Y-17064438D01*
X4576712Y-16816819D02*
X4595760Y-16816819D01*
X4614808Y-16826343D01*
X4624331Y-16835867D01*
X4633855Y-16854915D01*
X4643379Y-16893010D01*
X4643379Y-16940629D01*
X4633855Y-16978724D01*
X4624331Y-16997772D01*
X4614808Y-17007295D01*
X4595760Y-17016819D01*
X4576712Y-17016819D01*
X4557665Y-17007295D01*
X4548141Y-16997772D01*
X4538617Y-16978724D01*
X4529093Y-16940629D01*
X4529093Y-16893010D01*
X4538617Y-16854915D01*
X4548141Y-16835867D01*
X4557665Y-16826343D01*
X4576712Y-16816819D01*
X4729093Y-16997772D02*
X4738617Y-17007295D01*
X4729093Y-17016819D01*
X4719569Y-17007295D01*
X4729093Y-16997772D01*
X4729093Y-17016819D01*
X4929093Y-17016819D02*
X4814808Y-17016819D01*
X4871950Y-17016819D02*
X4871950Y-16816819D01*
X4852903Y-16845391D01*
X4833855Y-16864438D01*
X4814808Y-16873962D01*
X5119569Y-17016819D02*
X5005284Y-17016819D01*
X5062427Y-17016819D02*
X5062427Y-16816819D01*
X5043379Y-16845391D01*
X5024331Y-16864438D01*
X5005284Y-16873962D01*
X5233855Y-16902534D02*
X5214808Y-16893010D01*
X5205284Y-16883486D01*
X5195760Y-16864438D01*
X5195760Y-16854915D01*
X5205284Y-16835867D01*
X5214808Y-16826343D01*
X5233855Y-16816819D01*
X5271950Y-16816819D01*
X5290998Y-16826343D01*
X5300522Y-16835867D01*
X5310046Y-16854915D01*
X5310046Y-16864438D01*
X5300522Y-16883486D01*
X5290998Y-16893010D01*
X5271950Y-16902534D01*
X5233855Y-16902534D01*
X5214808Y-16912057D01*
X5205284Y-16921581D01*
X5195760Y-16940629D01*
X5195760Y-16978724D01*
X5205284Y-16997772D01*
X5214808Y-17007295D01*
X5233855Y-17016819D01*
X5271950Y-17016819D01*
X5290998Y-17007295D01*
X5300522Y-16997772D01*
X5310046Y-16978724D01*
X5310046Y-16940629D01*
X5300522Y-16921581D01*
X5290998Y-16912057D01*
X5271950Y-16902534D01*
X5500522Y-17016819D02*
X5386236Y-17016819D01*
X5443379Y-17016819D02*
X5443379Y-16816819D01*
X5424331Y-16845391D01*
X5405284Y-16864438D01*
X5386236Y-16873962D01*
X5576712Y-16816819D02*
X5576712Y-16854915D01*
X5652903Y-16816819D02*
X5652903Y-16854915D01*
X5948141Y-17093010D02*
X5938617Y-17083486D01*
X5919569Y-17054915D01*
X5910046Y-17035867D01*
X5900522Y-17007295D01*
X5890998Y-16959676D01*
X5890998Y-16921581D01*
X5900522Y-16873962D01*
X5910046Y-16845391D01*
X5919569Y-16826343D01*
X5938617Y-16797772D01*
X5948141Y-16788248D01*
X6052903Y-16902534D02*
X6033855Y-16893010D01*
X6024331Y-16883486D01*
X6014807Y-16864438D01*
X6014807Y-16854915D01*
X6024331Y-16835867D01*
X6033855Y-16826343D01*
X6052903Y-16816819D01*
X6090998Y-16816819D01*
X6110046Y-16826343D01*
X6119569Y-16835867D01*
X6129093Y-16854915D01*
X6129093Y-16864438D01*
X6119569Y-16883486D01*
X6110046Y-16893010D01*
X6090998Y-16902534D01*
X6052903Y-16902534D01*
X6033855Y-16912057D01*
X6024331Y-16921581D01*
X6014807Y-16940629D01*
X6014807Y-16978724D01*
X6024331Y-16997772D01*
X6033855Y-17007295D01*
X6052903Y-17016819D01*
X6090998Y-17016819D01*
X6110046Y-17007295D01*
X6119569Y-16997772D01*
X6129093Y-16978724D01*
X6129093Y-16940629D01*
X6119569Y-16921581D01*
X6110046Y-16912057D01*
X6090998Y-16902534D01*
X6243379Y-16902534D02*
X6224331Y-16893010D01*
X6214807Y-16883486D01*
X6205284Y-16864438D01*
X6205284Y-16854915D01*
X6214807Y-16835867D01*
X6224331Y-16826343D01*
X6243379Y-16816819D01*
X6281474Y-16816819D01*
X6300522Y-16826343D01*
X6310046Y-16835867D01*
X6319569Y-16854915D01*
X6319569Y-16864438D01*
X6310046Y-16883486D01*
X6300522Y-16893010D01*
X6281474Y-16902534D01*
X6243379Y-16902534D01*
X6224331Y-16912057D01*
X6214807Y-16921581D01*
X6205284Y-16940629D01*
X6205284Y-16978724D01*
X6214807Y-16997772D01*
X6224331Y-17007295D01*
X6243379Y-17016819D01*
X6281474Y-17016819D01*
X6300522Y-17007295D01*
X6310046Y-16997772D01*
X6319569Y-16978724D01*
X6319569Y-16940629D01*
X6310046Y-16921581D01*
X6300522Y-16912057D01*
X6281474Y-16902534D01*
X6557665Y-17016819D02*
X6557665Y-16816819D01*
X6643379Y-17016819D02*
X6643379Y-16912057D01*
X6633855Y-16893010D01*
X6614807Y-16883486D01*
X6586236Y-16883486D01*
X6567188Y-16893010D01*
X6557665Y-16902534D01*
X6767188Y-17016819D02*
X6748141Y-17007295D01*
X6738617Y-16997772D01*
X6729093Y-16978724D01*
X6729093Y-16921581D01*
X6738617Y-16902534D01*
X6748141Y-16893010D01*
X6767188Y-16883486D01*
X6795760Y-16883486D01*
X6814807Y-16893010D01*
X6824331Y-16902534D01*
X6833855Y-16921581D01*
X6833855Y-16978724D01*
X6824331Y-16997772D01*
X6814807Y-17007295D01*
X6795760Y-17016819D01*
X6767188Y-17016819D01*
X6948141Y-17016819D02*
X6929093Y-17007295D01*
X6919569Y-16988248D01*
X6919569Y-16816819D01*
X7100522Y-17007295D02*
X7081474Y-17016819D01*
X7043379Y-17016819D01*
X7024331Y-17007295D01*
X7014807Y-16988248D01*
X7014807Y-16912057D01*
X7024331Y-16893010D01*
X7043379Y-16883486D01*
X7081474Y-16883486D01*
X7100522Y-16893010D01*
X7110046Y-16912057D01*
X7110046Y-16931105D01*
X7014807Y-16950153D01*
X7186236Y-17007295D02*
X7205284Y-17016819D01*
X7243379Y-17016819D01*
X7262426Y-17007295D01*
X7271950Y-16988248D01*
X7271950Y-16978724D01*
X7262426Y-16959676D01*
X7243379Y-16950153D01*
X7214807Y-16950153D01*
X7195760Y-16940629D01*
X7186236Y-16921581D01*
X7186236Y-16912057D01*
X7195760Y-16893010D01*
X7214807Y-16883486D01*
X7243379Y-16883486D01*
X7262426Y-16893010D01*
X7338617Y-17093010D02*
X7348141Y-17083486D01*
X7367188Y-17054915D01*
X7376712Y-17035867D01*
X7386236Y-17007295D01*
X7395760Y-16959676D01*
X7395760Y-16921581D01*
X7386236Y-16873962D01*
X7376712Y-16845391D01*
X7367188Y-16826343D01*
X7348141Y-16797772D01*
X7338617Y-16788248D01*
X7700522Y-17093010D02*
X7690998Y-17083486D01*
X7671950Y-17054915D01*
X7662426Y-17035867D01*
X7652903Y-17007295D01*
X7643379Y-16959676D01*
X7643379Y-16921581D01*
X7652903Y-16873962D01*
X7662426Y-16845391D01*
X7671950Y-16826343D01*
X7690998Y-16797772D01*
X7700522Y-16788248D01*
X7776712Y-16883486D02*
X7776712Y-17016819D01*
X7776712Y-16902534D02*
X7786236Y-16893010D01*
X7805284Y-16883486D01*
X7833855Y-16883486D01*
X7852903Y-16893010D01*
X7862426Y-16912057D01*
X7862426Y-17016819D01*
X7986236Y-17016819D02*
X7967188Y-17007295D01*
X7957665Y-16997772D01*
X7948141Y-16978724D01*
X7948141Y-16921581D01*
X7957665Y-16902534D01*
X7967188Y-16893010D01*
X7986236Y-16883486D01*
X8014807Y-16883486D01*
X8033855Y-16893010D01*
X8043379Y-16902534D01*
X8052903Y-16921581D01*
X8052903Y-16978724D01*
X8043379Y-16997772D01*
X8033855Y-17007295D01*
X8014807Y-17016819D01*
X7986236Y-17016819D01*
X8110046Y-16883486D02*
X8186236Y-16883486D01*
X8138617Y-16816819D02*
X8138617Y-16988248D01*
X8148141Y-17007295D01*
X8167188Y-17016819D01*
X8186236Y-17016819D01*
X8405284Y-16883486D02*
X8405284Y-17083486D01*
X8405284Y-16893010D02*
X8424331Y-16883486D01*
X8462427Y-16883486D01*
X8481474Y-16893010D01*
X8490998Y-16902534D01*
X8500522Y-16921581D01*
X8500522Y-16978724D01*
X8490998Y-16997772D01*
X8481474Y-17007295D01*
X8462427Y-17016819D01*
X8424331Y-17016819D01*
X8405284Y-17007295D01*
X8614808Y-17016819D02*
X8595760Y-17007295D01*
X8586236Y-16988248D01*
X8586236Y-16816819D01*
X8776712Y-17016819D02*
X8776712Y-16912057D01*
X8767188Y-16893010D01*
X8748141Y-16883486D01*
X8710046Y-16883486D01*
X8690998Y-16893010D01*
X8776712Y-17007295D02*
X8757665Y-17016819D01*
X8710046Y-17016819D01*
X8690998Y-17007295D01*
X8681474Y-16988248D01*
X8681474Y-16969200D01*
X8690998Y-16950153D01*
X8710046Y-16940629D01*
X8757665Y-16940629D01*
X8776712Y-16931105D01*
X8843379Y-16883486D02*
X8919569Y-16883486D01*
X8871950Y-16816819D02*
X8871950Y-16988248D01*
X8881474Y-17007295D01*
X8900522Y-17016819D01*
X8919569Y-17016819D01*
X9062427Y-17007295D02*
X9043379Y-17016819D01*
X9005284Y-17016819D01*
X8986236Y-17007295D01*
X8976712Y-16988248D01*
X8976712Y-16912057D01*
X8986236Y-16893010D01*
X9005284Y-16883486D01*
X9043379Y-16883486D01*
X9062427Y-16893010D01*
X9071950Y-16912057D01*
X9071950Y-16931105D01*
X8976712Y-16950153D01*
X9243379Y-17016819D02*
X9243379Y-16816819D01*
X9243379Y-17007295D02*
X9224331Y-17016819D01*
X9186236Y-17016819D01*
X9167188Y-17007295D01*
X9157665Y-16997772D01*
X9148141Y-16978724D01*
X9148141Y-16921581D01*
X9157665Y-16902534D01*
X9167188Y-16893010D01*
X9186236Y-16883486D01*
X9224331Y-16883486D01*
X9243379Y-16893010D01*
X9319569Y-17093010D02*
X9329093Y-17083486D01*
X9348141Y-17054915D01*
X9357665Y-17035867D01*
X9367188Y-17007295D01*
X9376712Y-16959676D01*
X9376712Y-16921581D01*
X9367188Y-16873962D01*
X9357665Y-16845391D01*
X9348141Y-16826343D01*
X9329093Y-16797772D01*
X9319569Y-16788248D01*
X2346948Y-17317055D02*
X2346948Y-17175632D01*
X2205525Y-17175632D01*
X2205525Y-17317055D01*
X2346948Y-17317055D01*
X2614808Y-17136819D02*
X2738617Y-17136819D01*
X2671950Y-17213010D01*
X2700522Y-17213010D01*
X2719569Y-17222534D01*
X2729093Y-17232057D01*
X2738617Y-17251105D01*
X2738617Y-17298724D01*
X2729093Y-17317772D01*
X2719569Y-17327295D01*
X2700522Y-17336819D01*
X2643379Y-17336819D01*
X2624331Y-17327295D01*
X2614808Y-17317772D01*
X2824331Y-17317772D02*
X2833855Y-17327295D01*
X2824331Y-17336819D01*
X2814807Y-17327295D01*
X2824331Y-17317772D01*
X2824331Y-17336819D01*
X2957665Y-17136819D02*
X2976712Y-17136819D01*
X2995760Y-17146343D01*
X3005284Y-17155867D01*
X3014807Y-17174915D01*
X3024331Y-17213010D01*
X3024331Y-17260629D01*
X3014807Y-17298724D01*
X3005284Y-17317772D01*
X2995760Y-17327295D01*
X2976712Y-17336819D01*
X2957665Y-17336819D01*
X2938617Y-17327295D01*
X2929093Y-17317772D01*
X2919569Y-17298724D01*
X2910046Y-17260629D01*
X2910046Y-17213010D01*
X2919569Y-17174915D01*
X2929093Y-17155867D01*
X2938617Y-17146343D01*
X2957665Y-17136819D01*
X3195760Y-17203486D02*
X3195760Y-17336819D01*
X3148141Y-17127295D02*
X3100522Y-17270153D01*
X3224331Y-17270153D01*
X3329093Y-17222534D02*
X3310046Y-17213010D01*
X3300522Y-17203486D01*
X3290998Y-17184438D01*
X3290998Y-17174915D01*
X3300522Y-17155867D01*
X3310046Y-17146343D01*
X3329093Y-17136819D01*
X3367188Y-17136819D01*
X3386236Y-17146343D01*
X3395760Y-17155867D01*
X3405284Y-17174915D01*
X3405284Y-17184438D01*
X3395760Y-17203486D01*
X3386236Y-17213010D01*
X3367188Y-17222534D01*
X3329093Y-17222534D01*
X3310046Y-17232057D01*
X3300522Y-17241581D01*
X3290998Y-17260629D01*
X3290998Y-17298724D01*
X3300522Y-17317772D01*
X3310046Y-17327295D01*
X3329093Y-17336819D01*
X3367188Y-17336819D01*
X3386236Y-17327295D01*
X3395760Y-17317772D01*
X3405284Y-17298724D01*
X3405284Y-17260629D01*
X3395760Y-17241581D01*
X3386236Y-17232057D01*
X3367188Y-17222534D01*
X3490998Y-17336819D02*
X3490998Y-17203486D01*
X3490998Y-17222534D02*
X3500522Y-17213010D01*
X3519569Y-17203486D01*
X3548141Y-17203486D01*
X3567188Y-17213010D01*
X3576712Y-17232057D01*
X3576712Y-17336819D01*
X3576712Y-17232057D02*
X3586236Y-17213010D01*
X3605284Y-17203486D01*
X3633855Y-17203486D01*
X3652903Y-17213010D01*
X3662426Y-17232057D01*
X3662426Y-17336819D01*
X3757665Y-17336819D02*
X3757665Y-17203486D01*
X3757665Y-17222534D02*
X3767188Y-17213010D01*
X3786236Y-17203486D01*
X3814807Y-17203486D01*
X3833855Y-17213010D01*
X3843379Y-17232057D01*
X3843379Y-17336819D01*
X3843379Y-17232057D02*
X3852903Y-17213010D01*
X3871950Y-17203486D01*
X3900522Y-17203486D01*
X3919569Y-17213010D01*
X3929093Y-17232057D01*
X3929093Y-17336819D01*
X4319569Y-17127295D02*
X4148141Y-17384438D01*
X4576712Y-17136819D02*
X4595760Y-17136819D01*
X4614808Y-17146343D01*
X4624331Y-17155867D01*
X4633855Y-17174915D01*
X4643379Y-17213010D01*
X4643379Y-17260629D01*
X4633855Y-17298724D01*
X4624331Y-17317772D01*
X4614808Y-17327295D01*
X4595760Y-17336819D01*
X4576712Y-17336819D01*
X4557665Y-17327295D01*
X4548141Y-17317772D01*
X4538617Y-17298724D01*
X4529093Y-17260629D01*
X4529093Y-17213010D01*
X4538617Y-17174915D01*
X4548141Y-17155867D01*
X4557665Y-17146343D01*
X4576712Y-17136819D01*
X4729093Y-17317772D02*
X4738617Y-17327295D01*
X4729093Y-17336819D01*
X4719569Y-17327295D01*
X4729093Y-17317772D01*
X4729093Y-17336819D01*
X4929093Y-17336819D02*
X4814808Y-17336819D01*
X4871950Y-17336819D02*
X4871950Y-17136819D01*
X4852903Y-17165391D01*
X4833855Y-17184438D01*
X4814808Y-17193962D01*
X5005284Y-17155867D02*
X5014808Y-17146343D01*
X5033855Y-17136819D01*
X5081474Y-17136819D01*
X5100522Y-17146343D01*
X5110046Y-17155867D01*
X5119569Y-17174915D01*
X5119569Y-17193962D01*
X5110046Y-17222534D01*
X4995760Y-17336819D01*
X5119569Y-17336819D01*
X5243379Y-17136819D02*
X5262427Y-17136819D01*
X5281474Y-17146343D01*
X5290998Y-17155867D01*
X5300522Y-17174915D01*
X5310046Y-17213010D01*
X5310046Y-17260629D01*
X5300522Y-17298724D01*
X5290998Y-17317772D01*
X5281474Y-17327295D01*
X5262427Y-17336819D01*
X5243379Y-17336819D01*
X5224331Y-17327295D01*
X5214808Y-17317772D01*
X5205284Y-17298724D01*
X5195760Y-17260629D01*
X5195760Y-17213010D01*
X5205284Y-17174915D01*
X5214808Y-17155867D01*
X5224331Y-17146343D01*
X5243379Y-17136819D01*
X5433855Y-17136819D02*
X5452903Y-17136819D01*
X5471950Y-17146343D01*
X5481474Y-17155867D01*
X5490998Y-17174915D01*
X5500522Y-17213010D01*
X5500522Y-17260629D01*
X5490998Y-17298724D01*
X5481474Y-17317772D01*
X5471950Y-17327295D01*
X5452903Y-17336819D01*
X5433855Y-17336819D01*
X5414808Y-17327295D01*
X5405284Y-17317772D01*
X5395760Y-17298724D01*
X5386236Y-17260629D01*
X5386236Y-17213010D01*
X5395760Y-17174915D01*
X5405284Y-17155867D01*
X5414808Y-17146343D01*
X5433855Y-17136819D01*
X5576712Y-17136819D02*
X5576712Y-17174915D01*
X5652903Y-17136819D02*
X5652903Y-17174915D01*
X5948141Y-17413010D02*
X5938617Y-17403486D01*
X5919569Y-17374915D01*
X5910046Y-17355867D01*
X5900522Y-17327295D01*
X5890998Y-17279676D01*
X5890998Y-17241581D01*
X5900522Y-17193962D01*
X5910046Y-17165391D01*
X5919569Y-17146343D01*
X5938617Y-17117772D01*
X5948141Y-17108248D01*
X6110046Y-17203486D02*
X6110046Y-17336819D01*
X6062426Y-17127295D02*
X6014807Y-17270153D01*
X6138617Y-17270153D01*
X6367188Y-17336819D02*
X6367188Y-17136819D01*
X6452903Y-17336819D02*
X6452903Y-17232057D01*
X6443379Y-17213010D01*
X6424331Y-17203486D01*
X6395760Y-17203486D01*
X6376712Y-17213010D01*
X6367188Y-17222534D01*
X6576712Y-17336819D02*
X6557665Y-17327295D01*
X6548141Y-17317772D01*
X6538617Y-17298724D01*
X6538617Y-17241581D01*
X6548141Y-17222534D01*
X6557665Y-17213010D01*
X6576712Y-17203486D01*
X6605284Y-17203486D01*
X6624331Y-17213010D01*
X6633855Y-17222534D01*
X6643379Y-17241581D01*
X6643379Y-17298724D01*
X6633855Y-17317772D01*
X6624331Y-17327295D01*
X6605284Y-17336819D01*
X6576712Y-17336819D01*
X6757665Y-17336819D02*
X6738617Y-17327295D01*
X6729093Y-17308248D01*
X6729093Y-17136819D01*
X6910046Y-17327295D02*
X6890998Y-17336819D01*
X6852903Y-17336819D01*
X6833855Y-17327295D01*
X6824331Y-17308248D01*
X6824331Y-17232057D01*
X6833855Y-17213010D01*
X6852903Y-17203486D01*
X6890998Y-17203486D01*
X6910046Y-17213010D01*
X6919569Y-17232057D01*
X6919569Y-17251105D01*
X6824331Y-17270153D01*
X6995760Y-17327295D02*
X7014807Y-17336819D01*
X7052903Y-17336819D01*
X7071950Y-17327295D01*
X7081474Y-17308248D01*
X7081474Y-17298724D01*
X7071950Y-17279676D01*
X7052903Y-17270153D01*
X7024331Y-17270153D01*
X7005284Y-17260629D01*
X6995760Y-17241581D01*
X6995760Y-17232057D01*
X7005284Y-17213010D01*
X7024331Y-17203486D01*
X7052903Y-17203486D01*
X7071950Y-17213010D01*
X7148141Y-17413010D02*
X7157665Y-17403486D01*
X7176712Y-17374915D01*
X7186236Y-17355867D01*
X7195760Y-17327295D01*
X7205284Y-17279676D01*
X7205284Y-17241581D01*
X7195760Y-17193962D01*
X7186236Y-17165391D01*
X7176712Y-17146343D01*
X7157665Y-17117772D01*
X7148141Y-17108248D01*
X7510046Y-17413010D02*
X7500522Y-17403486D01*
X7481474Y-17374915D01*
X7471950Y-17355867D01*
X7462426Y-17327295D01*
X7452903Y-17279676D01*
X7452903Y-17241581D01*
X7462426Y-17193962D01*
X7471950Y-17165391D01*
X7481474Y-17146343D01*
X7500522Y-17117772D01*
X7510046Y-17108248D01*
X7586236Y-17203486D02*
X7586236Y-17336819D01*
X7586236Y-17222534D02*
X7595760Y-17213010D01*
X7614807Y-17203486D01*
X7643379Y-17203486D01*
X7662426Y-17213010D01*
X7671950Y-17232057D01*
X7671950Y-17336819D01*
X7795760Y-17336819D02*
X7776712Y-17327295D01*
X7767188Y-17317772D01*
X7757665Y-17298724D01*
X7757665Y-17241581D01*
X7767188Y-17222534D01*
X7776712Y-17213010D01*
X7795760Y-17203486D01*
X7824331Y-17203486D01*
X7843379Y-17213010D01*
X7852903Y-17222534D01*
X7862426Y-17241581D01*
X7862426Y-17298724D01*
X7852903Y-17317772D01*
X7843379Y-17327295D01*
X7824331Y-17336819D01*
X7795760Y-17336819D01*
X7919569Y-17203486D02*
X7995760Y-17203486D01*
X7948141Y-17136819D02*
X7948141Y-17308248D01*
X7957665Y-17327295D01*
X7976712Y-17336819D01*
X7995760Y-17336819D01*
X8214807Y-17203486D02*
X8214807Y-17403486D01*
X8214807Y-17213010D02*
X8233855Y-17203486D01*
X8271950Y-17203486D01*
X8290998Y-17213010D01*
X8300522Y-17222534D01*
X8310046Y-17241581D01*
X8310046Y-17298724D01*
X8300522Y-17317772D01*
X8290998Y-17327295D01*
X8271950Y-17336819D01*
X8233855Y-17336819D01*
X8214807Y-17327295D01*
X8424331Y-17336819D02*
X8405284Y-17327295D01*
X8395760Y-17308248D01*
X8395760Y-17136819D01*
X8586236Y-17336819D02*
X8586236Y-17232057D01*
X8576712Y-17213010D01*
X8557665Y-17203486D01*
X8519569Y-17203486D01*
X8500522Y-17213010D01*
X8586236Y-17327295D02*
X8567188Y-17336819D01*
X8519569Y-17336819D01*
X8500522Y-17327295D01*
X8490998Y-17308248D01*
X8490998Y-17289200D01*
X8500522Y-17270153D01*
X8519569Y-17260629D01*
X8567188Y-17260629D01*
X8586236Y-17251105D01*
X8652903Y-17203486D02*
X8729093Y-17203486D01*
X8681474Y-17136819D02*
X8681474Y-17308248D01*
X8690998Y-17327295D01*
X8710046Y-17336819D01*
X8729093Y-17336819D01*
X8871950Y-17327295D02*
X8852903Y-17336819D01*
X8814808Y-17336819D01*
X8795760Y-17327295D01*
X8786236Y-17308248D01*
X8786236Y-17232057D01*
X8795760Y-17213010D01*
X8814808Y-17203486D01*
X8852903Y-17203486D01*
X8871950Y-17213010D01*
X8881474Y-17232057D01*
X8881474Y-17251105D01*
X8786236Y-17270153D01*
X9052903Y-17336819D02*
X9052903Y-17136819D01*
X9052903Y-17327295D02*
X9033855Y-17336819D01*
X8995760Y-17336819D01*
X8976712Y-17327295D01*
X8967188Y-17317772D01*
X8957665Y-17298724D01*
X8957665Y-17241581D01*
X8967188Y-17222534D01*
X8976712Y-17213010D01*
X8995760Y-17203486D01*
X9033855Y-17203486D01*
X9052903Y-17213010D01*
X9129093Y-17413010D02*
X9138617Y-17403486D01*
X9157665Y-17374915D01*
X9167188Y-17355867D01*
X9176712Y-17327295D01*
X9186236Y-17279676D01*
X9186236Y-17241581D01*
X9176712Y-17193962D01*
X9167188Y-17165391D01*
X9157665Y-17146343D01*
X9138617Y-17117772D01*
X9129093Y-17108248D01*
X2276236Y-17666343D02*
X2376236Y-17566343D01*
X2276236Y-17466343D01*
X2176236Y-17566343D01*
X2276236Y-17666343D01*
X2614808Y-17456819D02*
X2738617Y-17456819D01*
X2671950Y-17533010D01*
X2700522Y-17533010D01*
X2719569Y-17542534D01*
X2729093Y-17552057D01*
X2738617Y-17571105D01*
X2738617Y-17618724D01*
X2729093Y-17637772D01*
X2719569Y-17647295D01*
X2700522Y-17656819D01*
X2643379Y-17656819D01*
X2624331Y-17647295D01*
X2614808Y-17637772D01*
X2824331Y-17637772D02*
X2833855Y-17647295D01*
X2824331Y-17656819D01*
X2814807Y-17647295D01*
X2824331Y-17637772D01*
X2824331Y-17656819D01*
X2929093Y-17656819D02*
X2967188Y-17656819D01*
X2986236Y-17647295D01*
X2995760Y-17637772D01*
X3014807Y-17609200D01*
X3024331Y-17571105D01*
X3024331Y-17494915D01*
X3014807Y-17475867D01*
X3005284Y-17466343D01*
X2986236Y-17456819D01*
X2948141Y-17456819D01*
X2929093Y-17466343D01*
X2919569Y-17475867D01*
X2910046Y-17494915D01*
X2910046Y-17542534D01*
X2919569Y-17561581D01*
X2929093Y-17571105D01*
X2948141Y-17580629D01*
X2986236Y-17580629D01*
X3005284Y-17571105D01*
X3014807Y-17561581D01*
X3024331Y-17542534D01*
X3138617Y-17542534D02*
X3119569Y-17533010D01*
X3110046Y-17523486D01*
X3100522Y-17504438D01*
X3100522Y-17494915D01*
X3110046Y-17475867D01*
X3119569Y-17466343D01*
X3138617Y-17456819D01*
X3176712Y-17456819D01*
X3195760Y-17466343D01*
X3205284Y-17475867D01*
X3214807Y-17494915D01*
X3214807Y-17504438D01*
X3205284Y-17523486D01*
X3195760Y-17533010D01*
X3176712Y-17542534D01*
X3138617Y-17542534D01*
X3119569Y-17552057D01*
X3110046Y-17561581D01*
X3100522Y-17580629D01*
X3100522Y-17618724D01*
X3110046Y-17637772D01*
X3119569Y-17647295D01*
X3138617Y-17656819D01*
X3176712Y-17656819D01*
X3195760Y-17647295D01*
X3205284Y-17637772D01*
X3214807Y-17618724D01*
X3214807Y-17580629D01*
X3205284Y-17561581D01*
X3195760Y-17552057D01*
X3176712Y-17542534D01*
X3329093Y-17542534D02*
X3310046Y-17533010D01*
X3300522Y-17523486D01*
X3290998Y-17504438D01*
X3290998Y-17494915D01*
X3300522Y-17475867D01*
X3310046Y-17466343D01*
X3329093Y-17456819D01*
X3367188Y-17456819D01*
X3386236Y-17466343D01*
X3395760Y-17475867D01*
X3405284Y-17494915D01*
X3405284Y-17504438D01*
X3395760Y-17523486D01*
X3386236Y-17533010D01*
X3367188Y-17542534D01*
X3329093Y-17542534D01*
X3310046Y-17552057D01*
X3300522Y-17561581D01*
X3290998Y-17580629D01*
X3290998Y-17618724D01*
X3300522Y-17637772D01*
X3310046Y-17647295D01*
X3329093Y-17656819D01*
X3367188Y-17656819D01*
X3386236Y-17647295D01*
X3395760Y-17637772D01*
X3405284Y-17618724D01*
X3405284Y-17580629D01*
X3395760Y-17561581D01*
X3386236Y-17552057D01*
X3367188Y-17542534D01*
X3490998Y-17656819D02*
X3490998Y-17523486D01*
X3490998Y-17542534D02*
X3500522Y-17533010D01*
X3519569Y-17523486D01*
X3548141Y-17523486D01*
X3567188Y-17533010D01*
X3576712Y-17552057D01*
X3576712Y-17656819D01*
X3576712Y-17552057D02*
X3586236Y-17533010D01*
X3605284Y-17523486D01*
X3633855Y-17523486D01*
X3652903Y-17533010D01*
X3662426Y-17552057D01*
X3662426Y-17656819D01*
X3757665Y-17656819D02*
X3757665Y-17523486D01*
X3757665Y-17542534D02*
X3767188Y-17533010D01*
X3786236Y-17523486D01*
X3814807Y-17523486D01*
X3833855Y-17533010D01*
X3843379Y-17552057D01*
X3843379Y-17656819D01*
X3843379Y-17552057D02*
X3852903Y-17533010D01*
X3871950Y-17523486D01*
X3900522Y-17523486D01*
X3919569Y-17533010D01*
X3929093Y-17552057D01*
X3929093Y-17656819D01*
X4319569Y-17447295D02*
X4148141Y-17704438D01*
X4576712Y-17456819D02*
X4595760Y-17456819D01*
X4614808Y-17466343D01*
X4624331Y-17475867D01*
X4633855Y-17494915D01*
X4643379Y-17533010D01*
X4643379Y-17580629D01*
X4633855Y-17618724D01*
X4624331Y-17637772D01*
X4614808Y-17647295D01*
X4595760Y-17656819D01*
X4576712Y-17656819D01*
X4557665Y-17647295D01*
X4548141Y-17637772D01*
X4538617Y-17618724D01*
X4529093Y-17580629D01*
X4529093Y-17533010D01*
X4538617Y-17494915D01*
X4548141Y-17475867D01*
X4557665Y-17466343D01*
X4576712Y-17456819D01*
X4729093Y-17637772D02*
X4738617Y-17647295D01*
X4729093Y-17656819D01*
X4719569Y-17647295D01*
X4729093Y-17637772D01*
X4729093Y-17656819D01*
X4929093Y-17656819D02*
X4814808Y-17656819D01*
X4871950Y-17656819D02*
X4871950Y-17456819D01*
X4852903Y-17485391D01*
X4833855Y-17504438D01*
X4814808Y-17513962D01*
X5110046Y-17456819D02*
X5014808Y-17456819D01*
X5005284Y-17552057D01*
X5014808Y-17542534D01*
X5033855Y-17533010D01*
X5081474Y-17533010D01*
X5100522Y-17542534D01*
X5110046Y-17552057D01*
X5119569Y-17571105D01*
X5119569Y-17618724D01*
X5110046Y-17637772D01*
X5100522Y-17647295D01*
X5081474Y-17656819D01*
X5033855Y-17656819D01*
X5014808Y-17647295D01*
X5005284Y-17637772D01*
X5186236Y-17456819D02*
X5319569Y-17456819D01*
X5233855Y-17656819D01*
X5433855Y-17456819D02*
X5452903Y-17456819D01*
X5471950Y-17466343D01*
X5481474Y-17475867D01*
X5490998Y-17494915D01*
X5500522Y-17533010D01*
X5500522Y-17580629D01*
X5490998Y-17618724D01*
X5481474Y-17637772D01*
X5471950Y-17647295D01*
X5452903Y-17656819D01*
X5433855Y-17656819D01*
X5414808Y-17647295D01*
X5405284Y-17637772D01*
X5395760Y-17618724D01*
X5386236Y-17580629D01*
X5386236Y-17533010D01*
X5395760Y-17494915D01*
X5405284Y-17475867D01*
X5414808Y-17466343D01*
X5433855Y-17456819D01*
X5576712Y-17456819D02*
X5576712Y-17494915D01*
X5652903Y-17456819D02*
X5652903Y-17494915D01*
X5948141Y-17733010D02*
X5938617Y-17723486D01*
X5919569Y-17694915D01*
X5910046Y-17675867D01*
X5900522Y-17647295D01*
X5890998Y-17599676D01*
X5890998Y-17561581D01*
X5900522Y-17513962D01*
X5910046Y-17485391D01*
X5919569Y-17466343D01*
X5938617Y-17437772D01*
X5948141Y-17428248D01*
X6110046Y-17523486D02*
X6110046Y-17656819D01*
X6062426Y-17447295D02*
X6014807Y-17590153D01*
X6138617Y-17590153D01*
X6243379Y-17542534D02*
X6224331Y-17533010D01*
X6214807Y-17523486D01*
X6205284Y-17504438D01*
X6205284Y-17494915D01*
X6214807Y-17475867D01*
X6224331Y-17466343D01*
X6243379Y-17456819D01*
X6281474Y-17456819D01*
X6300522Y-17466343D01*
X6310046Y-17475867D01*
X6319569Y-17494915D01*
X6319569Y-17504438D01*
X6310046Y-17523486D01*
X6300522Y-17533010D01*
X6281474Y-17542534D01*
X6243379Y-17542534D01*
X6224331Y-17552057D01*
X6214807Y-17561581D01*
X6205284Y-17580629D01*
X6205284Y-17618724D01*
X6214807Y-17637772D01*
X6224331Y-17647295D01*
X6243379Y-17656819D01*
X6281474Y-17656819D01*
X6300522Y-17647295D01*
X6310046Y-17637772D01*
X6319569Y-17618724D01*
X6319569Y-17580629D01*
X6310046Y-17561581D01*
X6300522Y-17552057D01*
X6281474Y-17542534D01*
X6557665Y-17656819D02*
X6557665Y-17456819D01*
X6643379Y-17656819D02*
X6643379Y-17552057D01*
X6633855Y-17533010D01*
X6614807Y-17523486D01*
X6586236Y-17523486D01*
X6567188Y-17533010D01*
X6557665Y-17542534D01*
X6767188Y-17656819D02*
X6748141Y-17647295D01*
X6738617Y-17637772D01*
X6729093Y-17618724D01*
X6729093Y-17561581D01*
X6738617Y-17542534D01*
X6748141Y-17533010D01*
X6767188Y-17523486D01*
X6795760Y-17523486D01*
X6814807Y-17533010D01*
X6824331Y-17542534D01*
X6833855Y-17561581D01*
X6833855Y-17618724D01*
X6824331Y-17637772D01*
X6814807Y-17647295D01*
X6795760Y-17656819D01*
X6767188Y-17656819D01*
X6948141Y-17656819D02*
X6929093Y-17647295D01*
X6919569Y-17628248D01*
X6919569Y-17456819D01*
X7100522Y-17647295D02*
X7081474Y-17656819D01*
X7043379Y-17656819D01*
X7024331Y-17647295D01*
X7014807Y-17628248D01*
X7014807Y-17552057D01*
X7024331Y-17533010D01*
X7043379Y-17523486D01*
X7081474Y-17523486D01*
X7100522Y-17533010D01*
X7110046Y-17552057D01*
X7110046Y-17571105D01*
X7014807Y-17590153D01*
X7186236Y-17647295D02*
X7205284Y-17656819D01*
X7243379Y-17656819D01*
X7262426Y-17647295D01*
X7271950Y-17628248D01*
X7271950Y-17618724D01*
X7262426Y-17599676D01*
X7243379Y-17590153D01*
X7214807Y-17590153D01*
X7195760Y-17580629D01*
X7186236Y-17561581D01*
X7186236Y-17552057D01*
X7195760Y-17533010D01*
X7214807Y-17523486D01*
X7243379Y-17523486D01*
X7262426Y-17533010D01*
X7338617Y-17733010D02*
X7348141Y-17723486D01*
X7367188Y-17694915D01*
X7376712Y-17675867D01*
X7386236Y-17647295D01*
X7395760Y-17599676D01*
X7395760Y-17561581D01*
X7386236Y-17513962D01*
X7376712Y-17485391D01*
X7367188Y-17466343D01*
X7348141Y-17437772D01*
X7338617Y-17428248D01*
X7700522Y-17733010D02*
X7690998Y-17723486D01*
X7671950Y-17694915D01*
X7662426Y-17675867D01*
X7652903Y-17647295D01*
X7643379Y-17599676D01*
X7643379Y-17561581D01*
X7652903Y-17513962D01*
X7662426Y-17485391D01*
X7671950Y-17466343D01*
X7690998Y-17437772D01*
X7700522Y-17428248D01*
X7776712Y-17523486D02*
X7776712Y-17656819D01*
X7776712Y-17542534D02*
X7786236Y-17533010D01*
X7805284Y-17523486D01*
X7833855Y-17523486D01*
X7852903Y-17533010D01*
X7862426Y-17552057D01*
X7862426Y-17656819D01*
X7986236Y-17656819D02*
X7967188Y-17647295D01*
X7957665Y-17637772D01*
X7948141Y-17618724D01*
X7948141Y-17561581D01*
X7957665Y-17542534D01*
X7967188Y-17533010D01*
X7986236Y-17523486D01*
X8014807Y-17523486D01*
X8033855Y-17533010D01*
X8043379Y-17542534D01*
X8052903Y-17561581D01*
X8052903Y-17618724D01*
X8043379Y-17637772D01*
X8033855Y-17647295D01*
X8014807Y-17656819D01*
X7986236Y-17656819D01*
X8110046Y-17523486D02*
X8186236Y-17523486D01*
X8138617Y-17456819D02*
X8138617Y-17628248D01*
X8148141Y-17647295D01*
X8167188Y-17656819D01*
X8186236Y-17656819D01*
X8405284Y-17523486D02*
X8405284Y-17723486D01*
X8405284Y-17533010D02*
X8424331Y-17523486D01*
X8462427Y-17523486D01*
X8481474Y-17533010D01*
X8490998Y-17542534D01*
X8500522Y-17561581D01*
X8500522Y-17618724D01*
X8490998Y-17637772D01*
X8481474Y-17647295D01*
X8462427Y-17656819D01*
X8424331Y-17656819D01*
X8405284Y-17647295D01*
X8614808Y-17656819D02*
X8595760Y-17647295D01*
X8586236Y-17628248D01*
X8586236Y-17456819D01*
X8776712Y-17656819D02*
X8776712Y-17552057D01*
X8767188Y-17533010D01*
X8748141Y-17523486D01*
X8710046Y-17523486D01*
X8690998Y-17533010D01*
X8776712Y-17647295D02*
X8757665Y-17656819D01*
X8710046Y-17656819D01*
X8690998Y-17647295D01*
X8681474Y-17628248D01*
X8681474Y-17609200D01*
X8690998Y-17590153D01*
X8710046Y-17580629D01*
X8757665Y-17580629D01*
X8776712Y-17571105D01*
X8843379Y-17523486D02*
X8919569Y-17523486D01*
X8871950Y-17456819D02*
X8871950Y-17628248D01*
X8881474Y-17647295D01*
X8900522Y-17656819D01*
X8919569Y-17656819D01*
X9062427Y-17647295D02*
X9043379Y-17656819D01*
X9005284Y-17656819D01*
X8986236Y-17647295D01*
X8976712Y-17628248D01*
X8976712Y-17552057D01*
X8986236Y-17533010D01*
X9005284Y-17523486D01*
X9043379Y-17523486D01*
X9062427Y-17533010D01*
X9071950Y-17552057D01*
X9071950Y-17571105D01*
X8976712Y-17590153D01*
X9243379Y-17656819D02*
X9243379Y-17456819D01*
X9243379Y-17647295D02*
X9224331Y-17656819D01*
X9186236Y-17656819D01*
X9167188Y-17647295D01*
X9157665Y-17637772D01*
X9148141Y-17618724D01*
X9148141Y-17561581D01*
X9157665Y-17542534D01*
X9167188Y-17533010D01*
X9186236Y-17523486D01*
X9224331Y-17523486D01*
X9243379Y-17533010D01*
X9319569Y-17733010D02*
X9329093Y-17723486D01*
X9348141Y-17694915D01*
X9357665Y-17675867D01*
X9367188Y-17647295D01*
X9376712Y-17599676D01*
X9376712Y-17561581D01*
X9367188Y-17513962D01*
X9357665Y-17485391D01*
X9348141Y-17466343D01*
X9329093Y-17437772D01*
X9319569Y-17428248D01*
M02*
