M48
; DRILL file {KiCad (6.0.5)} date Thu Jul 14 01:39:35 2022
; FORMAT={-:-/ absolute / metric / decimal}
; #@! TF.CreationDate,2022-07-14T01:39:35-06:00
; #@! TF.GenerationSoftware,Kicad,Pcbnew,(6.0.5)
; #@! TF.FileFunction,Plated,1,2,PTH
FMAT,2
METRIC
; #@! TA.AperFunction,Plated,PTH,ViaDrill
T1C0.400
; #@! TA.AperFunction,Plated,PTH,ComponentDrill
T2C1.000
; #@! TA.AperFunction,Plated,PTH,ComponentDrill
T3C1.020
; #@! TA.AperFunction,Plated,PTH,ComponentDrill
T4C1.300
%
G90
G05
T1
X29.718Y-142.748
X29.921Y-149.708
X30.099Y-85.725
X30.099Y-104.775
X30.099Y-123.952
X31.75Y-100.99
X31.75Y-139.116
X31.775Y-120.015
X34.722Y-112.674
X34.747Y-131.801
X34.798Y-93.574
X35.56Y-81.28
X35.56Y-101.6
X35.56Y-121.92
X35.56Y-137.16
X35.56Y-142.24
X40.386Y-155.321
X40.64Y-81.28
X40.64Y-111.76
X40.64Y-137.16
X40.767Y-145.669
X41.529Y-61.722
X45.72Y-147.32
X46.482Y-85.192
X46.482Y-142.494
X46.685Y-72.898
X47.371Y-105.156
X47.371Y-124.206
X47.828Y-154.457
X48.133Y-60.96
X49.276Y-66.675
X50.8Y-60.96
X50.8Y-81.28
X50.8Y-121.92
X50.8Y-142.24
X51.689Y-54.356
X53.391Y-137.439
X53.467Y-99.466
X53.467Y-118.364
X53.492Y-131.978
X53.543Y-112.852
X53.797Y-70.053
X55.88Y-81.28
X55.88Y-86.36
X55.88Y-142.24
X60.808Y-54.356
X61.671Y-73.711
X64.269Y-98.529
X64.996Y-118.24
X65.786Y-142.494
X66.04Y-147.32
X66.37Y-154.559
X66.497Y-73.05
X66.548Y-86.233
X66.548Y-105.156
X66.548Y-124.206
X68.326Y-66.421
X69.494Y-59.792
X71.12Y-60.96
X71.12Y-81.28
X71.12Y-121.92
X71.12Y-132.08
X71.12Y-142.24
X71.374Y-71.349
X72.39Y-112.776
X72.568Y-118.313
X72.644Y-99.39
X72.669Y-137.312
X76.2Y-81.28
X80.772Y-72.441
X82.525Y-156.362
X84.226Y-66.04
X84.689Y-70.21
X84.732Y-65.022
X85.249Y-63.863
X85.344Y-142.24
X85.688Y-70.21
X85.754Y-62.716
X86.36Y-81.28
X86.36Y-91.44
X86.36Y-111.76
X86.36Y-149.733
X86.688Y-70.228
X87.489Y-70.871
X88.265Y-71.501
X91.44Y-142.24
X91.44Y-147.32
X92.032Y-79.201
X92.123Y-74.501
X92.202Y-139.065
X93.472Y-50.927
X93.888Y-100.746
X93.98Y-155.702
X94.615Y-85.979
X95.021Y-154.508
X95.631Y-106.934
X96.52Y-60.96
X96.52Y-66.04
X96.52Y-81.28
X96.52Y-91.44
X96.52Y-111.76
X96.52Y-120.777
X96.524Y-117.598
X96.901Y-142.367
X98.044Y-45.72
X98.704Y-48.911
X101.092Y-99.441
X101.117Y-47.346
X101.168Y-150.927
X101.473Y-126.111
X101.6Y-81.28
X101.6Y-111.76
X101.6Y-142.24
X102.108Y-50.444
X103.251Y-49.149
X106.68Y-55.88
X106.68Y-81.28
X106.68Y-121.92
X108.331Y-137.668
X108.667Y-77.744
X108.687Y-76.098
X109.855Y-80.899
X111.252Y-75.517
X111.76Y-66.04
X116.84Y-106.68
X116.84Y-111.76
X116.84Y-142.24
X116.84Y-147.32
X118.364Y-87.884
X120.65Y-154.61
X121.92Y-127.0
X121.92Y-132.08
X122.555Y-142.621
X122.936Y-106.934
X124.917Y-99.543
X127.0Y-66.04
X127.0Y-71.12
X127.0Y-86.36
X127.0Y-111.76
X127.406Y-151.054
X128.524Y-141.605
X129.642Y-118.796
X129.87Y-80.823
X129.921Y-75.184
X131.191Y-125.984
X132.08Y-121.92
X132.08Y-132.08
X132.08Y-137.16
X137.16Y-66.04
X137.16Y-91.44
X137.16Y-121.92
X137.16Y-132.08
X137.541Y-87.884
X139.116Y-137.693
X141.986Y-106.934
X142.24Y-111.76
X142.24Y-142.24
X142.24Y-147.32
X143.916Y-99.543
X145.136Y-154.483
X146.812Y-142.621
X147.32Y-66.04
X147.32Y-71.12
X148.717Y-74.676
X148.844Y-118.516
X148.996Y-80.797
X151.003Y-151.094
X151.511Y-125.984
X152.4Y-66.04
X152.4Y-121.92
X152.4Y-132.08
X153.289Y-142.113
X156.464Y-87.884
X157.48Y-91.44
X157.48Y-121.92
X157.48Y-132.08
X158.293Y-137.49
X161.417Y-106.934
X162.56Y-111.76
X162.56Y-142.24
X162.56Y-147.32
X163.017Y-99.543
X167.259Y-74.295
X167.64Y-66.04
X167.64Y-142.24
X167.64Y-147.32
X167.716Y-118.415
X168.148Y-80.874
X169.062Y-154.711
X169.672Y-141.351
X170.815Y-125.984
X172.72Y-66.04
X172.72Y-121.92
X172.72Y-132.08
X175.133Y-87.884
X177.267Y-137.566
X177.8Y-91.44
X177.8Y-121.92
X177.8Y-132.08
X177.8Y-142.24
X180.594Y-106.934
X182.118Y-99.517
X182.88Y-111.76
X185.547Y-66.929
X186.893Y-118.313
X187.96Y-66.04
X187.96Y-144.018
X188.976Y-125.984
X191.516Y-144.018
X191.592Y-80.594
X192.786Y-140.462
X193.04Y-66.04
X193.04Y-111.76
X193.04Y-121.92
X193.04Y-132.08
X194.056Y-144.399
X194.945Y-85.979
X198.12Y-121.92
X198.374Y-103.759
X200.05Y-153.34
X200.381Y-118.288
X201.143Y-93.878
X201.244Y-99.263
X203.2Y-71.12
X203.2Y-86.36
X205.892Y-81.331
X205.994Y-149.606
X208.28Y-66.04
X208.788Y-124.46
X211.328Y-150.114
X213.36Y-66.04
X213.36Y-106.68
X213.36Y-111.76
X213.36Y-121.92
X214.401Y-137.516
X215.519Y-131.978
X217.576Y-153.365
X218.186Y-78.867
X218.44Y-121.92
X223.52Y-142.24
X223.52Y-147.32
X223.52Y-152.4
T2
X25.544Y-64.175
X25.544Y-69.175
X37.782Y-53.467
X40.044Y-64.175
X40.044Y-66.675
X40.044Y-69.175
X40.322Y-53.467
X42.862Y-53.467
X45.402Y-53.467
X47.942Y-53.467
X84.587Y-131.064
X87.127Y-131.064
X87.884Y-95.758
X87.884Y-98.298
X87.884Y-100.838
X87.884Y-103.378
X87.884Y-105.918
X87.884Y-108.458
X88.646Y-44.577
X88.646Y-47.117
X88.646Y-49.657
X88.646Y-52.197
X89.667Y-131.064
X91.186Y-44.577
X91.186Y-47.117
X91.186Y-49.657
X91.186Y-52.197
X92.207Y-131.064
X94.747Y-131.064
X97.287Y-131.064
X99.827Y-131.064
X102.367Y-131.064
X104.907Y-131.064
X107.447Y-131.064
X186.436Y-149.733
X188.976Y-149.733
X191.516Y-149.733
X194.056Y-149.733
X196.596Y-149.733
X199.136Y-149.733
X201.676Y-149.733
T3
X37.782Y-57.785
X37.782Y-75.565
X40.322Y-57.785
X40.322Y-75.565
X42.862Y-57.785
X42.862Y-75.565
X45.402Y-57.785
X45.402Y-75.565
X47.942Y-57.785
X47.942Y-75.565
X50.482Y-57.785
X50.482Y-75.565
X53.023Y-57.785
X53.023Y-75.565
X55.562Y-57.785
X55.562Y-75.565
X58.102Y-57.785
X58.102Y-75.565
X60.642Y-57.785
X60.642Y-75.565
X63.182Y-57.785
X63.182Y-75.565
X65.722Y-57.785
X65.722Y-75.565
X68.263Y-57.785
X68.263Y-75.565
X70.802Y-57.785
X70.802Y-75.565
X73.343Y-57.785
X73.343Y-75.565
X75.882Y-57.785
X75.882Y-75.565
X78.422Y-57.785
X78.422Y-75.565
X80.962Y-57.785
X80.962Y-75.565
X83.502Y-57.785
X83.502Y-75.565
X86.042Y-57.785
X86.042Y-75.565
T4
X101.241Y-45.137
X101.241Y-59.637
X106.141Y-44.538
X106.141Y-60.237
T0
M30
