%TF.GenerationSoftware,KiCad,Pcbnew,(6.0.5)*%
%TF.CreationDate,2022-07-29T15:46:59-06:00*%
%TF.ProjectId,kb,6b622e6b-6963-4616-945f-706362585858,rev?*%
%TF.SameCoordinates,Original*%
%TF.FileFunction,Profile,NP*%
%FSLAX46Y46*%
G04 Gerber Fmt 4.6, Leading zero omitted, Abs format (unit mm)*
G04 Created by KiCad (PCBNEW (6.0.5)) date 2022-07-29 15:46:59*
%MOMM*%
%LPD*%
G01*
G04 APERTURE LIST*
%TA.AperFunction,Profile*%
%ADD10C,0.100000*%
%TD*%
%TA.AperFunction,Profile*%
%ADD11C,0.120000*%
%TD*%
G04 APERTURE END LIST*
D10*
X118268751Y-46037507D02*
G75*
G03*
X116681250Y-46831250I466249J-2916893D01*
G01*
X102393751Y-59531257D02*
G75*
G03*
X103981250Y-58737500I-342451J2669257D01*
G01*
X118268750Y-46037500D02*
X219868750Y-46037500D01*
X212725000Y-79375000D02*
X220662500Y-79375000D01*
X23812500Y-47625000D02*
X23812500Y-155575000D01*
X25400000Y-46037500D02*
G75*
G03*
X23812500Y-47625000I0J-1587500D01*
G01*
X86518750Y-46831250D02*
X98425000Y-58737500D01*
X103981250Y-58737500D02*
X116681250Y-46831250D01*
X100012500Y-59531250D02*
X102393750Y-59531250D01*
X225425000Y-120650000D02*
X217487500Y-120650000D01*
X215900000Y-101600000D02*
X212725000Y-101600000D01*
X221456250Y-78581250D02*
X221456250Y-47625000D01*
X226218750Y-155575000D02*
X226218750Y-121443750D01*
X211931250Y-100806250D02*
X211931250Y-80168750D01*
X84931250Y-46037500D02*
X25400000Y-46037500D01*
X98425006Y-58737495D02*
G75*
G03*
X100012500Y-59531250I1770094J1555795D01*
G01*
X226218800Y-121443750D02*
G75*
G03*
X225425000Y-120650000I-793800J-50D01*
G01*
X212725000Y-79375050D02*
G75*
G03*
X211931250Y-80168750I0J-793750D01*
G01*
X216693700Y-119856250D02*
G75*
G03*
X217487500Y-120650000I793800J50D01*
G01*
X220662500Y-79374950D02*
G75*
G03*
X221456250Y-78581250I0J793750D01*
G01*
X224631250Y-157162500D02*
X25400000Y-157162500D01*
X211931200Y-100806250D02*
G75*
G03*
X212725000Y-101600000I793800J50D01*
G01*
X216693750Y-119856250D02*
X216693750Y-102393750D01*
X86518756Y-46831245D02*
G75*
G03*
X84931250Y-46037500I-1821256J-1658155D01*
G01*
X224631250Y-157162550D02*
G75*
G03*
X226218750Y-155575000I-50J1587550D01*
G01*
X23812500Y-155575000D02*
G75*
G03*
X25400000Y-157162500I1587500J0D01*
G01*
X216693800Y-102393750D02*
G75*
G03*
X215900000Y-101600000I-793800J-50D01*
G01*
X221456300Y-47625000D02*
G75*
G03*
X219868750Y-46037500I-1587600J-100D01*
G01*
D11*
%TO.C,D110*%
X58056250Y-94543750D02*
X54656250Y-94543750D01*
X54656250Y-94543750D02*
X54656250Y-97543750D01*
X54656250Y-97543750D02*
X58056250Y-97543750D01*
X58056250Y-97543750D02*
X58056250Y-94543750D01*
%TO.C,D138*%
X77106250Y-151693750D02*
X73706250Y-151693750D01*
X77106250Y-154693750D02*
X77106250Y-151693750D01*
X73706250Y-151693750D02*
X73706250Y-154693750D01*
X73706250Y-154693750D02*
X77106250Y-154693750D01*
%TO.C,D101*%
X58056250Y-70731250D02*
X54656250Y-70731250D01*
X54656250Y-70731250D02*
X54656250Y-73731250D01*
X54656250Y-73731250D02*
X58056250Y-73731250D01*
X58056250Y-73731250D02*
X58056250Y-70731250D01*
%TO.C,D130*%
X109425000Y-135643750D02*
X112825000Y-135643750D01*
X112825000Y-135643750D02*
X112825000Y-132643750D01*
X112825000Y-132643750D02*
X109425000Y-132643750D01*
X109425000Y-132643750D02*
X109425000Y-135643750D01*
%TO.C,D117*%
X202293750Y-97543750D02*
X205693750Y-97543750D01*
X205693750Y-94543750D02*
X202293750Y-94543750D01*
X202293750Y-94543750D02*
X202293750Y-97543750D01*
X205693750Y-97543750D02*
X205693750Y-94543750D01*
%TO.C,D144*%
X211818750Y-75493750D02*
X211818750Y-78493750D01*
X211818750Y-78493750D02*
X215218750Y-78493750D01*
X215218750Y-78493750D02*
X215218750Y-75493750D01*
X215218750Y-75493750D02*
X211818750Y-75493750D01*
%TO.C,D106*%
X154668750Y-78493750D02*
X158068750Y-78493750D01*
X158068750Y-75493750D02*
X154668750Y-75493750D01*
X158068750Y-78493750D02*
X158068750Y-75493750D01*
X154668750Y-75493750D02*
X154668750Y-78493750D01*
%TO.C,D137*%
X54656250Y-151693750D02*
X54656250Y-154693750D01*
X58056250Y-151693750D02*
X54656250Y-151693750D01*
X58056250Y-154693750D02*
X58056250Y-151693750D01*
X54656250Y-154693750D02*
X58056250Y-154693750D01*
%TO.C,D128*%
X54656250Y-135643750D02*
X58056250Y-135643750D01*
X58056250Y-135643750D02*
X58056250Y-132643750D01*
X54656250Y-132643750D02*
X54656250Y-135643750D01*
X58056250Y-132643750D02*
X54656250Y-132643750D01*
%TO.C,D136*%
X35606250Y-151693750D02*
X35606250Y-154693750D01*
X39006250Y-151693750D02*
X35606250Y-151693750D01*
X39006250Y-154693750D02*
X39006250Y-151693750D01*
X35606250Y-154693750D02*
X39006250Y-154693750D01*
%TO.C,D109*%
X39006250Y-94543750D02*
X35606250Y-94543750D01*
X35606250Y-97543750D02*
X39006250Y-97543750D01*
X39006250Y-97543750D02*
X39006250Y-94543750D01*
X35606250Y-94543750D02*
X35606250Y-97543750D01*
%TO.C,D127*%
X35606250Y-135643750D02*
X39006250Y-135643750D01*
X39006250Y-132643750D02*
X35606250Y-132643750D01*
X35606250Y-132643750D02*
X35606250Y-135643750D01*
X39006250Y-135643750D02*
X39006250Y-132643750D01*
%TO.C,D119*%
X54656250Y-113593750D02*
X54656250Y-116593750D01*
X58056250Y-116593750D02*
X58056250Y-113593750D01*
X54656250Y-116593750D02*
X58056250Y-116593750D01*
X58056250Y-113593750D02*
X54656250Y-113593750D01*
%TO.C,D104*%
X119968750Y-75493750D02*
X116568750Y-75493750D01*
X116568750Y-78493750D02*
X119968750Y-78493750D01*
X116568750Y-75493750D02*
X116568750Y-78493750D01*
X119968750Y-78493750D02*
X119968750Y-75493750D01*
%TO.C,D114*%
X148543750Y-94543750D02*
X145143750Y-94543750D01*
X145143750Y-94543750D02*
X145143750Y-97543750D01*
X148543750Y-97543750D02*
X148543750Y-94543750D01*
X145143750Y-97543750D02*
X148543750Y-97543750D01*
%TO.C,D132*%
X159431250Y-135643750D02*
X162831250Y-135643750D01*
X162831250Y-132643750D02*
X159431250Y-132643750D01*
X162831250Y-135643750D02*
X162831250Y-132643750D01*
X159431250Y-132643750D02*
X159431250Y-135643750D01*
%TO.C,D108*%
X192768750Y-75493750D02*
X192768750Y-78493750D01*
X192768750Y-78493750D02*
X196168750Y-78493750D01*
X196168750Y-78493750D02*
X196168750Y-75493750D01*
X196168750Y-75493750D02*
X192768750Y-75493750D01*
%TO.C,D121*%
X98854500Y-116793750D02*
X98854500Y-113393750D01*
X98854500Y-113393750D02*
X95854500Y-113393750D01*
X95854500Y-116793750D02*
X98854500Y-116793750D01*
X95854500Y-113393750D02*
X95854500Y-116793750D01*
%TO.C,D112*%
X102281250Y-94543750D02*
X102281250Y-97543750D01*
X102281250Y-97543750D02*
X105681250Y-97543750D01*
X105681250Y-94543750D02*
X102281250Y-94543750D01*
X105681250Y-97543750D02*
X105681250Y-94543750D01*
%TO.C,D105*%
X135618750Y-78493750D02*
X139018750Y-78493750D01*
X139018750Y-75493750D02*
X135618750Y-75493750D01*
X139018750Y-78493750D02*
X139018750Y-75493750D01*
X135618750Y-75493750D02*
X135618750Y-78493750D01*
%TO.C,D125*%
X191406250Y-116593750D02*
X191406250Y-113593750D01*
X191406250Y-113593750D02*
X188006250Y-113593750D01*
X188006250Y-113593750D02*
X188006250Y-116593750D01*
X188006250Y-116593750D02*
X191406250Y-116593750D01*
%TO.C,D139*%
X102281250Y-154693750D02*
X105681250Y-154693750D01*
X102281250Y-151693750D02*
X102281250Y-154693750D01*
X105681250Y-154693750D02*
X105681250Y-151693750D01*
X105681250Y-151693750D02*
X102281250Y-151693750D01*
%TO.C,D113*%
X129493750Y-97543750D02*
X129493750Y-94543750D01*
X129493750Y-94543750D02*
X126093750Y-94543750D01*
X126093750Y-97543750D02*
X129493750Y-97543750D01*
X126093750Y-94543750D02*
X126093750Y-97543750D01*
%TO.C,D131*%
X140381250Y-132643750D02*
X140381250Y-135643750D01*
X143781250Y-132643750D02*
X140381250Y-132643750D01*
X140381250Y-135643750D02*
X143781250Y-135643750D01*
X143781250Y-135643750D02*
X143781250Y-132643750D01*
%TO.C,D135*%
X219981250Y-132643750D02*
X216581250Y-132643750D01*
X216581250Y-135643750D02*
X219981250Y-135643750D01*
X216581250Y-132643750D02*
X216581250Y-135643750D01*
X219981250Y-135643750D02*
X219981250Y-132643750D01*
%TO.C,D120*%
X73706250Y-116593750D02*
X77106250Y-116593750D01*
X73706250Y-113593750D02*
X73706250Y-116593750D01*
X77106250Y-113593750D02*
X73706250Y-113593750D01*
X77106250Y-116593750D02*
X77106250Y-113593750D01*
%TO.C,D143*%
X210456250Y-151693750D02*
X207056250Y-151693750D01*
X210456250Y-154693750D02*
X210456250Y-151693750D01*
X207056250Y-154693750D02*
X210456250Y-154693750D01*
X207056250Y-151693750D02*
X207056250Y-154693750D01*
%TO.C,D141*%
X155687500Y-154693750D02*
X155687500Y-151693750D01*
X152287500Y-154693750D02*
X155687500Y-154693750D01*
X155687500Y-151693750D02*
X152287500Y-151693750D01*
X152287500Y-151693750D02*
X152287500Y-154693750D01*
%TO.C,D126*%
X210456250Y-113593750D02*
X207056250Y-113593750D01*
X207056250Y-113593750D02*
X207056250Y-116593750D01*
X207056250Y-116593750D02*
X210456250Y-116593750D01*
X210456250Y-116593750D02*
X210456250Y-113593750D01*
%TO.C,D134*%
X197531250Y-132643750D02*
X197531250Y-135643750D01*
X197531250Y-135643750D02*
X200931250Y-135643750D01*
X200931250Y-132643750D02*
X197531250Y-132643750D01*
X200931250Y-135643750D02*
X200931250Y-132643750D01*
%TO.C,D116*%
X183243750Y-94543750D02*
X183243750Y-97543750D01*
X183243750Y-97543750D02*
X186643750Y-97543750D01*
X186643750Y-94543750D02*
X183243750Y-94543750D01*
X186643750Y-97543750D02*
X186643750Y-94543750D01*
%TO.C,D140*%
X128475000Y-151693750D02*
X128475000Y-154693750D01*
X131875000Y-154693750D02*
X131875000Y-151693750D01*
X128475000Y-154693750D02*
X131875000Y-154693750D01*
X131875000Y-151693750D02*
X128475000Y-151693750D01*
%TO.C,D124*%
X172356250Y-113593750D02*
X168956250Y-113593750D01*
X168956250Y-113593750D02*
X168956250Y-116593750D01*
X172356250Y-116593750D02*
X172356250Y-113593750D01*
X168956250Y-116593750D02*
X172356250Y-116593750D01*
%TO.C,D102*%
X73706250Y-70731250D02*
X73706250Y-73731250D01*
X77106250Y-73731250D02*
X77106250Y-70731250D01*
X73706250Y-73731250D02*
X77106250Y-73731250D01*
X77106250Y-70731250D02*
X73706250Y-70731250D01*
%TO.C,D123*%
X149906250Y-116593750D02*
X153306250Y-116593750D01*
X149906250Y-113593750D02*
X149906250Y-116593750D01*
X153306250Y-116593750D02*
X153306250Y-113593750D01*
X153306250Y-113593750D02*
X149906250Y-113593750D01*
%TO.C,D103*%
X97518750Y-75493750D02*
X97518750Y-78493750D01*
X100918750Y-78493750D02*
X100918750Y-75493750D01*
X97518750Y-78493750D02*
X100918750Y-78493750D01*
X100918750Y-75493750D02*
X97518750Y-75493750D01*
%TO.C,D142*%
X176100000Y-151693750D02*
X176100000Y-154693750D01*
X179500000Y-151693750D02*
X176100000Y-151693750D01*
X176100000Y-154693750D02*
X179500000Y-154693750D01*
X179500000Y-154693750D02*
X179500000Y-151693750D01*
%TO.C,D111*%
X77106250Y-94543750D02*
X73706250Y-94543750D01*
X77106250Y-97543750D02*
X77106250Y-94543750D01*
X73706250Y-97543750D02*
X77106250Y-97543750D01*
X73706250Y-94543750D02*
X73706250Y-97543750D01*
%TO.C,D118*%
X35606250Y-113593750D02*
X35606250Y-116593750D01*
X39006250Y-116593750D02*
X39006250Y-113593750D01*
X35606250Y-116593750D02*
X39006250Y-116593750D01*
X39006250Y-113593750D02*
X35606250Y-113593750D01*
%TO.C,D133*%
X178481250Y-132643750D02*
X178481250Y-135643750D01*
X178481250Y-135643750D02*
X181881250Y-135643750D01*
X181881250Y-132643750D02*
X178481250Y-132643750D01*
X181881250Y-135643750D02*
X181881250Y-132643750D01*
%TO.C,D107*%
X173718750Y-75493750D02*
X173718750Y-78493750D01*
X177118750Y-75493750D02*
X173718750Y-75493750D01*
X177118750Y-78493750D02*
X177118750Y-75493750D01*
X173718750Y-78493750D02*
X177118750Y-78493750D01*
%TO.C,D115*%
X164193750Y-97543750D02*
X167593750Y-97543750D01*
X167593750Y-94543750D02*
X164193750Y-94543750D01*
X167593750Y-97543750D02*
X167593750Y-94543750D01*
X164193750Y-94543750D02*
X164193750Y-97543750D01*
%TO.C,D122*%
X130856250Y-116593750D02*
X134256250Y-116593750D01*
X134256250Y-113593750D02*
X130856250Y-113593750D01*
X130856250Y-113593750D02*
X130856250Y-116593750D01*
X134256250Y-116593750D02*
X134256250Y-113593750D01*
%TO.C,D129*%
X73706250Y-132643750D02*
X73706250Y-135643750D01*
X77106250Y-135643750D02*
X77106250Y-132643750D01*
X73706250Y-135643750D02*
X77106250Y-135643750D01*
X77106250Y-132643750D02*
X73706250Y-132643750D01*
%TD*%
M02*
