%TF.GenerationSoftware,KiCad,Pcbnew,(6.0.5)*%
%TF.CreationDate,2022-07-29T20:42:53-06:00*%
%TF.ProjectId,kb,6b622e6b-6963-4616-945f-706362585858,rev?*%
%TF.SameCoordinates,Original*%
%TF.FileFunction,Soldermask,Top*%
%TF.FilePolarity,Negative*%
%FSLAX46Y46*%
G04 Gerber Fmt 4.6, Leading zero omitted, Abs format (unit mm)*
G04 Created by KiCad (PCBNEW (6.0.5)) date 2022-07-29 20:42:53*
%MOMM*%
%LPD*%
G01*
G04 APERTURE LIST*
G04 Aperture macros list*
%AMRoundRect*
0 Rectangle with rounded corners*
0 $1 Rounding radius*
0 $2 $3 $4 $5 $6 $7 $8 $9 X,Y pos of 4 corners*
0 Add a 4 corners polygon primitive as box body*
4,1,4,$2,$3,$4,$5,$6,$7,$8,$9,$2,$3,0*
0 Add four circle primitives for the rounded corners*
1,1,$1+$1,$2,$3*
1,1,$1+$1,$4,$5*
1,1,$1+$1,$6,$7*
1,1,$1+$1,$8,$9*
0 Add four rect primitives between the rounded corners*
20,1,$1+$1,$2,$3,$4,$5,0*
20,1,$1+$1,$4,$5,$6,$7,0*
20,1,$1+$1,$6,$7,$8,$9,0*
20,1,$1+$1,$8,$9,$2,$3,0*%
%AMHorizOval*
0 Thick line with rounded ends*
0 $1 width*
0 $2 $3 position (X,Y) of the first rounded end (center of the circle)*
0 $4 $5 position (X,Y) of the second rounded end (center of the circle)*
0 Add line between two ends*
20,1,$1,$2,$3,$4,$5,0*
0 Add two circle primitives to create the rounded ends*
1,1,$1,$2,$3*
1,1,$1,$4,$5*%
G04 Aperture macros list end*
%ADD10C,0.300000*%
%ADD11C,1.700000*%
%ADD12HorizOval,1.700000X0.000000X0.000000X0.000000X0.000000X0*%
%ADD13C,1.850000*%
%ADD14C,3.100000*%
%ADD15C,4.087800*%
%ADD16RoundRect,0.050000X0.800000X-0.800000X0.800000X0.800000X-0.800000X0.800000X-0.800000X-0.800000X0*%
%ADD17O,3.300000X2.100000*%
%ADD18RoundRect,0.050000X-1.000000X-1.000000X1.000000X-1.000000X1.000000X1.000000X-1.000000X1.000000X0*%
%ADD19C,2.100000*%
%ADD20C,3.148000*%
%ADD21O,1.800000X1.800000*%
%ADD22RoundRect,0.050000X0.850000X-0.850000X0.850000X0.850000X-0.850000X0.850000X-0.850000X-0.850000X0*%
%ADD23O,3.925000X2.500000*%
%ADD24RoundRect,0.050000X0.850000X0.850000X-0.850000X0.850000X-0.850000X-0.850000X0.850000X-0.850000X0*%
%ADD25C,2.050000*%
%ADD26C,0.900000*%
G04 APERTURE END LIST*
D10*
G36*
X34704219Y-49407356D02*
G01*
X34694020Y-49337139D01*
X34690501Y-49269000D01*
X34693359Y-49202926D01*
X34702294Y-49138902D01*
X34717006Y-49076914D01*
X34737194Y-49016947D01*
X34762557Y-48958988D01*
X34792796Y-48903021D01*
X34827608Y-48849034D01*
X34866695Y-48797010D01*
X34909755Y-48746937D01*
X34956488Y-48698800D01*
X35006593Y-48652584D01*
X35115717Y-48565859D01*
X35234724Y-48486650D01*
X35361208Y-48414840D01*
X35492766Y-48350316D01*
X35626992Y-48292963D01*
X35761483Y-48242667D01*
X35893834Y-48199314D01*
X36021640Y-48162790D01*
X36142497Y-48132979D01*
X36175719Y-48129047D01*
X36208091Y-48124559D01*
X36270754Y-48115279D01*
X36301281Y-48111171D01*
X36331429Y-48107873D01*
X36346398Y-48106635D01*
X36361316Y-48105727D01*
X36376199Y-48105192D01*
X36391060Y-48105074D01*
X36391062Y-48105072D01*
X36400965Y-48105248D01*
X36410871Y-48105640D01*
X36420784Y-48106264D01*
X36430710Y-48107134D01*
X36440653Y-48108262D01*
X36450620Y-48109664D01*
X36460614Y-48111353D01*
X36470642Y-48113342D01*
X36660049Y-48162014D01*
X36846400Y-48220769D01*
X37030231Y-48287905D01*
X37212075Y-48361721D01*
X37571941Y-48522580D01*
X37930274Y-48689731D01*
X38291349Y-48849558D01*
X38474250Y-48922471D01*
X38659439Y-48988446D01*
X38847452Y-49045782D01*
X39038821Y-49092778D01*
X39234082Y-49127730D01*
X39433769Y-49148938D01*
X39517413Y-49141849D01*
X39600300Y-49138535D01*
X39682475Y-49138783D01*
X39763981Y-49142380D01*
X39925168Y-49158772D01*
X40084213Y-49186011D01*
X40241471Y-49222398D01*
X40397296Y-49266231D01*
X40552040Y-49315812D01*
X40706059Y-49369439D01*
X41013335Y-49482032D01*
X41321954Y-49590411D01*
X41477652Y-49638769D01*
X41634747Y-49680972D01*
X41793593Y-49715322D01*
X41954544Y-49740116D01*
X41982086Y-49744827D01*
X42011340Y-49746894D01*
X42042119Y-49746587D01*
X42074236Y-49744172D01*
X42107504Y-49739919D01*
X42141736Y-49734096D01*
X42212344Y-49718814D01*
X42356902Y-49681213D01*
X42427860Y-49663189D01*
X42495942Y-49648545D01*
X42528438Y-49643161D01*
X42559654Y-49639427D01*
X42589403Y-49637611D01*
X42617499Y-49637981D01*
X42643754Y-49640806D01*
X42667981Y-49646355D01*
X42689993Y-49654895D01*
X42709604Y-49666695D01*
X42726627Y-49682023D01*
X42740874Y-49701148D01*
X42752158Y-49724337D01*
X42760293Y-49751860D01*
X42765091Y-49783984D01*
X42766366Y-49820978D01*
X42763930Y-49863110D01*
X42757597Y-49910649D01*
X42650100Y-49946092D01*
X42539313Y-49977637D01*
X42425794Y-50006211D01*
X42310097Y-50032745D01*
X41836644Y-50137058D01*
X41718392Y-50167327D01*
X41601295Y-50201133D01*
X41485909Y-50239402D01*
X41372790Y-50283066D01*
X41262493Y-50333053D01*
X41155574Y-50390293D01*
X41052588Y-50455715D01*
X41002743Y-50491785D01*
X40954090Y-50530248D01*
X40805884Y-50678491D01*
X40649603Y-50818787D01*
X40485819Y-50950549D01*
X40315102Y-51073190D01*
X40138024Y-51186122D01*
X39955155Y-51288758D01*
X39767066Y-51380510D01*
X39574329Y-51460792D01*
X39377515Y-51529014D01*
X39177193Y-51584591D01*
X38973936Y-51626934D01*
X38768315Y-51655457D01*
X38560900Y-51669571D01*
X38352262Y-51668689D01*
X38142972Y-51652224D01*
X37933602Y-51619588D01*
X37471735Y-51467838D01*
X37238106Y-51384178D01*
X37004560Y-51294380D01*
X36772505Y-51197734D01*
X36543352Y-51093531D01*
X36318508Y-50981061D01*
X36099384Y-50859614D01*
X35887388Y-50728480D01*
X35683930Y-50586948D01*
X35490420Y-50434310D01*
X35397835Y-50353604D01*
X35308265Y-50269855D01*
X35221887Y-50182974D01*
X35138876Y-50092873D01*
X35059409Y-49999463D01*
X34983662Y-49902654D01*
X34911811Y-49802359D01*
X34844032Y-49698489D01*
X34780502Y-49590954D01*
X34760369Y-49553048D01*
X36493896Y-49553048D01*
X36901001Y-49728993D01*
X37313518Y-49898070D01*
X37731471Y-50055114D01*
X37942492Y-50127510D01*
X38154880Y-50194961D01*
X38368638Y-50256821D01*
X38583767Y-50312446D01*
X38800271Y-50361189D01*
X39018153Y-50402405D01*
X39237415Y-50435449D01*
X39458059Y-50459675D01*
X39680089Y-50474437D01*
X39903507Y-50479089D01*
X39985122Y-50484421D01*
X40076643Y-50487542D01*
X40175714Y-50487677D01*
X40279976Y-50484054D01*
X40387073Y-50475898D01*
X40494648Y-50462435D01*
X40600344Y-50442891D01*
X40651750Y-50430597D01*
X40701803Y-50416493D01*
X40750207Y-50400482D01*
X40796669Y-50382467D01*
X40840892Y-50362352D01*
X40882584Y-50340039D01*
X40921448Y-50315432D01*
X40957191Y-50288435D01*
X40989518Y-50258950D01*
X41018134Y-50226881D01*
X41042744Y-50192131D01*
X41063054Y-50154603D01*
X41078770Y-50114201D01*
X41089596Y-50070828D01*
X41095238Y-50024387D01*
X41095401Y-49974782D01*
X41089791Y-49921915D01*
X41078114Y-49865690D01*
X40845468Y-49865422D01*
X40612138Y-49857940D01*
X40378196Y-49844097D01*
X40143714Y-49824743D01*
X39673427Y-49772916D01*
X39201862Y-49709276D01*
X38257237Y-49573831D01*
X37785347Y-49515661D01*
X37314519Y-49472949D01*
X37110025Y-49494198D01*
X36904723Y-49514065D01*
X36493896Y-49553048D01*
X34760369Y-49553048D01*
X34721395Y-49479667D01*
X34704219Y-49407356D01*
G37*
X34704219Y-49407356D02*
X34694020Y-49337139D01*
X34690501Y-49269000D01*
X34693359Y-49202926D01*
X34702294Y-49138902D01*
X34717006Y-49076914D01*
X34737194Y-49016947D01*
X34762557Y-48958988D01*
X34792796Y-48903021D01*
X34827608Y-48849034D01*
X34866695Y-48797010D01*
X34909755Y-48746937D01*
X34956488Y-48698800D01*
X35006593Y-48652584D01*
X35115717Y-48565859D01*
X35234724Y-48486650D01*
X35361208Y-48414840D01*
X35492766Y-48350316D01*
X35626992Y-48292963D01*
X35761483Y-48242667D01*
X35893834Y-48199314D01*
X36021640Y-48162790D01*
X36142497Y-48132979D01*
X36175719Y-48129047D01*
X36208091Y-48124559D01*
X36270754Y-48115279D01*
X36301281Y-48111171D01*
X36331429Y-48107873D01*
X36346398Y-48106635D01*
X36361316Y-48105727D01*
X36376199Y-48105192D01*
X36391060Y-48105074D01*
X36391062Y-48105072D01*
X36400965Y-48105248D01*
X36410871Y-48105640D01*
X36420784Y-48106264D01*
X36430710Y-48107134D01*
X36440653Y-48108262D01*
X36450620Y-48109664D01*
X36460614Y-48111353D01*
X36470642Y-48113342D01*
X36660049Y-48162014D01*
X36846400Y-48220769D01*
X37030231Y-48287905D01*
X37212075Y-48361721D01*
X37571941Y-48522580D01*
X37930274Y-48689731D01*
X38291349Y-48849558D01*
X38474250Y-48922471D01*
X38659439Y-48988446D01*
X38847452Y-49045782D01*
X39038821Y-49092778D01*
X39234082Y-49127730D01*
X39433769Y-49148938D01*
X39517413Y-49141849D01*
X39600300Y-49138535D01*
X39682475Y-49138783D01*
X39763981Y-49142380D01*
X39925168Y-49158772D01*
X40084213Y-49186011D01*
X40241471Y-49222398D01*
X40397296Y-49266231D01*
X40552040Y-49315812D01*
X40706059Y-49369439D01*
X41013335Y-49482032D01*
X41321954Y-49590411D01*
X41477652Y-49638769D01*
X41634747Y-49680972D01*
X41793593Y-49715322D01*
X41954544Y-49740116D01*
X41982086Y-49744827D01*
X42011340Y-49746894D01*
X42042119Y-49746587D01*
X42074236Y-49744172D01*
X42107504Y-49739919D01*
X42141736Y-49734096D01*
X42212344Y-49718814D01*
X42356902Y-49681213D01*
X42427860Y-49663189D01*
X42495942Y-49648545D01*
X42528438Y-49643161D01*
X42559654Y-49639427D01*
X42589403Y-49637611D01*
X42617499Y-49637981D01*
X42643754Y-49640806D01*
X42667981Y-49646355D01*
X42689993Y-49654895D01*
X42709604Y-49666695D01*
X42726627Y-49682023D01*
X42740874Y-49701148D01*
X42752158Y-49724337D01*
X42760293Y-49751860D01*
X42765091Y-49783984D01*
X42766366Y-49820978D01*
X42763930Y-49863110D01*
X42757597Y-49910649D01*
X42650100Y-49946092D01*
X42539313Y-49977637D01*
X42425794Y-50006211D01*
X42310097Y-50032745D01*
X41836644Y-50137058D01*
X41718392Y-50167327D01*
X41601295Y-50201133D01*
X41485909Y-50239402D01*
X41372790Y-50283066D01*
X41262493Y-50333053D01*
X41155574Y-50390293D01*
X41052588Y-50455715D01*
X41002743Y-50491785D01*
X40954090Y-50530248D01*
X40805884Y-50678491D01*
X40649603Y-50818787D01*
X40485819Y-50950549D01*
X40315102Y-51073190D01*
X40138024Y-51186122D01*
X39955155Y-51288758D01*
X39767066Y-51380510D01*
X39574329Y-51460792D01*
X39377515Y-51529014D01*
X39177193Y-51584591D01*
X38973936Y-51626934D01*
X38768315Y-51655457D01*
X38560900Y-51669571D01*
X38352262Y-51668689D01*
X38142972Y-51652224D01*
X37933602Y-51619588D01*
X37471735Y-51467838D01*
X37238106Y-51384178D01*
X37004560Y-51294380D01*
X36772505Y-51197734D01*
X36543352Y-51093531D01*
X36318508Y-50981061D01*
X36099384Y-50859614D01*
X35887388Y-50728480D01*
X35683930Y-50586948D01*
X35490420Y-50434310D01*
X35397835Y-50353604D01*
X35308265Y-50269855D01*
X35221887Y-50182974D01*
X35138876Y-50092873D01*
X35059409Y-49999463D01*
X34983662Y-49902654D01*
X34911811Y-49802359D01*
X34844032Y-49698489D01*
X34780502Y-49590954D01*
X34760369Y-49553048D01*
X36493896Y-49553048D01*
X36901001Y-49728993D01*
X37313518Y-49898070D01*
X37731471Y-50055114D01*
X37942492Y-50127510D01*
X38154880Y-50194961D01*
X38368638Y-50256821D01*
X38583767Y-50312446D01*
X38800271Y-50361189D01*
X39018153Y-50402405D01*
X39237415Y-50435449D01*
X39458059Y-50459675D01*
X39680089Y-50474437D01*
X39903507Y-50479089D01*
X39985122Y-50484421D01*
X40076643Y-50487542D01*
X40175714Y-50487677D01*
X40279976Y-50484054D01*
X40387073Y-50475898D01*
X40494648Y-50462435D01*
X40600344Y-50442891D01*
X40651750Y-50430597D01*
X40701803Y-50416493D01*
X40750207Y-50400482D01*
X40796669Y-50382467D01*
X40840892Y-50362352D01*
X40882584Y-50340039D01*
X40921448Y-50315432D01*
X40957191Y-50288435D01*
X40989518Y-50258950D01*
X41018134Y-50226881D01*
X41042744Y-50192131D01*
X41063054Y-50154603D01*
X41078770Y-50114201D01*
X41089596Y-50070828D01*
X41095238Y-50024387D01*
X41095401Y-49974782D01*
X41089791Y-49921915D01*
X41078114Y-49865690D01*
X40845468Y-49865422D01*
X40612138Y-49857940D01*
X40378196Y-49844097D01*
X40143714Y-49824743D01*
X39673427Y-49772916D01*
X39201862Y-49709276D01*
X38257237Y-49573831D01*
X37785347Y-49515661D01*
X37314519Y-49472949D01*
X37110025Y-49494198D01*
X36904723Y-49514065D01*
X36493896Y-49553048D01*
X34760369Y-49553048D01*
X34721395Y-49479667D01*
X34704219Y-49407356D01*
G36*
X34704219Y-49407356D02*
G01*
X34694020Y-49337139D01*
X34690501Y-49269000D01*
X34693359Y-49202926D01*
X34702294Y-49138902D01*
X34717006Y-49076914D01*
X34737194Y-49016947D01*
X34762557Y-48958988D01*
X34792796Y-48903021D01*
X34827608Y-48849034D01*
X34866695Y-48797010D01*
X34909755Y-48746937D01*
X34956488Y-48698800D01*
X35006593Y-48652584D01*
X35115717Y-48565859D01*
X35234724Y-48486650D01*
X35361208Y-48414840D01*
X35492766Y-48350316D01*
X35626992Y-48292963D01*
X35761483Y-48242667D01*
X35893834Y-48199314D01*
X36021640Y-48162790D01*
X36142497Y-48132979D01*
X36175719Y-48129047D01*
X36208091Y-48124559D01*
X36270754Y-48115279D01*
X36301281Y-48111171D01*
X36331429Y-48107873D01*
X36346398Y-48106635D01*
X36361316Y-48105727D01*
X36376199Y-48105192D01*
X36391060Y-48105074D01*
X36391062Y-48105072D01*
X36400965Y-48105248D01*
X36410871Y-48105640D01*
X36420784Y-48106264D01*
X36430710Y-48107134D01*
X36440653Y-48108262D01*
X36450620Y-48109664D01*
X36460614Y-48111353D01*
X36470642Y-48113342D01*
X36660049Y-48162014D01*
X36846400Y-48220769D01*
X37030231Y-48287905D01*
X37212075Y-48361721D01*
X37571941Y-48522580D01*
X37930274Y-48689731D01*
X38291349Y-48849558D01*
X38474250Y-48922471D01*
X38659439Y-48988446D01*
X38847452Y-49045782D01*
X39038821Y-49092778D01*
X39234082Y-49127730D01*
X39433769Y-49148938D01*
X39517413Y-49141849D01*
X39600300Y-49138535D01*
X39682475Y-49138783D01*
X39763981Y-49142380D01*
X39925168Y-49158772D01*
X40084213Y-49186011D01*
X40241471Y-49222398D01*
X40397296Y-49266231D01*
X40552040Y-49315812D01*
X40706059Y-49369439D01*
X41013335Y-49482032D01*
X41321954Y-49590411D01*
X41477652Y-49638769D01*
X41634747Y-49680972D01*
X41793593Y-49715322D01*
X41954544Y-49740116D01*
X41982086Y-49744827D01*
X42011340Y-49746894D01*
X42042119Y-49746587D01*
X42074236Y-49744172D01*
X42107504Y-49739919D01*
X42141736Y-49734096D01*
X42212344Y-49718814D01*
X42356902Y-49681213D01*
X42427860Y-49663189D01*
X42495942Y-49648545D01*
X42528438Y-49643161D01*
X42559654Y-49639427D01*
X42589403Y-49637611D01*
X42617499Y-49637981D01*
X42643754Y-49640806D01*
X42667981Y-49646355D01*
X42689993Y-49654895D01*
X42709604Y-49666695D01*
X42726627Y-49682023D01*
X42740874Y-49701148D01*
X42752158Y-49724337D01*
X42760293Y-49751860D01*
X42765091Y-49783984D01*
X42766366Y-49820978D01*
X42763930Y-49863110D01*
X42757597Y-49910649D01*
X42650100Y-49946092D01*
X42539313Y-49977637D01*
X42425794Y-50006211D01*
X42310097Y-50032745D01*
X41836644Y-50137058D01*
X41718392Y-50167327D01*
X41601295Y-50201133D01*
X41485909Y-50239402D01*
X41372790Y-50283066D01*
X41262493Y-50333053D01*
X41155574Y-50390293D01*
X41052588Y-50455715D01*
X41002743Y-50491785D01*
X40954090Y-50530248D01*
X40805884Y-50678491D01*
X40649603Y-50818787D01*
X40485819Y-50950549D01*
X40315102Y-51073190D01*
X40138024Y-51186122D01*
X39955155Y-51288758D01*
X39767066Y-51380510D01*
X39574329Y-51460792D01*
X39377515Y-51529014D01*
X39177193Y-51584591D01*
X38973936Y-51626934D01*
X38768315Y-51655457D01*
X38560900Y-51669571D01*
X38352262Y-51668689D01*
X38142972Y-51652224D01*
X37933602Y-51619588D01*
X37471735Y-51467838D01*
X37238106Y-51384178D01*
X37004560Y-51294380D01*
X36772505Y-51197734D01*
X36543352Y-51093531D01*
X36318508Y-50981061D01*
X36099384Y-50859614D01*
X35887388Y-50728480D01*
X35683930Y-50586948D01*
X35490420Y-50434310D01*
X35397835Y-50353604D01*
X35308265Y-50269855D01*
X35221887Y-50182974D01*
X35138876Y-50092873D01*
X35059409Y-49999463D01*
X34983662Y-49902654D01*
X34911811Y-49802359D01*
X34844032Y-49698489D01*
X34780502Y-49590954D01*
X34760369Y-49553048D01*
X36493896Y-49553048D01*
X36901001Y-49728993D01*
X37313518Y-49898070D01*
X37731471Y-50055114D01*
X37942492Y-50127510D01*
X38154880Y-50194961D01*
X38368638Y-50256821D01*
X38583767Y-50312446D01*
X38800271Y-50361189D01*
X39018153Y-50402405D01*
X39237415Y-50435449D01*
X39458059Y-50459675D01*
X39680089Y-50474437D01*
X39903507Y-50479089D01*
X39985122Y-50484421D01*
X40076643Y-50487542D01*
X40175714Y-50487677D01*
X40279976Y-50484054D01*
X40387073Y-50475898D01*
X40494648Y-50462435D01*
X40600344Y-50442891D01*
X40651750Y-50430597D01*
X40701803Y-50416493D01*
X40750207Y-50400482D01*
X40796669Y-50382467D01*
X40840892Y-50362352D01*
X40882584Y-50340039D01*
X40921448Y-50315432D01*
X40957191Y-50288435D01*
X40989518Y-50258950D01*
X41018134Y-50226881D01*
X41042744Y-50192131D01*
X41063054Y-50154603D01*
X41078770Y-50114201D01*
X41089596Y-50070828D01*
X41095238Y-50024387D01*
X41095401Y-49974782D01*
X41089791Y-49921915D01*
X41078114Y-49865690D01*
X40845468Y-49865422D01*
X40612138Y-49857940D01*
X40378196Y-49844097D01*
X40143714Y-49824743D01*
X39673427Y-49772916D01*
X39201862Y-49709276D01*
X38257237Y-49573831D01*
X37785347Y-49515661D01*
X37314519Y-49472949D01*
X37110025Y-49494198D01*
X36904723Y-49514065D01*
X36493896Y-49553048D01*
X34760369Y-49553048D01*
X34721395Y-49479667D01*
X34704219Y-49407356D01*
G37*
X34704219Y-49407356D02*
X34694020Y-49337139D01*
X34690501Y-49269000D01*
X34693359Y-49202926D01*
X34702294Y-49138902D01*
X34717006Y-49076914D01*
X34737194Y-49016947D01*
X34762557Y-48958988D01*
X34792796Y-48903021D01*
X34827608Y-48849034D01*
X34866695Y-48797010D01*
X34909755Y-48746937D01*
X34956488Y-48698800D01*
X35006593Y-48652584D01*
X35115717Y-48565859D01*
X35234724Y-48486650D01*
X35361208Y-48414840D01*
X35492766Y-48350316D01*
X35626992Y-48292963D01*
X35761483Y-48242667D01*
X35893834Y-48199314D01*
X36021640Y-48162790D01*
X36142497Y-48132979D01*
X36175719Y-48129047D01*
X36208091Y-48124559D01*
X36270754Y-48115279D01*
X36301281Y-48111171D01*
X36331429Y-48107873D01*
X36346398Y-48106635D01*
X36361316Y-48105727D01*
X36376199Y-48105192D01*
X36391060Y-48105074D01*
X36391062Y-48105072D01*
X36400965Y-48105248D01*
X36410871Y-48105640D01*
X36420784Y-48106264D01*
X36430710Y-48107134D01*
X36440653Y-48108262D01*
X36450620Y-48109664D01*
X36460614Y-48111353D01*
X36470642Y-48113342D01*
X36660049Y-48162014D01*
X36846400Y-48220769D01*
X37030231Y-48287905D01*
X37212075Y-48361721D01*
X37571941Y-48522580D01*
X37930274Y-48689731D01*
X38291349Y-48849558D01*
X38474250Y-48922471D01*
X38659439Y-48988446D01*
X38847452Y-49045782D01*
X39038821Y-49092778D01*
X39234082Y-49127730D01*
X39433769Y-49148938D01*
X39517413Y-49141849D01*
X39600300Y-49138535D01*
X39682475Y-49138783D01*
X39763981Y-49142380D01*
X39925168Y-49158772D01*
X40084213Y-49186011D01*
X40241471Y-49222398D01*
X40397296Y-49266231D01*
X40552040Y-49315812D01*
X40706059Y-49369439D01*
X41013335Y-49482032D01*
X41321954Y-49590411D01*
X41477652Y-49638769D01*
X41634747Y-49680972D01*
X41793593Y-49715322D01*
X41954544Y-49740116D01*
X41982086Y-49744827D01*
X42011340Y-49746894D01*
X42042119Y-49746587D01*
X42074236Y-49744172D01*
X42107504Y-49739919D01*
X42141736Y-49734096D01*
X42212344Y-49718814D01*
X42356902Y-49681213D01*
X42427860Y-49663189D01*
X42495942Y-49648545D01*
X42528438Y-49643161D01*
X42559654Y-49639427D01*
X42589403Y-49637611D01*
X42617499Y-49637981D01*
X42643754Y-49640806D01*
X42667981Y-49646355D01*
X42689993Y-49654895D01*
X42709604Y-49666695D01*
X42726627Y-49682023D01*
X42740874Y-49701148D01*
X42752158Y-49724337D01*
X42760293Y-49751860D01*
X42765091Y-49783984D01*
X42766366Y-49820978D01*
X42763930Y-49863110D01*
X42757597Y-49910649D01*
X42650100Y-49946092D01*
X42539313Y-49977637D01*
X42425794Y-50006211D01*
X42310097Y-50032745D01*
X41836644Y-50137058D01*
X41718392Y-50167327D01*
X41601295Y-50201133D01*
X41485909Y-50239402D01*
X41372790Y-50283066D01*
X41262493Y-50333053D01*
X41155574Y-50390293D01*
X41052588Y-50455715D01*
X41002743Y-50491785D01*
X40954090Y-50530248D01*
X40805884Y-50678491D01*
X40649603Y-50818787D01*
X40485819Y-50950549D01*
X40315102Y-51073190D01*
X40138024Y-51186122D01*
X39955155Y-51288758D01*
X39767066Y-51380510D01*
X39574329Y-51460792D01*
X39377515Y-51529014D01*
X39177193Y-51584591D01*
X38973936Y-51626934D01*
X38768315Y-51655457D01*
X38560900Y-51669571D01*
X38352262Y-51668689D01*
X38142972Y-51652224D01*
X37933602Y-51619588D01*
X37471735Y-51467838D01*
X37238106Y-51384178D01*
X37004560Y-51294380D01*
X36772505Y-51197734D01*
X36543352Y-51093531D01*
X36318508Y-50981061D01*
X36099384Y-50859614D01*
X35887388Y-50728480D01*
X35683930Y-50586948D01*
X35490420Y-50434310D01*
X35397835Y-50353604D01*
X35308265Y-50269855D01*
X35221887Y-50182974D01*
X35138876Y-50092873D01*
X35059409Y-49999463D01*
X34983662Y-49902654D01*
X34911811Y-49802359D01*
X34844032Y-49698489D01*
X34780502Y-49590954D01*
X34760369Y-49553048D01*
X36493896Y-49553048D01*
X36901001Y-49728993D01*
X37313518Y-49898070D01*
X37731471Y-50055114D01*
X37942492Y-50127510D01*
X38154880Y-50194961D01*
X38368638Y-50256821D01*
X38583767Y-50312446D01*
X38800271Y-50361189D01*
X39018153Y-50402405D01*
X39237415Y-50435449D01*
X39458059Y-50459675D01*
X39680089Y-50474437D01*
X39903507Y-50479089D01*
X39985122Y-50484421D01*
X40076643Y-50487542D01*
X40175714Y-50487677D01*
X40279976Y-50484054D01*
X40387073Y-50475898D01*
X40494648Y-50462435D01*
X40600344Y-50442891D01*
X40651750Y-50430597D01*
X40701803Y-50416493D01*
X40750207Y-50400482D01*
X40796669Y-50382467D01*
X40840892Y-50362352D01*
X40882584Y-50340039D01*
X40921448Y-50315432D01*
X40957191Y-50288435D01*
X40989518Y-50258950D01*
X41018134Y-50226881D01*
X41042744Y-50192131D01*
X41063054Y-50154603D01*
X41078770Y-50114201D01*
X41089596Y-50070828D01*
X41095238Y-50024387D01*
X41095401Y-49974782D01*
X41089791Y-49921915D01*
X41078114Y-49865690D01*
X40845468Y-49865422D01*
X40612138Y-49857940D01*
X40378196Y-49844097D01*
X40143714Y-49824743D01*
X39673427Y-49772916D01*
X39201862Y-49709276D01*
X38257237Y-49573831D01*
X37785347Y-49515661D01*
X37314519Y-49472949D01*
X37110025Y-49494198D01*
X36904723Y-49514065D01*
X36493896Y-49553048D01*
X34760369Y-49553048D01*
X34721395Y-49479667D01*
X34704219Y-49407356D01*
D11*
%TO.C,R1*%
X111406398Y-55820853D03*
D12*
X118590603Y-48636648D03*
%TD*%
D13*
%TO.C,MX22*%
X137636250Y-109537500D03*
D14*
X128746250Y-106997500D03*
D15*
X132556250Y-109537500D03*
D14*
X135096250Y-104457500D03*
D13*
X127476250Y-109537500D03*
%TD*%
D16*
%TO.C,D26*%
X212725000Y-49281250D03*
D11*
X212725000Y-57081250D03*
%TD*%
D14*
%TO.C,MX14*%
X143033750Y-87947500D03*
D13*
X151923750Y-90487500D03*
D15*
X146843750Y-90487500D03*
D13*
X141763750Y-90487500D03*
D14*
X149383750Y-85407500D03*
%TD*%
D15*
%TO.C,MX2*%
X75406250Y-66675000D03*
D14*
X77946250Y-61595000D03*
D13*
X70326250Y-66675000D03*
X80486250Y-66675000D03*
D14*
X71596250Y-64135000D03*
%TD*%
D15*
%TO.C,MX24*%
X170656250Y-109537500D03*
D13*
X165576250Y-109537500D03*
D14*
X173196250Y-104457500D03*
D13*
X175736250Y-109537500D03*
D14*
X166846250Y-106997500D03*
%TD*%
D17*
%TO.C,SW1*%
X32543750Y-61075000D03*
X32543750Y-72275000D03*
D18*
X25043750Y-64175000D03*
D19*
X25043750Y-69175000D03*
X25043750Y-66675000D03*
X39543750Y-69175000D03*
X39543750Y-64175000D03*
%TD*%
D13*
%TO.C,MX34*%
X194151250Y-128587500D03*
D14*
X201771250Y-123507500D03*
X195421250Y-126047500D03*
D15*
X199231250Y-128587500D03*
D13*
X204311250Y-128587500D03*
%TD*%
D15*
%TO.C,MX15*%
X165893750Y-90487500D03*
D14*
X162083750Y-87947500D03*
D13*
X170973750Y-90487500D03*
D14*
X168433750Y-85407500D03*
D13*
X160813750Y-90487500D03*
%TD*%
D16*
%TO.C,D25*%
X193675000Y-49281250D03*
D11*
X193675000Y-57081250D03*
%TD*%
D13*
%TO.C,MX43*%
X213836250Y-147637500D03*
D15*
X208756250Y-147637500D03*
D20*
X220694250Y-154622500D03*
D14*
X211296250Y-142557500D03*
X204946250Y-145097500D03*
D20*
X196818250Y-154622500D03*
D15*
X220694250Y-139382500D03*
D13*
X203676250Y-147637500D03*
D15*
X196818250Y-139382500D03*
%TD*%
%TO.C,MX18*%
X37306250Y-109537500D03*
D13*
X32226250Y-109537500D03*
X42386250Y-109537500D03*
D14*
X39846250Y-104457500D03*
X33496250Y-106997500D03*
%TD*%
D16*
%TO.C,D8*%
X206375000Y-47693750D03*
D11*
X206375000Y-55493750D03*
%TD*%
D13*
%TO.C,MX7*%
X170338750Y-71437500D03*
D14*
X177958750Y-66357500D03*
X171608750Y-68897500D03*
D15*
X175418750Y-71437500D03*
D13*
X180498750Y-71437500D03*
%TD*%
D11*
%TO.C,R2*%
X115978398Y-55820853D03*
D12*
X123162603Y-48636648D03*
%TD*%
D16*
%TO.C,D5*%
X149225000Y-47693750D03*
D11*
X149225000Y-55493750D03*
%TD*%
D13*
%TO.C,MX26*%
X203676250Y-109537500D03*
D15*
X208756250Y-109537500D03*
D13*
X213836250Y-109537500D03*
D14*
X204946250Y-106997500D03*
X211296250Y-104457500D03*
%TD*%
D16*
%TO.C,D32*%
X158750000Y-50075000D03*
D11*
X158750000Y-57875000D03*
%TD*%
D13*
%TO.C,MX10*%
X51276250Y-90487500D03*
D14*
X52546250Y-87947500D03*
D13*
X61436250Y-90487500D03*
D14*
X58896250Y-85407500D03*
D15*
X56356250Y-90487500D03*
%TD*%
D14*
%TO.C,MX11*%
X77946250Y-85407500D03*
D15*
X75406250Y-90487500D03*
D14*
X71596250Y-87947500D03*
D13*
X70326250Y-90487500D03*
X80486250Y-90487500D03*
%TD*%
D14*
%TO.C,MX27*%
X39846250Y-123507500D03*
D15*
X37306250Y-128587500D03*
D13*
X42386250Y-128587500D03*
X32226250Y-128587500D03*
D14*
X33496250Y-126047500D03*
%TD*%
D16*
%TO.C,D35*%
X215900000Y-50075000D03*
D11*
X215900000Y-57875000D03*
%TD*%
D16*
%TO.C,D44*%
X219075000Y-50868750D03*
D11*
X219075000Y-58668750D03*
%TD*%
D14*
%TO.C,MX25*%
X185896250Y-106997500D03*
X192246250Y-104457500D03*
D13*
X194786250Y-109537500D03*
X184626250Y-109537500D03*
D15*
X189706250Y-109537500D03*
%TD*%
D13*
%TO.C,MX21*%
X111442500Y-109537500D03*
D15*
X106362500Y-109537500D03*
D13*
X101282500Y-109537500D03*
D14*
X110172500Y-112077500D03*
X103822500Y-114617500D03*
%TD*%
%TO.C,MX37*%
X52546250Y-145097500D03*
D13*
X51276250Y-147637500D03*
X61436250Y-147637500D03*
D14*
X58896250Y-142557500D03*
D15*
X56356250Y-147637500D03*
%TD*%
D16*
%TO.C,D41*%
X161925000Y-50868750D03*
D11*
X161925000Y-58668750D03*
%TD*%
D13*
%TO.C,MX13*%
X132873750Y-90487500D03*
D14*
X123983750Y-87947500D03*
D15*
X127793750Y-90487500D03*
D13*
X122713750Y-90487500D03*
D14*
X130333750Y-85407500D03*
%TD*%
%TO.C,MX35*%
X220821250Y-123507500D03*
X214471250Y-126047500D03*
D13*
X213201250Y-128587500D03*
D15*
X218281250Y-128587500D03*
D13*
X223361250Y-128587500D03*
%TD*%
D21*
%TO.C,U1*%
X29845000Y-78105000D03*
X29845000Y-75565000D03*
X32385000Y-78105000D03*
X32385000Y-75565000D03*
D22*
X34925000Y-78105000D03*
X34925000Y-75565000D03*
D21*
X37465000Y-78105000D03*
X37465000Y-75565000D03*
X40005000Y-75565000D03*
X40005000Y-78105000D03*
X42545000Y-75565000D03*
X42545000Y-78105000D03*
X45085000Y-75565000D03*
X45085000Y-78105000D03*
D22*
X47625000Y-75565000D03*
X47625000Y-78105000D03*
D21*
X50165000Y-75565000D03*
X50165000Y-78105000D03*
X52705000Y-75565000D03*
X52705000Y-78105000D03*
X55245000Y-75565000D03*
X55245000Y-78105000D03*
X57785000Y-78105000D03*
X57785000Y-75565000D03*
D22*
X60325000Y-75565000D03*
X60325000Y-78105000D03*
D21*
X62865000Y-75565000D03*
X62865000Y-78105000D03*
X65405000Y-75565000D03*
X65405000Y-78105000D03*
X67945000Y-75565000D03*
X67945000Y-78105000D03*
X70485000Y-75565000D03*
X70485000Y-78105000D03*
D22*
X73025000Y-75565000D03*
X73025000Y-78105000D03*
D21*
X75565000Y-75565000D03*
X75565000Y-78105000D03*
X78105000Y-78105000D03*
X78105000Y-75565000D03*
X78105000Y-57785000D03*
X78105000Y-55245000D03*
X75565000Y-55245000D03*
X75565000Y-57785000D03*
D22*
X73025000Y-57785000D03*
X73025000Y-55245000D03*
D21*
X70485000Y-55245000D03*
X70485000Y-57785000D03*
X67945000Y-55245000D03*
X67945000Y-57785000D03*
X65405000Y-55245000D03*
X65405000Y-57785000D03*
X62865000Y-55245000D03*
X62865000Y-57785000D03*
D22*
X60325000Y-57785000D03*
X60325000Y-55245000D03*
D21*
X57785000Y-57785000D03*
X57785000Y-55245000D03*
X55245000Y-55245000D03*
X55245000Y-57785000D03*
X52705000Y-55245000D03*
X52705000Y-57785000D03*
X50165000Y-55245000D03*
X50165000Y-57785000D03*
D22*
X47625000Y-55245000D03*
X47625000Y-57785000D03*
D21*
X45085000Y-55245000D03*
X45085000Y-57785000D03*
X42545000Y-57785000D03*
X42545000Y-55245000D03*
X40005000Y-57785000D03*
X40005000Y-55245000D03*
X37465000Y-57785000D03*
X37465000Y-55245000D03*
D22*
X34925000Y-55245000D03*
X34925000Y-57785000D03*
D21*
X32385000Y-55245000D03*
X32385000Y-57785000D03*
X29845000Y-57785000D03*
X29845000Y-55245000D03*
%TD*%
D13*
%TO.C,MX28*%
X61436250Y-128587500D03*
D14*
X52546250Y-126047500D03*
X58896250Y-123507500D03*
D13*
X51276250Y-128587500D03*
D15*
X56356250Y-128587500D03*
%TD*%
D16*
%TO.C,D42*%
X180975000Y-50868750D03*
D11*
X180975000Y-58668750D03*
%TD*%
D16*
%TO.C,D33*%
X177800000Y-50075000D03*
D11*
X177800000Y-57875000D03*
%TD*%
D23*
%TO.C,SW2*%
X37978000Y-72475000D03*
X37978000Y-60875000D03*
D19*
X37040500Y-64175000D03*
X37040500Y-69175000D03*
X37040500Y-66675000D03*
%TD*%
D14*
%TO.C,MX21_1*%
X104140000Y-104457500D03*
X97790000Y-106997500D03*
D15*
X101600000Y-109537500D03*
D13*
X106680000Y-109537500D03*
X96520000Y-109537500D03*
%TD*%
D16*
%TO.C,D14*%
X152400000Y-48487500D03*
D11*
X152400000Y-56287500D03*
%TD*%
D15*
%TO.C,MX3*%
X99218750Y-71437500D03*
D13*
X94138750Y-71437500D03*
X104298750Y-71437500D03*
D14*
X101758750Y-66357500D03*
X95408750Y-68897500D03*
%TD*%
D16*
%TO.C,D7*%
X187325000Y-47693750D03*
D11*
X187325000Y-55493750D03*
%TD*%
D15*
%TO.C,MX9*%
X37306250Y-90487500D03*
D13*
X32226250Y-90487500D03*
X42386250Y-90487500D03*
D14*
X33496250Y-87947500D03*
X39846250Y-85407500D03*
%TD*%
D13*
%TO.C,MX1*%
X51276250Y-66675000D03*
X61436250Y-66675000D03*
D15*
X56356250Y-66675000D03*
D14*
X58896250Y-61595000D03*
X52546250Y-64135000D03*
%TD*%
D13*
%TO.C,MX32*%
X166211250Y-128587500D03*
D15*
X161131250Y-128587500D03*
D13*
X156051250Y-128587500D03*
D14*
X157321250Y-126047500D03*
X163671250Y-123507500D03*
%TD*%
D16*
%TO.C,D17*%
X209550000Y-48487500D03*
D11*
X209550000Y-56287500D03*
%TD*%
D16*
%TO.C,D6*%
X168275000Y-47693750D03*
D11*
X168275000Y-55493750D03*
%TD*%
D16*
%TO.C,D23*%
X155575000Y-49281250D03*
D11*
X155575000Y-57081250D03*
%TD*%
D15*
%TO.C,MX40*%
X130175000Y-147637500D03*
D14*
X132715000Y-142557500D03*
X126365000Y-145097500D03*
D13*
X125095000Y-147637500D03*
X135255000Y-147637500D03*
%TD*%
%TO.C,MX5*%
X142398750Y-71437500D03*
D15*
X137318750Y-71437500D03*
D13*
X132238750Y-71437500D03*
D14*
X139858750Y-66357500D03*
X133508750Y-68897500D03*
%TD*%
%TO.C,MX39*%
X106521250Y-142557500D03*
D13*
X98901250Y-147637500D03*
X109061250Y-147637500D03*
D15*
X103981250Y-147637500D03*
D14*
X100171250Y-145097500D03*
%TD*%
%TO.C,MX16*%
X187483750Y-85407500D03*
D15*
X184943750Y-90487500D03*
D13*
X190023750Y-90487500D03*
X179863750Y-90487500D03*
D14*
X181133750Y-87947500D03*
%TD*%
D13*
%TO.C,MX38*%
X70326250Y-147637500D03*
X80486250Y-147637500D03*
D15*
X75406250Y-147637500D03*
D14*
X71596250Y-145097500D03*
X77946250Y-142557500D03*
%TD*%
D16*
%TO.C,D16*%
X190500000Y-48487500D03*
D11*
X190500000Y-56287500D03*
%TD*%
D13*
%TO.C,MX31*%
X137001250Y-128587500D03*
D14*
X144621250Y-123507500D03*
D13*
X147161250Y-128587500D03*
D14*
X138271250Y-126047500D03*
D15*
X142081250Y-128587500D03*
%TD*%
D13*
%TO.C,MX8*%
X199548750Y-71437500D03*
D14*
X190658750Y-68897500D03*
D15*
X194468750Y-71437500D03*
D13*
X189388750Y-71437500D03*
D14*
X197008750Y-66357500D03*
%TD*%
D13*
%TO.C,MX41*%
X148907500Y-147637500D03*
X159067500Y-147637500D03*
D14*
X156527500Y-142557500D03*
X150177500Y-145097500D03*
D15*
X153987500Y-147637500D03*
%TD*%
%TO.C,MX20*%
X75406250Y-109537500D03*
D14*
X71596250Y-106997500D03*
D13*
X70326250Y-109537500D03*
X80486250Y-109537500D03*
D14*
X77946250Y-104457500D03*
%TD*%
%TO.C,MX17*%
X206533750Y-85407500D03*
D15*
X203993750Y-90487500D03*
D14*
X200183750Y-87947500D03*
D13*
X198913750Y-90487500D03*
X209073750Y-90487500D03*
%TD*%
%TO.C,MX4*%
X113188750Y-71437500D03*
D14*
X114458750Y-68897500D03*
D15*
X118268750Y-71437500D03*
D13*
X123348750Y-71437500D03*
D14*
X120808750Y-66357500D03*
%TD*%
D16*
%TO.C,D24*%
X174625000Y-49281250D03*
D11*
X174625000Y-57081250D03*
%TD*%
D15*
%TO.C,MX42*%
X177800000Y-147637500D03*
D14*
X173990000Y-145097500D03*
D13*
X172720000Y-147637500D03*
X182880000Y-147637500D03*
D14*
X180340000Y-142557500D03*
%TD*%
D13*
%TO.C,MX23*%
X146526250Y-109537500D03*
X156686250Y-109537500D03*
D15*
X151606250Y-109537500D03*
D14*
X154146250Y-104457500D03*
X147796250Y-106997500D03*
%TD*%
D13*
%TO.C,MX33*%
X185261250Y-128587500D03*
D14*
X182721250Y-123507500D03*
X176371250Y-126047500D03*
D13*
X175101250Y-128587500D03*
D15*
X180181250Y-128587500D03*
%TD*%
D14*
%TO.C,MX36*%
X33496250Y-145097500D03*
D13*
X42386250Y-147637500D03*
D14*
X39846250Y-142557500D03*
D15*
X37306250Y-147637500D03*
D13*
X32226250Y-147637500D03*
%TD*%
D16*
%TO.C,D34*%
X196850000Y-50075000D03*
D11*
X196850000Y-57875000D03*
%TD*%
D14*
%TO.C,MX12*%
X100171250Y-87947500D03*
D15*
X103981250Y-90487500D03*
D13*
X98901250Y-90487500D03*
D14*
X106521250Y-85407500D03*
D13*
X109061250Y-90487500D03*
%TD*%
D16*
%TO.C,D43*%
X200025000Y-50868750D03*
D11*
X200025000Y-58668750D03*
%TD*%
D13*
%TO.C,MX30*%
X106045000Y-128587500D03*
D20*
X123063000Y-121602500D03*
D15*
X111125000Y-128587500D03*
X99187000Y-136842500D03*
D20*
X99187000Y-121602500D03*
D14*
X107315000Y-126047500D03*
D13*
X116205000Y-128587500D03*
D14*
X113665000Y-123507500D03*
D15*
X123063000Y-136842500D03*
%TD*%
D14*
%TO.C,MX29*%
X77946250Y-123507500D03*
D13*
X70326250Y-128587500D03*
X80486250Y-128587500D03*
D15*
X75406250Y-128587500D03*
D14*
X71596250Y-126047500D03*
%TD*%
D16*
%TO.C,D15*%
X171450000Y-48487500D03*
D11*
X171450000Y-56287500D03*
%TD*%
D13*
%TO.C,MX19*%
X61436250Y-109537500D03*
D14*
X52546250Y-106997500D03*
X58896250Y-104457500D03*
D13*
X51276250Y-109537500D03*
D15*
X56356250Y-109537500D03*
%TD*%
%TO.C,MX6*%
X156368750Y-71437500D03*
D13*
X161448750Y-71437500D03*
D14*
X158908750Y-66357500D03*
X152558750Y-68897500D03*
D13*
X151288750Y-71437500D03*
%TD*%
D15*
%TO.C,MX44*%
X213518750Y-71437500D03*
D13*
X208438750Y-71437500D03*
D14*
X216058750Y-66357500D03*
X209708750Y-68897500D03*
D13*
X218598750Y-71437500D03*
%TD*%
D24*
%TO.C,J3*%
X26193750Y-84137500D03*
D21*
X26193750Y-86677500D03*
X26193750Y-89217500D03*
X26193750Y-91757500D03*
X26193750Y-94297500D03*
X26193750Y-96837500D03*
%TD*%
D25*
%TO.C,J2*%
X91710749Y-62211049D03*
X81457701Y-51958001D03*
X84498260Y-48068914D03*
X95599836Y-59170490D03*
%TD*%
D24*
%TO.C,J1*%
X126503750Y-47793750D03*
D21*
X129043750Y-47793750D03*
X126503750Y-50333750D03*
X129043750Y-50333750D03*
X126503750Y-52873750D03*
X129043750Y-52873750D03*
X126503750Y-55413750D03*
X129043750Y-55413750D03*
%TD*%
D26*
X49276000Y-71183500D03*
X89562980Y-94134980D03*
X89535000Y-78994000D03*
X89545250Y-117718750D03*
X89581730Y-132253730D03*
X79724250Y-56451500D03*
X89570520Y-155102520D03*
X46228000Y-115824000D03*
X109061250Y-80962500D03*
X164941250Y-55562500D03*
X63341250Y-111442500D03*
X185261250Y-111442500D03*
X53181250Y-141922500D03*
X32861250Y-131762500D03*
X154781250Y-65722500D03*
X114141250Y-65722500D03*
X175101250Y-121602500D03*
X134461250Y-50482500D03*
X37941250Y-136842500D03*
X65532000Y-115722400D03*
X134461250Y-55562500D03*
X185261250Y-136842500D03*
X220821250Y-152082500D03*
X32861250Y-136842500D03*
X66243200Y-95250000D03*
X200501250Y-136842500D03*
X164941250Y-111442500D03*
X154781250Y-91122500D03*
X47142400Y-133350000D03*
X175101250Y-141922500D03*
X25241250Y-116522500D03*
X139541250Y-50482500D03*
X155244800Y-95504000D03*
X93821250Y-141922500D03*
X190341250Y-65722500D03*
X83661250Y-147002500D03*
X53181250Y-60642500D03*
X98901250Y-141922500D03*
X27368500Y-80581500D03*
X210661250Y-121602500D03*
X88741250Y-70802500D03*
X99568000Y-152400000D03*
X180181250Y-80962500D03*
X93821250Y-147002500D03*
X25241250Y-106362500D03*
X144621250Y-101282500D03*
X25241250Y-101282500D03*
X175101250Y-136842500D03*
X190042800Y-133451600D03*
X170021250Y-106362500D03*
X144621250Y-70802500D03*
X65379600Y-153873200D03*
X94742000Y-76200000D03*
X103981250Y-80962500D03*
X93821250Y-86042500D03*
X185261250Y-60642500D03*
X25241250Y-60642500D03*
X73501250Y-121602500D03*
X78581250Y-126682500D03*
X25241250Y-121602500D03*
X195421250Y-121602500D03*
X83661250Y-126682500D03*
X43021250Y-136842500D03*
X189941200Y-77470000D03*
X37941250Y-106362500D03*
X139541250Y-121602500D03*
X139541250Y-111442500D03*
X202946000Y-76200000D03*
X215741250Y-60642500D03*
X68421250Y-111442500D03*
X170021250Y-136842500D03*
X114141250Y-147002500D03*
X186639200Y-153974800D03*
X175101250Y-111442500D03*
X80735334Y-58025536D03*
X63341250Y-136842500D03*
X134461250Y-65722500D03*
X32861250Y-141922500D03*
X134461250Y-136842500D03*
X139541250Y-136842500D03*
X164941250Y-80962500D03*
X154781250Y-136842500D03*
X73501250Y-60642500D03*
X124301250Y-126682500D03*
X78581250Y-136842500D03*
X220821250Y-147002500D03*
X144621250Y-147002500D03*
X144621250Y-80962500D03*
X185261250Y-101282500D03*
X83661250Y-91122500D03*
X210661250Y-65722500D03*
X103981250Y-121602500D03*
X209296000Y-133350000D03*
X108712000Y-95402400D03*
X103981250Y-86042500D03*
X204114400Y-115519200D03*
X63341250Y-147002500D03*
X84277200Y-153873200D03*
X43021250Y-111442500D03*
X98901250Y-126682500D03*
X113665000Y-77597000D03*
X63341250Y-91122500D03*
X58261250Y-136842500D03*
X164941250Y-141922500D03*
X98901250Y-80962500D03*
X190341250Y-101282500D03*
X190341250Y-106362500D03*
X160578800Y-115824000D03*
X193344800Y-95554800D03*
X71211500Y-71830588D03*
X154781250Y-80962500D03*
X107759500Y-68643500D03*
X42264964Y-71443214D03*
X119221250Y-80962500D03*
X47294800Y-95250000D03*
X205581250Y-136842500D03*
X51943000Y-152400000D03*
X172593000Y-74676000D03*
X205581250Y-101282500D03*
X139541250Y-80962500D03*
X25241250Y-111442500D03*
X114141250Y-91122500D03*
X103981250Y-136842500D03*
X154781250Y-111442500D03*
X103981250Y-141922500D03*
X200501250Y-101282500D03*
X154781250Y-101282500D03*
X83661250Y-111442500D03*
X144621250Y-86042500D03*
X170789600Y-77520800D03*
X93821250Y-136842500D03*
X149701250Y-141922500D03*
X93821250Y-121602500D03*
X199072500Y-109537500D03*
X53181250Y-111442500D03*
X200501250Y-80962500D03*
X210661250Y-136842500D03*
X25241250Y-126682500D03*
X149701250Y-136842500D03*
X129381250Y-126682500D03*
X171145200Y-133400800D03*
X25241250Y-152082500D03*
X215741250Y-147002500D03*
X154781250Y-121602500D03*
X205581250Y-80962500D03*
X151993600Y-133451600D03*
X109061250Y-116522500D03*
X73501250Y-141922500D03*
X114141250Y-136842500D03*
X205581250Y-141922500D03*
X73501250Y-86042500D03*
X159861250Y-121602500D03*
X129381250Y-80962500D03*
X73501250Y-136842500D03*
X30321250Y-152082500D03*
X125679200Y-152450800D03*
X129381250Y-111442500D03*
X53181250Y-136842500D03*
X124301250Y-80962500D03*
X180181250Y-136842500D03*
X149606000Y-152298400D03*
X164941250Y-101282500D03*
X215741250Y-152082500D03*
X63341250Y-126682500D03*
X68516500Y-68389500D03*
X83661250Y-136842500D03*
X83921600Y-74320400D03*
X132588000Y-77470000D03*
X170021250Y-65722500D03*
X119221250Y-106362500D03*
X43021250Y-126682500D03*
X32861250Y-116522500D03*
X164941250Y-147002500D03*
X134461250Y-121602500D03*
X173278800Y-152349200D03*
X175101250Y-65722500D03*
X129381250Y-141922500D03*
X53689250Y-70167500D03*
X144621250Y-111442500D03*
X138633200Y-153974800D03*
X124301250Y-116522500D03*
X159861250Y-80962500D03*
X164941250Y-86042500D03*
X78581250Y-111442500D03*
X71120000Y-152273000D03*
X139541250Y-147002500D03*
X195421250Y-147002500D03*
X129381250Y-121602500D03*
X149701250Y-101282500D03*
X29921200Y-97028000D03*
X195421250Y-80962500D03*
X207721200Y-118313200D03*
X51117794Y-71470222D03*
X25241250Y-141922500D03*
X149701250Y-65722500D03*
X190341250Y-141922500D03*
X144621250Y-141922500D03*
X201930000Y-69215000D03*
X190341250Y-147002500D03*
X144621250Y-55562500D03*
X53181250Y-121602500D03*
X170021250Y-101282500D03*
X93821250Y-80962500D03*
X94894400Y-95250000D03*
X159861250Y-111442500D03*
X37941250Y-121602500D03*
X78581250Y-91122500D03*
X25241250Y-131762500D03*
X114141250Y-116522500D03*
X185261250Y-147002500D03*
X32861250Y-121602500D03*
X93821250Y-126682500D03*
X119221250Y-136842500D03*
X180181250Y-101282500D03*
X119221250Y-126682500D03*
X185261250Y-55562500D03*
X185261250Y-80962500D03*
X119221250Y-116522500D03*
X109061250Y-121602500D03*
X163017200Y-153924000D03*
X65074800Y-73050400D03*
X119221250Y-141922500D03*
X71755000Y-49657000D03*
X195421250Y-60642500D03*
X91694000Y-115671600D03*
X141528800Y-115824000D03*
X180181250Y-121602500D03*
X25241250Y-136842500D03*
X151739600Y-77520800D03*
X205740000Y-113080800D03*
X25241250Y-147002500D03*
X119221250Y-111442500D03*
X66243200Y-133400800D03*
X25241250Y-55562500D03*
X114141250Y-106362500D03*
X174040800Y-95402400D03*
X48101250Y-60642500D03*
X46482000Y-153822400D03*
X109061250Y-136842500D03*
X159861250Y-136842500D03*
X179527200Y-115773200D03*
X53181250Y-91122500D03*
X204317600Y-152450800D03*
X175101250Y-80962500D03*
X78581250Y-65722500D03*
X205581250Y-111442500D03*
X215741250Y-136842500D03*
X135737600Y-95453200D03*
X93821250Y-91122500D03*
X112928400Y-153873200D03*
X119221250Y-147002500D03*
X126567679Y-75120500D03*
X127349250Y-82487500D03*
X86911819Y-101600000D03*
X137255250Y-101537500D03*
X86901130Y-82776000D03*
X86963250Y-81216500D03*
X142462250Y-119697500D03*
X87630000Y-119761000D03*
X88392000Y-139700000D03*
X88362171Y-80514250D03*
X141287500Y-138112500D03*
X48418750Y-142875000D03*
X48418750Y-104775000D03*
X47535464Y-66542286D03*
X48418750Y-123825000D03*
X48418750Y-85725000D03*
X88132286Y-67188714D03*
X67468750Y-142875000D03*
X67468750Y-123825000D03*
X67468750Y-104775000D03*
X87381714Y-68966714D03*
X67468750Y-85725000D03*
X59658250Y-69151500D03*
X91313000Y-80010000D03*
X93662500Y-104775000D03*
X96043750Y-85725000D03*
X96043750Y-142875000D03*
X91281250Y-71437500D03*
X114300000Y-114300000D03*
X103187500Y-123825000D03*
X110331250Y-71437500D03*
X134143750Y-123825000D03*
X122237500Y-142875000D03*
X119856250Y-85725000D03*
X86649500Y-65722500D03*
X124618750Y-104775000D03*
X143668750Y-104775000D03*
X138906250Y-85725000D03*
X153193750Y-123825000D03*
X85923000Y-64706500D03*
X146050000Y-142875000D03*
X129381250Y-66675000D03*
X148431250Y-66675000D03*
X157956250Y-85725000D03*
X172243750Y-123825000D03*
X169862500Y-142875000D03*
X85196500Y-63563500D03*
X162718750Y-104775000D03*
X200818750Y-142875000D03*
X167481250Y-66675000D03*
X84470000Y-62420500D03*
X191293750Y-123825000D03*
X177006250Y-85725000D03*
X181768750Y-104775000D03*
X210343750Y-123825000D03*
X198267921Y-73807921D03*
X200818750Y-104775000D03*
X196215000Y-85725000D03*
X83743500Y-61404500D03*
X36766500Y-81625500D03*
X88858038Y-65347214D03*
X46196250Y-69024500D03*
X145256250Y-64293750D03*
X164306250Y-64293750D03*
X183356250Y-64293750D03*
X151606250Y-82550000D03*
X170656250Y-82550000D03*
X189706250Y-82550000D03*
X208756250Y-82550000D03*
X156368750Y-101600000D03*
X175418750Y-101600000D03*
X194468750Y-101600000D03*
X210248500Y-101536500D03*
X165893750Y-120650000D03*
X184943750Y-120650000D03*
X203993750Y-120650000D03*
X215900000Y-120650000D03*
X161131250Y-139700000D03*
X184943750Y-139700000D03*
X213518750Y-139700000D03*
X80568615Y-54813385D03*
X43831172Y-71389578D03*
X54478082Y-53812317D03*
X43942000Y-69187000D03*
X39751000Y-150749000D03*
M02*
