%TF.GenerationSoftware,KiCad,Pcbnew,(6.0.5)*%
%TF.CreationDate,2022-07-29T16:13:47-06:00*%
%TF.ProjectId,kb,6b622e6b-6963-4616-945f-706362585858,rev?*%
%TF.SameCoordinates,Original*%
%TF.FileFunction,Soldermask,Bot*%
%TF.FilePolarity,Negative*%
%FSLAX46Y46*%
G04 Gerber Fmt 4.6, Leading zero omitted, Abs format (unit mm)*
G04 Created by KiCad (PCBNEW (6.0.5)) date 2022-07-29 16:13:47*
%MOMM*%
%LPD*%
G01*
G04 APERTURE LIST*
G04 Aperture macros list*
%AMRoundRect*
0 Rectangle with rounded corners*
0 $1 Rounding radius*
0 $2 $3 $4 $5 $6 $7 $8 $9 X,Y pos of 4 corners*
0 Add a 4 corners polygon primitive as box body*
4,1,4,$2,$3,$4,$5,$6,$7,$8,$9,$2,$3,0*
0 Add four circle primitives for the rounded corners*
1,1,$1+$1,$2,$3*
1,1,$1+$1,$4,$5*
1,1,$1+$1,$6,$7*
1,1,$1+$1,$8,$9*
0 Add four rect primitives between the rounded corners*
20,1,$1+$1,$2,$3,$4,$5,0*
20,1,$1+$1,$4,$5,$6,$7,0*
20,1,$1+$1,$6,$7,$8,$9,0*
20,1,$1+$1,$8,$9,$2,$3,0*%
%AMHorizOval*
0 Thick line with rounded ends*
0 $1 width*
0 $2 $3 position (X,Y) of the first rounded end (center of the circle)*
0 $4 $5 position (X,Y) of the second rounded end (center of the circle)*
0 Add line between two ends*
20,1,$1,$2,$3,$4,$5,0*
0 Add two circle primitives to create the rounded ends*
1,1,$1,$2,$3*
1,1,$1,$4,$5*%
G04 Aperture macros list end*
%ADD10RoundRect,0.300000X0.350000X0.450000X-0.350000X0.450000X-0.350000X-0.450000X0.350000X-0.450000X0*%
%ADD11C,1.700000*%
%ADD12HorizOval,1.700000X0.000000X0.000000X0.000000X0.000000X0*%
%ADD13C,1.850000*%
%ADD14C,3.100000*%
%ADD15C,4.087800*%
%ADD16RoundRect,0.050000X-1.275000X-1.250000X1.275000X-1.250000X1.275000X1.250000X-1.275000X1.250000X0*%
%ADD17RoundRect,0.050000X0.600000X-0.800000X0.600000X0.800000X-0.600000X0.800000X-0.600000X-0.800000X0*%
%ADD18RoundRect,0.050000X0.800000X-0.800000X0.800000X0.800000X-0.800000X0.800000X-0.800000X-0.800000X0*%
%ADD19O,3.300000X2.100000*%
%ADD20RoundRect,0.050000X-1.000000X-1.000000X1.000000X-1.000000X1.000000X1.000000X-1.000000X1.000000X0*%
%ADD21C,2.100000*%
%ADD22C,3.148000*%
%ADD23RoundRect,0.050000X1.275000X1.250000X-1.275000X1.250000X-1.275000X-1.250000X1.275000X-1.250000X0*%
%ADD24O,1.800000X1.800000*%
%ADD25RoundRect,0.050000X0.850000X-0.850000X0.850000X0.850000X-0.850000X0.850000X-0.850000X-0.850000X0*%
%ADD26O,3.925000X2.500000*%
%ADD27RoundRect,0.300000X-0.350000X-0.450000X0.350000X-0.450000X0.350000X0.450000X-0.350000X0.450000X0*%
%ADD28RoundRect,0.300000X-0.337500X-0.475000X0.337500X-0.475000X0.337500X0.475000X-0.337500X0.475000X0*%
%ADD29RoundRect,0.050000X-0.600000X0.450000X-0.600000X-0.450000X0.600000X-0.450000X0.600000X0.450000X0*%
%ADD30RoundRect,0.050000X0.850000X0.850000X-0.850000X0.850000X-0.850000X-0.850000X0.850000X-0.850000X0*%
%ADD31RoundRect,0.300000X0.337500X0.475000X-0.337500X0.475000X-0.337500X-0.475000X0.337500X-0.475000X0*%
%ADD32RoundRect,0.050000X-0.700000X-0.410000X0.700000X-0.410000X0.700000X0.410000X-0.700000X0.410000X0*%
%ADD33RoundRect,0.255000X-0.495000X-0.205000X0.495000X-0.205000X0.495000X0.205000X-0.495000X0.205000X0*%
%ADD34RoundRect,0.050000X0.700000X0.410000X-0.700000X0.410000X-0.700000X-0.410000X0.700000X-0.410000X0*%
%ADD35RoundRect,0.255000X0.495000X0.205000X-0.495000X0.205000X-0.495000X-0.205000X0.495000X-0.205000X0*%
%ADD36RoundRect,0.300000X-0.475000X0.337500X-0.475000X-0.337500X0.475000X-0.337500X0.475000X0.337500X0*%
%ADD37RoundRect,0.050000X0.600000X-0.450000X0.600000X0.450000X-0.600000X0.450000X-0.600000X-0.450000X0*%
%ADD38RoundRect,0.300000X0.450000X-0.350000X0.450000X0.350000X-0.450000X0.350000X-0.450000X-0.350000X0*%
%ADD39RoundRect,0.050000X0.410000X-0.700000X0.410000X0.700000X-0.410000X0.700000X-0.410000X-0.700000X0*%
%ADD40RoundRect,0.255000X0.205000X-0.495000X0.205000X0.495000X-0.205000X0.495000X-0.205000X-0.495000X0*%
%ADD41RoundRect,0.050000X0.565685X0.777817X-0.777817X-0.565685X-0.565685X-0.777817X0.777817X0.565685X0*%
%ADD42C,2.050000*%
%ADD43RoundRect,0.300000X0.475000X-0.337500X0.475000X0.337500X-0.475000X0.337500X-0.475000X-0.337500X0*%
%ADD44RoundRect,0.050000X0.450000X0.600000X-0.450000X0.600000X-0.450000X-0.600000X0.450000X-0.600000X0*%
%ADD45RoundRect,0.070000X-0.575000X-0.180000X0.575000X-0.180000X0.575000X0.180000X-0.575000X0.180000X0*%
%ADD46RoundRect,0.300000X-0.450000X0.350000X-0.450000X-0.350000X0.450000X-0.350000X0.450000X0.350000X0*%
%ADD47C,0.900000*%
G04 APERTURE END LIST*
D10*
%TO.C,R11*%
X49736250Y-69659500D03*
X47736250Y-69659500D03*
%TD*%
D11*
%TO.C,R1*%
X111406398Y-55820853D03*
D12*
X118590603Y-48636648D03*
%TD*%
D13*
%TO.C,MX22*%
X137636250Y-109537500D03*
D14*
X128746250Y-106997500D03*
D15*
X132556250Y-109537500D03*
D14*
X135096250Y-104457500D03*
D13*
X127476250Y-109537500D03*
D16*
X125471250Y-106997500D03*
X138398250Y-104457500D03*
%TD*%
D17*
%TO.C,D26*%
X212725000Y-51781250D03*
D18*
X212725000Y-49281250D03*
D11*
X212725000Y-57081250D03*
D17*
X212725000Y-54581250D03*
%TD*%
D14*
%TO.C,MX14*%
X143033750Y-87947500D03*
D13*
X151923750Y-90487500D03*
D15*
X146843750Y-90487500D03*
D13*
X141763750Y-90487500D03*
D14*
X149383750Y-85407500D03*
D16*
X139758750Y-87947500D03*
X152685750Y-85407500D03*
%TD*%
D15*
%TO.C,MX2*%
X75406250Y-66675000D03*
D14*
X77946250Y-61595000D03*
D13*
X70326250Y-66675000D03*
X80486250Y-66675000D03*
D14*
X71596250Y-64135000D03*
D16*
X68321250Y-64135000D03*
X81248250Y-61595000D03*
%TD*%
D15*
%TO.C,MX24*%
X170656250Y-109537500D03*
D13*
X165576250Y-109537500D03*
D14*
X173196250Y-104457500D03*
D13*
X175736250Y-109537500D03*
D14*
X166846250Y-106997500D03*
D16*
X163571250Y-106997500D03*
X176498250Y-104457500D03*
%TD*%
D19*
%TO.C,SW1*%
X32543750Y-72275000D03*
X32543750Y-61075000D03*
D20*
X25043750Y-64175000D03*
D21*
X25043750Y-69175000D03*
X25043750Y-66675000D03*
X39543750Y-69175000D03*
X39543750Y-64175000D03*
%TD*%
D13*
%TO.C,MX34*%
X194151250Y-128587500D03*
D14*
X201771250Y-123507500D03*
X195421250Y-126047500D03*
D15*
X199231250Y-128587500D03*
D13*
X204311250Y-128587500D03*
D16*
X192146250Y-126047500D03*
X205073250Y-123507500D03*
%TD*%
D15*
%TO.C,MX15*%
X165893750Y-90487500D03*
D14*
X162083750Y-87947500D03*
D13*
X170973750Y-90487500D03*
D14*
X168433750Y-85407500D03*
D13*
X160813750Y-90487500D03*
D16*
X158808750Y-87947500D03*
X171735750Y-85407500D03*
%TD*%
D17*
%TO.C,D25*%
X193675000Y-51781250D03*
D18*
X193675000Y-49281250D03*
D17*
X193675000Y-54581250D03*
D11*
X193675000Y-57081250D03*
%TD*%
D13*
%TO.C,MX43*%
X213836250Y-147637500D03*
D15*
X208756250Y-147637500D03*
D22*
X220694250Y-154622500D03*
D14*
X211296250Y-142557500D03*
X204946250Y-145097500D03*
D22*
X196818250Y-154622500D03*
D15*
X220694250Y-139382500D03*
D13*
X203676250Y-147637500D03*
D15*
X196818250Y-139382500D03*
D16*
X201671250Y-145097500D03*
X214598250Y-142557500D03*
%TD*%
D15*
%TO.C,MX18*%
X37306250Y-109537500D03*
D13*
X32226250Y-109537500D03*
X42386250Y-109537500D03*
D14*
X39846250Y-104457500D03*
X33496250Y-106997500D03*
D16*
X30221250Y-106997500D03*
X43148250Y-104457500D03*
%TD*%
D18*
%TO.C,D8*%
X206375000Y-47693750D03*
D17*
X206375000Y-50193750D03*
X206375000Y-52993750D03*
D11*
X206375000Y-55493750D03*
%TD*%
D13*
%TO.C,MX7*%
X170338750Y-71437500D03*
D14*
X177958750Y-66357500D03*
X171608750Y-68897500D03*
D15*
X175418750Y-71437500D03*
D13*
X180498750Y-71437500D03*
D16*
X168333750Y-68897500D03*
X181260750Y-66357500D03*
%TD*%
D11*
%TO.C,R2*%
X115978398Y-55820853D03*
D12*
X123162603Y-48636648D03*
%TD*%
D18*
%TO.C,D5*%
X149225000Y-47693750D03*
D17*
X149225000Y-50193750D03*
D11*
X149225000Y-55493750D03*
D17*
X149225000Y-52993750D03*
%TD*%
D13*
%TO.C,MX26*%
X203676250Y-109537500D03*
D15*
X208756250Y-109537500D03*
D13*
X213836250Y-109537500D03*
D14*
X204946250Y-106997500D03*
X211296250Y-104457500D03*
D16*
X201671250Y-106997500D03*
X214598250Y-104457500D03*
%TD*%
D18*
%TO.C,D32*%
X158750000Y-50075000D03*
D17*
X158750000Y-52575000D03*
X158750000Y-55375000D03*
D11*
X158750000Y-57875000D03*
%TD*%
D13*
%TO.C,MX10*%
X51276250Y-90487500D03*
D14*
X52546250Y-87947500D03*
D13*
X61436250Y-90487500D03*
D14*
X58896250Y-85407500D03*
D15*
X56356250Y-90487500D03*
D16*
X49271250Y-87947500D03*
X62198250Y-85407500D03*
%TD*%
D14*
%TO.C,MX11*%
X77946250Y-85407500D03*
D15*
X75406250Y-90487500D03*
D14*
X71596250Y-87947500D03*
D13*
X70326250Y-90487500D03*
X80486250Y-90487500D03*
D16*
X68321250Y-87947500D03*
X81248250Y-85407500D03*
%TD*%
D14*
%TO.C,MX27*%
X39846250Y-123507500D03*
D15*
X37306250Y-128587500D03*
D13*
X42386250Y-128587500D03*
X32226250Y-128587500D03*
D14*
X33496250Y-126047500D03*
D16*
X30221250Y-126047500D03*
X43148250Y-123507500D03*
%TD*%
D18*
%TO.C,D35*%
X215900000Y-50075000D03*
D17*
X215900000Y-52575000D03*
X215900000Y-55375000D03*
D11*
X215900000Y-57875000D03*
%TD*%
D18*
%TO.C,D44*%
X219075000Y-50868750D03*
D17*
X219075000Y-53368750D03*
D11*
X219075000Y-58668750D03*
D17*
X219075000Y-56168750D03*
%TD*%
D14*
%TO.C,MX25*%
X185896250Y-106997500D03*
X192246250Y-104457500D03*
D13*
X194786250Y-109537500D03*
X184626250Y-109537500D03*
D15*
X189706250Y-109537500D03*
D16*
X182621250Y-106997500D03*
X195548250Y-104457500D03*
%TD*%
D13*
%TO.C,MX21*%
X111442500Y-109537500D03*
D15*
X106362500Y-109537500D03*
D13*
X101282500Y-109537500D03*
D14*
X110172500Y-112077500D03*
X103822500Y-114617500D03*
D23*
X113447500Y-112077500D03*
X100520500Y-114617500D03*
%TD*%
D14*
%TO.C,MX37*%
X52546250Y-145097500D03*
D13*
X51276250Y-147637500D03*
X61436250Y-147637500D03*
D14*
X58896250Y-142557500D03*
D15*
X56356250Y-147637500D03*
D16*
X49271250Y-145097500D03*
X62198250Y-142557500D03*
%TD*%
D17*
%TO.C,D41*%
X161925000Y-53368750D03*
D18*
X161925000Y-50868750D03*
D17*
X161925000Y-56168750D03*
D11*
X161925000Y-58668750D03*
%TD*%
D13*
%TO.C,MX13*%
X132873750Y-90487500D03*
D14*
X123983750Y-87947500D03*
D15*
X127793750Y-90487500D03*
D13*
X122713750Y-90487500D03*
D14*
X130333750Y-85407500D03*
D16*
X120708750Y-87947500D03*
X133635750Y-85407500D03*
%TD*%
D14*
%TO.C,MX35*%
X220821250Y-123507500D03*
X214471250Y-126047500D03*
D13*
X213201250Y-128587500D03*
D15*
X218281250Y-128587500D03*
D13*
X223361250Y-128587500D03*
D16*
X211196250Y-126047500D03*
X224123250Y-123507500D03*
%TD*%
D24*
%TO.C,U1*%
X29845000Y-78105000D03*
X29845000Y-75565000D03*
X32385000Y-78105000D03*
X32385000Y-75565000D03*
D25*
X34925000Y-78105000D03*
X34925000Y-75565000D03*
D24*
X37465000Y-78105000D03*
X37465000Y-75565000D03*
X40005000Y-75565000D03*
X40005000Y-78105000D03*
X42545000Y-75565000D03*
X42545000Y-78105000D03*
X45085000Y-75565000D03*
X45085000Y-78105000D03*
D25*
X47625000Y-75565000D03*
X47625000Y-78105000D03*
D24*
X50165000Y-75565000D03*
X50165000Y-78105000D03*
X52705000Y-75565000D03*
X52705000Y-78105000D03*
X55245000Y-75565000D03*
X55245000Y-78105000D03*
X57785000Y-78105000D03*
X57785000Y-75565000D03*
D25*
X60325000Y-75565000D03*
X60325000Y-78105000D03*
D24*
X62865000Y-75565000D03*
X62865000Y-78105000D03*
X65405000Y-75565000D03*
X65405000Y-78105000D03*
X67945000Y-75565000D03*
X67945000Y-78105000D03*
X70485000Y-75565000D03*
X70485000Y-78105000D03*
D25*
X73025000Y-75565000D03*
X73025000Y-78105000D03*
D24*
X75565000Y-75565000D03*
X75565000Y-78105000D03*
X78105000Y-78105000D03*
X78105000Y-75565000D03*
X78105000Y-57785000D03*
X78105000Y-55245000D03*
X75565000Y-55245000D03*
X75565000Y-57785000D03*
D25*
X73025000Y-57785000D03*
X73025000Y-55245000D03*
D24*
X70485000Y-55245000D03*
X70485000Y-57785000D03*
X67945000Y-55245000D03*
X67945000Y-57785000D03*
X65405000Y-55245000D03*
X65405000Y-57785000D03*
X62865000Y-55245000D03*
X62865000Y-57785000D03*
D25*
X60325000Y-57785000D03*
X60325000Y-55245000D03*
D24*
X57785000Y-57785000D03*
X57785000Y-55245000D03*
X55245000Y-55245000D03*
X55245000Y-57785000D03*
X52705000Y-55245000D03*
X52705000Y-57785000D03*
X50165000Y-55245000D03*
X50165000Y-57785000D03*
D25*
X47625000Y-55245000D03*
X47625000Y-57785000D03*
D24*
X45085000Y-55245000D03*
X45085000Y-57785000D03*
X42545000Y-57785000D03*
X42545000Y-55245000D03*
X40005000Y-57785000D03*
X40005000Y-55245000D03*
X37465000Y-57785000D03*
X37465000Y-55245000D03*
D25*
X34925000Y-55245000D03*
X34925000Y-57785000D03*
D24*
X32385000Y-55245000D03*
X32385000Y-57785000D03*
X29845000Y-57785000D03*
X29845000Y-55245000D03*
%TD*%
D13*
%TO.C,MX28*%
X61436250Y-128587500D03*
D14*
X52546250Y-126047500D03*
X58896250Y-123507500D03*
D13*
X51276250Y-128587500D03*
D15*
X56356250Y-128587500D03*
D16*
X49271250Y-126047500D03*
X62198250Y-123507500D03*
%TD*%
D17*
%TO.C,D42*%
X180975000Y-53368750D03*
D18*
X180975000Y-50868750D03*
D11*
X180975000Y-58668750D03*
D17*
X180975000Y-56168750D03*
%TD*%
D18*
%TO.C,D33*%
X177800000Y-50075000D03*
D17*
X177800000Y-52575000D03*
X177800000Y-55375000D03*
D11*
X177800000Y-57875000D03*
%TD*%
D26*
%TO.C,SW2*%
X37978000Y-72475000D03*
X37978000Y-60875000D03*
D21*
X37040500Y-64175000D03*
X37040500Y-69175000D03*
X37040500Y-66675000D03*
%TD*%
D14*
%TO.C,MX21_1*%
X104140000Y-104457500D03*
X97790000Y-106997500D03*
D15*
X101600000Y-109537500D03*
D13*
X106680000Y-109537500D03*
X96520000Y-109537500D03*
D16*
X94515000Y-106997500D03*
X107442000Y-104457500D03*
%TD*%
D18*
%TO.C,D14*%
X152400000Y-48487500D03*
D17*
X152400000Y-50987500D03*
D11*
X152400000Y-56287500D03*
D17*
X152400000Y-53787500D03*
%TD*%
D15*
%TO.C,MX3*%
X99218750Y-71437500D03*
D13*
X94138750Y-71437500D03*
X104298750Y-71437500D03*
D14*
X101758750Y-66357500D03*
X95408750Y-68897500D03*
D16*
X92133750Y-68897500D03*
X105060750Y-66357500D03*
%TD*%
D18*
%TO.C,D7*%
X187325000Y-47693750D03*
D17*
X187325000Y-50193750D03*
X187325000Y-52993750D03*
D11*
X187325000Y-55493750D03*
%TD*%
D15*
%TO.C,MX9*%
X37306250Y-90487500D03*
D13*
X32226250Y-90487500D03*
X42386250Y-90487500D03*
D14*
X33496250Y-87947500D03*
X39846250Y-85407500D03*
D16*
X30221250Y-87947500D03*
X43148250Y-85407500D03*
%TD*%
D13*
%TO.C,MX1*%
X51276250Y-66675000D03*
X61436250Y-66675000D03*
D15*
X56356250Y-66675000D03*
D14*
X58896250Y-61595000D03*
X52546250Y-64135000D03*
D16*
X49271250Y-64135000D03*
X62198250Y-61595000D03*
%TD*%
D13*
%TO.C,MX32*%
X166211250Y-128587500D03*
D15*
X161131250Y-128587500D03*
D13*
X156051250Y-128587500D03*
D14*
X157321250Y-126047500D03*
X163671250Y-123507500D03*
D16*
X154046250Y-126047500D03*
X166973250Y-123507500D03*
%TD*%
D18*
%TO.C,D17*%
X209550000Y-48487500D03*
D17*
X209550000Y-50987500D03*
X209550000Y-53787500D03*
D11*
X209550000Y-56287500D03*
%TD*%
D18*
%TO.C,D6*%
X168275000Y-47693750D03*
D17*
X168275000Y-50193750D03*
X168275000Y-52993750D03*
D11*
X168275000Y-55493750D03*
%TD*%
D18*
%TO.C,D23*%
X155575000Y-49281250D03*
D17*
X155575000Y-51781250D03*
D11*
X155575000Y-57081250D03*
D17*
X155575000Y-54581250D03*
%TD*%
D15*
%TO.C,MX40*%
X130175000Y-147637500D03*
D14*
X132715000Y-142557500D03*
X126365000Y-145097500D03*
D13*
X125095000Y-147637500D03*
X135255000Y-147637500D03*
D16*
X123090000Y-145097500D03*
X136017000Y-142557500D03*
%TD*%
D13*
%TO.C,MX5*%
X142398750Y-71437500D03*
D15*
X137318750Y-71437500D03*
D13*
X132238750Y-71437500D03*
D14*
X139858750Y-66357500D03*
X133508750Y-68897500D03*
D16*
X130233750Y-68897500D03*
X143160750Y-66357500D03*
%TD*%
D14*
%TO.C,MX39*%
X106521250Y-142557500D03*
D13*
X98901250Y-147637500D03*
X109061250Y-147637500D03*
D15*
X103981250Y-147637500D03*
D14*
X100171250Y-145097500D03*
D16*
X96896250Y-145097500D03*
X109823250Y-142557500D03*
%TD*%
D14*
%TO.C,MX16*%
X187483750Y-85407500D03*
D15*
X184943750Y-90487500D03*
D13*
X190023750Y-90487500D03*
X179863750Y-90487500D03*
D14*
X181133750Y-87947500D03*
D16*
X177858750Y-87947500D03*
X190785750Y-85407500D03*
%TD*%
D13*
%TO.C,MX38*%
X70326250Y-147637500D03*
X80486250Y-147637500D03*
D15*
X75406250Y-147637500D03*
D14*
X71596250Y-145097500D03*
X77946250Y-142557500D03*
D16*
X68321250Y-145097500D03*
X81248250Y-142557500D03*
%TD*%
D18*
%TO.C,D16*%
X190500000Y-48487500D03*
D17*
X190500000Y-50987500D03*
X190500000Y-53787500D03*
D11*
X190500000Y-56287500D03*
%TD*%
D13*
%TO.C,MX31*%
X137001250Y-128587500D03*
D14*
X144621250Y-123507500D03*
D13*
X147161250Y-128587500D03*
D14*
X138271250Y-126047500D03*
D15*
X142081250Y-128587500D03*
D16*
X134996250Y-126047500D03*
X147923250Y-123507500D03*
%TD*%
D13*
%TO.C,MX8*%
X199548750Y-71437500D03*
D14*
X190658750Y-68897500D03*
D15*
X194468750Y-71437500D03*
D13*
X189388750Y-71437500D03*
D14*
X197008750Y-66357500D03*
D16*
X187383750Y-68897500D03*
X200310750Y-66357500D03*
%TD*%
D13*
%TO.C,MX41*%
X148907500Y-147637500D03*
X159067500Y-147637500D03*
D14*
X156527500Y-142557500D03*
X150177500Y-145097500D03*
D15*
X153987500Y-147637500D03*
D16*
X146902500Y-145097500D03*
X159829500Y-142557500D03*
%TD*%
D15*
%TO.C,MX20*%
X75406250Y-109537500D03*
D14*
X71596250Y-106997500D03*
D13*
X70326250Y-109537500D03*
X80486250Y-109537500D03*
D14*
X77946250Y-104457500D03*
D16*
X68321250Y-106997500D03*
X81248250Y-104457500D03*
%TD*%
D14*
%TO.C,MX17*%
X206533750Y-85407500D03*
D15*
X203993750Y-90487500D03*
D14*
X200183750Y-87947500D03*
D13*
X198913750Y-90487500D03*
X209073750Y-90487500D03*
D16*
X196908750Y-87947500D03*
X209835750Y-85407500D03*
%TD*%
D13*
%TO.C,MX4*%
X113188750Y-71437500D03*
D14*
X114458750Y-68897500D03*
D15*
X118268750Y-71437500D03*
D13*
X123348750Y-71437500D03*
D14*
X120808750Y-66357500D03*
D16*
X111183750Y-68897500D03*
X124110750Y-66357500D03*
%TD*%
D17*
%TO.C,D24*%
X174625000Y-51781250D03*
D18*
X174625000Y-49281250D03*
D11*
X174625000Y-57081250D03*
D17*
X174625000Y-54581250D03*
%TD*%
D15*
%TO.C,MX42*%
X177800000Y-147637500D03*
D14*
X173990000Y-145097500D03*
D13*
X172720000Y-147637500D03*
X182880000Y-147637500D03*
D14*
X180340000Y-142557500D03*
D16*
X170715000Y-145097500D03*
X183642000Y-142557500D03*
%TD*%
D13*
%TO.C,MX23*%
X146526250Y-109537500D03*
X156686250Y-109537500D03*
D15*
X151606250Y-109537500D03*
D14*
X154146250Y-104457500D03*
X147796250Y-106997500D03*
D16*
X144521250Y-106997500D03*
X157448250Y-104457500D03*
%TD*%
D13*
%TO.C,MX33*%
X185261250Y-128587500D03*
D14*
X182721250Y-123507500D03*
X176371250Y-126047500D03*
D13*
X175101250Y-128587500D03*
D15*
X180181250Y-128587500D03*
D16*
X173096250Y-126047500D03*
X186023250Y-123507500D03*
%TD*%
D14*
%TO.C,MX36*%
X33496250Y-145097500D03*
D13*
X42386250Y-147637500D03*
D14*
X39846250Y-142557500D03*
D15*
X37306250Y-147637500D03*
D13*
X32226250Y-147637500D03*
D16*
X30221250Y-145097500D03*
X43148250Y-142557500D03*
%TD*%
D18*
%TO.C,D34*%
X196850000Y-50075000D03*
D17*
X196850000Y-52575000D03*
X196850000Y-55375000D03*
D11*
X196850000Y-57875000D03*
%TD*%
D14*
%TO.C,MX12*%
X100171250Y-87947500D03*
D15*
X103981250Y-90487500D03*
D13*
X98901250Y-90487500D03*
D14*
X106521250Y-85407500D03*
D13*
X109061250Y-90487500D03*
D16*
X96896250Y-87947500D03*
X109823250Y-85407500D03*
%TD*%
D17*
%TO.C,D43*%
X200025000Y-53368750D03*
D18*
X200025000Y-50868750D03*
D17*
X200025000Y-56168750D03*
D11*
X200025000Y-58668750D03*
%TD*%
D13*
%TO.C,MX30*%
X106045000Y-128587500D03*
D22*
X123063000Y-121602500D03*
D15*
X111125000Y-128587500D03*
X99187000Y-136842500D03*
D22*
X99187000Y-121602500D03*
D14*
X107315000Y-126047500D03*
D13*
X116205000Y-128587500D03*
D14*
X113665000Y-123507500D03*
D15*
X123063000Y-136842500D03*
D16*
X104040000Y-126047500D03*
X116967000Y-123507500D03*
%TD*%
D14*
%TO.C,MX29*%
X77946250Y-123507500D03*
D13*
X70326250Y-128587500D03*
X80486250Y-128587500D03*
D15*
X75406250Y-128587500D03*
D14*
X71596250Y-126047500D03*
D16*
X68321250Y-126047500D03*
X81248250Y-123507500D03*
%TD*%
D18*
%TO.C,D15*%
X171450000Y-48487500D03*
D17*
X171450000Y-50987500D03*
X171450000Y-53787500D03*
D11*
X171450000Y-56287500D03*
%TD*%
D13*
%TO.C,MX19*%
X61436250Y-109537500D03*
D14*
X52546250Y-106997500D03*
X58896250Y-104457500D03*
D13*
X51276250Y-109537500D03*
D15*
X56356250Y-109537500D03*
D16*
X49271250Y-106997500D03*
X62198250Y-104457500D03*
%TD*%
D15*
%TO.C,MX6*%
X156368750Y-71437500D03*
D13*
X161448750Y-71437500D03*
D14*
X158908750Y-66357500D03*
X152558750Y-68897500D03*
D13*
X151288750Y-71437500D03*
D16*
X149283750Y-68897500D03*
X162210750Y-66357500D03*
%TD*%
D15*
%TO.C,MX44*%
X213518750Y-71437500D03*
D13*
X208438750Y-71437500D03*
D14*
X216058750Y-66357500D03*
X209708750Y-68897500D03*
D13*
X218598750Y-71437500D03*
D16*
X206433750Y-68897500D03*
X219360750Y-66357500D03*
%TD*%
D27*
%TO.C,R7*%
X54499000Y-51943000D03*
X56499000Y-51943000D03*
%TD*%
D28*
%TO.C,C3*%
X104531250Y-77787500D03*
X106606250Y-77787500D03*
%TD*%
D29*
%TO.C,D12*%
X113506250Y-82487500D03*
X113506250Y-85787500D03*
%TD*%
D30*
%TO.C,J3*%
X26193750Y-84137500D03*
D24*
X26193750Y-86677500D03*
X26193750Y-89217500D03*
X26193750Y-91757500D03*
X26193750Y-94297500D03*
X26193750Y-96837500D03*
%TD*%
D29*
%TO.C,D38*%
X84137500Y-139637500D03*
X84137500Y-142937500D03*
%TD*%
%TO.C,D39*%
X114300000Y-139637500D03*
X114300000Y-142937500D03*
%TD*%
%TO.C,D36*%
X46037500Y-139637500D03*
X46037500Y-142937500D03*
%TD*%
D31*
%TO.C,C26*%
X211381250Y-118268750D03*
X209306250Y-118268750D03*
%TD*%
D32*
%TO.C,D110*%
X53656250Y-95293750D03*
X53656250Y-96793750D03*
D33*
X59056250Y-96793750D03*
D32*
X59056250Y-95293750D03*
%TD*%
D28*
%TO.C,C46*%
X49762500Y-72898000D03*
X51837500Y-72898000D03*
%TD*%
%TO.C,C8*%
X199781250Y-77787500D03*
X201856250Y-77787500D03*
%TD*%
D34*
%TO.C,D138*%
X78106250Y-153943750D03*
X78106250Y-152443750D03*
D35*
X72706250Y-152443750D03*
D34*
X72706250Y-153943750D03*
%TD*%
%TO.C,D101*%
X59056250Y-72981250D03*
X59056250Y-71481250D03*
D35*
X53656250Y-71481250D03*
D34*
X53656250Y-72981250D03*
%TD*%
D29*
%TO.C,D40*%
X139700000Y-139637500D03*
X139700000Y-142937500D03*
%TD*%
%TO.C,D22*%
X141287500Y-101537500D03*
X141287500Y-104837500D03*
%TD*%
%TO.C,D29*%
X84137500Y-120587500D03*
X84137500Y-123887500D03*
%TD*%
D31*
%TO.C,C34*%
X193918750Y-133350000D03*
X191843750Y-133350000D03*
%TD*%
D32*
%TO.C,D130*%
X108425000Y-133393750D03*
X108425000Y-134893750D03*
D33*
X113825000Y-134893750D03*
D32*
X113825000Y-133393750D03*
%TD*%
D31*
%TO.C,C27*%
X31993750Y-133350000D03*
X29918750Y-133350000D03*
%TD*%
D32*
%TO.C,D117*%
X201293750Y-95293750D03*
X201293750Y-96793750D03*
D33*
X206693750Y-96793750D03*
D32*
X206693750Y-95293750D03*
%TD*%
%TO.C,D144*%
X210818750Y-76243750D03*
X210818750Y-77743750D03*
D33*
X216218750Y-77743750D03*
D32*
X216218750Y-76243750D03*
%TD*%
D31*
%TO.C,C32*%
X155818750Y-133350000D03*
X153743750Y-133350000D03*
%TD*%
D34*
%TO.C,D106*%
X159068750Y-77743750D03*
X159068750Y-76243750D03*
D35*
X153668750Y-76243750D03*
D34*
X153668750Y-77743750D03*
%TD*%
D28*
%TO.C,C40*%
X134947750Y-153987500D03*
X137022750Y-153987500D03*
%TD*%
D34*
%TO.C,D137*%
X59056250Y-153943750D03*
X59056250Y-152443750D03*
D35*
X53656250Y-152443750D03*
D34*
X53656250Y-153943750D03*
%TD*%
D28*
%TO.C,C39*%
X109293750Y-153987500D03*
X111368750Y-153987500D03*
%TD*%
D29*
%TO.C,D28*%
X65087500Y-120587500D03*
X65087500Y-123887500D03*
%TD*%
D32*
%TO.C,D128*%
X53656250Y-133393750D03*
X53656250Y-134893750D03*
D33*
X59056250Y-134893750D03*
D32*
X59056250Y-133393750D03*
%TD*%
D34*
%TO.C,D136*%
X40006250Y-153943750D03*
X40006250Y-152443750D03*
D35*
X34606250Y-152443750D03*
D34*
X34606250Y-153943750D03*
%TD*%
D32*
%TO.C,D109*%
X34606250Y-95293750D03*
X34606250Y-96793750D03*
D33*
X40006250Y-96793750D03*
D32*
X40006250Y-95293750D03*
%TD*%
%TO.C,D127*%
X34606250Y-133393750D03*
X34606250Y-134893750D03*
D33*
X40006250Y-134893750D03*
D32*
X40006250Y-133393750D03*
%TD*%
D34*
%TO.C,D119*%
X59056250Y-115843750D03*
X59056250Y-114343750D03*
D35*
X53656250Y-114343750D03*
D34*
X53656250Y-115843750D03*
%TD*%
D36*
%TO.C,C30*%
X105568750Y-132312500D03*
X105568750Y-134387500D03*
%TD*%
D31*
%TO.C,C17*%
X198681250Y-95250000D03*
X196606250Y-95250000D03*
%TD*%
D34*
%TO.C,D104*%
X120968750Y-77743750D03*
X120968750Y-76243750D03*
D35*
X115568750Y-76243750D03*
D34*
X115568750Y-77743750D03*
%TD*%
D28*
%TO.C,C19*%
X61668750Y-115887500D03*
X63743750Y-115887500D03*
%TD*%
D37*
%TO.C,D4*%
X126206250Y-73881250D03*
X126206250Y-70581250D03*
%TD*%
D38*
%TO.C,R5*%
X29908500Y-70151500D03*
X29908500Y-68151500D03*
%TD*%
D10*
%TO.C,R4*%
X43989500Y-67564000D03*
X41989500Y-67564000D03*
%TD*%
D28*
%TO.C,C2*%
X80718750Y-73025000D03*
X82793750Y-73025000D03*
%TD*%
D29*
%TO.C,D18*%
X46037500Y-101537500D03*
X46037500Y-104837500D03*
%TD*%
%TO.C,D11*%
X84137500Y-82487500D03*
X84137500Y-85787500D03*
%TD*%
D32*
%TO.C,D114*%
X144143750Y-95293750D03*
X144143750Y-96793750D03*
D33*
X149543750Y-96793750D03*
D32*
X149543750Y-95293750D03*
%TD*%
D28*
%TO.C,C43*%
X214195750Y-153987500D03*
X216270750Y-153987500D03*
%TD*%
%TO.C,C42*%
X183112500Y-153987500D03*
X185187500Y-153987500D03*
%TD*%
D29*
%TO.C,D31*%
X150812500Y-120587500D03*
X150812500Y-123887500D03*
%TD*%
D32*
%TO.C,D132*%
X158431250Y-133393750D03*
X158431250Y-134893750D03*
D33*
X163831250Y-134893750D03*
D32*
X163831250Y-133393750D03*
%TD*%
D34*
%TO.C,D108*%
X197168750Y-77743750D03*
X197168750Y-76243750D03*
D35*
X191768750Y-76243750D03*
D34*
X191768750Y-77743750D03*
%TD*%
D29*
%TO.C,D37*%
X65087500Y-139637500D03*
X65087500Y-142937500D03*
%TD*%
D39*
%TO.C,D121*%
X96604500Y-117793750D03*
X98104500Y-117793750D03*
D40*
X98104500Y-112393750D03*
D39*
X96604500Y-112393750D03*
%TD*%
D32*
%TO.C,D112*%
X101281250Y-95293750D03*
X101281250Y-96793750D03*
D33*
X106681250Y-96793750D03*
D32*
X106681250Y-95293750D03*
%TD*%
D28*
%TO.C,C1*%
X61668750Y-73025000D03*
X63743750Y-73025000D03*
%TD*%
%TO.C,C36*%
X42618750Y-153987500D03*
X44693750Y-153987500D03*
%TD*%
D34*
%TO.C,D105*%
X140018750Y-77743750D03*
X140018750Y-76243750D03*
D35*
X134618750Y-76243750D03*
D34*
X134618750Y-77743750D03*
%TD*%
%TO.C,D125*%
X192406250Y-115843750D03*
X192406250Y-114343750D03*
D35*
X187006250Y-114343750D03*
D34*
X187006250Y-115843750D03*
%TD*%
D36*
%TO.C,C31*%
X136525000Y-132312500D03*
X136525000Y-134387500D03*
%TD*%
D41*
%TO.C,J2*%
X89235875Y-61150389D03*
X88882322Y-60796836D03*
X88528769Y-60443282D03*
X88175215Y-60089729D03*
X87821662Y-59736175D03*
X87468108Y-59382622D03*
X87114555Y-59029069D03*
X86761002Y-58675515D03*
X86407448Y-58321962D03*
X86053895Y-57968408D03*
X85700342Y-57614855D03*
X85346788Y-57261302D03*
X84993235Y-56907748D03*
X84639681Y-56554195D03*
X84286128Y-56200642D03*
X83932575Y-55847088D03*
X83579021Y-55493535D03*
X83225468Y-55139981D03*
X82871914Y-54786428D03*
D42*
X91710749Y-62211049D03*
X81457701Y-51958001D03*
X84498260Y-48068914D03*
X95599836Y-59170490D03*
%TD*%
D34*
%TO.C,D139*%
X106681250Y-153943750D03*
X106681250Y-152443750D03*
D35*
X101281250Y-152443750D03*
D34*
X101281250Y-153943750D03*
%TD*%
D31*
%TO.C,C12*%
X98668750Y-95250000D03*
X96593750Y-95250000D03*
%TD*%
D28*
%TO.C,C20*%
X80718750Y-115887500D03*
X82793750Y-115887500D03*
%TD*%
D32*
%TO.C,D113*%
X125093750Y-95293750D03*
X125093750Y-96793750D03*
D33*
X130493750Y-96793750D03*
D32*
X130493750Y-95293750D03*
%TD*%
D43*
%TO.C,C21*%
X94179500Y-117718750D03*
X94179500Y-115643750D03*
%TD*%
D10*
%TO.C,R3*%
X43964100Y-62699900D03*
X41964100Y-62699900D03*
%TD*%
D28*
%TO.C,C6*%
X161681250Y-77787500D03*
X163756250Y-77787500D03*
%TD*%
D44*
%TO.C,D0*%
X45122100Y-65151000D03*
X41822100Y-65151000D03*
%TD*%
D29*
%TO.C,D30*%
X119856250Y-120587500D03*
X119856250Y-123887500D03*
%TD*%
D31*
%TO.C,C11*%
X70093750Y-95250000D03*
X68018750Y-95250000D03*
%TD*%
D32*
%TO.C,D131*%
X139381250Y-133393750D03*
X139381250Y-134893750D03*
D33*
X144781250Y-134893750D03*
D32*
X144781250Y-133393750D03*
%TD*%
%TO.C,D135*%
X215581250Y-133393750D03*
X215581250Y-134893750D03*
D33*
X220981250Y-134893750D03*
D32*
X220981250Y-133393750D03*
%TD*%
D28*
%TO.C,C22*%
X137868750Y-115887500D03*
X139943750Y-115887500D03*
%TD*%
D31*
%TO.C,C48*%
X27263000Y-75247500D03*
X25188000Y-75247500D03*
%TD*%
D34*
%TO.C,D120*%
X78106250Y-115843750D03*
X78106250Y-114343750D03*
D35*
X72706250Y-114343750D03*
D34*
X72706250Y-115843750D03*
%TD*%
%TO.C,D143*%
X211456250Y-153943750D03*
X211456250Y-152443750D03*
D35*
X206056250Y-152443750D03*
D34*
X206056250Y-153943750D03*
%TD*%
D31*
%TO.C,C16*%
X179631250Y-95250000D03*
X177556250Y-95250000D03*
%TD*%
D27*
%TO.C,R8*%
X54499000Y-49657000D03*
X56499000Y-49657000D03*
%TD*%
D37*
%TO.C,D1*%
X65087500Y-69912500D03*
X65087500Y-66612500D03*
%TD*%
D28*
%TO.C,C37*%
X61668750Y-153987500D03*
X63743750Y-153987500D03*
%TD*%
D31*
%TO.C,C9*%
X31993750Y-95250000D03*
X29918750Y-95250000D03*
%TD*%
D29*
%TO.C,D21*%
X111918750Y-101537500D03*
X111918750Y-104837500D03*
%TD*%
D28*
%TO.C,C24*%
X175968750Y-115887500D03*
X178043750Y-115887500D03*
%TD*%
D34*
%TO.C,D141*%
X156687500Y-153943750D03*
X156687500Y-152443750D03*
D35*
X151287500Y-152443750D03*
D34*
X151287500Y-153943750D03*
%TD*%
D31*
%TO.C,C35*%
X212968750Y-133350000D03*
X210893750Y-133350000D03*
%TD*%
D34*
%TO.C,D126*%
X211456250Y-115843750D03*
X211456250Y-114343750D03*
D35*
X206056250Y-114343750D03*
D34*
X206056250Y-115843750D03*
%TD*%
D29*
%TO.C,D20*%
X84137500Y-101537500D03*
X84137500Y-104837500D03*
%TD*%
D28*
%TO.C,C4*%
X123581250Y-77787500D03*
X125656250Y-77787500D03*
%TD*%
D29*
%TO.C,D9*%
X46831250Y-82487500D03*
X46831250Y-85787500D03*
%TD*%
D28*
%TO.C,C18*%
X42618750Y-115887500D03*
X44693750Y-115887500D03*
%TD*%
D31*
%TO.C,C47*%
X27263000Y-77406500D03*
X25188000Y-77406500D03*
%TD*%
D28*
%TO.C,C49*%
X64621500Y-51943000D03*
X66696500Y-51943000D03*
%TD*%
D32*
%TO.C,D134*%
X196531250Y-133393750D03*
X196531250Y-134893750D03*
D33*
X201931250Y-134893750D03*
D32*
X201931250Y-133393750D03*
%TD*%
D37*
%TO.C,D2*%
X83343750Y-69912500D03*
X83343750Y-66612500D03*
%TD*%
D29*
%TO.C,D13*%
X136525000Y-82487500D03*
X136525000Y-85787500D03*
%TD*%
D27*
%TO.C,R10*%
X58563000Y-49657000D03*
X60563000Y-49657000D03*
%TD*%
D28*
%TO.C,C41*%
X159331750Y-153987500D03*
X161406750Y-153987500D03*
%TD*%
D32*
%TO.C,D116*%
X182243750Y-95293750D03*
X182243750Y-96793750D03*
D33*
X187643750Y-96793750D03*
D32*
X187643750Y-95293750D03*
%TD*%
D34*
%TO.C,D140*%
X132875000Y-153943750D03*
X132875000Y-152443750D03*
D35*
X127475000Y-152443750D03*
D34*
X127475000Y-153943750D03*
%TD*%
D31*
%TO.C,C14*%
X141531250Y-95250000D03*
X139456250Y-95250000D03*
%TD*%
D28*
%TO.C,C5*%
X142631250Y-77787500D03*
X144706250Y-77787500D03*
%TD*%
D34*
%TO.C,D124*%
X173356250Y-115843750D03*
X173356250Y-114343750D03*
D35*
X167956250Y-114343750D03*
D34*
X167956250Y-115843750D03*
%TD*%
D31*
%TO.C,C33*%
X174868750Y-133350000D03*
X172793750Y-133350000D03*
%TD*%
D34*
%TO.C,D102*%
X78106250Y-72981250D03*
X78106250Y-71481250D03*
D35*
X72706250Y-71481250D03*
D34*
X72706250Y-72981250D03*
%TD*%
D28*
%TO.C,C50*%
X60557500Y-51943000D03*
X62632500Y-51943000D03*
%TD*%
D31*
%TO.C,C15*%
X160581250Y-95250000D03*
X158506250Y-95250000D03*
%TD*%
D34*
%TO.C,D123*%
X154306250Y-115843750D03*
X154306250Y-114343750D03*
D35*
X148906250Y-114343750D03*
D34*
X148906250Y-115843750D03*
%TD*%
D30*
%TO.C,J1*%
X126503750Y-47793750D03*
D24*
X129043750Y-47793750D03*
X126503750Y-50333750D03*
X129043750Y-50333750D03*
X126503750Y-52873750D03*
X129043750Y-52873750D03*
X126503750Y-55413750D03*
X129043750Y-55413750D03*
%TD*%
D37*
%TO.C,D3*%
X107156250Y-73881250D03*
X107156250Y-70581250D03*
%TD*%
D31*
%TO.C,C13*%
X122481250Y-95250000D03*
X120406250Y-95250000D03*
%TD*%
D28*
%TO.C,C23*%
X156918750Y-115887500D03*
X158993750Y-115887500D03*
%TD*%
D34*
%TO.C,D103*%
X101918750Y-77743750D03*
X101918750Y-76243750D03*
D35*
X96518750Y-76243750D03*
D34*
X96518750Y-77743750D03*
%TD*%
D10*
%TO.C,R9*%
X64627000Y-49657000D03*
X62627000Y-49657000D03*
%TD*%
D29*
%TO.C,D19*%
X65087500Y-101537500D03*
X65087500Y-104837500D03*
%TD*%
D34*
%TO.C,D142*%
X180500000Y-153943750D03*
X180500000Y-152443750D03*
D35*
X175100000Y-152443750D03*
D34*
X175100000Y-153943750D03*
%TD*%
D32*
%TO.C,D111*%
X72706250Y-95293750D03*
X72706250Y-96793750D03*
D33*
X78106250Y-96793750D03*
D32*
X78106250Y-95293750D03*
%TD*%
D28*
%TO.C,C25*%
X195018750Y-115887500D03*
X197093750Y-115887500D03*
%TD*%
D34*
%TO.C,D118*%
X40006250Y-115843750D03*
X40006250Y-114343750D03*
D35*
X34606250Y-114343750D03*
D34*
X34606250Y-115843750D03*
%TD*%
D45*
%TO.C,U2*%
X45871250Y-72881250D03*
X45871250Y-72231250D03*
X45871250Y-71581250D03*
X47791250Y-71581250D03*
X47791250Y-72231250D03*
X47791250Y-72881250D03*
%TD*%
D31*
%TO.C,C29*%
X70093750Y-133350000D03*
X68018750Y-133350000D03*
%TD*%
D32*
%TO.C,D133*%
X177481250Y-133393750D03*
X177481250Y-134893750D03*
D33*
X182881250Y-134893750D03*
D32*
X182881250Y-133393750D03*
%TD*%
D46*
%TO.C,R6*%
X27114500Y-71199500D03*
X27114500Y-73199500D03*
%TD*%
D29*
%TO.C,D27*%
X46037500Y-120587500D03*
X46037500Y-123887500D03*
%TD*%
D34*
%TO.C,D107*%
X178118750Y-77743750D03*
X178118750Y-76243750D03*
D35*
X172718750Y-76243750D03*
D34*
X172718750Y-77743750D03*
%TD*%
D32*
%TO.C,D115*%
X163193750Y-95293750D03*
X163193750Y-96793750D03*
D33*
X168593750Y-96793750D03*
D32*
X168593750Y-95293750D03*
%TD*%
D28*
%TO.C,C7*%
X180731250Y-77787500D03*
X182806250Y-77787500D03*
%TD*%
D34*
%TO.C,D122*%
X135256250Y-115843750D03*
X135256250Y-114343750D03*
D35*
X129856250Y-114343750D03*
D34*
X129856250Y-115843750D03*
%TD*%
D32*
%TO.C,D129*%
X72706250Y-133393750D03*
X72706250Y-134893750D03*
D33*
X78106250Y-134893750D03*
D32*
X78106250Y-133393750D03*
%TD*%
D28*
%TO.C,C38*%
X80617150Y-153987500D03*
X82692150Y-153987500D03*
%TD*%
D29*
%TO.C,D10*%
X65087500Y-82487500D03*
X65087500Y-85787500D03*
%TD*%
D31*
%TO.C,C45*%
X43900000Y-73025000D03*
X41825000Y-73025000D03*
%TD*%
%TO.C,C28*%
X51043750Y-133350000D03*
X48968750Y-133350000D03*
%TD*%
%TO.C,C10*%
X51043750Y-95250000D03*
X48968750Y-95250000D03*
%TD*%
%TO.C,C44*%
X208206250Y-76200000D03*
X206131250Y-76200000D03*
%TD*%
D47*
X46196250Y-69024500D03*
X49276000Y-71374000D03*
X89562980Y-94134980D03*
X89535000Y-78994000D03*
X89545250Y-117718750D03*
X89581730Y-132253730D03*
X80561958Y-57041187D03*
X89570520Y-155102520D03*
X46228000Y-115824000D03*
X109061250Y-80962500D03*
X164941250Y-55562500D03*
X63341250Y-111442500D03*
X185261250Y-111442500D03*
X53181250Y-141922500D03*
X32861250Y-131762500D03*
X154781250Y-65722500D03*
X114141250Y-65722500D03*
X175101250Y-121602500D03*
X134461250Y-50482500D03*
X37941250Y-136842500D03*
X65532000Y-115722400D03*
X134461250Y-55562500D03*
X185261250Y-136842500D03*
X220821250Y-152082500D03*
X32861250Y-136842500D03*
X66243200Y-95250000D03*
X200501250Y-136842500D03*
X164941250Y-111442500D03*
X154781250Y-91122500D03*
X47142400Y-133350000D03*
X175101250Y-141922500D03*
X25241250Y-116522500D03*
X139541250Y-50482500D03*
X155244800Y-95504000D03*
X93821250Y-141922500D03*
X190341250Y-65722500D03*
X83661250Y-147002500D03*
X53181250Y-60642500D03*
X98901250Y-141922500D03*
X27368500Y-80581500D03*
X210661250Y-121602500D03*
X88741250Y-70802500D03*
X99568000Y-152400000D03*
X180181250Y-80962500D03*
X93821250Y-147002500D03*
X25241250Y-106362500D03*
X144621250Y-101282500D03*
X25241250Y-101282500D03*
X175101250Y-136842500D03*
X190042800Y-133451600D03*
X170021250Y-106362500D03*
X144621250Y-70802500D03*
X65379600Y-153873200D03*
X94742000Y-76200000D03*
X103981250Y-80962500D03*
X93821250Y-86042500D03*
X185261250Y-60642500D03*
X25241250Y-60642500D03*
X73501250Y-121602500D03*
X78581250Y-126682500D03*
X25241250Y-121602500D03*
X195421250Y-121602500D03*
X83661250Y-126682500D03*
X43021250Y-136842500D03*
X189941200Y-77470000D03*
X68421250Y-60642500D03*
X37941250Y-106362500D03*
X139541250Y-121602500D03*
X139541250Y-111442500D03*
X202946000Y-76200000D03*
X215741250Y-60642500D03*
X68421250Y-111442500D03*
X170021250Y-136842500D03*
X114141250Y-147002500D03*
X186639200Y-153974800D03*
X175101250Y-111442500D03*
X80735334Y-58025536D03*
X63341250Y-136842500D03*
X134461250Y-65722500D03*
X32861250Y-141922500D03*
X134461250Y-136842500D03*
X139541250Y-136842500D03*
X164941250Y-80962500D03*
X154781250Y-136842500D03*
X73501250Y-60642500D03*
X124301250Y-126682500D03*
X78581250Y-136842500D03*
X220821250Y-147002500D03*
X144621250Y-147002500D03*
X144621250Y-80962500D03*
X185261250Y-101282500D03*
X83661250Y-91122500D03*
X210661250Y-65722500D03*
X103981250Y-121602500D03*
X209296000Y-133350000D03*
X108712000Y-95402400D03*
X103981250Y-86042500D03*
X204114400Y-115519200D03*
X63341250Y-147002500D03*
X84277200Y-153873200D03*
X43021250Y-111442500D03*
X98901250Y-126682500D03*
X113665000Y-77597000D03*
X63341250Y-91122500D03*
X58261250Y-136842500D03*
X164941250Y-141922500D03*
X98901250Y-80962500D03*
X190341250Y-101282500D03*
X190341250Y-106362500D03*
X160578800Y-115824000D03*
X193344800Y-95554800D03*
X71374000Y-72009000D03*
X154781250Y-80962500D03*
X107759500Y-68643500D03*
X42799000Y-71719489D03*
X119221250Y-80962500D03*
X47294800Y-95250000D03*
X205581250Y-136842500D03*
X51943000Y-152400000D03*
X172593000Y-74676000D03*
X205581250Y-101282500D03*
X139541250Y-80962500D03*
X25241250Y-111442500D03*
X114141250Y-91122500D03*
X103981250Y-136842500D03*
X154781250Y-111442500D03*
X103981250Y-141922500D03*
X200501250Y-101282500D03*
X154781250Y-101282500D03*
X83661250Y-111442500D03*
X144621250Y-86042500D03*
X170789600Y-77520800D03*
X93821250Y-136842500D03*
X149701250Y-141922500D03*
X93821250Y-121602500D03*
X199072500Y-109537500D03*
X53181250Y-111442500D03*
X200501250Y-80962500D03*
X210661250Y-136842500D03*
X25241250Y-126682500D03*
X149701250Y-136842500D03*
X129381250Y-126682500D03*
X171145200Y-133400800D03*
X25241250Y-152082500D03*
X215741250Y-147002500D03*
X154781250Y-121602500D03*
X205581250Y-80962500D03*
X151993600Y-133451600D03*
X109061250Y-116522500D03*
X73501250Y-141922500D03*
X114141250Y-136842500D03*
X205581250Y-141922500D03*
X73501250Y-86042500D03*
X159861250Y-121602500D03*
X129381250Y-80962500D03*
X73501250Y-136842500D03*
X30321250Y-152082500D03*
X125679200Y-152450800D03*
X129381250Y-111442500D03*
X53181250Y-136842500D03*
X124301250Y-80962500D03*
X180181250Y-136842500D03*
X149606000Y-152298400D03*
X164941250Y-101282500D03*
X215741250Y-152082500D03*
X63341250Y-126682500D03*
X68516500Y-68389500D03*
X83661250Y-136842500D03*
X83921600Y-74320400D03*
X132588000Y-77470000D03*
X170021250Y-65722500D03*
X119221250Y-106362500D03*
X43021250Y-126682500D03*
X32861250Y-116522500D03*
X164941250Y-147002500D03*
X134461250Y-121602500D03*
X173278800Y-152349200D03*
X175101250Y-65722500D03*
X129381250Y-141922500D03*
X53689250Y-70167500D03*
X144621250Y-111442500D03*
X138633200Y-153974800D03*
X124301250Y-116522500D03*
X159861250Y-80962500D03*
X164941250Y-86042500D03*
X78581250Y-111442500D03*
X71120000Y-152273000D03*
X139541250Y-147002500D03*
X195421250Y-147002500D03*
X129381250Y-121602500D03*
X149701250Y-101282500D03*
X29921200Y-97028000D03*
X195421250Y-80962500D03*
X207721200Y-118313200D03*
X51180661Y-71533089D03*
X25241250Y-141922500D03*
X149701250Y-65722500D03*
X190341250Y-141922500D03*
X144621250Y-141922500D03*
X201930000Y-69215000D03*
X190341250Y-147002500D03*
X144621250Y-55562500D03*
X53181250Y-121602500D03*
X170021250Y-101282500D03*
X93821250Y-80962500D03*
X94894400Y-95250000D03*
X159861250Y-111442500D03*
X37941250Y-121602500D03*
X78581250Y-91122500D03*
X25241250Y-131762500D03*
X114141250Y-116522500D03*
X185261250Y-147002500D03*
X32861250Y-121602500D03*
X93821250Y-126682500D03*
X119221250Y-136842500D03*
X180181250Y-101282500D03*
X119221250Y-126682500D03*
X185261250Y-55562500D03*
X185261250Y-80962500D03*
X119221250Y-116522500D03*
X109061250Y-121602500D03*
X163017200Y-153924000D03*
X65074800Y-73050400D03*
X119221250Y-141922500D03*
X71755000Y-49657000D03*
X195421250Y-60642500D03*
X91694000Y-115671600D03*
X141528800Y-115824000D03*
X180181250Y-121602500D03*
X25241250Y-136842500D03*
X151739600Y-77520800D03*
X205740000Y-113080800D03*
X25241250Y-147002500D03*
X119221250Y-111442500D03*
X66243200Y-133400800D03*
X25241250Y-55562500D03*
X114141250Y-106362500D03*
X174040800Y-95402400D03*
X48101250Y-60642500D03*
X46482000Y-153822400D03*
X109061250Y-136842500D03*
X159861250Y-136842500D03*
X179527200Y-115773200D03*
X53181250Y-91122500D03*
X204317600Y-152450800D03*
X175101250Y-80962500D03*
X78581250Y-65722500D03*
X205581250Y-111442500D03*
X215741250Y-136842500D03*
X135737600Y-95453200D03*
X93821250Y-91122500D03*
X112928400Y-153873200D03*
X119221250Y-147002500D03*
X126567679Y-75120500D03*
X127349250Y-82487500D03*
X86911819Y-101600000D03*
X137255250Y-101537500D03*
X86901130Y-81924006D03*
X87665500Y-81280000D03*
X142462250Y-119697500D03*
X87630000Y-119761000D03*
X88392000Y-139700000D03*
X88362171Y-80514250D03*
X141287500Y-138112500D03*
X48418750Y-142875000D03*
X48418750Y-104775000D03*
X47535464Y-66542286D03*
X48418750Y-123825000D03*
X48418750Y-85725000D03*
X88132286Y-67188714D03*
X67468750Y-142875000D03*
X67468750Y-123825000D03*
X67468750Y-104775000D03*
X87381714Y-68966714D03*
X67468750Y-85725000D03*
X59658250Y-69151500D03*
X91313000Y-80010000D03*
X93662500Y-104775000D03*
X96043750Y-85725000D03*
X96043750Y-142875000D03*
X91281250Y-71437500D03*
X114300000Y-114300000D03*
X103187500Y-123825000D03*
X110331250Y-71437500D03*
X134143750Y-123825000D03*
X122237500Y-142875000D03*
X119856250Y-85725000D03*
X86649500Y-64262000D03*
X124618750Y-104775000D03*
X143668750Y-104775000D03*
X138906250Y-85725000D03*
X153193750Y-123825000D03*
X85918761Y-63580071D03*
X146050000Y-142875000D03*
X129381250Y-66675000D03*
X148431250Y-66675000D03*
X157956250Y-85725000D03*
X172243750Y-123825000D03*
X169862500Y-142875000D03*
X85196500Y-62864223D03*
X162718750Y-104775000D03*
X200818750Y-142875000D03*
X167481250Y-66675000D03*
X84470000Y-62144033D03*
X191293750Y-123825000D03*
X177006250Y-85725000D03*
X181768750Y-104775000D03*
X210343750Y-123825000D03*
X198267921Y-73807921D03*
X200818750Y-104775000D03*
X196215000Y-85725000D03*
X83743500Y-61420329D03*
X36766500Y-81625500D03*
X88858038Y-65347214D03*
X145256250Y-64293750D03*
X164306250Y-64293750D03*
X183356250Y-64293750D03*
X151606250Y-82550000D03*
X170656250Y-82550000D03*
X189706250Y-82550000D03*
X208756250Y-82550000D03*
X156368750Y-101600000D03*
X175418750Y-101600000D03*
X194468750Y-101600000D03*
X210248500Y-101536500D03*
X165893750Y-120650000D03*
X184943750Y-120650000D03*
X203993750Y-120650000D03*
X215900000Y-120650000D03*
X161131250Y-139700000D03*
X184943750Y-139700000D03*
X213518750Y-139700000D03*
X80568615Y-54813385D03*
X43942011Y-71729051D03*
X54478082Y-53812317D03*
X43942000Y-69695521D03*
X39751000Y-150749000D03*
G36*
X87229643Y-81372312D02*
G01*
X87230525Y-81373723D01*
X87234023Y-81400470D01*
X87285178Y-81516729D01*
X87366907Y-81613958D01*
X87472640Y-81684340D01*
X87510463Y-81696157D01*
X87511818Y-81697628D01*
X87511222Y-81699537D01*
X87509653Y-81700055D01*
X87441685Y-81692748D01*
X87378748Y-81724253D01*
X87342780Y-81784875D01*
X87339961Y-81832201D01*
X87338860Y-81833870D01*
X87336864Y-81833752D01*
X87335985Y-81832366D01*
X87331103Y-81798274D01*
X87278531Y-81682647D01*
X87195620Y-81586424D01*
X87089036Y-81517340D01*
X87057962Y-81508047D01*
X87056589Y-81506593D01*
X87057162Y-81504677D01*
X87058749Y-81504142D01*
X87124945Y-81511258D01*
X87187882Y-81479753D01*
X87223850Y-81419131D01*
X87226546Y-81373863D01*
X87227647Y-81372194D01*
X87229643Y-81372312D01*
G37*
G36*
X87954634Y-80689128D02*
G01*
X87981849Y-80750979D01*
X88063578Y-80848208D01*
X88169311Y-80918590D01*
X88264384Y-80948293D01*
X88265739Y-80949764D01*
X88265143Y-80951673D01*
X88263527Y-80952185D01*
X88245725Y-80949841D01*
X88245221Y-80949706D01*
X88243474Y-80948982D01*
X88173191Y-80941427D01*
X88110254Y-80972932D01*
X88074339Y-81033464D01*
X88076859Y-81104028D01*
X88075921Y-81105794D01*
X88073922Y-81105866D01*
X88073039Y-81104927D01*
X88042901Y-81038641D01*
X87959990Y-80942418D01*
X87853406Y-80873334D01*
X87760767Y-80845629D01*
X87759394Y-80844175D01*
X87759967Y-80842259D01*
X87761601Y-80841730D01*
X87781946Y-80844409D01*
X87782450Y-80844544D01*
X87784197Y-80845268D01*
X87854480Y-80852823D01*
X87917417Y-80821318D01*
X87953332Y-80760786D01*
X87950804Y-80690004D01*
X87951742Y-80688238D01*
X87953741Y-80688166D01*
X87954634Y-80689128D01*
G37*
G36*
X47173167Y-72462628D02*
G01*
X47190241Y-72474037D01*
X47216449Y-72479250D01*
X48366051Y-72479250D01*
X48392259Y-72474037D01*
X48409333Y-72462628D01*
X48411329Y-72462497D01*
X48412440Y-72464160D01*
X48412107Y-72465402D01*
X48402578Y-72479663D01*
X48403225Y-72480976D01*
X48402764Y-72482128D01*
X48382482Y-72506398D01*
X48373710Y-72576232D01*
X48404162Y-72639878D01*
X48411371Y-72646125D01*
X48411724Y-72646525D01*
X48412107Y-72647098D01*
X48412238Y-72649093D01*
X48410575Y-72650205D01*
X48409333Y-72649872D01*
X48392259Y-72638463D01*
X48366051Y-72633250D01*
X47216449Y-72633250D01*
X47190241Y-72638463D01*
X47173167Y-72649872D01*
X47171171Y-72650003D01*
X47170060Y-72648340D01*
X47170393Y-72647098D01*
X47179922Y-72632837D01*
X47179275Y-72631524D01*
X47179736Y-72630372D01*
X47200018Y-72606102D01*
X47208790Y-72536268D01*
X47178338Y-72472622D01*
X47171129Y-72466375D01*
X47170776Y-72465975D01*
X47170393Y-72465402D01*
X47170262Y-72463407D01*
X47171925Y-72462295D01*
X47173167Y-72462628D01*
G37*
G36*
X45253167Y-72462628D02*
G01*
X45270241Y-72474037D01*
X45296449Y-72479250D01*
X46446051Y-72479250D01*
X46472259Y-72474037D01*
X46489333Y-72462628D01*
X46491329Y-72462497D01*
X46492440Y-72464160D01*
X46492107Y-72465402D01*
X46482578Y-72479663D01*
X46483225Y-72480976D01*
X46482764Y-72482128D01*
X46462482Y-72506398D01*
X46453710Y-72576232D01*
X46484162Y-72639878D01*
X46491371Y-72646125D01*
X46491724Y-72646525D01*
X46492107Y-72647098D01*
X46492238Y-72649093D01*
X46490575Y-72650205D01*
X46489333Y-72649872D01*
X46472259Y-72638463D01*
X46446051Y-72633250D01*
X45296449Y-72633250D01*
X45270241Y-72638463D01*
X45253167Y-72649872D01*
X45251171Y-72650003D01*
X45250060Y-72648340D01*
X45250393Y-72647098D01*
X45259922Y-72632837D01*
X45259275Y-72631524D01*
X45259736Y-72630372D01*
X45280018Y-72606102D01*
X45288790Y-72536268D01*
X45258338Y-72472622D01*
X45251129Y-72466375D01*
X45250776Y-72465975D01*
X45250393Y-72465402D01*
X45250262Y-72463407D01*
X45251925Y-72462295D01*
X45253167Y-72462628D01*
G37*
G36*
X43601835Y-72013540D02*
G01*
X43643418Y-72063009D01*
X43749151Y-72133391D01*
X43870385Y-72171267D01*
X43997382Y-72173595D01*
X44119929Y-72140185D01*
X44228165Y-72073728D01*
X44279679Y-72016816D01*
X44281583Y-72016203D01*
X44283066Y-72017545D01*
X44282749Y-72019376D01*
X44252061Y-72059370D01*
X44253286Y-72060310D01*
X44254052Y-72062158D01*
X44253684Y-72063076D01*
X44228059Y-72098167D01*
X44223870Y-72168427D01*
X44258368Y-72229862D01*
X44299511Y-72255407D01*
X44300455Y-72257170D01*
X44299400Y-72258869D01*
X44298224Y-72259093D01*
X44237380Y-72252000D01*
X43562614Y-72252000D01*
X43507401Y-72258486D01*
X43505564Y-72257695D01*
X43505331Y-72255709D01*
X43506505Y-72254613D01*
X43509247Y-72253650D01*
X43509722Y-72253546D01*
X43537363Y-72250933D01*
X43603009Y-72224726D01*
X43643891Y-72167431D01*
X43647312Y-72097046D01*
X43624927Y-72050203D01*
X43598717Y-72016045D01*
X43598456Y-72014062D01*
X43600043Y-72012844D01*
X43601835Y-72013540D01*
G37*
G36*
X51439849Y-71897843D02*
G01*
X51439465Y-71899076D01*
X51399547Y-71953745D01*
X51395361Y-72024004D01*
X51429826Y-72085374D01*
X51492172Y-72118461D01*
X51517289Y-72121010D01*
X51518911Y-72122180D01*
X51518709Y-72124170D01*
X51517087Y-72125000D01*
X51500114Y-72125000D01*
X51431013Y-72133117D01*
X51331229Y-72177439D01*
X51275644Y-72233122D01*
X51273713Y-72233641D01*
X51272298Y-72232228D01*
X51272620Y-72230521D01*
X51287269Y-72210688D01*
X51287690Y-72210267D01*
X51293963Y-72205634D01*
X51336685Y-72149321D01*
X51342155Y-72079148D01*
X51308821Y-72017159D01*
X51247160Y-71982974D01*
X51204331Y-71981052D01*
X51203841Y-71980739D01*
X51203421Y-71981014D01*
X51180921Y-71983976D01*
X51180399Y-71983976D01*
X51150621Y-71980056D01*
X51149034Y-71978838D01*
X51149295Y-71976855D01*
X51150919Y-71976073D01*
X51203197Y-71977031D01*
X51203811Y-71977401D01*
X51204458Y-71977054D01*
X51236032Y-71977633D01*
X51358579Y-71944223D01*
X51436804Y-71896193D01*
X51438803Y-71896139D01*
X51439849Y-71897843D01*
G37*
G36*
X45253167Y-71812628D02*
G01*
X45270241Y-71824037D01*
X45296449Y-71829250D01*
X46446051Y-71829250D01*
X46472259Y-71824037D01*
X46489333Y-71812628D01*
X46491329Y-71812497D01*
X46492440Y-71814160D01*
X46492107Y-71815402D01*
X46482578Y-71829663D01*
X46483225Y-71830976D01*
X46482764Y-71832128D01*
X46462482Y-71856398D01*
X46453710Y-71926232D01*
X46484162Y-71989878D01*
X46491371Y-71996125D01*
X46491724Y-71996525D01*
X46492107Y-71997098D01*
X46492238Y-71999093D01*
X46490575Y-72000205D01*
X46489333Y-71999872D01*
X46472259Y-71988463D01*
X46446051Y-71983250D01*
X45296449Y-71983250D01*
X45270241Y-71988463D01*
X45253167Y-71999872D01*
X45251171Y-72000003D01*
X45250060Y-71998340D01*
X45250393Y-71997098D01*
X45259922Y-71982837D01*
X45259275Y-71981524D01*
X45259736Y-71980372D01*
X45280018Y-71956102D01*
X45288790Y-71886268D01*
X45258338Y-71822622D01*
X45251129Y-71816375D01*
X45250776Y-71815975D01*
X45250393Y-71815402D01*
X45250262Y-71813407D01*
X45251925Y-71812295D01*
X45253167Y-71812628D01*
G37*
G36*
X47173167Y-71812628D02*
G01*
X47190241Y-71824037D01*
X47216449Y-71829250D01*
X48366051Y-71829250D01*
X48392259Y-71824037D01*
X48409333Y-71812628D01*
X48411329Y-71812497D01*
X48412440Y-71814160D01*
X48412107Y-71815402D01*
X48402578Y-71829663D01*
X48403225Y-71830976D01*
X48402764Y-71832128D01*
X48382482Y-71856398D01*
X48373710Y-71926232D01*
X48404162Y-71989878D01*
X48411371Y-71996125D01*
X48411724Y-71996525D01*
X48412107Y-71997098D01*
X48412238Y-71999093D01*
X48410575Y-72000205D01*
X48409333Y-71999872D01*
X48392259Y-71988463D01*
X48366051Y-71983250D01*
X47216449Y-71983250D01*
X47190241Y-71988463D01*
X47173167Y-71999872D01*
X47171171Y-72000003D01*
X47170060Y-71998340D01*
X47170393Y-71997098D01*
X47179922Y-71982837D01*
X47179275Y-71981524D01*
X47179736Y-71980372D01*
X47200018Y-71956102D01*
X47208790Y-71886268D01*
X47178338Y-71822622D01*
X47171129Y-71816375D01*
X47170776Y-71815975D01*
X47170393Y-71815402D01*
X47170262Y-71813407D01*
X47171925Y-71812295D01*
X47173167Y-71812628D01*
G37*
G36*
X71957420Y-71660968D02*
G01*
X71958250Y-71662590D01*
X71958250Y-71686051D01*
X71977546Y-71783055D01*
X72025947Y-71855492D01*
X72026078Y-71857488D01*
X72024415Y-71858599D01*
X72023327Y-71858359D01*
X71969850Y-71829219D01*
X71899648Y-71834302D01*
X71843339Y-71876530D01*
X71818731Y-71942684D01*
X71819323Y-71962327D01*
X71818376Y-71964088D01*
X71816377Y-71964148D01*
X71815344Y-71962671D01*
X71803973Y-71883268D01*
X71751401Y-71767641D01*
X71731389Y-71744416D01*
X71731016Y-71742451D01*
X71732531Y-71741145D01*
X71734083Y-71741495D01*
X71786995Y-71780130D01*
X71857254Y-71784316D01*
X71918624Y-71749851D01*
X71951711Y-71687505D01*
X71954260Y-71662388D01*
X71955430Y-71660766D01*
X71957420Y-71660968D01*
G37*
G36*
X86358823Y-63655362D02*
G01*
X86359533Y-63657165D01*
X86354265Y-63697177D01*
X86365156Y-63767016D01*
X86411878Y-63819658D01*
X86479743Y-63838710D01*
X86526168Y-63829188D01*
X86532551Y-63826544D01*
X86533055Y-63826409D01*
X86555906Y-63823400D01*
X86557754Y-63824165D01*
X86558015Y-63826148D01*
X86556717Y-63827306D01*
X86466574Y-63853070D01*
X86359157Y-63920845D01*
X86275075Y-64016050D01*
X86221095Y-64131023D01*
X86213069Y-64182571D01*
X86211815Y-64184128D01*
X86209838Y-64183821D01*
X86209110Y-64182002D01*
X86213996Y-64144894D01*
X86203105Y-64075055D01*
X86156383Y-64022413D01*
X86088518Y-64003361D01*
X86042093Y-64012883D01*
X86035710Y-64015527D01*
X86035206Y-64015662D01*
X86009880Y-64018996D01*
X86008032Y-64018231D01*
X86007771Y-64016248D01*
X86009093Y-64015083D01*
X86096679Y-63991205D01*
X86204915Y-63924748D01*
X86290153Y-63830578D01*
X86345535Y-63716271D01*
X86355578Y-63656572D01*
X86356851Y-63655030D01*
X86358823Y-63655362D01*
G37*
G36*
X85636563Y-62939509D02*
G01*
X85637273Y-62941312D01*
X85632092Y-62980666D01*
X85631957Y-62981170D01*
X85630651Y-62984321D01*
X85623095Y-63054605D01*
X85654598Y-63117542D01*
X85715130Y-63153459D01*
X85785734Y-63150938D01*
X85793893Y-63147895D01*
X85801813Y-63144614D01*
X85802317Y-63144479D01*
X85825172Y-63141470D01*
X85827020Y-63142235D01*
X85827281Y-63144218D01*
X85825983Y-63145376D01*
X85735835Y-63171141D01*
X85628418Y-63238916D01*
X85544336Y-63334121D01*
X85490356Y-63449094D01*
X85488560Y-63460628D01*
X85488504Y-63460697D01*
X85488532Y-63460807D01*
X85482329Y-63500652D01*
X85481075Y-63502209D01*
X85479098Y-63501902D01*
X85478370Y-63500083D01*
X85483169Y-63463628D01*
X85483304Y-63463124D01*
X85484609Y-63459972D01*
X85492166Y-63389689D01*
X85460663Y-63326752D01*
X85400131Y-63290835D01*
X85329527Y-63293356D01*
X85321368Y-63296399D01*
X85313448Y-63299680D01*
X85312944Y-63299815D01*
X85287615Y-63303150D01*
X85285767Y-63302385D01*
X85285506Y-63300402D01*
X85286828Y-63299237D01*
X85374418Y-63275357D01*
X85482654Y-63208900D01*
X85567892Y-63114730D01*
X85623274Y-63000423D01*
X85633318Y-62940719D01*
X85634591Y-62939177D01*
X85636563Y-62939509D01*
G37*
G36*
X84899565Y-62281352D02*
G01*
X84899899Y-62282689D01*
X84893546Y-62341776D01*
X84925049Y-62404714D01*
X84985581Y-62440630D01*
X85056185Y-62438109D01*
X85064345Y-62435066D01*
X85079554Y-62428766D01*
X85080058Y-62428631D01*
X85102909Y-62425622D01*
X85104757Y-62426387D01*
X85105018Y-62428370D01*
X85103720Y-62429528D01*
X85013574Y-62455293D01*
X84906157Y-62523068D01*
X84822075Y-62618273D01*
X84770163Y-62728842D01*
X84768522Y-62729985D01*
X84766712Y-62729135D01*
X84766364Y-62727778D01*
X84772954Y-62666480D01*
X84741451Y-62603542D01*
X84680919Y-62567626D01*
X84610315Y-62570147D01*
X84602155Y-62573190D01*
X84586946Y-62579490D01*
X84586442Y-62579625D01*
X84561116Y-62582959D01*
X84559268Y-62582194D01*
X84559007Y-62580211D01*
X84560329Y-62579046D01*
X84647918Y-62555167D01*
X84756154Y-62488710D01*
X84841392Y-62394540D01*
X84896110Y-62281603D01*
X84897765Y-62280480D01*
X84899565Y-62281352D01*
G37*
G36*
X84171392Y-61561100D02*
G01*
X84171726Y-61562437D01*
X84165289Y-61622312D01*
X84196792Y-61685250D01*
X84257324Y-61721167D01*
X84327927Y-61718647D01*
X84336085Y-61715604D01*
X84353052Y-61708576D01*
X84353556Y-61708441D01*
X84376411Y-61705432D01*
X84378259Y-61706197D01*
X84378520Y-61708180D01*
X84377222Y-61709338D01*
X84287074Y-61735103D01*
X84179657Y-61802878D01*
X84095575Y-61898083D01*
X84045350Y-62005059D01*
X84043709Y-62006202D01*
X84041899Y-62005352D01*
X84041551Y-62003995D01*
X84048210Y-61942046D01*
X84016705Y-61879108D01*
X83956173Y-61843195D01*
X83885568Y-61845717D01*
X83877413Y-61848759D01*
X83860450Y-61855785D01*
X83859946Y-61855920D01*
X83834619Y-61859255D01*
X83832771Y-61858490D01*
X83832510Y-61856507D01*
X83833832Y-61855342D01*
X83921418Y-61831463D01*
X84029654Y-61765006D01*
X84114892Y-61670836D01*
X84167937Y-61561351D01*
X84169592Y-61560228D01*
X84171392Y-61561100D01*
G37*
G36*
X89711210Y-60230891D02*
G01*
X89711663Y-60231468D01*
X89741336Y-60288194D01*
X89801464Y-60321027D01*
X89802504Y-60322734D01*
X89801546Y-60324490D01*
X89800895Y-60324744D01*
X89783205Y-60328263D01*
X89767479Y-60338770D01*
X88424256Y-61681993D01*
X88413749Y-61697719D01*
X88410268Y-61715220D01*
X88408949Y-61716724D01*
X88406987Y-61716334D01*
X88406534Y-61715757D01*
X88376861Y-61659031D01*
X88316733Y-61626198D01*
X88315693Y-61624491D01*
X88316651Y-61622735D01*
X88317302Y-61622481D01*
X88334992Y-61618962D01*
X88350718Y-61608455D01*
X89693941Y-60265232D01*
X89704448Y-60249506D01*
X89707929Y-60232005D01*
X89709248Y-60230501D01*
X89711210Y-60230891D01*
G37*
G36*
X89357657Y-59877337D02*
G01*
X89358110Y-59877914D01*
X89387782Y-59934640D01*
X89447911Y-59967474D01*
X89448951Y-59969181D01*
X89447993Y-59970937D01*
X89447342Y-59971191D01*
X89429652Y-59974710D01*
X89413926Y-59985217D01*
X88070703Y-61328440D01*
X88060196Y-61344166D01*
X88056715Y-61361667D01*
X88055396Y-61363171D01*
X88053434Y-61362781D01*
X88052981Y-61362204D01*
X88023309Y-61305478D01*
X87963180Y-61272644D01*
X87962140Y-61270937D01*
X87963098Y-61269181D01*
X87963749Y-61268927D01*
X87981439Y-61265408D01*
X87997165Y-61254901D01*
X89340388Y-59911678D01*
X89350895Y-59895952D01*
X89354376Y-59878451D01*
X89355695Y-59876947D01*
X89357657Y-59877337D01*
G37*
G36*
X89004103Y-59523784D02*
G01*
X89004556Y-59524361D01*
X89034229Y-59581088D01*
X89094357Y-59613920D01*
X89095398Y-59615627D01*
X89094440Y-59617383D01*
X89093789Y-59617637D01*
X89076099Y-59621156D01*
X89060373Y-59631663D01*
X87717150Y-60974886D01*
X87706643Y-60990612D01*
X87703162Y-61008113D01*
X87701843Y-61009617D01*
X87699881Y-61009227D01*
X87699428Y-61008650D01*
X87669755Y-60951923D01*
X87609627Y-60919091D01*
X87608586Y-60917384D01*
X87609544Y-60915628D01*
X87610195Y-60915374D01*
X87627885Y-60911855D01*
X87643611Y-60901348D01*
X88986834Y-59558125D01*
X88997341Y-59542399D01*
X89000822Y-59524898D01*
X89002141Y-59523394D01*
X89004103Y-59523784D01*
G37*
G36*
X88650550Y-59170230D02*
G01*
X88651003Y-59170807D01*
X88680675Y-59227533D01*
X88740804Y-59260367D01*
X88741844Y-59262074D01*
X88740886Y-59263830D01*
X88740235Y-59264084D01*
X88722545Y-59267603D01*
X88706819Y-59278110D01*
X87363596Y-60621333D01*
X87353089Y-60637059D01*
X87349608Y-60654560D01*
X87348289Y-60656064D01*
X87346327Y-60655674D01*
X87345874Y-60655097D01*
X87316202Y-60598371D01*
X87256073Y-60565537D01*
X87255033Y-60563830D01*
X87255991Y-60562074D01*
X87256642Y-60561820D01*
X87274332Y-60558301D01*
X87290058Y-60547794D01*
X88633281Y-59204571D01*
X88643788Y-59188845D01*
X88647269Y-59171344D01*
X88648588Y-59169840D01*
X88650550Y-59170230D01*
G37*
G36*
X88296996Y-58816677D02*
G01*
X88297449Y-58817254D01*
X88327122Y-58873981D01*
X88387250Y-58906813D01*
X88388291Y-58908520D01*
X88387333Y-58910276D01*
X88386682Y-58910530D01*
X88368992Y-58914049D01*
X88353266Y-58924556D01*
X87010043Y-60267779D01*
X86999536Y-60283505D01*
X86996055Y-60301006D01*
X86994736Y-60302510D01*
X86992774Y-60302120D01*
X86992321Y-60301543D01*
X86962648Y-60244816D01*
X86902520Y-60211984D01*
X86901479Y-60210277D01*
X86902437Y-60208521D01*
X86903088Y-60208267D01*
X86920778Y-60204748D01*
X86936504Y-60194241D01*
X88279727Y-58851018D01*
X88290234Y-58835292D01*
X88293715Y-58817791D01*
X88295034Y-58816287D01*
X88296996Y-58816677D01*
G37*
G36*
X87943443Y-58463124D02*
G01*
X87943896Y-58463701D01*
X87973569Y-58520427D01*
X88033697Y-58553260D01*
X88034737Y-58554967D01*
X88033779Y-58556723D01*
X88033128Y-58556977D01*
X88015438Y-58560496D01*
X87999712Y-58571003D01*
X86656489Y-59914226D01*
X86645982Y-59929952D01*
X86642501Y-59947453D01*
X86641182Y-59948957D01*
X86639220Y-59948567D01*
X86638767Y-59947990D01*
X86609094Y-59891264D01*
X86548966Y-59858431D01*
X86547926Y-59856724D01*
X86548884Y-59854968D01*
X86549535Y-59854714D01*
X86567225Y-59851195D01*
X86582951Y-59840688D01*
X87926174Y-58497465D01*
X87936681Y-58481739D01*
X87940162Y-58464238D01*
X87941481Y-58462734D01*
X87943443Y-58463124D01*
G37*
G36*
X87589890Y-58109570D02*
G01*
X87590343Y-58110147D01*
X87620015Y-58166873D01*
X87680144Y-58199707D01*
X87681184Y-58201414D01*
X87680226Y-58203170D01*
X87679575Y-58203424D01*
X87661885Y-58206943D01*
X87646159Y-58217450D01*
X86302936Y-59560673D01*
X86292429Y-59576399D01*
X86288948Y-59593900D01*
X86287629Y-59595404D01*
X86285667Y-59595014D01*
X86285214Y-59594437D01*
X86255542Y-59537711D01*
X86195413Y-59504877D01*
X86194373Y-59503170D01*
X86195331Y-59501414D01*
X86195982Y-59501160D01*
X86213672Y-59497641D01*
X86229398Y-59487134D01*
X87572621Y-58143911D01*
X87583128Y-58128185D01*
X87586609Y-58110684D01*
X87587928Y-58109180D01*
X87589890Y-58109570D01*
G37*
G36*
X87236336Y-57756017D02*
G01*
X87236789Y-57756594D01*
X87266462Y-57813321D01*
X87326590Y-57846153D01*
X87327631Y-57847860D01*
X87326673Y-57849616D01*
X87326022Y-57849870D01*
X87308332Y-57853389D01*
X87292606Y-57863896D01*
X85949383Y-59207119D01*
X85938876Y-59222845D01*
X85935395Y-59240346D01*
X85934076Y-59241850D01*
X85932114Y-59241460D01*
X85931661Y-59240883D01*
X85901988Y-59184156D01*
X85841860Y-59151324D01*
X85840819Y-59149617D01*
X85841777Y-59147861D01*
X85842428Y-59147607D01*
X85860118Y-59144088D01*
X85875844Y-59133581D01*
X87219067Y-57790358D01*
X87229574Y-57774632D01*
X87233055Y-57757131D01*
X87234374Y-57755627D01*
X87236336Y-57756017D01*
G37*
G36*
X86882783Y-57402463D02*
G01*
X86883236Y-57403040D01*
X86912908Y-57459766D01*
X86973037Y-57492600D01*
X86974077Y-57494307D01*
X86973119Y-57496063D01*
X86972468Y-57496317D01*
X86954778Y-57499836D01*
X86939052Y-57510343D01*
X85595829Y-58853566D01*
X85585322Y-58869292D01*
X85581841Y-58886793D01*
X85580522Y-58888297D01*
X85578560Y-58887907D01*
X85578107Y-58887330D01*
X85548435Y-58830604D01*
X85488306Y-58797770D01*
X85487266Y-58796063D01*
X85488224Y-58794307D01*
X85488875Y-58794053D01*
X85506565Y-58790534D01*
X85522291Y-58780027D01*
X86865514Y-57436804D01*
X86876021Y-57421078D01*
X86879502Y-57403577D01*
X86880821Y-57402073D01*
X86882783Y-57402463D01*
G37*
G36*
X86529230Y-57048910D02*
G01*
X86529683Y-57049487D01*
X86559356Y-57106213D01*
X86619484Y-57139046D01*
X86620524Y-57140753D01*
X86619566Y-57142509D01*
X86618915Y-57142763D01*
X86601225Y-57146282D01*
X86585499Y-57156789D01*
X85242276Y-58500012D01*
X85231769Y-58515738D01*
X85228288Y-58533239D01*
X85226969Y-58534743D01*
X85225007Y-58534353D01*
X85224554Y-58533776D01*
X85194881Y-58477050D01*
X85134753Y-58444217D01*
X85133713Y-58442510D01*
X85134671Y-58440754D01*
X85135322Y-58440500D01*
X85153012Y-58436981D01*
X85168738Y-58426474D01*
X86511961Y-57083251D01*
X86522468Y-57067525D01*
X86525949Y-57050024D01*
X86527268Y-57048520D01*
X86529230Y-57048910D01*
G37*
G36*
X86175676Y-56695357D02*
G01*
X86176129Y-56695934D01*
X86205802Y-56752661D01*
X86265930Y-56785493D01*
X86266971Y-56787200D01*
X86266013Y-56788956D01*
X86265362Y-56789210D01*
X86247672Y-56792729D01*
X86231946Y-56803236D01*
X84888723Y-58146459D01*
X84878216Y-58162185D01*
X84874735Y-58179686D01*
X84873416Y-58181190D01*
X84871454Y-58180800D01*
X84871001Y-58180223D01*
X84841328Y-58123496D01*
X84781200Y-58090664D01*
X84780159Y-58088957D01*
X84781117Y-58087201D01*
X84781768Y-58086947D01*
X84799458Y-58083428D01*
X84815184Y-58072921D01*
X86158407Y-56729698D01*
X86168914Y-56713972D01*
X86172395Y-56696471D01*
X86173714Y-56694967D01*
X86175676Y-56695357D01*
G37*
G36*
X85822123Y-56341803D02*
G01*
X85822576Y-56342380D01*
X85852248Y-56399106D01*
X85912377Y-56431940D01*
X85913417Y-56433647D01*
X85912459Y-56435403D01*
X85911808Y-56435657D01*
X85894118Y-56439176D01*
X85878392Y-56449683D01*
X84535169Y-57792906D01*
X84524662Y-57808632D01*
X84521181Y-57826133D01*
X84519862Y-57827637D01*
X84517900Y-57827247D01*
X84517447Y-57826670D01*
X84487775Y-57769944D01*
X84427646Y-57737110D01*
X84426606Y-57735403D01*
X84427564Y-57733647D01*
X84428215Y-57733393D01*
X84445905Y-57729874D01*
X84461631Y-57719367D01*
X85804854Y-56376144D01*
X85815361Y-56360418D01*
X85818842Y-56342917D01*
X85820161Y-56341413D01*
X85822123Y-56341803D01*
G37*
G36*
X80841532Y-57393424D02*
G01*
X80841148Y-57394657D01*
X80806420Y-57442218D01*
X80802234Y-57512478D01*
X80836749Y-57573936D01*
X80876313Y-57600033D01*
X80881863Y-57602332D01*
X80883081Y-57603919D01*
X80882315Y-57605767D01*
X80880525Y-57606096D01*
X80801550Y-57582477D01*
X80674536Y-57581701D01*
X80552408Y-57616606D01*
X80457859Y-57676262D01*
X80455861Y-57676341D01*
X80454794Y-57674650D01*
X80455177Y-57673392D01*
X80490873Y-57624506D01*
X80495059Y-57554247D01*
X80460545Y-57492788D01*
X80420980Y-57466690D01*
X80413393Y-57463548D01*
X80412175Y-57461961D01*
X80412940Y-57460113D01*
X80414754Y-57459791D01*
X80490332Y-57483403D01*
X80617329Y-57485731D01*
X80739876Y-57452321D01*
X80838487Y-57391774D01*
X80840486Y-57391720D01*
X80841532Y-57393424D01*
G37*
G36*
X85468569Y-55988250D02*
G01*
X85469022Y-55988827D01*
X85498695Y-56045554D01*
X85558823Y-56078386D01*
X85559864Y-56080093D01*
X85558906Y-56081849D01*
X85558255Y-56082103D01*
X85540565Y-56085622D01*
X85524839Y-56096129D01*
X84181616Y-57439352D01*
X84171109Y-57455078D01*
X84167628Y-57472579D01*
X84166309Y-57474083D01*
X84164347Y-57473693D01*
X84163894Y-57473116D01*
X84134221Y-57416389D01*
X84074093Y-57383557D01*
X84073052Y-57381850D01*
X84074010Y-57380094D01*
X84074661Y-57379840D01*
X84092351Y-57376321D01*
X84108077Y-57365814D01*
X85451300Y-56022591D01*
X85461807Y-56006865D01*
X85465288Y-55989364D01*
X85466607Y-55987860D01*
X85468569Y-55988250D01*
G37*
G36*
X85115016Y-55634697D02*
G01*
X85115469Y-55635274D01*
X85145142Y-55692000D01*
X85205270Y-55724833D01*
X85206310Y-55726540D01*
X85205352Y-55728296D01*
X85204701Y-55728550D01*
X85187011Y-55732069D01*
X85171285Y-55742576D01*
X83828062Y-57085799D01*
X83817555Y-57101525D01*
X83814074Y-57119026D01*
X83812755Y-57120530D01*
X83810793Y-57120140D01*
X83810340Y-57119563D01*
X83780667Y-57062837D01*
X83720539Y-57030004D01*
X83719499Y-57028297D01*
X83720457Y-57026541D01*
X83721108Y-57026287D01*
X83738798Y-57022768D01*
X83754524Y-57012261D01*
X85097747Y-55669038D01*
X85108254Y-55653312D01*
X85111735Y-55635811D01*
X85113054Y-55634307D01*
X85115016Y-55634697D01*
G37*
G36*
X84761463Y-55281143D02*
G01*
X84761916Y-55281720D01*
X84791588Y-55338446D01*
X84851717Y-55371280D01*
X84852757Y-55372987D01*
X84851799Y-55374743D01*
X84851148Y-55374997D01*
X84833458Y-55378516D01*
X84817732Y-55389023D01*
X83474509Y-56732246D01*
X83464002Y-56747972D01*
X83460521Y-56765473D01*
X83459202Y-56766977D01*
X83457240Y-56766587D01*
X83456787Y-56766010D01*
X83427115Y-56709284D01*
X83366986Y-56676450D01*
X83365946Y-56674743D01*
X83366904Y-56672987D01*
X83367555Y-56672733D01*
X83385245Y-56669214D01*
X83400971Y-56658707D01*
X84744194Y-55315484D01*
X84754701Y-55299758D01*
X84758182Y-55282257D01*
X84759501Y-55280753D01*
X84761463Y-55281143D01*
G37*
G36*
X84407909Y-54927590D02*
G01*
X84408362Y-54928167D01*
X84438035Y-54984894D01*
X84498163Y-55017726D01*
X84499204Y-55019433D01*
X84498246Y-55021189D01*
X84497595Y-55021443D01*
X84479905Y-55024962D01*
X84464179Y-55035469D01*
X83120956Y-56378692D01*
X83110449Y-56394418D01*
X83106968Y-56411919D01*
X83105649Y-56413423D01*
X83103687Y-56413033D01*
X83103234Y-56412456D01*
X83073561Y-56355729D01*
X83013433Y-56322897D01*
X83012392Y-56321190D01*
X83013350Y-56319434D01*
X83014001Y-56319180D01*
X83031691Y-56315661D01*
X83047417Y-56305154D01*
X84390640Y-54961931D01*
X84401147Y-54946205D01*
X84404628Y-54928704D01*
X84405947Y-54927200D01*
X84407909Y-54927590D01*
G37*
G36*
X84054356Y-54574036D02*
G01*
X84054809Y-54574613D01*
X84084481Y-54631339D01*
X84144610Y-54664173D01*
X84145650Y-54665880D01*
X84144692Y-54667636D01*
X84144041Y-54667890D01*
X84126351Y-54671409D01*
X84110625Y-54681916D01*
X82767402Y-56025139D01*
X82756895Y-56040865D01*
X82753414Y-56058366D01*
X82752095Y-56059870D01*
X82750133Y-56059480D01*
X82749680Y-56058903D01*
X82720008Y-56002177D01*
X82659879Y-55969343D01*
X82658839Y-55967636D01*
X82659797Y-55965880D01*
X82660448Y-55965626D01*
X82678138Y-55962107D01*
X82693864Y-55951600D01*
X84037087Y-54608377D01*
X84047594Y-54592651D01*
X84051075Y-54575150D01*
X84052394Y-54573646D01*
X84054356Y-54574036D01*
G37*
G36*
X83700802Y-54220483D02*
G01*
X83701255Y-54221060D01*
X83730928Y-54277787D01*
X83791056Y-54310619D01*
X83792097Y-54312326D01*
X83791139Y-54314082D01*
X83790488Y-54314336D01*
X83772798Y-54317855D01*
X83757072Y-54328362D01*
X82413849Y-55671585D01*
X82403342Y-55687311D01*
X82399861Y-55704812D01*
X82398542Y-55706316D01*
X82396580Y-55705926D01*
X82396127Y-55705349D01*
X82366454Y-55648622D01*
X82306326Y-55615790D01*
X82305285Y-55614083D01*
X82306243Y-55612327D01*
X82306894Y-55612073D01*
X82324584Y-55608554D01*
X82340310Y-55598047D01*
X83683533Y-54254824D01*
X83694040Y-54239098D01*
X83697521Y-54221597D01*
X83698840Y-54220093D01*
X83700802Y-54220483D01*
G37*
M02*
