M48
; DRILL file {KiCad (6.0.5)} date Fri Jul 29 20:42:53 2022
; FORMAT={-:-/ absolute / inch / decimal}
; #@! TF.CreationDate,2022-07-29T20:42:53-06:00
; #@! TF.GenerationSoftware,Kicad,Pcbnew,(6.0.5)
; #@! TF.FileFunction,NonPlated,1,2,NPTH
FMAT,2
INCH
; #@! TA.AperFunction,NonPlated,NPTH,ComponentDrill
T1C0.0689
; #@! TA.AperFunction,NonPlated,NPTH,ComponentDrill
T2C0.1181
; #@! TA.AperFunction,NonPlated,NPTH,ComponentDrill
T3C0.1200
; #@! TA.AperFunction,NonPlated,NPTH,ComponentDrill
T4C0.1570
%
G90
G05
T1
X1.2688Y-3.5625
X1.2688Y-4.3125
X1.2688Y-5.0625
X1.2688Y-5.8125
X1.6687Y-3.5625
X1.6687Y-4.3125
X1.6687Y-5.0625
X1.6687Y-5.8125
X2.0187Y-2.625
X2.0187Y-3.5625
X2.0187Y-4.3125
X2.0187Y-5.0625
X2.0187Y-5.8125
X2.4187Y-2.625
X2.4187Y-3.5625
X2.4187Y-4.3125
X2.4187Y-5.0625
X2.4187Y-5.8125
X2.7687Y-2.625
X2.7687Y-3.5625
X2.7687Y-4.3125
X2.7687Y-5.0625
X2.7687Y-5.8125
X3.1687Y-2.625
X3.1687Y-3.5625
X3.1687Y-4.3125
X3.1687Y-5.0625
X3.1687Y-5.8125
X3.7062Y-2.8125
X3.8Y-4.3125
X3.8937Y-3.5625
X3.8937Y-5.8125
X3.9875Y-4.3125
X4.1063Y-2.8125
X4.175Y-5.0625
X4.2Y-4.3125
X4.2938Y-3.5625
X4.2938Y-5.8125
X4.3875Y-4.3125
X4.4562Y-2.8125
X4.575Y-5.0625
X4.8312Y-3.5625
X4.8563Y-2.8125
X4.925Y-5.8125
X5.0187Y-4.3125
X5.2062Y-2.8125
X5.2313Y-3.5625
X5.325Y-5.8125
X5.3937Y-5.0625
X5.4188Y-4.3125
X5.5812Y-3.5625
X5.6063Y-2.8125
X5.7687Y-4.3125
X5.7938Y-5.0625
X5.8625Y-5.8125
X5.9562Y-2.8125
X5.9813Y-3.5625
X6.1437Y-5.0625
X6.1688Y-4.3125
X6.2625Y-5.8125
X6.3312Y-3.5625
X6.3563Y-2.8125
X6.5187Y-4.3125
X6.5438Y-5.0625
X6.7062Y-2.8125
X6.7313Y-3.5625
X6.8Y-5.8125
X6.8937Y-5.0625
X6.9188Y-4.3125
X7.0812Y-3.5625
X7.1063Y-2.8125
X7.2Y-5.8125
X7.2687Y-4.3125
X7.2938Y-5.0625
X7.4562Y-2.8125
X7.4813Y-3.5625
X7.6437Y-5.0625
X7.6688Y-4.3125
X7.8312Y-3.5625
X7.8563Y-2.8125
X8.0187Y-4.3125
X8.0187Y-5.8125
X8.0437Y-5.0625
X8.2062Y-2.8125
X8.2312Y-3.5625
X8.3937Y-5.0625
X8.4187Y-4.3125
X8.4187Y-5.8125
X8.6062Y-2.8125
X8.7937Y-5.0625
T2
X1.3187Y-3.4625
X1.3187Y-4.2125
X1.3187Y-4.9625
X1.3187Y-5.7125
X1.5687Y-3.3625
X1.5687Y-4.1125
X1.5687Y-4.8625
X1.5687Y-5.6125
X2.0688Y-2.525
X2.0688Y-3.4625
X2.0688Y-4.2125
X2.0688Y-4.9625
X2.0688Y-5.7125
X2.3188Y-2.425
X2.3188Y-3.3625
X2.3188Y-4.1125
X2.3188Y-4.8625
X2.3188Y-5.6125
X2.8188Y-2.525
X2.8188Y-3.4625
X2.8188Y-4.2125
X2.8188Y-4.9625
X2.8188Y-5.7125
X3.0688Y-2.425
X3.0688Y-3.3625
X3.0688Y-4.1125
X3.0688Y-4.8625
X3.0688Y-5.6125
X3.7563Y-2.7125
X3.85Y-4.2125
X3.9438Y-3.4625
X3.9438Y-5.7125
X4.0062Y-2.6125
X4.0875Y-4.5125
X4.1Y-4.1125
X4.1937Y-3.3625
X4.1937Y-5.6125
X4.225Y-4.9625
X4.3375Y-4.4125
X4.475Y-4.8625
X4.5062Y-2.7125
X4.7562Y-2.6125
X4.8812Y-3.4625
X4.975Y-5.7125
X5.0687Y-4.2125
X5.1312Y-3.3625
X5.225Y-5.6125
X5.2562Y-2.7125
X5.3187Y-4.1125
X5.4437Y-4.9625
X5.5062Y-2.6125
X5.6312Y-3.4625
X5.6937Y-4.8625
X5.8187Y-4.2125
X5.8812Y-3.3625
X5.9125Y-5.7125
X6.0062Y-2.7125
X6.0687Y-4.1125
X6.1625Y-5.6125
X6.1937Y-4.9625
X6.2562Y-2.6125
X6.3812Y-3.4625
X6.4437Y-4.8625
X6.5687Y-4.2125
X6.6312Y-3.3625
X6.7562Y-2.7125
X6.8187Y-4.1125
X6.85Y-5.7125
X6.9437Y-4.9625
X7.0062Y-2.6125
X7.1Y-5.6125
X7.1312Y-3.4625
X7.1937Y-4.8625
X7.3187Y-4.2125
X7.3812Y-3.3625
X7.5062Y-2.7125
X7.5687Y-4.1125
X7.6937Y-4.9625
X7.7562Y-2.6125
X7.8812Y-3.4625
X7.9437Y-4.8625
X8.0687Y-4.2125
X8.0687Y-5.7125
X8.1312Y-3.3625
X8.2562Y-2.7125
X8.3187Y-4.1125
X8.3187Y-5.6125
X8.4437Y-4.9625
X8.5062Y-2.6125
X8.6937Y-4.8625
T3
X3.905Y-4.7875
X4.845Y-4.7875
X7.7488Y-6.0875
X8.6888Y-6.0875
T4
X1.4688Y-3.5625
X1.4688Y-4.3125
X1.4688Y-5.0625
X1.4688Y-5.8125
X2.2188Y-2.625
X2.2188Y-3.5625
X2.2188Y-4.3125
X2.2188Y-5.0625
X2.2188Y-5.8125
X2.9688Y-2.625
X2.9688Y-3.5625
X2.9688Y-4.3125
X2.9688Y-5.0625
X2.9688Y-5.8125
X3.905Y-5.3875
X3.9062Y-2.8125
X4.0Y-4.3125
X4.0938Y-3.5625
X4.0938Y-5.8125
X4.1875Y-4.3125
X4.375Y-5.0625
X4.6562Y-2.8125
X4.845Y-5.3875
X5.0312Y-3.5625
X5.125Y-5.8125
X5.2188Y-4.3125
X5.4062Y-2.8125
X5.5938Y-5.0625
X5.7812Y-3.5625
X5.9688Y-4.3125
X6.0625Y-5.8125
X6.1562Y-2.8125
X6.3438Y-5.0625
X6.5312Y-3.5625
X6.7188Y-4.3125
X6.9062Y-2.8125
X7.0Y-5.8125
X7.0938Y-5.0625
X7.2812Y-3.5625
X7.4688Y-4.3125
X7.6562Y-2.8125
X7.7488Y-5.4875
X7.8438Y-5.0625
X8.0312Y-3.5625
X8.2188Y-4.3125
X8.2188Y-5.8125
X8.4062Y-2.8125
X8.5938Y-5.0625
X8.6888Y-5.4875
T0
M30
