M48
; DRILL file {KiCad (6.0.5)} date Fri Jul 29 20:42:53 2022
; FORMAT={-:-/ absolute / inch / decimal}
; #@! TF.CreationDate,2022-07-29T20:42:53-06:00
; #@! TF.GenerationSoftware,Kicad,Pcbnew,(6.0.5)
; #@! TF.FileFunction,Plated,1,2,PTH
FMAT,2
INCH
; #@! TA.AperFunction,Plated,PTH,ViaDrill
T1C0.0157
; #@! TA.AperFunction,Plated,PTH,ComponentDrill
T2C0.0315
; #@! TA.AperFunction,Plated,PTH,ComponentDrill
T3C0.0394
; #@! TA.AperFunction,Plated,PTH,ComponentDrill
T4C0.0402
; #@! TA.AperFunction,Plated,PTH,ComponentDrill
T5C0.0512
; #@! TA.AperFunction,Plated,PTH,ComponentDrill
T6C0.0591
; #@! TA.AperFunction,Plated,PTH,ComponentDrill
T7C0.0748
%
G90
G05
T1
X0.9938Y-2.1875
X0.9938Y-2.3875
X0.9938Y-3.9875
X0.9938Y-4.1875
X0.9938Y-4.3875
X0.9938Y-4.5875
X0.9938Y-4.7875
X0.9938Y-4.9875
X0.9938Y-5.1875
X0.9938Y-5.3875
X0.9938Y-5.5875
X0.9938Y-5.7875
X0.9938Y-5.9875
X1.0775Y-3.1725
X1.178Y-3.82
X1.1937Y-5.9875
X1.2937Y-4.5875
X1.2937Y-4.7875
X1.2937Y-5.1875
X1.2937Y-5.3875
X1.2937Y-5.5875
X1.4475Y-3.2136
X1.4937Y-4.1875
X1.4937Y-4.7875
X1.4937Y-5.3875
X1.565Y-5.935
X1.664Y-2.8127
X1.6937Y-4.3875
X1.6937Y-4.9875
X1.6937Y-5.3875
X1.7256Y-2.8106
X1.73Y-2.7239
X1.8187Y-2.7175
X1.82Y-4.56
X1.83Y-6.056
X1.856Y-5.25
X1.862Y-3.75
X1.8715Y-2.6198
X1.8938Y-2.3875
X1.9062Y-3.375
X1.9062Y-4.125
X1.9062Y-4.875
X1.9062Y-5.625
X1.94Y-2.8025
X2.0125Y-2.8138
X2.045Y-6.0
X2.0938Y-2.3875
X2.0938Y-3.5875
X2.0938Y-4.3875
X2.0938Y-4.7875
X2.0938Y-5.3875
X2.0938Y-5.5875
X2.1138Y-2.7625
X2.1448Y-2.1186
X2.2937Y-5.3875
X2.3487Y-2.7225
X2.4937Y-3.5875
X2.4937Y-4.3875
X2.4937Y-4.9875
X2.4937Y-5.3875
X2.4937Y-5.7875
X2.562Y-2.876
X2.574Y-6.058
X2.58Y-4.556
X2.608Y-3.75
X2.608Y-5.252
X2.6562Y-3.375
X2.6562Y-4.125
X2.6562Y-4.875
X2.6562Y-5.625
X2.6938Y-4.3875
X2.6975Y-2.6925
X2.8Y-5.995
X2.8036Y-2.828
X2.825Y-1.955
X2.8937Y-2.3875
X2.8937Y-3.3875
X2.8937Y-4.7875
X2.8937Y-5.3875
X2.8937Y-5.5875
X3.0938Y-2.5875
X3.0938Y-3.5875
X3.0938Y-4.3875
X3.0938Y-4.9875
X3.0938Y-5.3875
X3.1387Y-2.2225
X3.172Y-2.158
X3.1786Y-2.2845
X3.2937Y-3.5875
X3.2937Y-4.3875
X3.2937Y-4.9875
X3.2937Y-5.3875
X3.2937Y-5.7875
X3.297Y-2.4175
X3.304Y-2.926
X3.318Y-6.058
X3.3256Y-2.4575
X3.3542Y-2.5025
X3.3828Y-2.5475
X3.4114Y-2.5875
X3.4213Y-3.2589
X3.4217Y-4.0
X3.4238Y-3.1975
X3.4402Y-2.7152
X3.45Y-4.715
X3.4698Y-2.6452
X3.4788Y-3.1699
X3.48Y-5.5
X3.4937Y-2.7875
X3.4983Y-2.5727
X3.525Y-3.11
X3.5254Y-4.6346
X3.5261Y-3.7061
X3.5264Y-6.1064
X3.5268Y-5.2068
X3.5938Y-2.8125
X3.595Y-3.15
X3.61Y-4.554
X3.6875Y-4.125
X3.6938Y-3.1875
X3.6938Y-3.3875
X3.6938Y-3.5875
X3.6938Y-4.7875
X3.6938Y-4.9875
X3.6938Y-5.3875
X3.6938Y-5.5875
X3.6938Y-5.7875
X3.73Y-3.0
X3.736Y-3.75
X3.7812Y-3.375
X3.7812Y-5.625
X3.8937Y-3.1875
X3.8937Y-4.9875
X3.8937Y-5.5875
X3.92Y-6.0
X4.0625Y-4.875
X4.0938Y-3.1875
X4.0938Y-3.3875
X4.0938Y-4.7875
X4.0938Y-5.3875
X4.0938Y-5.5875
X4.2425Y-2.7025
X4.28Y-3.756
X4.2938Y-3.1875
X4.2938Y-4.5875
X4.2938Y-4.7875
X4.2938Y-5.3875
X4.3438Y-2.8125
X4.446Y-6.058
X4.475Y-3.055
X4.4937Y-2.5875
X4.4937Y-3.5875
X4.4937Y-4.1875
X4.4937Y-4.5875
X4.4937Y-5.3875
X4.4937Y-5.7875
X4.5Y-4.5
X4.6937Y-3.1875
X4.6937Y-4.1875
X4.6937Y-4.3875
X4.6937Y-4.5875
X4.6937Y-4.9875
X4.6937Y-5.3875
X4.6937Y-5.5875
X4.6937Y-5.7875
X4.7188Y-3.375
X4.8125Y-5.625
X4.8937Y-3.1875
X4.8937Y-4.5875
X4.8937Y-4.9875
X4.9062Y-4.125
X4.948Y-6.002
X4.983Y-2.9575
X5.0137Y-3.2475
X5.0938Y-2.625
X5.0938Y-3.1875
X5.0938Y-4.3875
X5.0938Y-4.7875
X5.0938Y-4.9875
X5.0938Y-5.5875
X5.22Y-3.05
X5.2812Y-4.875
X5.2938Y-1.9875
X5.2938Y-2.1875
X5.2938Y-2.5875
X5.2938Y-4.7875
X5.2938Y-5.3875
X5.344Y-3.758
X5.4037Y-3.9975
X5.458Y-6.062
X5.4688Y-3.375
X5.4937Y-1.9875
X5.4937Y-3.1875
X5.4937Y-4.3875
X5.4937Y-4.7875
X5.4937Y-5.3875
X5.4937Y-5.7875
X5.5625Y-5.4375
X5.572Y-4.56
X5.6087Y-4.7125
X5.6562Y-4.125
X5.6937Y-2.1875
X5.6937Y-2.7875
X5.6937Y-3.1875
X5.6937Y-3.3875
X5.6937Y-3.9875
X5.6937Y-4.3875
X5.6937Y-5.5875
X5.6937Y-5.7875
X5.7188Y-2.5312
X5.75Y-5.625
X5.8438Y-2.625
X5.89Y-5.996
X5.8937Y-2.5875
X5.8937Y-3.9875
X5.8937Y-5.3875
X5.8937Y-5.5875
X5.9688Y-3.25
X5.974Y-3.052
X5.984Y-5.254
X6.0312Y-4.875
X6.0938Y-2.5875
X6.0938Y-3.1875
X6.0938Y-3.5875
X6.0938Y-3.9875
X6.0938Y-4.3875
X6.0938Y-4.7875
X6.0938Y-5.3875
X6.112Y-3.76
X6.1562Y-4.0
X6.2188Y-3.375
X6.2938Y-3.1875
X6.2938Y-4.3875
X6.2938Y-4.7875
X6.2938Y-5.3875
X6.322Y-4.56
X6.3438Y-5.5
X6.4062Y-4.125
X6.418Y-6.06
X6.4688Y-2.5312
X6.4937Y-2.1875
X6.4937Y-3.1875
X6.4937Y-3.3875
X6.4937Y-3.9875
X6.4937Y-4.3875
X6.4937Y-5.5875
X6.4937Y-5.7875
X6.5312Y-4.75
X6.5938Y-2.625
X6.6875Y-5.625
X6.6937Y-2.5875
X6.6937Y-3.9875
X6.6937Y-4.1875
X6.6937Y-5.3875
X6.7188Y-3.25
X6.724Y-3.052
X6.738Y-5.252
X6.7812Y-4.875
X6.795Y-2.94
X6.822Y-5.998
X6.852Y-3.756
X6.8937Y-2.5875
X6.8937Y-3.1875
X6.8937Y-4.3875
X6.8937Y-4.7875
X6.8937Y-5.3875
X6.8937Y-5.5875
X6.9062Y-4.0
X6.9688Y-3.375
X7.068Y-4.558
X7.0938Y-3.1875
X7.0938Y-3.9875
X7.0938Y-4.7875
X7.0938Y-5.3875
X7.1562Y-4.125
X7.2188Y-2.5312
X7.2812Y-4.75
X7.2812Y-5.5
X7.2938Y-2.1875
X7.2938Y-2.3875
X7.2938Y-3.1875
X7.2938Y-3.9875
X7.2938Y-4.3875
X7.2938Y-5.3875
X7.2938Y-5.7875
X7.348Y-6.062
X7.4688Y-3.25
X7.478Y-3.05
X7.482Y-5.254
X7.4937Y-2.5875
X7.4937Y-3.9875
X7.4937Y-4.1875
X7.4937Y-5.5875
X7.4937Y-5.7875
X7.5312Y-4.875
X7.612Y-3.762
X7.6562Y-4.0
X7.6937Y-2.3875
X7.6937Y-3.1875
X7.6937Y-4.7875
X7.6937Y-5.7875
X7.725Y-3.375
X7.8058Y-2.9058
X7.8375Y-4.3125
X7.8937Y-3.1875
X7.8937Y-3.9875
X7.8937Y-5.3875
X7.9062Y-4.125
X7.9062Y-5.625
X7.95Y-2.725
X7.99Y-3.0
X8.0312Y-4.75
X8.036Y-4.548
X8.044Y-6.002
X8.0938Y-3.1875
X8.0938Y-3.9875
X8.0938Y-4.3875
X8.0938Y-5.3875
X8.0938Y-5.5875
X8.1Y-4.452
X8.178Y-4.658
X8.2188Y-3.25
X8.24Y-5.25
X8.2775Y-3.9975
X8.2812Y-4.875
X8.2937Y-2.5875
X8.2937Y-4.7875
X8.2937Y-5.3875
X8.4062Y-5.5
X8.4938Y-2.3875
X8.4938Y-5.3875
X8.4938Y-5.7875
X8.4938Y-5.9875
X8.5Y-4.75
X8.6937Y-5.7875
X8.6937Y-5.9875
T2
X4.3861Y-2.1977
X4.5661Y-2.1977
X4.6689Y-1.9148
X4.8489Y-1.9148
T3
X0.986Y-2.5266
X0.986Y-2.625
X0.986Y-2.7234
X1.0312Y-3.3125
X1.0312Y-3.4125
X1.0312Y-3.5125
X1.0312Y-3.6125
X1.0312Y-3.7125
X1.0312Y-3.8125
X1.4583Y-2.5266
X1.4583Y-2.625
X1.4583Y-2.7234
X1.5568Y-2.5266
X1.5568Y-2.7234
X4.9805Y-1.8816
X4.9805Y-1.9816
X4.9805Y-2.0816
X4.9805Y-2.1816
X5.0805Y-1.8816
X5.0805Y-1.9816
X5.0805Y-2.0816
X5.0805Y-2.1816
X5.875Y-1.8777
X5.875Y-2.1848
X6.0Y-1.909
X6.0Y-2.216
X6.125Y-1.9402
X6.125Y-2.2473
X6.25Y-1.9715
X6.25Y-2.2785
X6.375Y-2.0027
X6.375Y-2.3098
X6.625Y-1.8777
X6.625Y-2.1848
X6.75Y-1.909
X6.75Y-2.216
X6.875Y-1.9402
X6.875Y-2.2473
X7.0Y-1.9715
X7.0Y-2.2785
X7.125Y-2.0027
X7.125Y-2.3098
X7.375Y-1.8777
X7.375Y-2.1848
X7.5Y-1.909
X7.5Y-2.216
X7.625Y-1.9402
X7.625Y-2.2473
X7.75Y-1.9715
X7.75Y-2.2785
X7.875Y-2.0027
X7.875Y-2.3098
X8.125Y-1.8777
X8.125Y-2.1848
X8.25Y-1.909
X8.25Y-2.216
X8.375Y-1.9402
X8.375Y-2.2473
X8.5Y-1.9715
X8.5Y-2.2785
X8.625Y-2.0027
X8.625Y-2.3098
T4
X1.175Y-2.175
X1.175Y-2.275
X1.175Y-2.975
X1.175Y-3.075
X1.275Y-2.175
X1.275Y-2.275
X1.275Y-2.975
X1.275Y-3.075
X1.375Y-2.175
X1.375Y-2.275
X1.375Y-2.975
X1.375Y-3.075
X1.475Y-2.175
X1.475Y-2.275
X1.475Y-2.975
X1.475Y-3.075
X1.575Y-2.175
X1.575Y-2.275
X1.575Y-2.975
X1.575Y-3.075
X1.675Y-2.175
X1.675Y-2.275
X1.675Y-2.975
X1.675Y-3.075
X1.775Y-2.175
X1.775Y-2.275
X1.775Y-2.975
X1.775Y-3.075
X1.875Y-2.175
X1.875Y-2.275
X1.875Y-2.975
X1.875Y-3.075
X1.975Y-2.175
X1.975Y-2.275
X1.975Y-2.975
X1.975Y-3.075
X2.075Y-2.175
X2.075Y-2.275
X2.075Y-2.975
X2.075Y-3.075
X2.175Y-2.175
X2.175Y-2.275
X2.175Y-2.975
X2.175Y-3.075
X2.275Y-2.175
X2.275Y-2.275
X2.275Y-2.975
X2.275Y-3.075
X2.375Y-2.175
X2.375Y-2.275
X2.375Y-2.975
X2.375Y-3.075
X2.475Y-2.175
X2.475Y-2.275
X2.475Y-2.975
X2.475Y-3.075
X2.575Y-2.175
X2.575Y-2.275
X2.575Y-2.975
X2.575Y-3.075
X2.675Y-2.175
X2.675Y-2.275
X2.675Y-2.975
X2.675Y-3.075
X2.775Y-2.175
X2.775Y-2.275
X2.775Y-2.975
X2.775Y-3.075
X2.875Y-2.175
X2.875Y-2.275
X2.875Y-2.975
X2.875Y-3.075
X2.975Y-2.175
X2.975Y-2.275
X2.975Y-2.975
X2.975Y-3.075
X3.075Y-2.175
X3.075Y-2.275
X3.075Y-2.975
X3.075Y-3.075
T5
X3.207Y-2.0456
X3.3267Y-1.8925
X3.6107Y-2.4493
X3.7638Y-2.3295
T6
G00X1.2557Y-2.4045
M15
G01X1.3068Y-2.4045
M16
G05
G00X1.2557Y-2.8455
M15
G01X1.3068Y-2.8455
M16
G05
T7
G00X1.5252Y-2.3967
M15
G01X1.4652Y-2.3967
M16
G05
G00X1.5252Y-2.8533
M15
G01X1.4652Y-2.8533
M16
G05
T0
M30
