%TF.GenerationSoftware,KiCad,Pcbnew,(6.0.5)*%
%TF.CreationDate,2022-07-29T16:13:47-06:00*%
%TF.ProjectId,kb,6b622e6b-6963-4616-945f-706362585858,rev?*%
%TF.SameCoordinates,Original*%
%TF.FileFunction,Paste,Bot*%
%TF.FilePolarity,Positive*%
%FSLAX46Y46*%
G04 Gerber Fmt 4.6, Leading zero omitted, Abs format (unit mm)*
G04 Created by KiCad (PCBNEW (6.0.5)) date 2022-07-29 16:13:47*
%MOMM*%
%LPD*%
G01*
G04 APERTURE LIST*
G04 Aperture macros list*
%AMRoundRect*
0 Rectangle with rounded corners*
0 $1 Rounding radius*
0 $2 $3 $4 $5 $6 $7 $8 $9 X,Y pos of 4 corners*
0 Add a 4 corners polygon primitive as box body*
4,1,4,$2,$3,$4,$5,$6,$7,$8,$9,$2,$3,0*
0 Add four circle primitives for the rounded corners*
1,1,$1+$1,$2,$3*
1,1,$1+$1,$4,$5*
1,1,$1+$1,$6,$7*
1,1,$1+$1,$8,$9*
0 Add four rect primitives between the rounded corners*
20,1,$1+$1,$2,$3,$4,$5,0*
20,1,$1+$1,$4,$5,$6,$7,0*
20,1,$1+$1,$6,$7,$8,$9,0*
20,1,$1+$1,$8,$9,$2,$3,0*%
%AMRotRect*
0 Rectangle, with rotation*
0 The origin of the aperture is its center*
0 $1 length*
0 $2 width*
0 $3 Rotation angle, in degrees counterclockwise*
0 Add horizontal line*
21,1,$1,$2,0,0,$3*%
G04 Aperture macros list end*
%ADD10RoundRect,0.250000X0.350000X0.450000X-0.350000X0.450000X-0.350000X-0.450000X0.350000X-0.450000X0*%
%ADD11R,2.550000X2.500000*%
%ADD12R,1.200000X1.600000*%
%ADD13RoundRect,0.250000X-0.350000X-0.450000X0.350000X-0.450000X0.350000X0.450000X-0.350000X0.450000X0*%
%ADD14RoundRect,0.250000X-0.337500X-0.475000X0.337500X-0.475000X0.337500X0.475000X-0.337500X0.475000X0*%
%ADD15R,1.200000X0.900000*%
%ADD16RoundRect,0.250000X0.337500X0.475000X-0.337500X0.475000X-0.337500X-0.475000X0.337500X-0.475000X0*%
%ADD17R,1.400000X0.820000*%
%ADD18RoundRect,0.205000X-0.495000X-0.205000X0.495000X-0.205000X0.495000X0.205000X-0.495000X0.205000X0*%
%ADD19RoundRect,0.205000X0.495000X0.205000X-0.495000X0.205000X-0.495000X-0.205000X0.495000X-0.205000X0*%
%ADD20RoundRect,0.250000X-0.475000X0.337500X-0.475000X-0.337500X0.475000X-0.337500X0.475000X0.337500X0*%
%ADD21RoundRect,0.250000X0.450000X-0.350000X0.450000X0.350000X-0.450000X0.350000X-0.450000X-0.350000X0*%
%ADD22R,0.820000X1.400000*%
%ADD23RoundRect,0.205000X0.205000X-0.495000X0.205000X0.495000X-0.205000X0.495000X-0.205000X-0.495000X0*%
%ADD24RotRect,1.900000X0.300000X225.000000*%
%ADD25RoundRect,0.250000X0.475000X-0.337500X0.475000X0.337500X-0.475000X0.337500X-0.475000X-0.337500X0*%
%ADD26R,0.900000X1.200000*%
%ADD27RoundRect,0.020000X-0.575000X-0.180000X0.575000X-0.180000X0.575000X0.180000X-0.575000X0.180000X0*%
%ADD28RoundRect,0.250000X-0.450000X0.350000X-0.450000X-0.350000X0.450000X-0.350000X0.450000X0.350000X0*%
G04 APERTURE END LIST*
D10*
%TO.C,R11*%
X49736250Y-69659500D03*
X47736250Y-69659500D03*
%TD*%
D11*
%TO.C,MX22*%
X125471250Y-106997500D03*
X138398250Y-104457500D03*
%TD*%
D12*
%TO.C,D26*%
X212725000Y-51781250D03*
X212725000Y-54581250D03*
%TD*%
D11*
%TO.C,MX14*%
X139758750Y-87947500D03*
X152685750Y-85407500D03*
%TD*%
%TO.C,MX2*%
X68321250Y-64135000D03*
X81248250Y-61595000D03*
%TD*%
%TO.C,MX24*%
X163571250Y-106997500D03*
X176498250Y-104457500D03*
%TD*%
%TO.C,MX34*%
X192146250Y-126047500D03*
X205073250Y-123507500D03*
%TD*%
%TO.C,MX15*%
X158808750Y-87947500D03*
X171735750Y-85407500D03*
%TD*%
D12*
%TO.C,D25*%
X193675000Y-51781250D03*
X193675000Y-54581250D03*
%TD*%
D11*
%TO.C,MX43*%
X201671250Y-145097500D03*
X214598250Y-142557500D03*
%TD*%
%TO.C,MX18*%
X30221250Y-106997500D03*
X43148250Y-104457500D03*
%TD*%
D12*
%TO.C,D8*%
X206375000Y-50193750D03*
X206375000Y-52993750D03*
%TD*%
D11*
%TO.C,MX7*%
X168333750Y-68897500D03*
X181260750Y-66357500D03*
%TD*%
D12*
%TO.C,D5*%
X149225000Y-50193750D03*
X149225000Y-52993750D03*
%TD*%
D11*
%TO.C,MX26*%
X201671250Y-106997500D03*
X214598250Y-104457500D03*
%TD*%
D12*
%TO.C,D32*%
X158750000Y-52575000D03*
X158750000Y-55375000D03*
%TD*%
D11*
%TO.C,MX10*%
X49271250Y-87947500D03*
X62198250Y-85407500D03*
%TD*%
%TO.C,MX11*%
X68321250Y-87947500D03*
X81248250Y-85407500D03*
%TD*%
%TO.C,MX27*%
X30221250Y-126047500D03*
X43148250Y-123507500D03*
%TD*%
D12*
%TO.C,D35*%
X215900000Y-52575000D03*
X215900000Y-55375000D03*
%TD*%
%TO.C,D44*%
X219075000Y-53368750D03*
X219075000Y-56168750D03*
%TD*%
D11*
%TO.C,MX25*%
X182621250Y-106997500D03*
X195548250Y-104457500D03*
%TD*%
%TO.C,MX21*%
X113447500Y-112077500D03*
X100520500Y-114617500D03*
%TD*%
%TO.C,MX37*%
X49271250Y-145097500D03*
X62198250Y-142557500D03*
%TD*%
D12*
%TO.C,D41*%
X161925000Y-53368750D03*
X161925000Y-56168750D03*
%TD*%
D11*
%TO.C,MX13*%
X120708750Y-87947500D03*
X133635750Y-85407500D03*
%TD*%
%TO.C,MX35*%
X211196250Y-126047500D03*
X224123250Y-123507500D03*
%TD*%
%TO.C,MX28*%
X49271250Y-126047500D03*
X62198250Y-123507500D03*
%TD*%
D12*
%TO.C,D42*%
X180975000Y-53368750D03*
X180975000Y-56168750D03*
%TD*%
%TO.C,D33*%
X177800000Y-52575000D03*
X177800000Y-55375000D03*
%TD*%
D11*
%TO.C,MX21_1*%
X94515000Y-106997500D03*
X107442000Y-104457500D03*
%TD*%
D12*
%TO.C,D14*%
X152400000Y-50987500D03*
X152400000Y-53787500D03*
%TD*%
D11*
%TO.C,MX3*%
X92133750Y-68897500D03*
X105060750Y-66357500D03*
%TD*%
D12*
%TO.C,D7*%
X187325000Y-50193750D03*
X187325000Y-52993750D03*
%TD*%
D11*
%TO.C,MX9*%
X30221250Y-87947500D03*
X43148250Y-85407500D03*
%TD*%
%TO.C,MX1*%
X49271250Y-64135000D03*
X62198250Y-61595000D03*
%TD*%
%TO.C,MX32*%
X154046250Y-126047500D03*
X166973250Y-123507500D03*
%TD*%
D12*
%TO.C,D17*%
X209550000Y-50987500D03*
X209550000Y-53787500D03*
%TD*%
%TO.C,D6*%
X168275000Y-50193750D03*
X168275000Y-52993750D03*
%TD*%
%TO.C,D23*%
X155575000Y-51781250D03*
X155575000Y-54581250D03*
%TD*%
D11*
%TO.C,MX40*%
X123090000Y-145097500D03*
X136017000Y-142557500D03*
%TD*%
%TO.C,MX5*%
X130233750Y-68897500D03*
X143160750Y-66357500D03*
%TD*%
%TO.C,MX39*%
X96896250Y-145097500D03*
X109823250Y-142557500D03*
%TD*%
%TO.C,MX16*%
X177858750Y-87947500D03*
X190785750Y-85407500D03*
%TD*%
%TO.C,MX38*%
X68321250Y-145097500D03*
X81248250Y-142557500D03*
%TD*%
D12*
%TO.C,D16*%
X190500000Y-50987500D03*
X190500000Y-53787500D03*
%TD*%
D11*
%TO.C,MX31*%
X134996250Y-126047500D03*
X147923250Y-123507500D03*
%TD*%
%TO.C,MX8*%
X187383750Y-68897500D03*
X200310750Y-66357500D03*
%TD*%
%TO.C,MX41*%
X146902500Y-145097500D03*
X159829500Y-142557500D03*
%TD*%
%TO.C,MX20*%
X68321250Y-106997500D03*
X81248250Y-104457500D03*
%TD*%
%TO.C,MX17*%
X196908750Y-87947500D03*
X209835750Y-85407500D03*
%TD*%
%TO.C,MX4*%
X111183750Y-68897500D03*
X124110750Y-66357500D03*
%TD*%
D12*
%TO.C,D24*%
X174625000Y-51781250D03*
X174625000Y-54581250D03*
%TD*%
D11*
%TO.C,MX42*%
X170715000Y-145097500D03*
X183642000Y-142557500D03*
%TD*%
%TO.C,MX23*%
X144521250Y-106997500D03*
X157448250Y-104457500D03*
%TD*%
%TO.C,MX33*%
X173096250Y-126047500D03*
X186023250Y-123507500D03*
%TD*%
%TO.C,MX36*%
X30221250Y-145097500D03*
X43148250Y-142557500D03*
%TD*%
D12*
%TO.C,D34*%
X196850000Y-52575000D03*
X196850000Y-55375000D03*
%TD*%
D11*
%TO.C,MX12*%
X96896250Y-87947500D03*
X109823250Y-85407500D03*
%TD*%
D12*
%TO.C,D43*%
X200025000Y-53368750D03*
X200025000Y-56168750D03*
%TD*%
D11*
%TO.C,MX30*%
X104040000Y-126047500D03*
X116967000Y-123507500D03*
%TD*%
%TO.C,MX29*%
X68321250Y-126047500D03*
X81248250Y-123507500D03*
%TD*%
D12*
%TO.C,D15*%
X171450000Y-50987500D03*
X171450000Y-53787500D03*
%TD*%
D11*
%TO.C,MX19*%
X49271250Y-106997500D03*
X62198250Y-104457500D03*
%TD*%
%TO.C,MX6*%
X149283750Y-68897500D03*
X162210750Y-66357500D03*
%TD*%
%TO.C,MX44*%
X206433750Y-68897500D03*
X219360750Y-66357500D03*
%TD*%
D13*
%TO.C,R7*%
X54499000Y-51943000D03*
X56499000Y-51943000D03*
%TD*%
D14*
%TO.C,C3*%
X104531250Y-77787500D03*
X106606250Y-77787500D03*
%TD*%
D15*
%TO.C,D12*%
X113506250Y-82487500D03*
X113506250Y-85787500D03*
%TD*%
%TO.C,D38*%
X84137500Y-139637500D03*
X84137500Y-142937500D03*
%TD*%
%TO.C,D39*%
X114300000Y-139637500D03*
X114300000Y-142937500D03*
%TD*%
%TO.C,D36*%
X46037500Y-139637500D03*
X46037500Y-142937500D03*
%TD*%
D16*
%TO.C,C26*%
X211381250Y-118268750D03*
X209306250Y-118268750D03*
%TD*%
D17*
%TO.C,D110*%
X53656250Y-95293750D03*
X53656250Y-96793750D03*
D18*
X59056250Y-96793750D03*
D17*
X59056250Y-95293750D03*
%TD*%
D14*
%TO.C,C46*%
X49762500Y-72898000D03*
X51837500Y-72898000D03*
%TD*%
%TO.C,C8*%
X199781250Y-77787500D03*
X201856250Y-77787500D03*
%TD*%
D17*
%TO.C,D138*%
X78106250Y-153943750D03*
X78106250Y-152443750D03*
D19*
X72706250Y-152443750D03*
D17*
X72706250Y-153943750D03*
%TD*%
%TO.C,D101*%
X59056250Y-72981250D03*
X59056250Y-71481250D03*
D19*
X53656250Y-71481250D03*
D17*
X53656250Y-72981250D03*
%TD*%
D15*
%TO.C,D40*%
X139700000Y-139637500D03*
X139700000Y-142937500D03*
%TD*%
%TO.C,D22*%
X141287500Y-101537500D03*
X141287500Y-104837500D03*
%TD*%
%TO.C,D29*%
X84137500Y-120587500D03*
X84137500Y-123887500D03*
%TD*%
D16*
%TO.C,C34*%
X193918750Y-133350000D03*
X191843750Y-133350000D03*
%TD*%
D17*
%TO.C,D130*%
X108425000Y-133393750D03*
X108425000Y-134893750D03*
D18*
X113825000Y-134893750D03*
D17*
X113825000Y-133393750D03*
%TD*%
D16*
%TO.C,C27*%
X31993750Y-133350000D03*
X29918750Y-133350000D03*
%TD*%
D17*
%TO.C,D117*%
X201293750Y-95293750D03*
X201293750Y-96793750D03*
D18*
X206693750Y-96793750D03*
D17*
X206693750Y-95293750D03*
%TD*%
%TO.C,D144*%
X210818750Y-76243750D03*
X210818750Y-77743750D03*
D18*
X216218750Y-77743750D03*
D17*
X216218750Y-76243750D03*
%TD*%
D16*
%TO.C,C32*%
X155818750Y-133350000D03*
X153743750Y-133350000D03*
%TD*%
D17*
%TO.C,D106*%
X159068750Y-77743750D03*
X159068750Y-76243750D03*
D19*
X153668750Y-76243750D03*
D17*
X153668750Y-77743750D03*
%TD*%
D14*
%TO.C,C40*%
X134947750Y-153987500D03*
X137022750Y-153987500D03*
%TD*%
D17*
%TO.C,D137*%
X59056250Y-153943750D03*
X59056250Y-152443750D03*
D19*
X53656250Y-152443750D03*
D17*
X53656250Y-153943750D03*
%TD*%
D14*
%TO.C,C39*%
X109293750Y-153987500D03*
X111368750Y-153987500D03*
%TD*%
D15*
%TO.C,D28*%
X65087500Y-120587500D03*
X65087500Y-123887500D03*
%TD*%
D17*
%TO.C,D128*%
X53656250Y-133393750D03*
X53656250Y-134893750D03*
D18*
X59056250Y-134893750D03*
D17*
X59056250Y-133393750D03*
%TD*%
%TO.C,D136*%
X40006250Y-153943750D03*
X40006250Y-152443750D03*
D19*
X34606250Y-152443750D03*
D17*
X34606250Y-153943750D03*
%TD*%
%TO.C,D109*%
X34606250Y-95293750D03*
X34606250Y-96793750D03*
D18*
X40006250Y-96793750D03*
D17*
X40006250Y-95293750D03*
%TD*%
%TO.C,D127*%
X34606250Y-133393750D03*
X34606250Y-134893750D03*
D18*
X40006250Y-134893750D03*
D17*
X40006250Y-133393750D03*
%TD*%
%TO.C,D119*%
X59056250Y-115843750D03*
X59056250Y-114343750D03*
D19*
X53656250Y-114343750D03*
D17*
X53656250Y-115843750D03*
%TD*%
D20*
%TO.C,C30*%
X105568750Y-132312500D03*
X105568750Y-134387500D03*
%TD*%
D16*
%TO.C,C17*%
X198681250Y-95250000D03*
X196606250Y-95250000D03*
%TD*%
D17*
%TO.C,D104*%
X120968750Y-77743750D03*
X120968750Y-76243750D03*
D19*
X115568750Y-76243750D03*
D17*
X115568750Y-77743750D03*
%TD*%
D14*
%TO.C,C19*%
X61668750Y-115887500D03*
X63743750Y-115887500D03*
%TD*%
D15*
%TO.C,D4*%
X126206250Y-73881250D03*
X126206250Y-70581250D03*
%TD*%
D21*
%TO.C,R5*%
X29908500Y-70151500D03*
X29908500Y-68151500D03*
%TD*%
D10*
%TO.C,R4*%
X43989500Y-67564000D03*
X41989500Y-67564000D03*
%TD*%
D14*
%TO.C,C2*%
X80718750Y-73025000D03*
X82793750Y-73025000D03*
%TD*%
D15*
%TO.C,D18*%
X46037500Y-101537500D03*
X46037500Y-104837500D03*
%TD*%
%TO.C,D11*%
X84137500Y-82487500D03*
X84137500Y-85787500D03*
%TD*%
D17*
%TO.C,D114*%
X144143750Y-95293750D03*
X144143750Y-96793750D03*
D18*
X149543750Y-96793750D03*
D17*
X149543750Y-95293750D03*
%TD*%
D14*
%TO.C,C43*%
X214195750Y-153987500D03*
X216270750Y-153987500D03*
%TD*%
%TO.C,C42*%
X183112500Y-153987500D03*
X185187500Y-153987500D03*
%TD*%
D15*
%TO.C,D31*%
X150812500Y-120587500D03*
X150812500Y-123887500D03*
%TD*%
D17*
%TO.C,D132*%
X158431250Y-133393750D03*
X158431250Y-134893750D03*
D18*
X163831250Y-134893750D03*
D17*
X163831250Y-133393750D03*
%TD*%
%TO.C,D108*%
X197168750Y-77743750D03*
X197168750Y-76243750D03*
D19*
X191768750Y-76243750D03*
D17*
X191768750Y-77743750D03*
%TD*%
D15*
%TO.C,D37*%
X65087500Y-139637500D03*
X65087500Y-142937500D03*
%TD*%
D22*
%TO.C,D121*%
X96604500Y-117793750D03*
X98104500Y-117793750D03*
D23*
X98104500Y-112393750D03*
D22*
X96604500Y-112393750D03*
%TD*%
D17*
%TO.C,D112*%
X101281250Y-95293750D03*
X101281250Y-96793750D03*
D18*
X106681250Y-96793750D03*
D17*
X106681250Y-95293750D03*
%TD*%
D14*
%TO.C,C1*%
X61668750Y-73025000D03*
X63743750Y-73025000D03*
%TD*%
%TO.C,C36*%
X42618750Y-153987500D03*
X44693750Y-153987500D03*
%TD*%
D17*
%TO.C,D105*%
X140018750Y-77743750D03*
X140018750Y-76243750D03*
D19*
X134618750Y-76243750D03*
D17*
X134618750Y-77743750D03*
%TD*%
%TO.C,D125*%
X192406250Y-115843750D03*
X192406250Y-114343750D03*
D19*
X187006250Y-114343750D03*
D17*
X187006250Y-115843750D03*
%TD*%
D20*
%TO.C,C31*%
X136525000Y-132312500D03*
X136525000Y-134387500D03*
%TD*%
D24*
%TO.C,J2*%
X89235875Y-61150389D03*
X88882322Y-60796836D03*
X88528769Y-60443282D03*
X88175215Y-60089729D03*
X87821662Y-59736175D03*
X87468108Y-59382622D03*
X87114555Y-59029069D03*
X86761002Y-58675515D03*
X86407448Y-58321962D03*
X86053895Y-57968408D03*
X85700342Y-57614855D03*
X85346788Y-57261302D03*
X84993235Y-56907748D03*
X84639681Y-56554195D03*
X84286128Y-56200642D03*
X83932575Y-55847088D03*
X83579021Y-55493535D03*
X83225468Y-55139981D03*
X82871914Y-54786428D03*
%TD*%
D17*
%TO.C,D139*%
X106681250Y-153943750D03*
X106681250Y-152443750D03*
D19*
X101281250Y-152443750D03*
D17*
X101281250Y-153943750D03*
%TD*%
D16*
%TO.C,C12*%
X98668750Y-95250000D03*
X96593750Y-95250000D03*
%TD*%
D14*
%TO.C,C20*%
X80718750Y-115887500D03*
X82793750Y-115887500D03*
%TD*%
D17*
%TO.C,D113*%
X125093750Y-95293750D03*
X125093750Y-96793750D03*
D18*
X130493750Y-96793750D03*
D17*
X130493750Y-95293750D03*
%TD*%
D25*
%TO.C,C21*%
X94179500Y-117718750D03*
X94179500Y-115643750D03*
%TD*%
D10*
%TO.C,R3*%
X43964100Y-62699900D03*
X41964100Y-62699900D03*
%TD*%
D14*
%TO.C,C6*%
X161681250Y-77787500D03*
X163756250Y-77787500D03*
%TD*%
D26*
%TO.C,D0*%
X45122100Y-65151000D03*
X41822100Y-65151000D03*
%TD*%
D15*
%TO.C,D30*%
X119856250Y-120587500D03*
X119856250Y-123887500D03*
%TD*%
D16*
%TO.C,C11*%
X70093750Y-95250000D03*
X68018750Y-95250000D03*
%TD*%
D17*
%TO.C,D131*%
X139381250Y-133393750D03*
X139381250Y-134893750D03*
D18*
X144781250Y-134893750D03*
D17*
X144781250Y-133393750D03*
%TD*%
%TO.C,D135*%
X215581250Y-133393750D03*
X215581250Y-134893750D03*
D18*
X220981250Y-134893750D03*
D17*
X220981250Y-133393750D03*
%TD*%
D14*
%TO.C,C22*%
X137868750Y-115887500D03*
X139943750Y-115887500D03*
%TD*%
D16*
%TO.C,C48*%
X27263000Y-75247500D03*
X25188000Y-75247500D03*
%TD*%
D17*
%TO.C,D120*%
X78106250Y-115843750D03*
X78106250Y-114343750D03*
D19*
X72706250Y-114343750D03*
D17*
X72706250Y-115843750D03*
%TD*%
%TO.C,D143*%
X211456250Y-153943750D03*
X211456250Y-152443750D03*
D19*
X206056250Y-152443750D03*
D17*
X206056250Y-153943750D03*
%TD*%
D16*
%TO.C,C16*%
X179631250Y-95250000D03*
X177556250Y-95250000D03*
%TD*%
D13*
%TO.C,R8*%
X54499000Y-49657000D03*
X56499000Y-49657000D03*
%TD*%
D15*
%TO.C,D1*%
X65087500Y-69912500D03*
X65087500Y-66612500D03*
%TD*%
D14*
%TO.C,C37*%
X61668750Y-153987500D03*
X63743750Y-153987500D03*
%TD*%
D16*
%TO.C,C9*%
X31993750Y-95250000D03*
X29918750Y-95250000D03*
%TD*%
D15*
%TO.C,D21*%
X111918750Y-101537500D03*
X111918750Y-104837500D03*
%TD*%
D14*
%TO.C,C24*%
X175968750Y-115887500D03*
X178043750Y-115887500D03*
%TD*%
D17*
%TO.C,D141*%
X156687500Y-153943750D03*
X156687500Y-152443750D03*
D19*
X151287500Y-152443750D03*
D17*
X151287500Y-153943750D03*
%TD*%
D16*
%TO.C,C35*%
X212968750Y-133350000D03*
X210893750Y-133350000D03*
%TD*%
D17*
%TO.C,D126*%
X211456250Y-115843750D03*
X211456250Y-114343750D03*
D19*
X206056250Y-114343750D03*
D17*
X206056250Y-115843750D03*
%TD*%
D15*
%TO.C,D20*%
X84137500Y-101537500D03*
X84137500Y-104837500D03*
%TD*%
D14*
%TO.C,C4*%
X123581250Y-77787500D03*
X125656250Y-77787500D03*
%TD*%
D15*
%TO.C,D9*%
X46831250Y-82487500D03*
X46831250Y-85787500D03*
%TD*%
D14*
%TO.C,C18*%
X42618750Y-115887500D03*
X44693750Y-115887500D03*
%TD*%
D16*
%TO.C,C47*%
X27263000Y-77406500D03*
X25188000Y-77406500D03*
%TD*%
D14*
%TO.C,C49*%
X64621500Y-51943000D03*
X66696500Y-51943000D03*
%TD*%
D17*
%TO.C,D134*%
X196531250Y-133393750D03*
X196531250Y-134893750D03*
D18*
X201931250Y-134893750D03*
D17*
X201931250Y-133393750D03*
%TD*%
D15*
%TO.C,D2*%
X83343750Y-69912500D03*
X83343750Y-66612500D03*
%TD*%
%TO.C,D13*%
X136525000Y-82487500D03*
X136525000Y-85787500D03*
%TD*%
D13*
%TO.C,R10*%
X58563000Y-49657000D03*
X60563000Y-49657000D03*
%TD*%
D14*
%TO.C,C41*%
X159331750Y-153987500D03*
X161406750Y-153987500D03*
%TD*%
D17*
%TO.C,D116*%
X182243750Y-95293750D03*
X182243750Y-96793750D03*
D18*
X187643750Y-96793750D03*
D17*
X187643750Y-95293750D03*
%TD*%
%TO.C,D140*%
X132875000Y-153943750D03*
X132875000Y-152443750D03*
D19*
X127475000Y-152443750D03*
D17*
X127475000Y-153943750D03*
%TD*%
D16*
%TO.C,C14*%
X141531250Y-95250000D03*
X139456250Y-95250000D03*
%TD*%
D14*
%TO.C,C5*%
X142631250Y-77787500D03*
X144706250Y-77787500D03*
%TD*%
D17*
%TO.C,D124*%
X173356250Y-115843750D03*
X173356250Y-114343750D03*
D19*
X167956250Y-114343750D03*
D17*
X167956250Y-115843750D03*
%TD*%
D16*
%TO.C,C33*%
X174868750Y-133350000D03*
X172793750Y-133350000D03*
%TD*%
D17*
%TO.C,D102*%
X78106250Y-72981250D03*
X78106250Y-71481250D03*
D19*
X72706250Y-71481250D03*
D17*
X72706250Y-72981250D03*
%TD*%
D14*
%TO.C,C50*%
X60557500Y-51943000D03*
X62632500Y-51943000D03*
%TD*%
D16*
%TO.C,C15*%
X160581250Y-95250000D03*
X158506250Y-95250000D03*
%TD*%
D17*
%TO.C,D123*%
X154306250Y-115843750D03*
X154306250Y-114343750D03*
D19*
X148906250Y-114343750D03*
D17*
X148906250Y-115843750D03*
%TD*%
D15*
%TO.C,D3*%
X107156250Y-73881250D03*
X107156250Y-70581250D03*
%TD*%
D16*
%TO.C,C13*%
X122481250Y-95250000D03*
X120406250Y-95250000D03*
%TD*%
D14*
%TO.C,C23*%
X156918750Y-115887500D03*
X158993750Y-115887500D03*
%TD*%
D17*
%TO.C,D103*%
X101918750Y-77743750D03*
X101918750Y-76243750D03*
D19*
X96518750Y-76243750D03*
D17*
X96518750Y-77743750D03*
%TD*%
D10*
%TO.C,R9*%
X64627000Y-49657000D03*
X62627000Y-49657000D03*
%TD*%
D15*
%TO.C,D19*%
X65087500Y-101537500D03*
X65087500Y-104837500D03*
%TD*%
D17*
%TO.C,D142*%
X180500000Y-153943750D03*
X180500000Y-152443750D03*
D19*
X175100000Y-152443750D03*
D17*
X175100000Y-153943750D03*
%TD*%
%TO.C,D111*%
X72706250Y-95293750D03*
X72706250Y-96793750D03*
D18*
X78106250Y-96793750D03*
D17*
X78106250Y-95293750D03*
%TD*%
D14*
%TO.C,C25*%
X195018750Y-115887500D03*
X197093750Y-115887500D03*
%TD*%
D17*
%TO.C,D118*%
X40006250Y-115843750D03*
X40006250Y-114343750D03*
D19*
X34606250Y-114343750D03*
D17*
X34606250Y-115843750D03*
%TD*%
D27*
%TO.C,U2*%
X45871250Y-72881250D03*
X45871250Y-72231250D03*
X45871250Y-71581250D03*
X47791250Y-71581250D03*
X47791250Y-72231250D03*
X47791250Y-72881250D03*
%TD*%
D16*
%TO.C,C29*%
X70093750Y-133350000D03*
X68018750Y-133350000D03*
%TD*%
D17*
%TO.C,D133*%
X177481250Y-133393750D03*
X177481250Y-134893750D03*
D18*
X182881250Y-134893750D03*
D17*
X182881250Y-133393750D03*
%TD*%
D28*
%TO.C,R6*%
X27114500Y-71199500D03*
X27114500Y-73199500D03*
%TD*%
D15*
%TO.C,D27*%
X46037500Y-120587500D03*
X46037500Y-123887500D03*
%TD*%
D17*
%TO.C,D107*%
X178118750Y-77743750D03*
X178118750Y-76243750D03*
D19*
X172718750Y-76243750D03*
D17*
X172718750Y-77743750D03*
%TD*%
%TO.C,D115*%
X163193750Y-95293750D03*
X163193750Y-96793750D03*
D18*
X168593750Y-96793750D03*
D17*
X168593750Y-95293750D03*
%TD*%
D14*
%TO.C,C7*%
X180731250Y-77787500D03*
X182806250Y-77787500D03*
%TD*%
D17*
%TO.C,D122*%
X135256250Y-115843750D03*
X135256250Y-114343750D03*
D19*
X129856250Y-114343750D03*
D17*
X129856250Y-115843750D03*
%TD*%
%TO.C,D129*%
X72706250Y-133393750D03*
X72706250Y-134893750D03*
D18*
X78106250Y-134893750D03*
D17*
X78106250Y-133393750D03*
%TD*%
D14*
%TO.C,C38*%
X80617150Y-153987500D03*
X82692150Y-153987500D03*
%TD*%
D15*
%TO.C,D10*%
X65087500Y-82487500D03*
X65087500Y-85787500D03*
%TD*%
D16*
%TO.C,C45*%
X43900000Y-73025000D03*
X41825000Y-73025000D03*
%TD*%
%TO.C,C28*%
X51043750Y-133350000D03*
X48968750Y-133350000D03*
%TD*%
%TO.C,C10*%
X51043750Y-95250000D03*
X48968750Y-95250000D03*
%TD*%
%TO.C,C44*%
X208206250Y-76200000D03*
X206131250Y-76200000D03*
%TD*%
M02*
